%
M48
M72
T01C0.02362
T02C0.03200
T03C0.04000
%
T01
X64300Y33100
X79300Y33100
X61800Y80600
X84300Y90600
X114300Y100600
X36800Y88100
X29300Y140600
X89300Y173100
X151800Y173100
X214300Y170600
X266800Y43100
X234300Y20600
X154300Y38100
T02
X166800Y93100
X196800Y105600
X236800Y105600
X231800Y155600
X231800Y165600
X251800Y165600
X271800Y155600
X126800Y93100
X69300Y140600
X59300Y140600
X59300Y180600
X69300Y180600
X69300Y195600
X59300Y195600
X86800Y195600
X96800Y195600
T03
X21800Y25600
X31800Y25600
X31800Y45600
X21800Y45600
X21800Y60600
X21800Y70600
X21800Y80600
X21800Y90600
X21800Y110600
X31800Y110600
X41800Y110600
X51800Y110600
X61800Y110600
X71800Y110600
X81800Y110600
X91800Y110600
X111800Y120600
X121800Y120600
X131800Y120600
X141800Y120600
X151800Y120600
X161800Y120600
X171800Y120600
X181800Y120600
X191800Y120600
X201800Y120600
X211800Y120600
X221800Y120600
X231800Y120600
X241800Y120600
X251800Y120600
X261800Y120600
X261800Y140600
X251800Y140600
X241800Y140600
X231800Y140600
X221800Y140600
X211800Y140600
X201800Y140600
X191800Y140600
X181800Y140600
X171800Y140600
X161800Y140600
X151800Y140600
X141800Y140600
X131800Y140600
X121800Y140600
X111800Y140600
X166800Y160600
X166800Y170600
X161800Y200600
X151800Y200600
X141800Y200600
X131800Y200600
X121800Y200600
X111800Y200600
X171800Y200600
X181800Y200600
X191800Y200600
X201800Y200600
X211800Y200600
X221800Y200600
X231800Y200600
X241800Y200600
X251800Y200600
X261800Y200600
X241800Y178100
X231800Y178100
X261800Y177100
X271800Y177100
X261800Y95600
X251800Y95600
X251800Y80600
X261800Y80600
X241800Y80600
X231800Y80600
X221800Y80600
X211800Y80600
X201800Y80600
X191800Y80600
X181800Y80600
X171800Y80600
X161800Y80600
X151800Y80600
X141800Y80600
X131800Y80600
X121800Y80600
X111800Y80600
X111800Y60600
X121800Y60600
X131800Y60600
X141800Y60600
X151800Y60600
X161800Y60600
X171800Y60600
X181800Y60600
X191800Y60600
X201800Y60600
X211800Y60600
X221800Y60600
X231800Y60600
X241800Y60600
X251800Y60600
X261800Y60600
X91800Y45600
X81800Y45600
X71800Y45600
X61800Y45600
X51800Y45600
X41800Y45600
M30
