G75*
%MOIN*%
%OFA0B0*%
%FSLAX25Y25*%
%IPPOS*%
%LPD*%
%AMOC8*
5,1,8,0,0,1.08239X$1,22.5*
%
%ADD10C,0.06000*%
%ADD11OC8,0.04800*%
%ADD12R,0.02362X0.04724*%
%ADD13C,0.01200*%
%ADD14C,0.01600*%
%ADD15C,0.03762*%
%ADD16C,0.02400*%
D10*
X0021800Y0022600D02*
X0021800Y0028600D01*
X0031800Y0028600D02*
X0031800Y0022600D01*
X0031800Y0042600D02*
X0031800Y0048600D01*
X0021800Y0048600D02*
X0021800Y0042600D01*
X0041800Y0042600D02*
X0041800Y0048600D01*
X0051800Y0048600D02*
X0051800Y0042600D01*
X0061800Y0042600D02*
X0061800Y0048600D01*
X0071800Y0048600D02*
X0071800Y0042600D01*
X0081800Y0042600D02*
X0081800Y0048600D01*
X0091800Y0048600D02*
X0091800Y0042600D01*
X0111800Y0057600D02*
X0111800Y0063600D01*
X0121800Y0063600D02*
X0121800Y0057600D01*
X0131800Y0057600D02*
X0131800Y0063600D01*
X0141800Y0063600D02*
X0141800Y0057600D01*
X0151800Y0057600D02*
X0151800Y0063600D01*
X0161800Y0063600D02*
X0161800Y0057600D01*
X0171800Y0057600D02*
X0171800Y0063600D01*
X0181800Y0063600D02*
X0181800Y0057600D01*
X0191800Y0057600D02*
X0191800Y0063600D01*
X0201800Y0063600D02*
X0201800Y0057600D01*
X0211800Y0057600D02*
X0211800Y0063600D01*
X0221800Y0063600D02*
X0221800Y0057600D01*
X0231800Y0057600D02*
X0231800Y0063600D01*
X0241800Y0063600D02*
X0241800Y0057600D01*
X0251800Y0057600D02*
X0251800Y0063600D01*
X0261800Y0063600D02*
X0261800Y0057600D01*
X0261800Y0077600D02*
X0261800Y0083600D01*
X0251800Y0083600D02*
X0251800Y0077600D01*
X0241800Y0077600D02*
X0241800Y0083600D01*
X0231800Y0083600D02*
X0231800Y0077600D01*
X0221800Y0077600D02*
X0221800Y0083600D01*
X0211800Y0083600D02*
X0211800Y0077600D01*
X0201800Y0077600D02*
X0201800Y0083600D01*
X0191800Y0083600D02*
X0191800Y0077600D01*
X0181800Y0077600D02*
X0181800Y0083600D01*
X0171800Y0083600D02*
X0171800Y0077600D01*
X0161800Y0077600D02*
X0161800Y0083600D01*
X0151800Y0083600D02*
X0151800Y0077600D01*
X0141800Y0077600D02*
X0141800Y0083600D01*
X0131800Y0083600D02*
X0131800Y0077600D01*
X0121800Y0077600D02*
X0121800Y0083600D01*
X0111800Y0083600D02*
X0111800Y0077600D01*
X0091800Y0107600D02*
X0091800Y0113600D01*
X0081800Y0113600D02*
X0081800Y0107600D01*
X0071800Y0107600D02*
X0071800Y0113600D01*
X0061800Y0113600D02*
X0061800Y0107600D01*
X0051800Y0107600D02*
X0051800Y0113600D01*
X0041800Y0113600D02*
X0041800Y0107600D01*
X0031800Y0107600D02*
X0031800Y0113600D01*
X0021800Y0113600D02*
X0021800Y0107600D01*
X0024800Y0090600D02*
X0018800Y0090600D01*
X0018800Y0080600D02*
X0024800Y0080600D01*
X0024800Y0070600D02*
X0018800Y0070600D01*
X0018800Y0060600D02*
X0024800Y0060600D01*
X0111800Y0117600D02*
X0111800Y0123600D01*
X0121800Y0123600D02*
X0121800Y0117600D01*
X0131800Y0117600D02*
X0131800Y0123600D01*
X0141800Y0123600D02*
X0141800Y0117600D01*
X0151800Y0117600D02*
X0151800Y0123600D01*
X0161800Y0123600D02*
X0161800Y0117600D01*
X0171800Y0117600D02*
X0171800Y0123600D01*
X0181800Y0123600D02*
X0181800Y0117600D01*
X0191800Y0117600D02*
X0191800Y0123600D01*
X0201800Y0123600D02*
X0201800Y0117600D01*
X0211800Y0117600D02*
X0211800Y0123600D01*
X0221800Y0123600D02*
X0221800Y0117600D01*
X0231800Y0117600D02*
X0231800Y0123600D01*
X0241800Y0123600D02*
X0241800Y0117600D01*
X0251800Y0117600D02*
X0251800Y0123600D01*
X0261800Y0123600D02*
X0261800Y0117600D01*
X0261800Y0098600D02*
X0261800Y0092600D01*
X0251800Y0092600D02*
X0251800Y0098600D01*
X0251800Y0137600D02*
X0251800Y0143600D01*
X0261800Y0143600D02*
X0261800Y0137600D01*
X0241800Y0137600D02*
X0241800Y0143600D01*
X0231800Y0143600D02*
X0231800Y0137600D01*
X0221800Y0137600D02*
X0221800Y0143600D01*
X0211800Y0143600D02*
X0211800Y0137600D01*
X0201800Y0137600D02*
X0201800Y0143600D01*
X0191800Y0143600D02*
X0191800Y0137600D01*
X0181800Y0137600D02*
X0181800Y0143600D01*
X0171800Y0143600D02*
X0171800Y0137600D01*
X0161800Y0137600D02*
X0161800Y0143600D01*
X0151800Y0143600D02*
X0151800Y0137600D01*
X0141800Y0137600D02*
X0141800Y0143600D01*
X0131800Y0143600D02*
X0131800Y0137600D01*
X0121800Y0137600D02*
X0121800Y0143600D01*
X0111800Y0143600D02*
X0111800Y0137600D01*
X0163800Y0160600D02*
X0169800Y0160600D01*
X0169800Y0170600D02*
X0163800Y0170600D01*
X0161800Y0197600D02*
X0161800Y0203600D01*
X0151800Y0203600D02*
X0151800Y0197600D01*
X0141800Y0197600D02*
X0141800Y0203600D01*
X0131800Y0203600D02*
X0131800Y0197600D01*
X0121800Y0197600D02*
X0121800Y0203600D01*
X0111800Y0203600D02*
X0111800Y0197600D01*
X0171800Y0197600D02*
X0171800Y0203600D01*
X0181800Y0203600D02*
X0181800Y0197600D01*
X0191800Y0197600D02*
X0191800Y0203600D01*
X0201800Y0203600D02*
X0201800Y0197600D01*
X0211800Y0197600D02*
X0211800Y0203600D01*
X0221800Y0203600D02*
X0221800Y0197600D01*
X0231800Y0197600D02*
X0231800Y0203600D01*
X0241800Y0203600D02*
X0241800Y0197600D01*
X0251800Y0197600D02*
X0251800Y0203600D01*
X0261800Y0203600D02*
X0261800Y0197600D01*
X0261800Y0180100D02*
X0261800Y0174100D01*
X0271800Y0174100D02*
X0271800Y0180100D01*
X0241800Y0181100D02*
X0241800Y0175100D01*
X0231800Y0175100D02*
X0231800Y0181100D01*
D11*
X0231800Y0165600D03*
X0231800Y0155600D03*
X0251800Y0165600D03*
X0271800Y0155600D03*
X0236800Y0105600D03*
X0196800Y0105600D03*
X0166800Y0093100D03*
X0126800Y0093100D03*
X0069300Y0140600D03*
X0059300Y0140600D03*
X0059300Y0180600D03*
X0069300Y0180600D03*
X0069300Y0195600D03*
X0059300Y0195600D03*
X0086800Y0195600D03*
X0096800Y0195600D03*
D12*
X0074300Y0098100D03*
X0069300Y0098100D03*
X0064300Y0098100D03*
X0059300Y0098100D03*
X0054300Y0098100D03*
X0049300Y0098100D03*
X0044300Y0098100D03*
X0039300Y0098100D03*
X0039300Y0063100D03*
X0044300Y0063100D03*
X0049300Y0063100D03*
X0054300Y0063100D03*
X0059300Y0063100D03*
X0064300Y0063100D03*
X0069300Y0063100D03*
X0074300Y0063100D03*
D13*
X0074300Y0061600D01*
X0069300Y0063100D02*
X0069300Y0058100D01*
X0081800Y0045600D01*
X0081800Y0040600D01*
X0086800Y0035600D01*
X0095800Y0035600D01*
X0098800Y0038600D01*
X0098800Y0141600D01*
X0138300Y0181100D01*
X0182300Y0181100D01*
X0201800Y0200600D01*
X0211800Y0200600D02*
X0181800Y0170600D01*
X0181800Y0158100D01*
X0186800Y0153100D01*
X0199300Y0153100D01*
X0201800Y0150600D01*
X0201800Y0140600D01*
X0201800Y0120600D01*
X0211800Y0120600D02*
X0211800Y0140600D01*
X0211800Y0150600D01*
X0209300Y0153100D01*
X0204300Y0153100D01*
X0201800Y0155600D01*
X0189300Y0155600D01*
X0184300Y0160600D01*
X0184300Y0168100D01*
X0206800Y0190600D01*
X0211800Y0190600D01*
X0221800Y0200600D01*
X0219300Y0193100D02*
X0226800Y0193100D01*
X0231800Y0198100D01*
X0231800Y0200600D01*
X0219300Y0193100D02*
X0214300Y0188100D01*
X0209300Y0188100D01*
X0189300Y0168100D01*
X0189300Y0160600D01*
X0191800Y0158100D01*
X0204300Y0158100D01*
X0206800Y0155600D01*
X0211800Y0155600D01*
X0216800Y0150600D01*
X0219300Y0150600D01*
X0221800Y0148100D01*
X0221800Y0140600D01*
X0221800Y0120600D01*
X0231800Y0120600D02*
X0231800Y0140600D01*
X0241800Y0140600D02*
X0241800Y0120600D01*
X0251800Y0120600D02*
X0251800Y0140600D01*
X0261800Y0140600D02*
X0261800Y0120600D01*
X0251800Y0095600D02*
X0246800Y0090600D01*
X0211800Y0090600D01*
X0169300Y0090600D01*
X0166800Y0093100D01*
X0161800Y0080600D02*
X0161800Y0060600D01*
X0151800Y0060600D02*
X0151800Y0080600D01*
X0141800Y0080600D02*
X0141800Y0060600D01*
X0131800Y0060600D02*
X0131800Y0080600D01*
X0121800Y0080600D02*
X0121800Y0060600D01*
X0111800Y0060600D02*
X0111800Y0080600D01*
X0104800Y0088600D02*
X0106800Y0090600D01*
X0106800Y0103100D01*
X0116800Y0113100D01*
X0129300Y0113100D01*
X0131800Y0115600D01*
X0131800Y0120600D01*
X0131800Y0140600D01*
X0121800Y0140600D02*
X0121800Y0120600D01*
X0111800Y0120600D02*
X0111800Y0140600D01*
X0091800Y0137600D02*
X0091800Y0110600D01*
X0091800Y0100600D01*
X0089300Y0098100D01*
X0074300Y0098100D01*
X0069300Y0098100D02*
X0069300Y0099100D01*
X0073300Y0103100D01*
X0078300Y0103100D01*
X0081800Y0106600D01*
X0081800Y0110600D01*
X0081800Y0130600D01*
X0136300Y0185100D01*
X0166300Y0185100D01*
X0181800Y0200600D01*
X0191800Y0200600D02*
X0174300Y0183100D01*
X0137300Y0183100D01*
X0091800Y0137600D01*
X0071800Y0123600D02*
X0071800Y0110600D01*
X0064300Y0103100D01*
X0064300Y0098100D01*
X0059300Y0098100D02*
X0059300Y0108100D01*
X0061800Y0110600D01*
X0061800Y0118100D01*
X0063300Y0119600D01*
X0064800Y0119600D01*
X0134300Y0189100D01*
X0150300Y0189100D01*
X0161800Y0200600D01*
X0151800Y0200600D02*
X0142300Y0191100D01*
X0133300Y0191100D01*
X0063800Y0121600D01*
X0057300Y0121600D01*
X0051800Y0116100D01*
X0051800Y0110600D01*
X0054300Y0108100D01*
X0054300Y0098100D01*
X0049300Y0098100D02*
X0049300Y0103100D01*
X0041800Y0110600D01*
X0041800Y0122600D01*
X0042800Y0123600D01*
X0062800Y0123600D01*
X0132300Y0193100D01*
X0134300Y0193100D01*
X0141800Y0200600D01*
X0131800Y0200600D02*
X0131800Y0195600D01*
X0061800Y0125600D01*
X0041800Y0125600D01*
X0031800Y0115600D01*
X0031800Y0110600D01*
X0031800Y0105600D01*
X0034300Y0103100D01*
X0040300Y0103100D01*
X0044300Y0099100D01*
X0044300Y0098100D01*
X0039300Y0098100D02*
X0024300Y0098100D01*
X0021800Y0100600D01*
X0021800Y0110600D01*
X0011800Y0128100D02*
X0011800Y0040600D01*
X0016800Y0035600D01*
X0039300Y0035600D01*
X0041800Y0038100D01*
X0041800Y0045600D01*
X0046800Y0050600D01*
X0046800Y0055600D01*
X0049300Y0058100D01*
X0049300Y0063100D01*
X0054300Y0063100D02*
X0054300Y0058100D01*
X0051800Y0055600D01*
X0049300Y0058100D01*
X0051800Y0055600D02*
X0051800Y0045600D01*
X0064300Y0058100D02*
X0064300Y0063100D01*
X0064300Y0058100D02*
X0071800Y0050600D01*
X0071800Y0045600D01*
X0071800Y0035600D01*
X0064300Y0033100D02*
X0056800Y0025600D01*
X0031800Y0025600D01*
X0079300Y0033100D02*
X0081800Y0033100D01*
X0086800Y0028100D01*
X0094300Y0028100D01*
X0104800Y0038600D01*
X0104800Y0088600D01*
X0071800Y0123600D02*
X0135300Y0187100D01*
X0158300Y0187100D01*
X0171800Y0200600D01*
X0166800Y0170600D02*
X0166800Y0160600D01*
X0161800Y0140600D02*
X0161800Y0120600D01*
X0151800Y0120600D02*
X0151800Y0140600D01*
X0171800Y0140600D02*
X0171800Y0120600D01*
X0181800Y0120600D02*
X0181800Y0140600D01*
X0191800Y0140600D02*
X0191800Y0120600D01*
X0211800Y0090600D02*
X0211800Y0080600D01*
X0211800Y0060600D01*
X0201800Y0060600D02*
X0201800Y0080600D01*
X0191800Y0080600D02*
X0191800Y0060600D01*
X0181800Y0060600D02*
X0181800Y0080600D01*
X0171800Y0080600D02*
X0171800Y0060600D01*
X0215300Y0024100D02*
X0215940Y0024108D01*
X0216580Y0024131D01*
X0217220Y0024170D01*
X0217858Y0024224D01*
X0218494Y0024293D01*
X0219129Y0024378D01*
X0219761Y0024478D01*
X0220391Y0024594D01*
X0221018Y0024724D01*
X0221642Y0024870D01*
X0222262Y0025031D01*
X0222878Y0025206D01*
X0223489Y0025397D01*
X0224096Y0025602D01*
X0224697Y0025822D01*
X0225293Y0026056D01*
X0225883Y0026305D01*
X0226467Y0026568D01*
X0227045Y0026845D01*
X0227615Y0027135D01*
X0228179Y0027440D01*
X0228734Y0027758D01*
X0229282Y0028089D01*
X0229822Y0028434D01*
X0230354Y0028791D01*
X0230876Y0029161D01*
X0231390Y0029544D01*
X0231894Y0029939D01*
X0232388Y0030346D01*
X0232873Y0030764D01*
X0233347Y0031195D01*
X0233811Y0031637D01*
X0234263Y0032089D01*
X0234705Y0032553D01*
X0235136Y0033027D01*
X0235554Y0033512D01*
X0235961Y0034006D01*
X0236356Y0034510D01*
X0236739Y0035024D01*
X0237109Y0035546D01*
X0237466Y0036078D01*
X0237811Y0036618D01*
X0238142Y0037166D01*
X0238460Y0037721D01*
X0238765Y0038285D01*
X0239055Y0038855D01*
X0239332Y0039433D01*
X0239595Y0040017D01*
X0239844Y0040607D01*
X0240078Y0041203D01*
X0240298Y0041804D01*
X0240503Y0042411D01*
X0240694Y0043022D01*
X0240869Y0043638D01*
X0241030Y0044258D01*
X0241176Y0044882D01*
X0241306Y0045509D01*
X0241422Y0046139D01*
X0241522Y0046771D01*
X0241607Y0047406D01*
X0241676Y0048042D01*
X0241730Y0048680D01*
X0241769Y0049320D01*
X0241792Y0049960D01*
X0241800Y0050600D01*
X0241800Y0060600D01*
X0241800Y0080600D01*
X0231800Y0080600D02*
X0231800Y0060600D01*
X0221800Y0060600D02*
X0221800Y0080600D01*
X0251800Y0080600D02*
X0251800Y0060600D01*
X0261800Y0060600D02*
X0261800Y0080600D01*
X0215300Y0024100D02*
X0083300Y0024100D01*
X0083022Y0024103D01*
X0082744Y0024113D01*
X0082467Y0024130D01*
X0082190Y0024154D01*
X0081914Y0024184D01*
X0081638Y0024221D01*
X0081364Y0024264D01*
X0081091Y0024314D01*
X0080818Y0024371D01*
X0080548Y0024434D01*
X0080279Y0024504D01*
X0080012Y0024580D01*
X0079746Y0024663D01*
X0079483Y0024752D01*
X0079222Y0024847D01*
X0078963Y0024949D01*
X0078707Y0025057D01*
X0078454Y0025171D01*
X0078203Y0025291D01*
X0077956Y0025417D01*
X0077711Y0025549D01*
X0077470Y0025687D01*
X0077232Y0025831D01*
X0076998Y0025981D01*
X0076767Y0026136D01*
X0076540Y0026296D01*
X0076318Y0026462D01*
X0076099Y0026634D01*
X0075884Y0026810D01*
X0075674Y0026992D01*
X0075468Y0027179D01*
X0075267Y0027371D01*
X0075071Y0027567D01*
X0074879Y0027768D01*
X0074692Y0027974D01*
X0074510Y0028184D01*
X0074334Y0028399D01*
X0074162Y0028618D01*
X0073996Y0028840D01*
X0073836Y0029067D01*
X0073681Y0029298D01*
X0073531Y0029532D01*
X0073387Y0029770D01*
X0073249Y0030011D01*
X0073117Y0030256D01*
X0072991Y0030503D01*
X0072871Y0030754D01*
X0072757Y0031007D01*
X0072649Y0031263D01*
X0072547Y0031522D01*
X0072452Y0031783D01*
X0072363Y0032046D01*
X0072280Y0032312D01*
X0072204Y0032579D01*
X0072134Y0032848D01*
X0072071Y0033118D01*
X0072014Y0033391D01*
X0071964Y0033664D01*
X0071921Y0033938D01*
X0071884Y0034214D01*
X0071854Y0034490D01*
X0071830Y0034767D01*
X0071813Y0035044D01*
X0071803Y0035322D01*
X0071800Y0035600D01*
X0011800Y0128100D02*
X0016800Y0133100D01*
X0051800Y0133100D01*
X0059300Y0140600D01*
X0059300Y0180600D02*
X0069300Y0190600D01*
X0069300Y0195600D01*
X0084300Y0195600D02*
X0086800Y0195600D01*
X0084300Y0195600D02*
X0069300Y0180600D01*
X0271800Y0177100D02*
X0271800Y0155600D01*
D14*
X0004102Y0212001D02*
X0004240Y0007923D01*
X0286921Y0007900D01*
X0286921Y0212001D01*
X0004102Y0212001D01*
X0004102Y0211808D02*
X0286921Y0211808D01*
X0286921Y0210209D02*
X0004103Y0210209D01*
X0004104Y0208611D02*
X0286921Y0208611D01*
X0286921Y0207012D02*
X0265176Y0207012D01*
X0264927Y0207261D02*
X0264316Y0207705D01*
X0263643Y0208048D01*
X0262924Y0208282D01*
X0262178Y0208400D01*
X0262000Y0208400D01*
X0262000Y0200800D01*
X0261600Y0200800D01*
X0261600Y0208400D01*
X0261422Y0208400D01*
X0260676Y0208282D01*
X0259957Y0208048D01*
X0259284Y0207705D01*
X0258673Y0207261D01*
X0258139Y0206727D01*
X0257695Y0206116D01*
X0257352Y0205443D01*
X0257118Y0204724D01*
X0257000Y0203978D01*
X0257000Y0200800D01*
X0261600Y0200800D01*
X0261600Y0200400D01*
X0257000Y0200400D01*
X0257000Y0197222D01*
X0257118Y0196476D01*
X0257352Y0195757D01*
X0257695Y0195084D01*
X0258139Y0194473D01*
X0258673Y0193939D01*
X0259284Y0193495D01*
X0259957Y0193152D01*
X0260676Y0192918D01*
X0261422Y0192800D01*
X0261600Y0192800D01*
X0261600Y0200400D01*
X0262000Y0200400D01*
X0262000Y0200800D01*
X0266600Y0200800D01*
X0266600Y0203978D01*
X0266482Y0204724D01*
X0266248Y0205443D01*
X0265905Y0206116D01*
X0265461Y0206727D01*
X0264927Y0207261D01*
X0266258Y0205414D02*
X0286921Y0205414D01*
X0286921Y0203815D02*
X0266600Y0203815D01*
X0266600Y0202217D02*
X0286921Y0202217D01*
X0286921Y0200618D02*
X0262000Y0200618D01*
X0262000Y0200400D02*
X0266600Y0200400D01*
X0266600Y0197222D01*
X0266482Y0196476D01*
X0266248Y0195757D01*
X0265905Y0195084D01*
X0265461Y0194473D01*
X0264927Y0193939D01*
X0264316Y0193495D01*
X0263643Y0193152D01*
X0262924Y0192918D01*
X0262178Y0192800D01*
X0262000Y0192800D01*
X0262000Y0200400D01*
X0261600Y0200618D02*
X0256200Y0200618D01*
X0256200Y0199020D02*
X0257000Y0199020D01*
X0257000Y0197421D02*
X0256200Y0197421D01*
X0256200Y0196725D02*
X0256200Y0204475D01*
X0255530Y0206092D01*
X0254292Y0207330D01*
X0252675Y0208000D01*
X0250925Y0208000D01*
X0249308Y0207330D01*
X0248070Y0206092D01*
X0247400Y0204475D01*
X0247400Y0196725D01*
X0248070Y0195108D01*
X0249308Y0193870D01*
X0249600Y0193749D01*
X0249600Y0191511D01*
X0248389Y0190300D01*
X0233389Y0190300D01*
X0232100Y0189011D01*
X0229600Y0186511D01*
X0229600Y0184951D01*
X0229308Y0184830D01*
X0228070Y0183592D01*
X0227400Y0181975D01*
X0227400Y0174225D01*
X0228070Y0172608D01*
X0229308Y0171370D01*
X0229600Y0171249D01*
X0229600Y0168774D01*
X0228000Y0167174D01*
X0228000Y0164026D01*
X0229600Y0162426D01*
X0229600Y0158774D01*
X0228000Y0157174D01*
X0228000Y0154026D01*
X0230226Y0151800D01*
X0233374Y0151800D01*
X0234974Y0153400D01*
X0253389Y0153400D01*
X0258389Y0148400D01*
X0266889Y0148400D01*
X0272100Y0143189D01*
X0272100Y0116511D01*
X0265889Y0110300D01*
X0248389Y0110300D01*
X0247100Y0109011D01*
X0235889Y0097800D01*
X0235211Y0097800D01*
X0225211Y0107800D01*
X0199974Y0107800D01*
X0198374Y0109400D01*
X0195226Y0109400D01*
X0194026Y0108200D01*
X0150377Y0108200D01*
X0144500Y0114077D01*
X0145530Y0115108D01*
X0146200Y0116725D01*
X0146200Y0124475D01*
X0145530Y0126092D01*
X0144400Y0127223D01*
X0144400Y0133977D01*
X0145530Y0135108D01*
X0146200Y0136725D01*
X0146200Y0144475D01*
X0145530Y0146092D01*
X0144292Y0147330D01*
X0142675Y0148000D01*
X0140925Y0148000D01*
X0139308Y0147330D01*
X0138070Y0146092D01*
X0137400Y0144475D01*
X0137400Y0136725D01*
X0138070Y0135108D01*
X0139200Y0133977D01*
X0139200Y0127223D01*
X0138070Y0126092D01*
X0137400Y0124475D01*
X0137400Y0116725D01*
X0138070Y0115108D01*
X0139100Y0114077D01*
X0128223Y0103200D01*
X0116340Y0103200D01*
X0116159Y0103382D01*
X0114953Y0103881D01*
X0113647Y0103881D01*
X0112441Y0103382D01*
X0111518Y0102459D01*
X0111019Y0101253D01*
X0111019Y0099947D01*
X0111518Y0098741D01*
X0112441Y0097818D01*
X0113647Y0097319D01*
X0114953Y0097319D01*
X0116159Y0097818D01*
X0116340Y0098000D01*
X0124200Y0098000D01*
X0124200Y0095874D01*
X0123000Y0094674D01*
X0123000Y0091526D01*
X0125226Y0089300D01*
X0128374Y0089300D01*
X0130600Y0091526D01*
X0130600Y0094674D01*
X0129400Y0095874D01*
X0129400Y0098000D01*
X0129817Y0098000D01*
X0130773Y0098396D01*
X0141800Y0109423D01*
X0147096Y0104127D01*
X0147827Y0103396D01*
X0148783Y0103000D01*
X0194026Y0103000D01*
X0195226Y0101800D01*
X0198374Y0101800D01*
X0199974Y0103400D01*
X0223389Y0103400D01*
X0232100Y0094689D01*
X0233389Y0093400D01*
X0237711Y0093400D01*
X0250211Y0105900D01*
X0267711Y0105900D01*
X0275211Y0113400D01*
X0276500Y0114689D01*
X0276500Y0145011D01*
X0270000Y0151511D01*
X0268711Y0152800D01*
X0260211Y0152800D01*
X0256500Y0156511D01*
X0255211Y0157800D01*
X0234974Y0157800D01*
X0234000Y0158774D01*
X0234000Y0162426D01*
X0235600Y0164026D01*
X0235600Y0167174D01*
X0234000Y0168774D01*
X0234000Y0171249D01*
X0234292Y0171370D01*
X0235530Y0172608D01*
X0236200Y0174225D01*
X0236200Y0181975D01*
X0235530Y0183592D01*
X0234292Y0184830D01*
X0234186Y0184874D01*
X0235211Y0185900D01*
X0250211Y0185900D01*
X0252711Y0188400D01*
X0254000Y0189689D01*
X0254000Y0193749D01*
X0254292Y0193870D01*
X0255530Y0195108D01*
X0256200Y0196725D01*
X0255826Y0195823D02*
X0257330Y0195823D01*
X0258387Y0194224D02*
X0254647Y0194224D01*
X0254000Y0192626D02*
X0286921Y0192626D01*
X0286921Y0194224D02*
X0265213Y0194224D01*
X0266270Y0195823D02*
X0286921Y0195823D01*
X0286921Y0197421D02*
X0266600Y0197421D01*
X0266600Y0199020D02*
X0286921Y0199020D01*
X0286921Y0191027D02*
X0254000Y0191027D01*
X0253740Y0189429D02*
X0286921Y0189429D01*
X0286921Y0187830D02*
X0252142Y0187830D01*
X0250543Y0186232D02*
X0286921Y0186232D01*
X0286921Y0184633D02*
X0263381Y0184633D01*
X0263643Y0184548D02*
X0262924Y0184782D01*
X0262178Y0184900D01*
X0262000Y0184900D01*
X0262000Y0177300D01*
X0261600Y0177300D01*
X0261600Y0184900D01*
X0261422Y0184900D01*
X0260676Y0184782D01*
X0259957Y0184548D01*
X0259284Y0184205D01*
X0258673Y0183761D01*
X0258139Y0183227D01*
X0257695Y0182616D01*
X0257352Y0181943D01*
X0257118Y0181224D01*
X0257000Y0180478D01*
X0257000Y0177300D01*
X0261600Y0177300D01*
X0261600Y0176900D01*
X0257000Y0176900D01*
X0257000Y0173722D01*
X0257118Y0172976D01*
X0257352Y0172257D01*
X0257695Y0171584D01*
X0258139Y0170973D01*
X0258673Y0170439D01*
X0259284Y0169995D01*
X0259957Y0169652D01*
X0260676Y0169418D01*
X0261422Y0169300D01*
X0261600Y0169300D01*
X0261600Y0176900D01*
X0262000Y0176900D01*
X0262000Y0177300D01*
X0266600Y0177300D01*
X0266600Y0180478D01*
X0266482Y0181224D01*
X0266248Y0181943D01*
X0265905Y0182616D01*
X0265461Y0183227D01*
X0264927Y0183761D01*
X0264316Y0184205D01*
X0263643Y0184548D01*
X0262000Y0184633D02*
X0261600Y0184633D01*
X0260219Y0184633D02*
X0245055Y0184633D01*
X0244927Y0184761D02*
X0244316Y0185205D01*
X0243643Y0185548D01*
X0242924Y0185782D01*
X0242178Y0185900D01*
X0242000Y0185900D01*
X0242000Y0178300D01*
X0246600Y0178300D01*
X0246600Y0181478D01*
X0246482Y0182224D01*
X0246248Y0182943D01*
X0245905Y0183616D01*
X0245461Y0184227D01*
X0244927Y0184761D01*
X0246201Y0183035D02*
X0257999Y0183035D01*
X0257187Y0181436D02*
X0246600Y0181436D01*
X0246600Y0179838D02*
X0257000Y0179838D01*
X0257000Y0178239D02*
X0242000Y0178239D01*
X0242000Y0178300D02*
X0242000Y0177900D01*
X0246600Y0177900D01*
X0246600Y0174722D01*
X0246482Y0173976D01*
X0246248Y0173257D01*
X0245905Y0172584D01*
X0245461Y0171973D01*
X0244927Y0171439D01*
X0244316Y0170995D01*
X0243643Y0170652D01*
X0242924Y0170418D01*
X0242178Y0170300D01*
X0242000Y0170300D01*
X0242000Y0177900D01*
X0241600Y0177900D01*
X0241600Y0170300D01*
X0241422Y0170300D01*
X0240676Y0170418D01*
X0239957Y0170652D01*
X0239284Y0170995D01*
X0238673Y0171439D01*
X0238139Y0171973D01*
X0237695Y0172584D01*
X0237352Y0173257D01*
X0237118Y0173976D01*
X0237000Y0174722D01*
X0237000Y0177900D01*
X0241600Y0177900D01*
X0241600Y0178300D01*
X0241600Y0185900D01*
X0241422Y0185900D01*
X0240676Y0185782D01*
X0239957Y0185548D01*
X0239284Y0185205D01*
X0238673Y0184761D01*
X0238139Y0184227D01*
X0237695Y0183616D01*
X0237352Y0182943D01*
X0237118Y0182224D01*
X0237000Y0181478D01*
X0237000Y0178300D01*
X0241600Y0178300D01*
X0242000Y0178300D01*
X0241600Y0178239D02*
X0236200Y0178239D01*
X0236200Y0176641D02*
X0237000Y0176641D01*
X0237000Y0175042D02*
X0236200Y0175042D01*
X0235876Y0173444D02*
X0237291Y0173444D01*
X0238267Y0171845D02*
X0234768Y0171845D01*
X0234000Y0170247D02*
X0258937Y0170247D01*
X0257562Y0171845D02*
X0245333Y0171845D01*
X0246309Y0173444D02*
X0257044Y0173444D01*
X0257000Y0175042D02*
X0246600Y0175042D01*
X0246600Y0176641D02*
X0257000Y0176641D01*
X0261600Y0176641D02*
X0262000Y0176641D01*
X0262000Y0176900D02*
X0262000Y0169300D01*
X0262178Y0169300D01*
X0262924Y0169418D01*
X0263643Y0169652D01*
X0264316Y0169995D01*
X0264927Y0170439D01*
X0265461Y0170973D01*
X0265905Y0171584D01*
X0266248Y0172257D01*
X0266482Y0172976D01*
X0266600Y0173722D01*
X0266600Y0176900D01*
X0262000Y0176900D01*
X0262000Y0178239D02*
X0261600Y0178239D01*
X0261600Y0179838D02*
X0262000Y0179838D01*
X0262000Y0181436D02*
X0261600Y0181436D01*
X0261600Y0183035D02*
X0262000Y0183035D01*
X0265601Y0183035D02*
X0268512Y0183035D01*
X0268070Y0182592D02*
X0267400Y0180975D01*
X0267400Y0173225D01*
X0268070Y0171608D01*
X0269308Y0170370D01*
X0269800Y0170166D01*
X0269800Y0158974D01*
X0268000Y0157174D01*
X0268000Y0154026D01*
X0270226Y0151800D01*
X0273374Y0151800D01*
X0275600Y0154026D01*
X0275600Y0157174D01*
X0273800Y0158974D01*
X0273800Y0170166D01*
X0274292Y0170370D01*
X0275530Y0171608D01*
X0276200Y0173225D01*
X0276200Y0180975D01*
X0275530Y0182592D01*
X0274292Y0183830D01*
X0272675Y0184500D01*
X0270925Y0184500D01*
X0269308Y0183830D01*
X0268070Y0182592D01*
X0267591Y0181436D02*
X0266413Y0181436D01*
X0266600Y0179838D02*
X0267400Y0179838D01*
X0267400Y0178239D02*
X0266600Y0178239D01*
X0266600Y0176641D02*
X0267400Y0176641D01*
X0267400Y0175042D02*
X0266600Y0175042D01*
X0266556Y0173444D02*
X0267400Y0173444D01*
X0267971Y0171845D02*
X0266038Y0171845D01*
X0264663Y0170247D02*
X0269605Y0170247D01*
X0269800Y0168648D02*
X0254692Y0168648D01*
X0253540Y0169800D02*
X0256000Y0167340D01*
X0256000Y0165600D01*
X0251800Y0165600D01*
X0251800Y0165600D01*
X0251800Y0165600D01*
X0251800Y0169800D01*
X0253540Y0169800D01*
X0251800Y0169800D02*
X0250060Y0169800D01*
X0247600Y0167340D01*
X0247600Y0165600D01*
X0251800Y0165600D01*
X0256000Y0165600D01*
X0256000Y0163860D01*
X0253540Y0161400D01*
X0251800Y0161400D01*
X0251800Y0165600D01*
X0251800Y0165600D01*
X0251800Y0165600D01*
X0251800Y0169800D01*
X0251800Y0168648D02*
X0251800Y0168648D01*
X0251800Y0167050D02*
X0251800Y0167050D01*
X0251800Y0165600D02*
X0247600Y0165600D01*
X0247600Y0163860D01*
X0250060Y0161400D01*
X0251800Y0161400D01*
X0251800Y0165600D01*
X0251800Y0165451D02*
X0251800Y0165451D01*
X0251800Y0163853D02*
X0251800Y0163853D01*
X0251800Y0162254D02*
X0251800Y0162254D01*
X0254394Y0162254D02*
X0269800Y0162254D01*
X0269800Y0160656D02*
X0234000Y0160656D01*
X0234000Y0162254D02*
X0249206Y0162254D01*
X0247608Y0163853D02*
X0235427Y0163853D01*
X0235600Y0165451D02*
X0247600Y0165451D01*
X0247600Y0167050D02*
X0235600Y0167050D01*
X0234126Y0168648D02*
X0248908Y0168648D01*
X0256000Y0167050D02*
X0269800Y0167050D01*
X0269800Y0165451D02*
X0256000Y0165451D01*
X0255992Y0163853D02*
X0269800Y0163853D01*
X0273800Y0163853D02*
X0286921Y0163853D01*
X0286921Y0165451D02*
X0273800Y0165451D01*
X0273800Y0167050D02*
X0286921Y0167050D01*
X0286921Y0168648D02*
X0273800Y0168648D01*
X0273995Y0170247D02*
X0286921Y0170247D01*
X0286921Y0171845D02*
X0275629Y0171845D01*
X0276200Y0173444D02*
X0286921Y0173444D01*
X0286921Y0175042D02*
X0276200Y0175042D01*
X0276200Y0176641D02*
X0286921Y0176641D01*
X0286921Y0178239D02*
X0276200Y0178239D01*
X0276200Y0179838D02*
X0286921Y0179838D01*
X0286921Y0181436D02*
X0276009Y0181436D01*
X0275088Y0183035D02*
X0286921Y0183035D01*
X0286921Y0162254D02*
X0273800Y0162254D01*
X0273800Y0160656D02*
X0286921Y0160656D01*
X0286921Y0159057D02*
X0273800Y0159057D01*
X0275315Y0157459D02*
X0286921Y0157459D01*
X0286921Y0155860D02*
X0275600Y0155860D01*
X0275600Y0154262D02*
X0286921Y0154262D01*
X0286921Y0152663D02*
X0274237Y0152663D01*
X0272045Y0149466D02*
X0286921Y0149466D01*
X0286921Y0147868D02*
X0273644Y0147868D01*
X0275242Y0146269D02*
X0286921Y0146269D01*
X0286921Y0144670D02*
X0276500Y0144670D01*
X0276500Y0143072D02*
X0286921Y0143072D01*
X0286921Y0141473D02*
X0276500Y0141473D01*
X0276500Y0139875D02*
X0286921Y0139875D01*
X0286921Y0138276D02*
X0276500Y0138276D01*
X0276500Y0136678D02*
X0286921Y0136678D01*
X0286921Y0135079D02*
X0276500Y0135079D01*
X0276500Y0133481D02*
X0286921Y0133481D01*
X0286921Y0131882D02*
X0276500Y0131882D01*
X0276500Y0130284D02*
X0286921Y0130284D01*
X0286921Y0128685D02*
X0276500Y0128685D01*
X0276500Y0127087D02*
X0286921Y0127087D01*
X0286921Y0125488D02*
X0276500Y0125488D01*
X0276500Y0123890D02*
X0286921Y0123890D01*
X0286921Y0122291D02*
X0276500Y0122291D01*
X0276500Y0120693D02*
X0286921Y0120693D01*
X0286921Y0119094D02*
X0276500Y0119094D01*
X0276500Y0117496D02*
X0286921Y0117496D01*
X0286921Y0115897D02*
X0276500Y0115897D01*
X0276110Y0114299D02*
X0286921Y0114299D01*
X0286921Y0112700D02*
X0274512Y0112700D01*
X0272913Y0111102D02*
X0286921Y0111102D01*
X0286921Y0109503D02*
X0271315Y0109503D01*
X0269716Y0107905D02*
X0286921Y0107905D01*
X0286921Y0106306D02*
X0268117Y0106306D01*
X0266800Y0108100D02*
X0274300Y0115600D01*
X0274300Y0144100D01*
X0267800Y0150600D01*
X0259300Y0150600D01*
X0254300Y0155600D01*
X0231800Y0155600D01*
X0231800Y0165600D01*
X0231800Y0178100D01*
X0231800Y0185600D01*
X0234300Y0188100D01*
X0249300Y0188100D01*
X0251800Y0190600D01*
X0251800Y0200600D01*
X0256200Y0202217D02*
X0257000Y0202217D01*
X0257000Y0203815D02*
X0256200Y0203815D01*
X0255811Y0205414D02*
X0257342Y0205414D01*
X0258424Y0207012D02*
X0254610Y0207012D01*
X0248990Y0207012D02*
X0245176Y0207012D01*
X0244927Y0207261D02*
X0244316Y0207705D01*
X0243643Y0208048D01*
X0242924Y0208282D01*
X0242178Y0208400D01*
X0242000Y0208400D01*
X0242000Y0200800D01*
X0241600Y0200800D01*
X0241600Y0208400D01*
X0241422Y0208400D01*
X0240676Y0208282D01*
X0239957Y0208048D01*
X0239284Y0207705D01*
X0238673Y0207261D01*
X0238139Y0206727D01*
X0237695Y0206116D01*
X0237352Y0205443D01*
X0237118Y0204724D01*
X0237000Y0203978D01*
X0237000Y0200800D01*
X0241600Y0200800D01*
X0241600Y0200400D01*
X0237000Y0200400D01*
X0237000Y0197222D01*
X0237118Y0196476D01*
X0237352Y0195757D01*
X0237695Y0195084D01*
X0238139Y0194473D01*
X0238673Y0193939D01*
X0239284Y0193495D01*
X0239957Y0193152D01*
X0240676Y0192918D01*
X0241422Y0192800D01*
X0241600Y0192800D01*
X0241600Y0200400D01*
X0242000Y0200400D01*
X0242000Y0200800D01*
X0246600Y0200800D01*
X0246600Y0203978D01*
X0246482Y0204724D01*
X0246248Y0205443D01*
X0245905Y0206116D01*
X0245461Y0206727D01*
X0244927Y0207261D01*
X0246258Y0205414D02*
X0247789Y0205414D01*
X0247400Y0203815D02*
X0246600Y0203815D01*
X0246600Y0202217D02*
X0247400Y0202217D01*
X0247400Y0200618D02*
X0242000Y0200618D01*
X0242000Y0200400D02*
X0246600Y0200400D01*
X0246600Y0197222D01*
X0246482Y0196476D01*
X0246248Y0195757D01*
X0245905Y0195084D01*
X0245461Y0194473D01*
X0244927Y0193939D01*
X0244316Y0193495D01*
X0243643Y0193152D01*
X0242924Y0192918D01*
X0242178Y0192800D01*
X0242000Y0192800D01*
X0242000Y0200400D01*
X0241600Y0200618D02*
X0236200Y0200618D01*
X0236200Y0199020D02*
X0237000Y0199020D01*
X0237000Y0197421D02*
X0236200Y0197421D01*
X0236200Y0196725D02*
X0236200Y0204475D01*
X0235530Y0206092D01*
X0234292Y0207330D01*
X0232675Y0208000D01*
X0230925Y0208000D01*
X0229308Y0207330D01*
X0228070Y0206092D01*
X0227400Y0204475D01*
X0227400Y0196725D01*
X0227458Y0196586D01*
X0225972Y0195100D01*
X0225523Y0195100D01*
X0225530Y0195108D01*
X0226200Y0196725D01*
X0226200Y0204475D01*
X0225530Y0206092D01*
X0224292Y0207330D01*
X0222675Y0208000D01*
X0220925Y0208000D01*
X0219308Y0207330D01*
X0218070Y0206092D01*
X0217400Y0204475D01*
X0217400Y0199028D01*
X0216200Y0197828D01*
X0216200Y0204475D01*
X0215530Y0206092D01*
X0214292Y0207330D01*
X0212675Y0208000D01*
X0210925Y0208000D01*
X0209308Y0207330D01*
X0208070Y0206092D01*
X0207400Y0204475D01*
X0207400Y0199028D01*
X0206200Y0197828D01*
X0206200Y0204475D01*
X0205530Y0206092D01*
X0204292Y0207330D01*
X0202675Y0208000D01*
X0200925Y0208000D01*
X0199308Y0207330D01*
X0198070Y0206092D01*
X0197400Y0204475D01*
X0197400Y0199028D01*
X0196200Y0197828D01*
X0196200Y0204475D01*
X0195530Y0206092D01*
X0194292Y0207330D01*
X0192675Y0208000D01*
X0190925Y0208000D01*
X0189308Y0207330D01*
X0188070Y0206092D01*
X0187400Y0204475D01*
X0187400Y0199028D01*
X0186200Y0197828D01*
X0186200Y0204475D01*
X0185530Y0206092D01*
X0184292Y0207330D01*
X0182675Y0208000D01*
X0180925Y0208000D01*
X0179308Y0207330D01*
X0178070Y0206092D01*
X0177400Y0204475D01*
X0177400Y0199028D01*
X0176200Y0197828D01*
X0176200Y0204475D01*
X0175530Y0206092D01*
X0174292Y0207330D01*
X0172675Y0208000D01*
X0170925Y0208000D01*
X0169308Y0207330D01*
X0168070Y0206092D01*
X0167400Y0204475D01*
X0167400Y0199028D01*
X0166200Y0197828D01*
X0166200Y0204475D01*
X0165530Y0206092D01*
X0164292Y0207330D01*
X0162675Y0208000D01*
X0160925Y0208000D01*
X0159308Y0207330D01*
X0158070Y0206092D01*
X0157400Y0204475D01*
X0157400Y0199028D01*
X0156200Y0197828D01*
X0156200Y0204475D01*
X0155530Y0206092D01*
X0154292Y0207330D01*
X0152675Y0208000D01*
X0150925Y0208000D01*
X0149308Y0207330D01*
X0148070Y0206092D01*
X0147400Y0204475D01*
X0147400Y0199028D01*
X0146200Y0197828D01*
X0146200Y0204475D01*
X0145530Y0206092D01*
X0144292Y0207330D01*
X0142675Y0208000D01*
X0140925Y0208000D01*
X0139308Y0207330D01*
X0138070Y0206092D01*
X0137400Y0204475D01*
X0137400Y0199028D01*
X0136200Y0197828D01*
X0136200Y0204475D01*
X0135530Y0206092D01*
X0134292Y0207330D01*
X0132675Y0208000D01*
X0130925Y0208000D01*
X0129308Y0207330D01*
X0128070Y0206092D01*
X0127400Y0204475D01*
X0127400Y0196725D01*
X0128070Y0195108D01*
X0128275Y0194903D01*
X0073100Y0139728D01*
X0073100Y0142174D01*
X0070874Y0144400D01*
X0067726Y0144400D01*
X0065500Y0142174D01*
X0065500Y0139026D01*
X0067726Y0136800D01*
X0070172Y0136800D01*
X0060972Y0127600D01*
X0040972Y0127600D01*
X0031372Y0118000D01*
X0030925Y0118000D01*
X0029308Y0117330D01*
X0028070Y0116092D01*
X0027400Y0114475D01*
X0027400Y0106725D01*
X0028070Y0105108D01*
X0029308Y0103870D01*
X0030925Y0103200D01*
X0031372Y0103200D01*
X0032300Y0102272D01*
X0033472Y0101100D01*
X0036426Y0101100D01*
X0036319Y0100699D01*
X0036319Y0098100D01*
X0039300Y0098100D01*
X0039300Y0093938D01*
X0040718Y0093938D01*
X0041176Y0094060D01*
X0041586Y0094297D01*
X0041921Y0094633D01*
X0042040Y0094837D01*
X0042539Y0094338D01*
X0046061Y0094338D01*
X0046800Y0095077D01*
X0047539Y0094338D01*
X0051061Y0094338D01*
X0051800Y0095077D01*
X0052539Y0094338D01*
X0056061Y0094338D01*
X0056800Y0095077D01*
X0057539Y0094338D01*
X0061061Y0094338D01*
X0061800Y0095077D01*
X0062539Y0094338D01*
X0066061Y0094338D01*
X0066800Y0095077D01*
X0067539Y0094338D01*
X0071061Y0094338D01*
X0071800Y0095077D01*
X0072539Y0094338D01*
X0076061Y0094338D01*
X0076881Y0095158D01*
X0076881Y0096100D01*
X0090128Y0096100D01*
X0092628Y0098600D01*
X0093800Y0099772D01*
X0093800Y0103666D01*
X0094292Y0103870D01*
X0095530Y0105108D01*
X0096200Y0106725D01*
X0096200Y0114475D01*
X0095530Y0116092D01*
X0094292Y0117330D01*
X0093800Y0117534D01*
X0093800Y0136772D01*
X0096800Y0139772D01*
X0096800Y0039428D01*
X0094972Y0037600D01*
X0087628Y0037600D01*
X0085325Y0039903D01*
X0085530Y0040108D01*
X0086200Y0041725D01*
X0086200Y0049475D01*
X0085813Y0050410D01*
X0087400Y0048823D01*
X0087400Y0041725D01*
X0088070Y0040108D01*
X0089308Y0038870D01*
X0090925Y0038200D01*
X0092675Y0038200D01*
X0094292Y0038870D01*
X0095530Y0040108D01*
X0096200Y0041725D01*
X0096200Y0049475D01*
X0095530Y0051092D01*
X0094292Y0052330D01*
X0092675Y0053000D01*
X0090925Y0053000D01*
X0090679Y0052898D01*
X0085773Y0057804D01*
X0084817Y0058200D01*
X0081377Y0058200D01*
X0076900Y0062677D01*
X0076900Y0079523D01*
X0084696Y0087319D01*
X0084953Y0087319D01*
X0086159Y0087818D01*
X0087082Y0088741D01*
X0087581Y0089947D01*
X0087581Y0091253D01*
X0087082Y0092459D01*
X0086159Y0093382D01*
X0084953Y0093881D01*
X0083647Y0093881D01*
X0082441Y0093382D01*
X0081518Y0092459D01*
X0081019Y0091253D01*
X0081019Y0090996D01*
X0072096Y0082073D01*
X0071700Y0081117D01*
X0071700Y0073200D01*
X0046283Y0073200D01*
X0045327Y0072804D01*
X0044596Y0072073D01*
X0042096Y0069573D01*
X0041700Y0068617D01*
X0041700Y0066223D01*
X0041061Y0066862D01*
X0037539Y0066862D01*
X0036719Y0066042D01*
X0036719Y0060158D01*
X0037539Y0059338D01*
X0041061Y0059338D01*
X0041700Y0059977D01*
X0041700Y0059177D01*
X0040723Y0058200D01*
X0036283Y0058200D01*
X0035327Y0057804D01*
X0034596Y0057073D01*
X0030239Y0052716D01*
X0029308Y0052330D01*
X0028070Y0051092D01*
X0027400Y0049475D01*
X0027400Y0041725D01*
X0028070Y0040108D01*
X0029308Y0038870D01*
X0030925Y0038200D01*
X0032675Y0038200D01*
X0034292Y0038870D01*
X0035530Y0040108D01*
X0036200Y0041725D01*
X0036200Y0049475D01*
X0035659Y0050782D01*
X0037877Y0053000D01*
X0042317Y0053000D01*
X0043273Y0053396D01*
X0044800Y0054923D01*
X0044800Y0051823D01*
X0044292Y0052330D01*
X0042675Y0053000D01*
X0040925Y0053000D01*
X0039308Y0052330D01*
X0038070Y0051092D01*
X0037400Y0049475D01*
X0037400Y0041725D01*
X0038070Y0040108D01*
X0039308Y0038870D01*
X0039614Y0038743D01*
X0038472Y0037600D01*
X0017628Y0037600D01*
X0013800Y0041428D01*
X0013800Y0127272D01*
X0017628Y0131100D01*
X0052628Y0131100D01*
X0058328Y0136800D01*
X0060874Y0136800D01*
X0063100Y0139026D01*
X0063100Y0142174D01*
X0060874Y0144400D01*
X0057726Y0144400D01*
X0055500Y0142174D01*
X0055500Y0139628D01*
X0050972Y0135100D01*
X0015972Y0135100D01*
X0014800Y0133928D01*
X0010972Y0130100D01*
X0009800Y0128928D01*
X0009800Y0039772D01*
X0014800Y0034772D01*
X0015972Y0033600D01*
X0040128Y0033600D01*
X0042628Y0036100D01*
X0043800Y0037272D01*
X0043800Y0038666D01*
X0044292Y0038870D01*
X0045530Y0040108D01*
X0046200Y0041725D01*
X0046200Y0047172D01*
X0047400Y0048372D01*
X0047400Y0041725D01*
X0048070Y0040108D01*
X0049308Y0038870D01*
X0050925Y0038200D01*
X0052675Y0038200D01*
X0054292Y0038870D01*
X0055530Y0040108D01*
X0056200Y0041725D01*
X0056200Y0049475D01*
X0055530Y0051092D01*
X0054292Y0052330D01*
X0053800Y0052534D01*
X0053800Y0054772D01*
X0055128Y0056100D01*
X0056300Y0057272D01*
X0056300Y0059577D01*
X0056560Y0059837D01*
X0056679Y0059633D01*
X0057014Y0059297D01*
X0057424Y0059060D01*
X0057882Y0058938D01*
X0059300Y0058938D01*
X0060718Y0058938D01*
X0061176Y0059060D01*
X0061586Y0059297D01*
X0061921Y0059633D01*
X0062040Y0059837D01*
X0062300Y0059577D01*
X0062300Y0057272D01*
X0063472Y0056100D01*
X0068275Y0051297D01*
X0068070Y0051092D01*
X0067400Y0049475D01*
X0067400Y0041725D01*
X0068070Y0040108D01*
X0069308Y0038870D01*
X0069800Y0038666D01*
X0069800Y0033462D01*
X0071121Y0029395D01*
X0071121Y0029395D01*
X0073635Y0025935D01*
X0077095Y0023421D01*
X0081162Y0022100D01*
X0218511Y0022100D01*
X0224773Y0023529D01*
X0230559Y0026316D01*
X0235580Y0030320D01*
X0239584Y0035341D01*
X0239584Y0035341D01*
X0242371Y0041127D01*
X0242371Y0041127D01*
X0243800Y0047389D01*
X0243800Y0053666D01*
X0244292Y0053870D01*
X0245530Y0055108D01*
X0246200Y0056725D01*
X0246200Y0064475D01*
X0245530Y0066092D01*
X0244292Y0067330D01*
X0243800Y0067534D01*
X0243800Y0073666D01*
X0244292Y0073870D01*
X0245530Y0075108D01*
X0246200Y0076725D01*
X0246200Y0084475D01*
X0245530Y0086092D01*
X0244292Y0087330D01*
X0242675Y0088000D01*
X0240925Y0088000D01*
X0239308Y0087330D01*
X0238070Y0086092D01*
X0237400Y0084475D01*
X0237400Y0076725D01*
X0238070Y0075108D01*
X0239308Y0073870D01*
X0239800Y0073666D01*
X0239800Y0067534D01*
X0239308Y0067330D01*
X0238070Y0066092D01*
X0237400Y0064475D01*
X0237400Y0056725D01*
X0238070Y0055108D01*
X0239308Y0053870D01*
X0239800Y0053666D01*
X0239800Y0050600D01*
X0239646Y0047857D01*
X0238425Y0042508D01*
X0236045Y0037565D01*
X0232624Y0033276D01*
X0228335Y0029855D01*
X0223392Y0027475D01*
X0218043Y0026254D01*
X0215300Y0026100D01*
X0083300Y0026100D01*
X0081814Y0026217D01*
X0078987Y0027135D01*
X0076582Y0028882D01*
X0074835Y0031287D01*
X0073917Y0034114D01*
X0073800Y0035600D01*
X0073800Y0038666D01*
X0074292Y0038870D01*
X0075530Y0040108D01*
X0076200Y0041725D01*
X0076200Y0048372D01*
X0077400Y0047172D01*
X0077400Y0041725D01*
X0078070Y0040108D01*
X0079308Y0038870D01*
X0080925Y0038200D01*
X0081372Y0038200D01*
X0085972Y0033600D01*
X0096628Y0033600D01*
X0097800Y0034772D01*
X0100800Y0037772D01*
X0100800Y0140772D01*
X0139128Y0179100D01*
X0183128Y0179100D01*
X0184300Y0180272D01*
X0198603Y0194575D01*
X0199308Y0193870D01*
X0200925Y0193200D01*
X0201572Y0193200D01*
X0180972Y0172600D01*
X0179800Y0171428D01*
X0179800Y0157272D01*
X0184800Y0152272D01*
X0185972Y0151100D01*
X0198472Y0151100D01*
X0199800Y0149772D01*
X0199800Y0147534D01*
X0199308Y0147330D01*
X0198070Y0146092D01*
X0197400Y0144475D01*
X0197400Y0136725D01*
X0198070Y0135108D01*
X0199308Y0133870D01*
X0199800Y0133666D01*
X0199800Y0127534D01*
X0199308Y0127330D01*
X0198070Y0126092D01*
X0197400Y0124475D01*
X0197400Y0116725D01*
X0198070Y0115108D01*
X0199308Y0113870D01*
X0200925Y0113200D01*
X0202675Y0113200D01*
X0204292Y0113870D01*
X0205530Y0115108D01*
X0206200Y0116725D01*
X0206200Y0124475D01*
X0205530Y0126092D01*
X0204292Y0127330D01*
X0203800Y0127534D01*
X0203800Y0133666D01*
X0204292Y0133870D01*
X0205530Y0135108D01*
X0206200Y0136725D01*
X0206200Y0144475D01*
X0205530Y0146092D01*
X0204292Y0147330D01*
X0203800Y0147534D01*
X0203800Y0151100D01*
X0208472Y0151100D01*
X0209800Y0149772D01*
X0209800Y0147534D01*
X0209308Y0147330D01*
X0208070Y0146092D01*
X0207400Y0144475D01*
X0207400Y0136725D01*
X0208070Y0135108D01*
X0209308Y0133870D01*
X0209800Y0133666D01*
X0209800Y0127534D01*
X0209308Y0127330D01*
X0208070Y0126092D01*
X0207400Y0124475D01*
X0207400Y0116725D01*
X0208070Y0115108D01*
X0209308Y0113870D01*
X0210925Y0113200D01*
X0212675Y0113200D01*
X0214292Y0113870D01*
X0215530Y0115108D01*
X0216200Y0116725D01*
X0216200Y0124475D01*
X0215530Y0126092D01*
X0214292Y0127330D01*
X0213800Y0127534D01*
X0213800Y0133666D01*
X0214292Y0133870D01*
X0215530Y0135108D01*
X0216200Y0136725D01*
X0216200Y0144475D01*
X0215530Y0146092D01*
X0214292Y0147330D01*
X0213800Y0147534D01*
X0213800Y0150772D01*
X0214800Y0149772D01*
X0214800Y0149772D01*
X0215972Y0148600D01*
X0218472Y0148600D01*
X0219614Y0147457D01*
X0219308Y0147330D01*
X0218070Y0146092D01*
X0217400Y0144475D01*
X0217400Y0136725D01*
X0218070Y0135108D01*
X0219308Y0133870D01*
X0219800Y0133666D01*
X0219800Y0127534D01*
X0219308Y0127330D01*
X0218070Y0126092D01*
X0217400Y0124475D01*
X0217400Y0116725D01*
X0218070Y0115108D01*
X0219308Y0113870D01*
X0220925Y0113200D01*
X0222675Y0113200D01*
X0224292Y0113870D01*
X0225530Y0115108D01*
X0226200Y0116725D01*
X0226200Y0124475D01*
X0225530Y0126092D01*
X0224292Y0127330D01*
X0223800Y0127534D01*
X0223800Y0133666D01*
X0224292Y0133870D01*
X0225530Y0135108D01*
X0226200Y0136725D01*
X0226200Y0144475D01*
X0225530Y0146092D01*
X0224292Y0147330D01*
X0223800Y0147534D01*
X0223800Y0148928D01*
X0222628Y0150100D01*
X0220128Y0152600D01*
X0217628Y0152600D01*
X0213800Y0156428D01*
X0213800Y0156428D01*
X0212628Y0157600D01*
X0207628Y0157600D01*
X0206300Y0158928D01*
X0205128Y0160100D01*
X0192628Y0160100D01*
X0191300Y0161428D01*
X0191300Y0167272D01*
X0210128Y0186100D01*
X0215128Y0186100D01*
X0220128Y0191100D01*
X0227628Y0191100D01*
X0230079Y0193550D01*
X0230925Y0193200D01*
X0232675Y0193200D01*
X0234292Y0193870D01*
X0235530Y0195108D01*
X0236200Y0196725D01*
X0235826Y0195823D02*
X0237330Y0195823D01*
X0238387Y0194224D02*
X0234647Y0194224D01*
X0232518Y0189429D02*
X0218457Y0189429D01*
X0216859Y0187830D02*
X0230919Y0187830D01*
X0229600Y0186232D02*
X0215260Y0186232D01*
X0208662Y0184633D02*
X0229111Y0184633D01*
X0227839Y0183035D02*
X0207063Y0183035D01*
X0205465Y0181436D02*
X0227400Y0181436D01*
X0227400Y0179838D02*
X0203866Y0179838D01*
X0202268Y0178239D02*
X0227400Y0178239D01*
X0227400Y0176641D02*
X0200669Y0176641D01*
X0199071Y0175042D02*
X0227400Y0175042D01*
X0227724Y0173444D02*
X0216009Y0173444D01*
X0216159Y0173382D02*
X0214953Y0173881D01*
X0213647Y0173881D01*
X0212441Y0173382D01*
X0211518Y0172459D01*
X0211019Y0171253D01*
X0211019Y0169947D01*
X0211518Y0168741D01*
X0212441Y0167818D01*
X0213647Y0167319D01*
X0214953Y0167319D01*
X0216159Y0167818D01*
X0217082Y0168741D01*
X0217581Y0169947D01*
X0217581Y0171253D01*
X0217082Y0172459D01*
X0216159Y0173382D01*
X0217336Y0171845D02*
X0228832Y0171845D01*
X0229600Y0170247D02*
X0217581Y0170247D01*
X0216988Y0168648D02*
X0229474Y0168648D01*
X0228000Y0167050D02*
X0191300Y0167050D01*
X0191300Y0165451D02*
X0228000Y0165451D01*
X0228173Y0163853D02*
X0191300Y0163853D01*
X0191300Y0162254D02*
X0229600Y0162254D01*
X0229600Y0160656D02*
X0192073Y0160656D01*
X0182810Y0154262D02*
X0114290Y0154262D01*
X0115888Y0155860D02*
X0181212Y0155860D01*
X0179800Y0157459D02*
X0172881Y0157459D01*
X0172292Y0156870D02*
X0173530Y0158108D01*
X0174200Y0159725D01*
X0174200Y0161475D01*
X0173530Y0163092D01*
X0172292Y0164330D01*
X0170675Y0165000D01*
X0168800Y0165000D01*
X0168800Y0166200D01*
X0170675Y0166200D01*
X0172292Y0166870D01*
X0173530Y0168108D01*
X0174200Y0169725D01*
X0174200Y0171475D01*
X0173530Y0173092D01*
X0172292Y0174330D01*
X0170675Y0175000D01*
X0162925Y0175000D01*
X0161308Y0174330D01*
X0160070Y0173092D01*
X0159400Y0171475D01*
X0159400Y0169725D01*
X0160070Y0168108D01*
X0161308Y0166870D01*
X0162925Y0166200D01*
X0164800Y0166200D01*
X0164800Y0165000D01*
X0162925Y0165000D01*
X0161308Y0164330D01*
X0160070Y0163092D01*
X0159400Y0161475D01*
X0159400Y0159725D01*
X0160070Y0158108D01*
X0161308Y0156870D01*
X0162925Y0156200D01*
X0170675Y0156200D01*
X0172292Y0156870D01*
X0173923Y0159057D02*
X0179800Y0159057D01*
X0179800Y0160656D02*
X0174200Y0160656D01*
X0173877Y0162254D02*
X0179800Y0162254D01*
X0179800Y0163853D02*
X0172770Y0163853D01*
X0172472Y0167050D02*
X0179800Y0167050D01*
X0179800Y0168648D02*
X0173754Y0168648D01*
X0174200Y0170247D02*
X0179800Y0170247D01*
X0180217Y0171845D02*
X0174047Y0171845D01*
X0173179Y0173444D02*
X0181815Y0173444D01*
X0183414Y0175042D02*
X0154498Y0175042D01*
X0154582Y0174959D02*
X0153659Y0175882D01*
X0152453Y0176381D01*
X0151147Y0176381D01*
X0149941Y0175882D01*
X0149018Y0174959D01*
X0148519Y0173753D01*
X0148519Y0172447D01*
X0149018Y0171241D01*
X0149941Y0170318D01*
X0151147Y0169819D01*
X0152453Y0169819D01*
X0153659Y0170318D01*
X0154582Y0171241D01*
X0155081Y0172447D01*
X0155081Y0173753D01*
X0154582Y0174959D01*
X0155081Y0173444D02*
X0160421Y0173444D01*
X0159553Y0171845D02*
X0154832Y0171845D01*
X0153485Y0170247D02*
X0159400Y0170247D01*
X0159846Y0168648D02*
X0128677Y0168648D01*
X0130275Y0170247D02*
X0150115Y0170247D01*
X0148768Y0171845D02*
X0131874Y0171845D01*
X0133472Y0173444D02*
X0148519Y0173444D01*
X0149102Y0175042D02*
X0135071Y0175042D01*
X0136669Y0176641D02*
X0185012Y0176641D01*
X0186611Y0178239D02*
X0138268Y0178239D01*
X0127078Y0167050D02*
X0161128Y0167050D01*
X0164800Y0165451D02*
X0125480Y0165451D01*
X0123881Y0163853D02*
X0160830Y0163853D01*
X0159723Y0162254D02*
X0122283Y0162254D01*
X0120684Y0160656D02*
X0159400Y0160656D01*
X0159677Y0159057D02*
X0119086Y0159057D01*
X0117487Y0157459D02*
X0160719Y0157459D01*
X0168800Y0165451D02*
X0179800Y0165451D01*
X0192677Y0168648D02*
X0211612Y0168648D01*
X0211019Y0170247D02*
X0194275Y0170247D01*
X0195874Y0171845D02*
X0211264Y0171845D01*
X0212591Y0173444D02*
X0197472Y0173444D01*
X0189808Y0181436D02*
X0185465Y0181436D01*
X0187063Y0183035D02*
X0191406Y0183035D01*
X0193005Y0184633D02*
X0188662Y0184633D01*
X0190260Y0186232D02*
X0194603Y0186232D01*
X0196202Y0187830D02*
X0191859Y0187830D01*
X0193457Y0189429D02*
X0197800Y0189429D01*
X0199399Y0191027D02*
X0195056Y0191027D01*
X0196654Y0192626D02*
X0200997Y0192626D01*
X0198953Y0194224D02*
X0198253Y0194224D01*
X0197391Y0199020D02*
X0196200Y0199020D01*
X0196200Y0200618D02*
X0197400Y0200618D01*
X0197400Y0202217D02*
X0196200Y0202217D01*
X0196200Y0203815D02*
X0197400Y0203815D01*
X0197789Y0205414D02*
X0195811Y0205414D01*
X0194610Y0207012D02*
X0198990Y0207012D01*
X0204610Y0207012D02*
X0208990Y0207012D01*
X0207789Y0205414D02*
X0205811Y0205414D01*
X0206200Y0203815D02*
X0207400Y0203815D01*
X0207400Y0202217D02*
X0206200Y0202217D01*
X0206200Y0200618D02*
X0207400Y0200618D01*
X0207391Y0199020D02*
X0206200Y0199020D01*
X0215811Y0205414D02*
X0217789Y0205414D01*
X0217400Y0203815D02*
X0216200Y0203815D01*
X0216200Y0202217D02*
X0217400Y0202217D01*
X0217400Y0200618D02*
X0216200Y0200618D01*
X0216200Y0199020D02*
X0217391Y0199020D01*
X0220056Y0191027D02*
X0249116Y0191027D01*
X0249600Y0192626D02*
X0229154Y0192626D01*
X0226694Y0195823D02*
X0225826Y0195823D01*
X0226200Y0197421D02*
X0227400Y0197421D01*
X0227400Y0199020D02*
X0226200Y0199020D01*
X0226200Y0200618D02*
X0227400Y0200618D01*
X0227400Y0202217D02*
X0226200Y0202217D01*
X0226200Y0203815D02*
X0227400Y0203815D01*
X0227789Y0205414D02*
X0225811Y0205414D01*
X0224610Y0207012D02*
X0228990Y0207012D01*
X0234610Y0207012D02*
X0238424Y0207012D01*
X0237342Y0205414D02*
X0235811Y0205414D01*
X0236200Y0203815D02*
X0237000Y0203815D01*
X0237000Y0202217D02*
X0236200Y0202217D01*
X0241600Y0202217D02*
X0242000Y0202217D01*
X0242000Y0203815D02*
X0241600Y0203815D01*
X0241600Y0205414D02*
X0242000Y0205414D01*
X0242000Y0207012D02*
X0241600Y0207012D01*
X0241600Y0199020D02*
X0242000Y0199020D01*
X0242000Y0197421D02*
X0241600Y0197421D01*
X0241600Y0195823D02*
X0242000Y0195823D01*
X0242000Y0194224D02*
X0241600Y0194224D01*
X0245213Y0194224D02*
X0248953Y0194224D01*
X0247774Y0195823D02*
X0246270Y0195823D01*
X0246600Y0197421D02*
X0247400Y0197421D01*
X0247400Y0199020D02*
X0246600Y0199020D01*
X0261600Y0199020D02*
X0262000Y0199020D01*
X0262000Y0197421D02*
X0261600Y0197421D01*
X0261600Y0195823D02*
X0262000Y0195823D01*
X0262000Y0194224D02*
X0261600Y0194224D01*
X0261600Y0202217D02*
X0262000Y0202217D01*
X0262000Y0203815D02*
X0261600Y0203815D01*
X0261600Y0205414D02*
X0262000Y0205414D01*
X0262000Y0207012D02*
X0261600Y0207012D01*
X0242000Y0184633D02*
X0241600Y0184633D01*
X0241600Y0183035D02*
X0242000Y0183035D01*
X0242000Y0181436D02*
X0241600Y0181436D01*
X0241600Y0179838D02*
X0242000Y0179838D01*
X0237000Y0179838D02*
X0236200Y0179838D01*
X0236200Y0181436D02*
X0237000Y0181436D01*
X0237399Y0183035D02*
X0235761Y0183035D01*
X0234489Y0184633D02*
X0238545Y0184633D01*
X0241600Y0176641D02*
X0242000Y0176641D01*
X0242000Y0175042D02*
X0241600Y0175042D01*
X0241600Y0173444D02*
X0242000Y0173444D01*
X0242000Y0171845D02*
X0241600Y0171845D01*
X0234000Y0159057D02*
X0269800Y0159057D01*
X0268285Y0157459D02*
X0255553Y0157459D01*
X0257151Y0155860D02*
X0268000Y0155860D01*
X0268000Y0154262D02*
X0258750Y0154262D01*
X0255724Y0151065D02*
X0221664Y0151065D01*
X0223262Y0149466D02*
X0257323Y0149466D01*
X0259308Y0147330D02*
X0258070Y0146092D01*
X0257400Y0144475D01*
X0257400Y0136725D01*
X0258070Y0135108D01*
X0259308Y0133870D01*
X0259800Y0133666D01*
X0259800Y0127534D01*
X0259308Y0127330D01*
X0258070Y0126092D01*
X0257400Y0124475D01*
X0257400Y0116725D01*
X0258070Y0115108D01*
X0259308Y0113870D01*
X0260925Y0113200D01*
X0262675Y0113200D01*
X0264292Y0113870D01*
X0265530Y0115108D01*
X0266200Y0116725D01*
X0266200Y0124475D01*
X0265530Y0126092D01*
X0264292Y0127330D01*
X0263800Y0127534D01*
X0263800Y0133666D01*
X0264292Y0133870D01*
X0265530Y0135108D01*
X0266200Y0136725D01*
X0266200Y0144475D01*
X0265530Y0146092D01*
X0264292Y0147330D01*
X0262675Y0148000D01*
X0260925Y0148000D01*
X0259308Y0147330D01*
X0260605Y0147868D02*
X0252995Y0147868D01*
X0252675Y0148000D02*
X0250925Y0148000D01*
X0249308Y0147330D01*
X0248070Y0146092D01*
X0247400Y0144475D01*
X0247400Y0136725D01*
X0248070Y0135108D01*
X0249308Y0133870D01*
X0249800Y0133666D01*
X0249800Y0127534D01*
X0249308Y0127330D01*
X0248070Y0126092D01*
X0247400Y0124475D01*
X0247400Y0116725D01*
X0248070Y0115108D01*
X0249308Y0113870D01*
X0250925Y0113200D01*
X0252675Y0113200D01*
X0254292Y0113870D01*
X0255530Y0115108D01*
X0256200Y0116725D01*
X0256200Y0124475D01*
X0255530Y0126092D01*
X0254292Y0127330D01*
X0253800Y0127534D01*
X0253800Y0133666D01*
X0254292Y0133870D01*
X0255530Y0135108D01*
X0256200Y0136725D01*
X0256200Y0144475D01*
X0255530Y0146092D01*
X0254292Y0147330D01*
X0252675Y0148000D01*
X0250605Y0147868D02*
X0242995Y0147868D01*
X0242675Y0148000D02*
X0240925Y0148000D01*
X0239308Y0147330D01*
X0238070Y0146092D01*
X0237400Y0144475D01*
X0237400Y0136725D01*
X0238070Y0135108D01*
X0239308Y0133870D01*
X0239800Y0133666D01*
X0239800Y0127534D01*
X0239308Y0127330D01*
X0238070Y0126092D01*
X0237400Y0124475D01*
X0237400Y0116725D01*
X0238070Y0115108D01*
X0239308Y0113870D01*
X0240925Y0113200D01*
X0242675Y0113200D01*
X0244292Y0113870D01*
X0245530Y0115108D01*
X0246200Y0116725D01*
X0246200Y0124475D01*
X0245530Y0126092D01*
X0244292Y0127330D01*
X0243800Y0127534D01*
X0243800Y0133666D01*
X0244292Y0133870D01*
X0245530Y0135108D01*
X0246200Y0136725D01*
X0246200Y0144475D01*
X0245530Y0146092D01*
X0244292Y0147330D01*
X0242675Y0148000D01*
X0240605Y0147868D02*
X0232995Y0147868D01*
X0232675Y0148000D02*
X0230925Y0148000D01*
X0229308Y0147330D01*
X0228070Y0146092D01*
X0227400Y0144475D01*
X0227400Y0136725D01*
X0228070Y0135108D01*
X0229308Y0133870D01*
X0229800Y0133666D01*
X0229800Y0127534D01*
X0229308Y0127330D01*
X0228070Y0126092D01*
X0227400Y0124475D01*
X0227400Y0116725D01*
X0228070Y0115108D01*
X0229308Y0113870D01*
X0230925Y0113200D01*
X0232675Y0113200D01*
X0234292Y0113870D01*
X0235530Y0115108D01*
X0236200Y0116725D01*
X0236200Y0124475D01*
X0235530Y0126092D01*
X0234292Y0127330D01*
X0233800Y0127534D01*
X0233800Y0133666D01*
X0234292Y0133870D01*
X0235530Y0135108D01*
X0236200Y0136725D01*
X0236200Y0144475D01*
X0235530Y0146092D01*
X0234292Y0147330D01*
X0232675Y0148000D01*
X0230605Y0147868D02*
X0223800Y0147868D01*
X0225354Y0146269D02*
X0228246Y0146269D01*
X0227481Y0144670D02*
X0226119Y0144670D01*
X0226200Y0143072D02*
X0227400Y0143072D01*
X0227400Y0141473D02*
X0226200Y0141473D01*
X0226200Y0139875D02*
X0227400Y0139875D01*
X0227400Y0138276D02*
X0226200Y0138276D01*
X0226181Y0136678D02*
X0227419Y0136678D01*
X0228098Y0135079D02*
X0225502Y0135079D01*
X0223800Y0133481D02*
X0229800Y0133481D01*
X0229800Y0131882D02*
X0223800Y0131882D01*
X0223800Y0130284D02*
X0229800Y0130284D01*
X0229800Y0128685D02*
X0223800Y0128685D01*
X0224536Y0127087D02*
X0229064Y0127087D01*
X0227820Y0125488D02*
X0225780Y0125488D01*
X0226200Y0123890D02*
X0227400Y0123890D01*
X0227400Y0122291D02*
X0226200Y0122291D01*
X0226200Y0120693D02*
X0227400Y0120693D01*
X0227400Y0119094D02*
X0226200Y0119094D01*
X0226200Y0117496D02*
X0227400Y0117496D01*
X0227743Y0115897D02*
X0225857Y0115897D01*
X0224721Y0114299D02*
X0228879Y0114299D01*
X0234721Y0114299D02*
X0238879Y0114299D01*
X0237743Y0115897D02*
X0235857Y0115897D01*
X0236200Y0117496D02*
X0237400Y0117496D01*
X0237400Y0119094D02*
X0236200Y0119094D01*
X0236200Y0120693D02*
X0237400Y0120693D01*
X0237400Y0122291D02*
X0236200Y0122291D01*
X0236200Y0123890D02*
X0237400Y0123890D01*
X0237820Y0125488D02*
X0235780Y0125488D01*
X0234536Y0127087D02*
X0239064Y0127087D01*
X0239800Y0128685D02*
X0233800Y0128685D01*
X0233800Y0130284D02*
X0239800Y0130284D01*
X0239800Y0131882D02*
X0233800Y0131882D01*
X0233800Y0133481D02*
X0239800Y0133481D01*
X0238098Y0135079D02*
X0235502Y0135079D01*
X0236181Y0136678D02*
X0237419Y0136678D01*
X0237400Y0138276D02*
X0236200Y0138276D01*
X0236200Y0139875D02*
X0237400Y0139875D01*
X0237400Y0141473D02*
X0236200Y0141473D01*
X0236200Y0143072D02*
X0237400Y0143072D01*
X0237481Y0144670D02*
X0236119Y0144670D01*
X0235354Y0146269D02*
X0238246Y0146269D01*
X0234237Y0152663D02*
X0254126Y0152663D01*
X0255354Y0146269D02*
X0258246Y0146269D01*
X0257481Y0144670D02*
X0256119Y0144670D01*
X0256200Y0143072D02*
X0257400Y0143072D01*
X0257400Y0141473D02*
X0256200Y0141473D01*
X0256200Y0139875D02*
X0257400Y0139875D01*
X0257400Y0138276D02*
X0256200Y0138276D01*
X0256181Y0136678D02*
X0257419Y0136678D01*
X0258098Y0135079D02*
X0255502Y0135079D01*
X0253800Y0133481D02*
X0259800Y0133481D01*
X0259800Y0131882D02*
X0253800Y0131882D01*
X0253800Y0130284D02*
X0259800Y0130284D01*
X0259800Y0128685D02*
X0253800Y0128685D01*
X0254536Y0127087D02*
X0259064Y0127087D01*
X0257820Y0125488D02*
X0255780Y0125488D01*
X0256200Y0123890D02*
X0257400Y0123890D01*
X0257400Y0122291D02*
X0256200Y0122291D01*
X0256200Y0120693D02*
X0257400Y0120693D01*
X0257400Y0119094D02*
X0256200Y0119094D01*
X0256200Y0117496D02*
X0257400Y0117496D01*
X0257743Y0115897D02*
X0255857Y0115897D01*
X0254721Y0114299D02*
X0258879Y0114299D01*
X0264721Y0114299D02*
X0269888Y0114299D01*
X0271486Y0115897D02*
X0265857Y0115897D01*
X0266200Y0117496D02*
X0272100Y0117496D01*
X0272100Y0119094D02*
X0266200Y0119094D01*
X0266200Y0120693D02*
X0272100Y0120693D01*
X0272100Y0122291D02*
X0266200Y0122291D01*
X0266200Y0123890D02*
X0272100Y0123890D01*
X0272100Y0125488D02*
X0265780Y0125488D01*
X0264536Y0127087D02*
X0272100Y0127087D01*
X0272100Y0128685D02*
X0263800Y0128685D01*
X0263800Y0130284D02*
X0272100Y0130284D01*
X0272100Y0131882D02*
X0263800Y0131882D01*
X0263800Y0133481D02*
X0272100Y0133481D01*
X0272100Y0135079D02*
X0265502Y0135079D01*
X0266181Y0136678D02*
X0272100Y0136678D01*
X0272100Y0138276D02*
X0266200Y0138276D01*
X0266200Y0139875D02*
X0272100Y0139875D01*
X0272100Y0141473D02*
X0266200Y0141473D01*
X0266200Y0143072D02*
X0272100Y0143072D01*
X0270618Y0144670D02*
X0266119Y0144670D01*
X0265354Y0146269D02*
X0269020Y0146269D01*
X0267421Y0147868D02*
X0262995Y0147868D01*
X0268848Y0152663D02*
X0269363Y0152663D01*
X0270447Y0151065D02*
X0286921Y0151065D01*
X0262000Y0170247D02*
X0261600Y0170247D01*
X0261600Y0171845D02*
X0262000Y0171845D01*
X0262000Y0173444D02*
X0261600Y0173444D01*
X0261600Y0175042D02*
X0262000Y0175042D01*
X0229600Y0159057D02*
X0206171Y0159057D01*
X0212770Y0157459D02*
X0228285Y0157459D01*
X0228000Y0155860D02*
X0214368Y0155860D01*
X0215967Y0154262D02*
X0228000Y0154262D01*
X0229363Y0152663D02*
X0217565Y0152663D01*
X0215106Y0149466D02*
X0213800Y0149466D01*
X0213800Y0147868D02*
X0219204Y0147868D01*
X0218246Y0146269D02*
X0215354Y0146269D01*
X0216119Y0144670D02*
X0217481Y0144670D01*
X0217400Y0143072D02*
X0216200Y0143072D01*
X0216200Y0141473D02*
X0217400Y0141473D01*
X0217400Y0139875D02*
X0216200Y0139875D01*
X0216200Y0138276D02*
X0217400Y0138276D01*
X0217419Y0136678D02*
X0216181Y0136678D01*
X0215502Y0135079D02*
X0218098Y0135079D01*
X0219800Y0133481D02*
X0213800Y0133481D01*
X0213800Y0131882D02*
X0219800Y0131882D01*
X0219800Y0130284D02*
X0213800Y0130284D01*
X0213800Y0128685D02*
X0219800Y0128685D01*
X0219064Y0127087D02*
X0214536Y0127087D01*
X0215780Y0125488D02*
X0217820Y0125488D01*
X0217400Y0123890D02*
X0216200Y0123890D01*
X0216200Y0122291D02*
X0217400Y0122291D01*
X0217400Y0120693D02*
X0216200Y0120693D01*
X0216200Y0119094D02*
X0217400Y0119094D01*
X0217400Y0117496D02*
X0216200Y0117496D01*
X0215857Y0115897D02*
X0217743Y0115897D01*
X0218879Y0114299D02*
X0214721Y0114299D01*
X0208879Y0114299D02*
X0204721Y0114299D01*
X0205857Y0115897D02*
X0207743Y0115897D01*
X0207400Y0117496D02*
X0206200Y0117496D01*
X0206200Y0119094D02*
X0207400Y0119094D01*
X0207400Y0120693D02*
X0206200Y0120693D01*
X0206200Y0122291D02*
X0207400Y0122291D01*
X0207400Y0123890D02*
X0206200Y0123890D01*
X0205780Y0125488D02*
X0207820Y0125488D01*
X0209064Y0127087D02*
X0204536Y0127087D01*
X0203800Y0128685D02*
X0209800Y0128685D01*
X0209800Y0130284D02*
X0203800Y0130284D01*
X0203800Y0131882D02*
X0209800Y0131882D01*
X0209800Y0133481D02*
X0203800Y0133481D01*
X0205502Y0135079D02*
X0208098Y0135079D01*
X0207419Y0136678D02*
X0206181Y0136678D01*
X0206200Y0138276D02*
X0207400Y0138276D01*
X0207400Y0139875D02*
X0206200Y0139875D01*
X0206200Y0141473D02*
X0207400Y0141473D01*
X0207400Y0143072D02*
X0206200Y0143072D01*
X0206119Y0144670D02*
X0207481Y0144670D01*
X0208246Y0146269D02*
X0205354Y0146269D01*
X0203800Y0147868D02*
X0209800Y0147868D01*
X0209800Y0149466D02*
X0203800Y0149466D01*
X0203800Y0151065D02*
X0208507Y0151065D01*
X0199800Y0149466D02*
X0109494Y0149466D01*
X0110605Y0147868D02*
X0107896Y0147868D01*
X0109308Y0147330D02*
X0108070Y0146092D01*
X0107400Y0144475D01*
X0107400Y0136725D01*
X0108070Y0135108D01*
X0109308Y0133870D01*
X0109800Y0133666D01*
X0109800Y0127534D01*
X0109308Y0127330D01*
X0108070Y0126092D01*
X0107400Y0124475D01*
X0107400Y0116725D01*
X0108070Y0115108D01*
X0109308Y0113870D01*
X0110925Y0113200D01*
X0112675Y0113200D01*
X0114292Y0113870D01*
X0115530Y0115108D01*
X0116200Y0116725D01*
X0116200Y0124475D01*
X0115530Y0126092D01*
X0114292Y0127330D01*
X0113800Y0127534D01*
X0113800Y0133666D01*
X0114292Y0133870D01*
X0115530Y0135108D01*
X0116200Y0136725D01*
X0116200Y0144475D01*
X0115530Y0146092D01*
X0114292Y0147330D01*
X0112675Y0148000D01*
X0110925Y0148000D01*
X0109308Y0147330D01*
X0108246Y0146269D02*
X0106297Y0146269D01*
X0107481Y0144670D02*
X0104699Y0144670D01*
X0103100Y0143072D02*
X0107400Y0143072D01*
X0107400Y0141473D02*
X0101502Y0141473D01*
X0100800Y0139875D02*
X0107400Y0139875D01*
X0107400Y0138276D02*
X0100800Y0138276D01*
X0100800Y0136678D02*
X0107419Y0136678D01*
X0108098Y0135079D02*
X0100800Y0135079D01*
X0100800Y0133481D02*
X0109800Y0133481D01*
X0109800Y0131882D02*
X0100800Y0131882D01*
X0100800Y0130284D02*
X0109800Y0130284D01*
X0109800Y0128685D02*
X0100800Y0128685D01*
X0100800Y0127087D02*
X0109064Y0127087D01*
X0107820Y0125488D02*
X0100800Y0125488D01*
X0100800Y0123890D02*
X0107400Y0123890D01*
X0107400Y0122291D02*
X0100800Y0122291D01*
X0100800Y0120693D02*
X0107400Y0120693D01*
X0107400Y0119094D02*
X0100800Y0119094D01*
X0100800Y0117496D02*
X0107400Y0117496D01*
X0107743Y0115897D02*
X0100800Y0115897D01*
X0100800Y0114299D02*
X0108879Y0114299D01*
X0111973Y0111102D02*
X0100800Y0111102D01*
X0100800Y0112700D02*
X0113572Y0112700D01*
X0114721Y0114299D02*
X0115170Y0114299D01*
X0115972Y0115100D02*
X0104800Y0103928D01*
X0104800Y0091428D01*
X0102800Y0089428D01*
X0102800Y0039428D01*
X0093472Y0030100D01*
X0087628Y0030100D01*
X0082628Y0035100D01*
X0081940Y0035100D01*
X0081159Y0035882D01*
X0079953Y0036381D01*
X0078647Y0036381D01*
X0077441Y0035882D01*
X0076518Y0034959D01*
X0076019Y0033753D01*
X0076019Y0032447D01*
X0076518Y0031241D01*
X0077441Y0030318D01*
X0078647Y0029819D01*
X0079953Y0029819D01*
X0081159Y0030318D01*
X0081456Y0030616D01*
X0084800Y0027272D01*
X0085972Y0026100D01*
X0095128Y0026100D01*
X0106800Y0037772D01*
X0106800Y0087772D01*
X0107628Y0088600D01*
X0108800Y0089772D01*
X0108800Y0102272D01*
X0117628Y0111100D01*
X0130128Y0111100D01*
X0131300Y0112272D01*
X0132228Y0113200D01*
X0132675Y0113200D01*
X0134292Y0113870D01*
X0135530Y0115108D01*
X0136200Y0116725D01*
X0136200Y0124475D01*
X0135530Y0126092D01*
X0134292Y0127330D01*
X0133800Y0127534D01*
X0133800Y0133666D01*
X0134292Y0133870D01*
X0135530Y0135108D01*
X0136200Y0136725D01*
X0136200Y0144475D01*
X0135530Y0146092D01*
X0134292Y0147330D01*
X0132675Y0148000D01*
X0130925Y0148000D01*
X0129308Y0147330D01*
X0128070Y0146092D01*
X0127400Y0144475D01*
X0127400Y0136725D01*
X0128070Y0135108D01*
X0129308Y0133870D01*
X0129800Y0133666D01*
X0129800Y0127534D01*
X0129308Y0127330D01*
X0128070Y0126092D01*
X0127400Y0124475D01*
X0127400Y0116725D01*
X0128070Y0115108D01*
X0128077Y0115100D01*
X0125913Y0115100D01*
X0126248Y0115757D01*
X0126482Y0116476D01*
X0126600Y0117222D01*
X0126600Y0120400D01*
X0122000Y0120400D01*
X0122000Y0120800D01*
X0121600Y0120800D01*
X0121600Y0128400D01*
X0121422Y0128400D01*
X0120676Y0128282D01*
X0119957Y0128048D01*
X0119284Y0127705D01*
X0118673Y0127261D01*
X0118139Y0126727D01*
X0117695Y0126116D01*
X0117352Y0125443D01*
X0117118Y0124724D01*
X0117000Y0123978D01*
X0117000Y0120800D01*
X0121600Y0120800D01*
X0121600Y0120400D01*
X0117000Y0120400D01*
X0117000Y0117222D01*
X0117118Y0116476D01*
X0117352Y0115757D01*
X0117687Y0115100D01*
X0115972Y0115100D01*
X0115857Y0115897D02*
X0117306Y0115897D01*
X0117000Y0117496D02*
X0116200Y0117496D01*
X0116200Y0119094D02*
X0117000Y0119094D01*
X0116200Y0120693D02*
X0121600Y0120693D01*
X0122000Y0120693D02*
X0127400Y0120693D01*
X0126600Y0120800D02*
X0126600Y0123978D01*
X0126482Y0124724D01*
X0126248Y0125443D01*
X0125905Y0126116D01*
X0125461Y0126727D01*
X0124927Y0127261D01*
X0124316Y0127705D01*
X0123643Y0128048D01*
X0122924Y0128282D01*
X0122178Y0128400D01*
X0122000Y0128400D01*
X0122000Y0120800D01*
X0126600Y0120800D01*
X0126600Y0122291D02*
X0127400Y0122291D01*
X0127400Y0123890D02*
X0126600Y0123890D01*
X0126225Y0125488D02*
X0127820Y0125488D01*
X0129064Y0127087D02*
X0125101Y0127087D01*
X0122000Y0127087D02*
X0121600Y0127087D01*
X0121600Y0125488D02*
X0122000Y0125488D01*
X0122000Y0123890D02*
X0121600Y0123890D01*
X0121600Y0122291D02*
X0122000Y0122291D01*
X0117000Y0122291D02*
X0116200Y0122291D01*
X0116200Y0123890D02*
X0117000Y0123890D01*
X0117375Y0125488D02*
X0115780Y0125488D01*
X0114536Y0127087D02*
X0118499Y0127087D01*
X0113800Y0128685D02*
X0129800Y0128685D01*
X0129800Y0130284D02*
X0113800Y0130284D01*
X0113800Y0131882D02*
X0129800Y0131882D01*
X0129800Y0133481D02*
X0124289Y0133481D01*
X0124316Y0133495D02*
X0124927Y0133939D01*
X0125461Y0134473D01*
X0125905Y0135084D01*
X0126248Y0135757D01*
X0126482Y0136476D01*
X0126600Y0137222D01*
X0126600Y0140400D01*
X0122000Y0140400D01*
X0122000Y0140800D01*
X0121600Y0140800D01*
X0121600Y0148400D01*
X0121422Y0148400D01*
X0120676Y0148282D01*
X0119957Y0148048D01*
X0119284Y0147705D01*
X0118673Y0147261D01*
X0118139Y0146727D01*
X0117695Y0146116D01*
X0117352Y0145443D01*
X0117118Y0144724D01*
X0117000Y0143978D01*
X0117000Y0140800D01*
X0121600Y0140800D01*
X0121600Y0140400D01*
X0117000Y0140400D01*
X0117000Y0137222D01*
X0117118Y0136476D01*
X0117352Y0135757D01*
X0117695Y0135084D01*
X0118139Y0134473D01*
X0118673Y0133939D01*
X0119284Y0133495D01*
X0119957Y0133152D01*
X0120676Y0132918D01*
X0121422Y0132800D01*
X0121600Y0132800D01*
X0121600Y0140400D01*
X0122000Y0140400D01*
X0122000Y0132800D01*
X0122178Y0132800D01*
X0122924Y0132918D01*
X0123643Y0133152D01*
X0124316Y0133495D01*
X0125902Y0135079D02*
X0128098Y0135079D01*
X0127419Y0136678D02*
X0126514Y0136678D01*
X0126600Y0138276D02*
X0127400Y0138276D01*
X0127400Y0139875D02*
X0126600Y0139875D01*
X0126600Y0140800D02*
X0126600Y0143978D01*
X0126482Y0144724D01*
X0126248Y0145443D01*
X0125905Y0146116D01*
X0125461Y0146727D01*
X0124927Y0147261D01*
X0124316Y0147705D01*
X0123643Y0148048D01*
X0122924Y0148282D01*
X0122178Y0148400D01*
X0122000Y0148400D01*
X0122000Y0140800D01*
X0126600Y0140800D01*
X0126600Y0141473D02*
X0127400Y0141473D01*
X0127400Y0143072D02*
X0126600Y0143072D01*
X0126490Y0144670D02*
X0127481Y0144670D01*
X0128246Y0146269D02*
X0125794Y0146269D01*
X0123997Y0147868D02*
X0130605Y0147868D01*
X0132995Y0147868D02*
X0140605Y0147868D01*
X0142995Y0147868D02*
X0150605Y0147868D01*
X0150925Y0148000D02*
X0149308Y0147330D01*
X0148070Y0146092D01*
X0147400Y0144475D01*
X0147400Y0136725D01*
X0148070Y0135108D01*
X0149308Y0133870D01*
X0149800Y0133666D01*
X0149800Y0127534D01*
X0149308Y0127330D01*
X0148070Y0126092D01*
X0147400Y0124475D01*
X0147400Y0116725D01*
X0148070Y0115108D01*
X0149308Y0113870D01*
X0150925Y0113200D01*
X0152675Y0113200D01*
X0154292Y0113870D01*
X0155530Y0115108D01*
X0156200Y0116725D01*
X0156200Y0124475D01*
X0155530Y0126092D01*
X0154292Y0127330D01*
X0153800Y0127534D01*
X0153800Y0133666D01*
X0154292Y0133870D01*
X0155530Y0135108D01*
X0156200Y0136725D01*
X0156200Y0144475D01*
X0155530Y0146092D01*
X0154292Y0147330D01*
X0152675Y0148000D01*
X0150925Y0148000D01*
X0152995Y0147868D02*
X0160605Y0147868D01*
X0160925Y0148000D02*
X0159308Y0147330D01*
X0158070Y0146092D01*
X0157400Y0144475D01*
X0157400Y0136725D01*
X0158070Y0135108D01*
X0159308Y0133870D01*
X0159800Y0133666D01*
X0159800Y0127534D01*
X0159308Y0127330D01*
X0158070Y0126092D01*
X0157400Y0124475D01*
X0157400Y0116725D01*
X0158070Y0115108D01*
X0159308Y0113870D01*
X0160925Y0113200D01*
X0162675Y0113200D01*
X0164292Y0113870D01*
X0165530Y0115108D01*
X0166200Y0116725D01*
X0166200Y0124475D01*
X0165530Y0126092D01*
X0164292Y0127330D01*
X0163800Y0127534D01*
X0163800Y0133666D01*
X0164292Y0133870D01*
X0165530Y0135108D01*
X0166200Y0136725D01*
X0166200Y0144475D01*
X0165530Y0146092D01*
X0164292Y0147330D01*
X0162675Y0148000D01*
X0160925Y0148000D01*
X0162995Y0147868D02*
X0170605Y0147868D01*
X0170925Y0148000D02*
X0169308Y0147330D01*
X0168070Y0146092D01*
X0167400Y0144475D01*
X0167400Y0136725D01*
X0168070Y0135108D01*
X0169308Y0133870D01*
X0169800Y0133666D01*
X0169800Y0127534D01*
X0169308Y0127330D01*
X0168070Y0126092D01*
X0167400Y0124475D01*
X0167400Y0116725D01*
X0168070Y0115108D01*
X0169308Y0113870D01*
X0170925Y0113200D01*
X0172675Y0113200D01*
X0174292Y0113870D01*
X0175530Y0115108D01*
X0176200Y0116725D01*
X0176200Y0124475D01*
X0175530Y0126092D01*
X0174292Y0127330D01*
X0173800Y0127534D01*
X0173800Y0133666D01*
X0174292Y0133870D01*
X0175530Y0135108D01*
X0176200Y0136725D01*
X0176200Y0144475D01*
X0175530Y0146092D01*
X0174292Y0147330D01*
X0172675Y0148000D01*
X0170925Y0148000D01*
X0172995Y0147868D02*
X0180605Y0147868D01*
X0180925Y0148000D02*
X0179308Y0147330D01*
X0178070Y0146092D01*
X0177400Y0144475D01*
X0177400Y0136725D01*
X0178070Y0135108D01*
X0179308Y0133870D01*
X0179800Y0133666D01*
X0179800Y0127534D01*
X0179308Y0127330D01*
X0178070Y0126092D01*
X0177400Y0124475D01*
X0177400Y0116725D01*
X0178070Y0115108D01*
X0179308Y0113870D01*
X0180925Y0113200D01*
X0182675Y0113200D01*
X0184292Y0113870D01*
X0185530Y0115108D01*
X0186200Y0116725D01*
X0186200Y0124475D01*
X0185530Y0126092D01*
X0184292Y0127330D01*
X0183800Y0127534D01*
X0183800Y0133666D01*
X0184292Y0133870D01*
X0185530Y0135108D01*
X0186200Y0136725D01*
X0186200Y0144475D01*
X0185530Y0146092D01*
X0184292Y0147330D01*
X0182675Y0148000D01*
X0180925Y0148000D01*
X0182995Y0147868D02*
X0190605Y0147868D01*
X0190925Y0148000D02*
X0189308Y0147330D01*
X0188070Y0146092D01*
X0187400Y0144475D01*
X0187400Y0136725D01*
X0188070Y0135108D01*
X0189308Y0133870D01*
X0189800Y0133666D01*
X0189800Y0127534D01*
X0189308Y0127330D01*
X0188070Y0126092D01*
X0187400Y0124475D01*
X0187400Y0116725D01*
X0188070Y0115108D01*
X0189308Y0113870D01*
X0190925Y0113200D01*
X0192675Y0113200D01*
X0194292Y0113870D01*
X0195530Y0115108D01*
X0196200Y0116725D01*
X0196200Y0124475D01*
X0195530Y0126092D01*
X0194292Y0127330D01*
X0193800Y0127534D01*
X0193800Y0133666D01*
X0194292Y0133870D01*
X0195530Y0135108D01*
X0196200Y0136725D01*
X0196200Y0144475D01*
X0195530Y0146092D01*
X0194292Y0147330D01*
X0192675Y0148000D01*
X0190925Y0148000D01*
X0192995Y0147868D02*
X0199800Y0147868D01*
X0198246Y0146269D02*
X0195354Y0146269D01*
X0196119Y0144670D02*
X0197481Y0144670D01*
X0197400Y0143072D02*
X0196200Y0143072D01*
X0196200Y0141473D02*
X0197400Y0141473D01*
X0197400Y0139875D02*
X0196200Y0139875D01*
X0196200Y0138276D02*
X0197400Y0138276D01*
X0197419Y0136678D02*
X0196181Y0136678D01*
X0195502Y0135079D02*
X0198098Y0135079D01*
X0199800Y0133481D02*
X0193800Y0133481D01*
X0193800Y0131882D02*
X0199800Y0131882D01*
X0199800Y0130284D02*
X0193800Y0130284D01*
X0193800Y0128685D02*
X0199800Y0128685D01*
X0199064Y0127087D02*
X0194536Y0127087D01*
X0195780Y0125488D02*
X0197820Y0125488D01*
X0197400Y0123890D02*
X0196200Y0123890D01*
X0196200Y0122291D02*
X0197400Y0122291D01*
X0197400Y0120693D02*
X0196200Y0120693D01*
X0196200Y0119094D02*
X0197400Y0119094D01*
X0197400Y0117496D02*
X0196200Y0117496D01*
X0195857Y0115897D02*
X0197743Y0115897D01*
X0198879Y0114299D02*
X0194721Y0114299D01*
X0188879Y0114299D02*
X0184721Y0114299D01*
X0185857Y0115897D02*
X0187743Y0115897D01*
X0187400Y0117496D02*
X0186200Y0117496D01*
X0186200Y0119094D02*
X0187400Y0119094D01*
X0187400Y0120693D02*
X0186200Y0120693D01*
X0186200Y0122291D02*
X0187400Y0122291D01*
X0187400Y0123890D02*
X0186200Y0123890D01*
X0185780Y0125488D02*
X0187820Y0125488D01*
X0189064Y0127087D02*
X0184536Y0127087D01*
X0183800Y0128685D02*
X0189800Y0128685D01*
X0189800Y0130284D02*
X0183800Y0130284D01*
X0183800Y0131882D02*
X0189800Y0131882D01*
X0189800Y0133481D02*
X0183800Y0133481D01*
X0185502Y0135079D02*
X0188098Y0135079D01*
X0187419Y0136678D02*
X0186181Y0136678D01*
X0186200Y0138276D02*
X0187400Y0138276D01*
X0187400Y0139875D02*
X0186200Y0139875D01*
X0186200Y0141473D02*
X0187400Y0141473D01*
X0187400Y0143072D02*
X0186200Y0143072D01*
X0186119Y0144670D02*
X0187481Y0144670D01*
X0188246Y0146269D02*
X0185354Y0146269D01*
X0184409Y0152663D02*
X0112691Y0152663D01*
X0111093Y0151065D02*
X0198507Y0151065D01*
X0178246Y0146269D02*
X0175354Y0146269D01*
X0176119Y0144670D02*
X0177481Y0144670D01*
X0177400Y0143072D02*
X0176200Y0143072D01*
X0176200Y0141473D02*
X0177400Y0141473D01*
X0177400Y0139875D02*
X0176200Y0139875D01*
X0176200Y0138276D02*
X0177400Y0138276D01*
X0177419Y0136678D02*
X0176181Y0136678D01*
X0175502Y0135079D02*
X0178098Y0135079D01*
X0179800Y0133481D02*
X0173800Y0133481D01*
X0173800Y0131882D02*
X0179800Y0131882D01*
X0179800Y0130284D02*
X0173800Y0130284D01*
X0173800Y0128685D02*
X0179800Y0128685D01*
X0179064Y0127087D02*
X0174536Y0127087D01*
X0175780Y0125488D02*
X0177820Y0125488D01*
X0177400Y0123890D02*
X0176200Y0123890D01*
X0176200Y0122291D02*
X0177400Y0122291D01*
X0177400Y0120693D02*
X0176200Y0120693D01*
X0176200Y0119094D02*
X0177400Y0119094D01*
X0177400Y0117496D02*
X0176200Y0117496D01*
X0175857Y0115897D02*
X0177743Y0115897D01*
X0178879Y0114299D02*
X0174721Y0114299D01*
X0168879Y0114299D02*
X0164721Y0114299D01*
X0165857Y0115897D02*
X0167743Y0115897D01*
X0167400Y0117496D02*
X0166200Y0117496D01*
X0166200Y0119094D02*
X0167400Y0119094D01*
X0167400Y0120693D02*
X0166200Y0120693D01*
X0166200Y0122291D02*
X0167400Y0122291D01*
X0167400Y0123890D02*
X0166200Y0123890D01*
X0165780Y0125488D02*
X0167820Y0125488D01*
X0169064Y0127087D02*
X0164536Y0127087D01*
X0163800Y0128685D02*
X0169800Y0128685D01*
X0169800Y0130284D02*
X0163800Y0130284D01*
X0163800Y0131882D02*
X0169800Y0131882D01*
X0169800Y0133481D02*
X0163800Y0133481D01*
X0165502Y0135079D02*
X0168098Y0135079D01*
X0167419Y0136678D02*
X0166181Y0136678D01*
X0166200Y0138276D02*
X0167400Y0138276D01*
X0167400Y0139875D02*
X0166200Y0139875D01*
X0166200Y0141473D02*
X0167400Y0141473D01*
X0167400Y0143072D02*
X0166200Y0143072D01*
X0166119Y0144670D02*
X0167481Y0144670D01*
X0168246Y0146269D02*
X0165354Y0146269D01*
X0158246Y0146269D02*
X0155354Y0146269D01*
X0156119Y0144670D02*
X0157481Y0144670D01*
X0157400Y0143072D02*
X0156200Y0143072D01*
X0156200Y0141473D02*
X0157400Y0141473D01*
X0157400Y0139875D02*
X0156200Y0139875D01*
X0156200Y0138276D02*
X0157400Y0138276D01*
X0157419Y0136678D02*
X0156181Y0136678D01*
X0155502Y0135079D02*
X0158098Y0135079D01*
X0159800Y0133481D02*
X0153800Y0133481D01*
X0153800Y0131882D02*
X0159800Y0131882D01*
X0159800Y0130284D02*
X0153800Y0130284D01*
X0153800Y0128685D02*
X0159800Y0128685D01*
X0159064Y0127087D02*
X0154536Y0127087D01*
X0155780Y0125488D02*
X0157820Y0125488D01*
X0157400Y0123890D02*
X0156200Y0123890D01*
X0156200Y0122291D02*
X0157400Y0122291D01*
X0157400Y0120693D02*
X0156200Y0120693D01*
X0156200Y0119094D02*
X0157400Y0119094D01*
X0157400Y0117496D02*
X0156200Y0117496D01*
X0155857Y0115897D02*
X0157743Y0115897D01*
X0158879Y0114299D02*
X0154721Y0114299D01*
X0148879Y0114299D02*
X0144721Y0114299D01*
X0145857Y0115897D02*
X0147743Y0115897D01*
X0147400Y0117496D02*
X0146200Y0117496D01*
X0146200Y0119094D02*
X0147400Y0119094D01*
X0147400Y0120693D02*
X0146200Y0120693D01*
X0146200Y0122291D02*
X0147400Y0122291D01*
X0147400Y0123890D02*
X0146200Y0123890D01*
X0145780Y0125488D02*
X0147820Y0125488D01*
X0149064Y0127087D02*
X0144536Y0127087D01*
X0144400Y0128685D02*
X0149800Y0128685D01*
X0149800Y0130284D02*
X0144400Y0130284D01*
X0144400Y0131882D02*
X0149800Y0131882D01*
X0149800Y0133481D02*
X0144400Y0133481D01*
X0145502Y0135079D02*
X0148098Y0135079D01*
X0147419Y0136678D02*
X0146181Y0136678D01*
X0146200Y0138276D02*
X0147400Y0138276D01*
X0147400Y0139875D02*
X0146200Y0139875D01*
X0146200Y0141473D02*
X0147400Y0141473D01*
X0147400Y0143072D02*
X0146200Y0143072D01*
X0146119Y0144670D02*
X0147481Y0144670D01*
X0148246Y0146269D02*
X0145354Y0146269D01*
X0138246Y0146269D02*
X0135354Y0146269D01*
X0136119Y0144670D02*
X0137481Y0144670D01*
X0137400Y0143072D02*
X0136200Y0143072D01*
X0136200Y0141473D02*
X0137400Y0141473D01*
X0137400Y0139875D02*
X0136200Y0139875D01*
X0136200Y0138276D02*
X0137400Y0138276D01*
X0137419Y0136678D02*
X0136181Y0136678D01*
X0135502Y0135079D02*
X0138098Y0135079D01*
X0139200Y0133481D02*
X0133800Y0133481D01*
X0133800Y0131882D02*
X0139200Y0131882D01*
X0139200Y0130284D02*
X0133800Y0130284D01*
X0133800Y0128685D02*
X0139200Y0128685D01*
X0139064Y0127087D02*
X0134536Y0127087D01*
X0135780Y0125488D02*
X0137820Y0125488D01*
X0137400Y0123890D02*
X0136200Y0123890D01*
X0136200Y0122291D02*
X0137400Y0122291D01*
X0137400Y0120693D02*
X0136200Y0120693D01*
X0136200Y0119094D02*
X0137400Y0119094D01*
X0137400Y0117496D02*
X0136200Y0117496D01*
X0135857Y0115897D02*
X0137743Y0115897D01*
X0138879Y0114299D02*
X0134721Y0114299D01*
X0131729Y0112700D02*
X0137723Y0112700D01*
X0136125Y0111102D02*
X0130130Y0111102D01*
X0132928Y0107905D02*
X0114433Y0107905D01*
X0116032Y0109503D02*
X0134526Y0109503D01*
X0138683Y0106306D02*
X0144917Y0106306D01*
X0146515Y0104708D02*
X0137085Y0104708D01*
X0135486Y0103109D02*
X0148519Y0103109D01*
X0147096Y0104127D02*
X0147096Y0104127D01*
X0143318Y0107905D02*
X0140282Y0107905D01*
X0145877Y0112700D02*
X0268289Y0112700D01*
X0266690Y0111102D02*
X0147475Y0111102D01*
X0149074Y0109503D02*
X0247592Y0109503D01*
X0249300Y0108100D02*
X0266800Y0108100D01*
X0262924Y0103282D02*
X0262178Y0103400D01*
X0262000Y0103400D01*
X0262000Y0095800D01*
X0266600Y0095800D01*
X0266600Y0098978D01*
X0266482Y0099724D01*
X0266248Y0100443D01*
X0265905Y0101116D01*
X0265461Y0101727D01*
X0264927Y0102261D01*
X0264316Y0102705D01*
X0263643Y0103048D01*
X0262924Y0103282D01*
X0263455Y0103109D02*
X0286921Y0103109D01*
X0286921Y0101511D02*
X0265618Y0101511D01*
X0266421Y0099912D02*
X0286921Y0099912D01*
X0286921Y0098314D02*
X0266600Y0098314D01*
X0266600Y0096715D02*
X0286921Y0096715D01*
X0286921Y0095117D02*
X0266600Y0095117D01*
X0266600Y0095400D02*
X0262000Y0095400D01*
X0262000Y0095800D01*
X0261600Y0095800D01*
X0261600Y0103400D01*
X0261422Y0103400D01*
X0260676Y0103282D01*
X0259957Y0103048D01*
X0259284Y0102705D01*
X0258673Y0102261D01*
X0258139Y0101727D01*
X0257695Y0101116D01*
X0257352Y0100443D01*
X0257118Y0099724D01*
X0257000Y0098978D01*
X0257000Y0095800D01*
X0261600Y0095800D01*
X0261600Y0095400D01*
X0257000Y0095400D01*
X0257000Y0092222D01*
X0257118Y0091476D01*
X0257352Y0090757D01*
X0257695Y0090084D01*
X0258139Y0089473D01*
X0258673Y0088939D01*
X0259284Y0088495D01*
X0259957Y0088152D01*
X0260676Y0087918D01*
X0260713Y0087912D01*
X0259308Y0087330D01*
X0258070Y0086092D01*
X0257400Y0084475D01*
X0257400Y0076725D01*
X0258070Y0075108D01*
X0259308Y0073870D01*
X0259800Y0073666D01*
X0259800Y0067534D01*
X0259308Y0067330D01*
X0258070Y0066092D01*
X0257400Y0064475D01*
X0257400Y0056725D01*
X0258070Y0055108D01*
X0259308Y0053870D01*
X0260925Y0053200D01*
X0262675Y0053200D01*
X0264292Y0053870D01*
X0265530Y0055108D01*
X0266200Y0056725D01*
X0266200Y0064475D01*
X0265530Y0066092D01*
X0264292Y0067330D01*
X0263800Y0067534D01*
X0263800Y0073666D01*
X0264292Y0073870D01*
X0265530Y0075108D01*
X0266200Y0076725D01*
X0266200Y0084475D01*
X0265530Y0086092D01*
X0264292Y0087330D01*
X0262887Y0087912D01*
X0262924Y0087918D01*
X0263643Y0088152D01*
X0264316Y0088495D01*
X0264927Y0088939D01*
X0265461Y0089473D01*
X0265905Y0090084D01*
X0266248Y0090757D01*
X0266482Y0091476D01*
X0266600Y0092222D01*
X0266600Y0095400D01*
X0266600Y0093518D02*
X0286921Y0093518D01*
X0286921Y0091920D02*
X0266552Y0091920D01*
X0266026Y0090321D02*
X0286921Y0090321D01*
X0286921Y0088723D02*
X0264629Y0088723D01*
X0264498Y0087124D02*
X0286921Y0087124D01*
X0286921Y0085526D02*
X0265765Y0085526D01*
X0266200Y0083927D02*
X0286921Y0083927D01*
X0286921Y0082329D02*
X0266200Y0082329D01*
X0266200Y0080730D02*
X0286921Y0080730D01*
X0286921Y0079132D02*
X0266200Y0079132D01*
X0266200Y0077533D02*
X0286921Y0077533D01*
X0286921Y0075934D02*
X0265873Y0075934D01*
X0264759Y0074336D02*
X0286921Y0074336D01*
X0286921Y0072737D02*
X0263800Y0072737D01*
X0263800Y0071139D02*
X0286921Y0071139D01*
X0286921Y0069540D02*
X0263800Y0069540D01*
X0263800Y0067942D02*
X0286921Y0067942D01*
X0286921Y0066343D02*
X0265279Y0066343D01*
X0266088Y0064745D02*
X0286921Y0064745D01*
X0286921Y0063146D02*
X0266200Y0063146D01*
X0266200Y0061548D02*
X0286921Y0061548D01*
X0286921Y0059949D02*
X0266200Y0059949D01*
X0266200Y0058351D02*
X0286921Y0058351D01*
X0286921Y0056752D02*
X0266200Y0056752D01*
X0265549Y0055154D02*
X0286921Y0055154D01*
X0286921Y0053555D02*
X0263533Y0053555D01*
X0260067Y0053555D02*
X0253533Y0053555D01*
X0254292Y0053870D02*
X0252675Y0053200D01*
X0250925Y0053200D01*
X0249308Y0053870D01*
X0248070Y0055108D01*
X0247400Y0056725D01*
X0247400Y0064475D01*
X0248070Y0066092D01*
X0249308Y0067330D01*
X0249800Y0067534D01*
X0249800Y0073666D01*
X0249308Y0073870D01*
X0248070Y0075108D01*
X0247400Y0076725D01*
X0247400Y0084475D01*
X0248070Y0086092D01*
X0249308Y0087330D01*
X0250925Y0088000D01*
X0252675Y0088000D01*
X0254292Y0087330D01*
X0255530Y0086092D01*
X0256200Y0084475D01*
X0256200Y0076725D01*
X0255530Y0075108D01*
X0254292Y0073870D01*
X0253800Y0073666D01*
X0253800Y0067534D01*
X0254292Y0067330D01*
X0255530Y0066092D01*
X0256200Y0064475D01*
X0256200Y0056725D01*
X0255530Y0055108D01*
X0254292Y0053870D01*
X0255549Y0055154D02*
X0258051Y0055154D01*
X0257400Y0056752D02*
X0256200Y0056752D01*
X0256200Y0058351D02*
X0257400Y0058351D01*
X0257400Y0059949D02*
X0256200Y0059949D01*
X0256200Y0061548D02*
X0257400Y0061548D01*
X0257400Y0063146D02*
X0256200Y0063146D01*
X0256088Y0064745D02*
X0257512Y0064745D01*
X0258321Y0066343D02*
X0255279Y0066343D01*
X0253800Y0067942D02*
X0259800Y0067942D01*
X0259800Y0069540D02*
X0253800Y0069540D01*
X0253800Y0071139D02*
X0259800Y0071139D01*
X0259800Y0072737D02*
X0253800Y0072737D01*
X0254759Y0074336D02*
X0258841Y0074336D01*
X0257727Y0075934D02*
X0255873Y0075934D01*
X0256200Y0077533D02*
X0257400Y0077533D01*
X0257400Y0079132D02*
X0256200Y0079132D01*
X0256200Y0080730D02*
X0257400Y0080730D01*
X0257400Y0082329D02*
X0256200Y0082329D01*
X0256200Y0083927D02*
X0257400Y0083927D01*
X0257835Y0085526D02*
X0255765Y0085526D01*
X0254498Y0087124D02*
X0259102Y0087124D01*
X0258971Y0088723D02*
X0253937Y0088723D01*
X0254292Y0088870D02*
X0252675Y0088200D01*
X0250925Y0088200D01*
X0249308Y0088870D01*
X0248603Y0089575D01*
X0247628Y0088600D01*
X0213800Y0088600D01*
X0213800Y0087534D01*
X0214292Y0087330D01*
X0215530Y0086092D01*
X0216200Y0084475D01*
X0216200Y0076725D01*
X0215530Y0075108D01*
X0214292Y0073870D01*
X0213800Y0073666D01*
X0213800Y0067534D01*
X0214292Y0067330D01*
X0215530Y0066092D01*
X0216200Y0064475D01*
X0216200Y0056725D01*
X0215530Y0055108D01*
X0214292Y0053870D01*
X0212675Y0053200D01*
X0210925Y0053200D01*
X0209308Y0053870D01*
X0208070Y0055108D01*
X0207400Y0056725D01*
X0207400Y0064475D01*
X0208070Y0066092D01*
X0209308Y0067330D01*
X0209800Y0067534D01*
X0209800Y0073666D01*
X0209308Y0073870D01*
X0208070Y0075108D01*
X0207400Y0076725D01*
X0207400Y0084475D01*
X0208070Y0086092D01*
X0209308Y0087330D01*
X0209800Y0087534D01*
X0209800Y0088600D01*
X0168472Y0088600D01*
X0167772Y0089300D01*
X0165226Y0089300D01*
X0163000Y0091526D01*
X0163000Y0094674D01*
X0165226Y0096900D01*
X0168374Y0096900D01*
X0170600Y0094674D01*
X0170600Y0092600D01*
X0245972Y0092600D01*
X0247400Y0094028D01*
X0247400Y0099475D01*
X0248070Y0101092D01*
X0249308Y0102330D01*
X0250925Y0103000D01*
X0252675Y0103000D01*
X0254292Y0102330D01*
X0255530Y0101092D01*
X0256200Y0099475D01*
X0256200Y0091725D01*
X0255530Y0090108D01*
X0254292Y0088870D01*
X0255619Y0090321D02*
X0257574Y0090321D01*
X0257048Y0091920D02*
X0256200Y0091920D01*
X0256200Y0093518D02*
X0257000Y0093518D01*
X0257000Y0095117D02*
X0256200Y0095117D01*
X0256200Y0096715D02*
X0257000Y0096715D01*
X0257000Y0098314D02*
X0256200Y0098314D01*
X0256019Y0099912D02*
X0257179Y0099912D01*
X0257982Y0101511D02*
X0255112Y0101511D01*
X0260145Y0103109D02*
X0247420Y0103109D01*
X0248488Y0101511D02*
X0245822Y0101511D01*
X0244223Y0099912D02*
X0247581Y0099912D01*
X0247400Y0098314D02*
X0242625Y0098314D01*
X0241026Y0096715D02*
X0247400Y0096715D01*
X0247400Y0095117D02*
X0239428Y0095117D01*
X0237829Y0093518D02*
X0246890Y0093518D01*
X0247751Y0088723D02*
X0249663Y0088723D01*
X0249102Y0087124D02*
X0244498Y0087124D01*
X0245765Y0085526D02*
X0247835Y0085526D01*
X0247400Y0083927D02*
X0246200Y0083927D01*
X0246200Y0082329D02*
X0247400Y0082329D01*
X0247400Y0080730D02*
X0246200Y0080730D01*
X0246200Y0079132D02*
X0247400Y0079132D01*
X0247400Y0077533D02*
X0246200Y0077533D01*
X0245873Y0075934D02*
X0247727Y0075934D01*
X0248841Y0074336D02*
X0244759Y0074336D01*
X0243800Y0072737D02*
X0249800Y0072737D01*
X0249800Y0071139D02*
X0243800Y0071139D01*
X0243800Y0069540D02*
X0249800Y0069540D01*
X0249800Y0067942D02*
X0243800Y0067942D01*
X0245279Y0066343D02*
X0248321Y0066343D01*
X0247512Y0064745D02*
X0246088Y0064745D01*
X0246200Y0063146D02*
X0247400Y0063146D01*
X0247400Y0061548D02*
X0246200Y0061548D01*
X0246200Y0059949D02*
X0247400Y0059949D01*
X0247400Y0058351D02*
X0246200Y0058351D01*
X0246200Y0056752D02*
X0247400Y0056752D01*
X0248051Y0055154D02*
X0245549Y0055154D01*
X0243800Y0053555D02*
X0250067Y0053555D01*
X0243800Y0051957D02*
X0286921Y0051957D01*
X0286921Y0050358D02*
X0243800Y0050358D01*
X0243800Y0048760D02*
X0286921Y0048760D01*
X0286921Y0047161D02*
X0243748Y0047161D01*
X0243383Y0045563D02*
X0264623Y0045563D01*
X0264941Y0045882D02*
X0264018Y0044959D01*
X0263519Y0043753D01*
X0263519Y0042447D01*
X0264018Y0041241D01*
X0264941Y0040318D01*
X0266147Y0039819D01*
X0267453Y0039819D01*
X0268659Y0040318D01*
X0269582Y0041241D01*
X0270081Y0042447D01*
X0270081Y0043753D01*
X0269582Y0044959D01*
X0268659Y0045882D01*
X0267453Y0046381D01*
X0266147Y0046381D01*
X0264941Y0045882D01*
X0263607Y0043964D02*
X0243018Y0043964D01*
X0242654Y0042366D02*
X0263553Y0042366D01*
X0264493Y0040767D02*
X0242197Y0040767D01*
X0241428Y0039169D02*
X0286921Y0039169D01*
X0286921Y0040767D02*
X0269107Y0040767D01*
X0270047Y0042366D02*
X0286921Y0042366D01*
X0286921Y0043964D02*
X0269993Y0043964D01*
X0268977Y0045563D02*
X0286921Y0045563D01*
X0286921Y0037570D02*
X0240658Y0037570D01*
X0239888Y0035972D02*
X0286921Y0035972D01*
X0286921Y0034373D02*
X0238812Y0034373D01*
X0237538Y0032775D02*
X0286921Y0032775D01*
X0286921Y0031176D02*
X0236263Y0031176D01*
X0235580Y0030320D02*
X0235580Y0030320D01*
X0234649Y0029578D02*
X0286921Y0029578D01*
X0286921Y0027979D02*
X0232645Y0027979D01*
X0230640Y0026381D02*
X0286921Y0026381D01*
X0286921Y0024782D02*
X0227374Y0024782D01*
X0224439Y0027979D02*
X0097008Y0027979D01*
X0098606Y0029578D02*
X0227758Y0029578D01*
X0229991Y0031176D02*
X0100205Y0031176D01*
X0101803Y0032775D02*
X0231996Y0032775D01*
X0233499Y0034373D02*
X0103402Y0034373D01*
X0105000Y0035972D02*
X0151788Y0035972D01*
X0151518Y0036241D02*
X0152441Y0035318D01*
X0153647Y0034819D01*
X0154953Y0034819D01*
X0156159Y0035318D01*
X0157082Y0036241D01*
X0157581Y0037447D01*
X0157581Y0038753D01*
X0157082Y0039959D01*
X0156159Y0040882D01*
X0154953Y0041381D01*
X0153647Y0041381D01*
X0152441Y0040882D01*
X0151518Y0039959D01*
X0151019Y0038753D01*
X0151019Y0037447D01*
X0151518Y0036241D01*
X0151019Y0037570D02*
X0106599Y0037570D01*
X0106800Y0039169D02*
X0151191Y0039169D01*
X0152327Y0040767D02*
X0106800Y0040767D01*
X0106800Y0042366D02*
X0238357Y0042366D01*
X0238757Y0043964D02*
X0106800Y0043964D01*
X0106800Y0045563D02*
X0239122Y0045563D01*
X0239487Y0047161D02*
X0106800Y0047161D01*
X0106800Y0048760D02*
X0239697Y0048760D01*
X0239786Y0050358D02*
X0106800Y0050358D01*
X0106800Y0051957D02*
X0239800Y0051957D01*
X0239800Y0053555D02*
X0233533Y0053555D01*
X0234292Y0053870D02*
X0235530Y0055108D01*
X0236200Y0056725D01*
X0236200Y0064475D01*
X0235530Y0066092D01*
X0234292Y0067330D01*
X0233800Y0067534D01*
X0233800Y0073666D01*
X0234292Y0073870D01*
X0235530Y0075108D01*
X0236200Y0076725D01*
X0236200Y0084475D01*
X0235530Y0086092D01*
X0234292Y0087330D01*
X0232675Y0088000D01*
X0230925Y0088000D01*
X0229308Y0087330D01*
X0228070Y0086092D01*
X0227400Y0084475D01*
X0227400Y0076725D01*
X0228070Y0075108D01*
X0229308Y0073870D01*
X0229800Y0073666D01*
X0229800Y0067534D01*
X0229308Y0067330D01*
X0228070Y0066092D01*
X0227400Y0064475D01*
X0227400Y0056725D01*
X0228070Y0055108D01*
X0229308Y0053870D01*
X0230925Y0053200D01*
X0232675Y0053200D01*
X0234292Y0053870D01*
X0235549Y0055154D02*
X0238051Y0055154D01*
X0237400Y0056752D02*
X0236200Y0056752D01*
X0236200Y0058351D02*
X0237400Y0058351D01*
X0237400Y0059949D02*
X0236200Y0059949D01*
X0236200Y0061548D02*
X0237400Y0061548D01*
X0237400Y0063146D02*
X0236200Y0063146D01*
X0236088Y0064745D02*
X0237512Y0064745D01*
X0238321Y0066343D02*
X0235279Y0066343D01*
X0233800Y0067942D02*
X0239800Y0067942D01*
X0239800Y0069540D02*
X0233800Y0069540D01*
X0233800Y0071139D02*
X0239800Y0071139D01*
X0239800Y0072737D02*
X0233800Y0072737D01*
X0234759Y0074336D02*
X0238841Y0074336D01*
X0237727Y0075934D02*
X0235873Y0075934D01*
X0236200Y0077533D02*
X0237400Y0077533D01*
X0237400Y0079132D02*
X0236200Y0079132D01*
X0236200Y0080730D02*
X0237400Y0080730D01*
X0237400Y0082329D02*
X0236200Y0082329D01*
X0236200Y0083927D02*
X0237400Y0083927D01*
X0237835Y0085526D02*
X0235765Y0085526D01*
X0234498Y0087124D02*
X0239102Y0087124D01*
X0233271Y0093518D02*
X0170600Y0093518D01*
X0170157Y0095117D02*
X0231672Y0095117D01*
X0230074Y0096715D02*
X0168559Y0096715D01*
X0165041Y0096715D02*
X0129400Y0096715D01*
X0130157Y0095117D02*
X0163443Y0095117D01*
X0163000Y0093518D02*
X0130600Y0093518D01*
X0130600Y0091920D02*
X0163000Y0091920D01*
X0164205Y0090321D02*
X0129395Y0090321D01*
X0130925Y0088000D02*
X0129308Y0087330D01*
X0128070Y0086092D01*
X0127400Y0084475D01*
X0127400Y0076725D01*
X0128070Y0075108D01*
X0129308Y0073870D01*
X0129800Y0073666D01*
X0129800Y0067534D01*
X0129308Y0067330D01*
X0128070Y0066092D01*
X0127400Y0064475D01*
X0127400Y0056725D01*
X0128070Y0055108D01*
X0129308Y0053870D01*
X0130925Y0053200D01*
X0132675Y0053200D01*
X0134292Y0053870D01*
X0135530Y0055108D01*
X0136200Y0056725D01*
X0136200Y0064475D01*
X0135530Y0066092D01*
X0134292Y0067330D01*
X0133800Y0067534D01*
X0133800Y0073666D01*
X0134292Y0073870D01*
X0135530Y0075108D01*
X0136200Y0076725D01*
X0136200Y0084475D01*
X0135530Y0086092D01*
X0134292Y0087330D01*
X0132675Y0088000D01*
X0130925Y0088000D01*
X0129102Y0087124D02*
X0124498Y0087124D01*
X0124292Y0087330D02*
X0122675Y0088000D01*
X0120925Y0088000D01*
X0119308Y0087330D01*
X0118070Y0086092D01*
X0117400Y0084475D01*
X0117400Y0076725D01*
X0118070Y0075108D01*
X0119308Y0073870D01*
X0119800Y0073666D01*
X0119800Y0067534D01*
X0119308Y0067330D01*
X0118070Y0066092D01*
X0117400Y0064475D01*
X0117400Y0056725D01*
X0118070Y0055108D01*
X0119308Y0053870D01*
X0120925Y0053200D01*
X0122675Y0053200D01*
X0124292Y0053870D01*
X0125530Y0055108D01*
X0126200Y0056725D01*
X0126200Y0064475D01*
X0125530Y0066092D01*
X0124292Y0067330D01*
X0123800Y0067534D01*
X0123800Y0073666D01*
X0124292Y0073870D01*
X0125530Y0075108D01*
X0126200Y0076725D01*
X0126200Y0084475D01*
X0125530Y0086092D01*
X0124292Y0087330D01*
X0125765Y0085526D02*
X0127835Y0085526D01*
X0127400Y0083927D02*
X0126200Y0083927D01*
X0126200Y0082329D02*
X0127400Y0082329D01*
X0127400Y0080730D02*
X0126200Y0080730D01*
X0126200Y0079132D02*
X0127400Y0079132D01*
X0127400Y0077533D02*
X0126200Y0077533D01*
X0125873Y0075934D02*
X0127727Y0075934D01*
X0128841Y0074336D02*
X0124759Y0074336D01*
X0123800Y0072737D02*
X0129800Y0072737D01*
X0129800Y0071139D02*
X0123800Y0071139D01*
X0123800Y0069540D02*
X0129800Y0069540D01*
X0129800Y0067942D02*
X0123800Y0067942D01*
X0125279Y0066343D02*
X0128321Y0066343D01*
X0127512Y0064745D02*
X0126088Y0064745D01*
X0126200Y0063146D02*
X0127400Y0063146D01*
X0127400Y0061548D02*
X0126200Y0061548D01*
X0126200Y0059949D02*
X0127400Y0059949D01*
X0127400Y0058351D02*
X0126200Y0058351D01*
X0126200Y0056752D02*
X0127400Y0056752D01*
X0128051Y0055154D02*
X0125549Y0055154D01*
X0123533Y0053555D02*
X0130067Y0053555D01*
X0133533Y0053555D02*
X0139201Y0053555D01*
X0139284Y0053495D02*
X0139957Y0053152D01*
X0140676Y0052918D01*
X0141422Y0052800D01*
X0141600Y0052800D01*
X0141600Y0060400D01*
X0142000Y0060400D01*
X0142000Y0060800D01*
X0146600Y0060800D01*
X0146600Y0063978D01*
X0146482Y0064724D01*
X0146248Y0065443D01*
X0145905Y0066116D01*
X0145461Y0066727D01*
X0144927Y0067261D01*
X0144316Y0067705D01*
X0143643Y0068048D01*
X0142924Y0068282D01*
X0142178Y0068400D01*
X0142000Y0068400D01*
X0142000Y0060800D01*
X0141600Y0060800D01*
X0141600Y0068400D01*
X0141422Y0068400D01*
X0140676Y0068282D01*
X0139957Y0068048D01*
X0139284Y0067705D01*
X0138673Y0067261D01*
X0138139Y0066727D01*
X0137695Y0066116D01*
X0137352Y0065443D01*
X0137118Y0064724D01*
X0137000Y0063978D01*
X0137000Y0060800D01*
X0141600Y0060800D01*
X0141600Y0060400D01*
X0137000Y0060400D01*
X0137000Y0057222D01*
X0137118Y0056476D01*
X0137352Y0055757D01*
X0137695Y0055084D01*
X0138139Y0054473D01*
X0138673Y0053939D01*
X0139284Y0053495D01*
X0141600Y0053555D02*
X0142000Y0053555D01*
X0142000Y0052800D02*
X0142178Y0052800D01*
X0142924Y0052918D01*
X0143643Y0053152D01*
X0144316Y0053495D01*
X0144927Y0053939D01*
X0145461Y0054473D01*
X0145905Y0055084D01*
X0146248Y0055757D01*
X0146482Y0056476D01*
X0146600Y0057222D01*
X0146600Y0060400D01*
X0142000Y0060400D01*
X0142000Y0052800D01*
X0142000Y0055154D02*
X0141600Y0055154D01*
X0141600Y0056752D02*
X0142000Y0056752D01*
X0142000Y0058351D02*
X0141600Y0058351D01*
X0141600Y0059949D02*
X0142000Y0059949D01*
X0142000Y0061548D02*
X0141600Y0061548D01*
X0141600Y0063146D02*
X0142000Y0063146D01*
X0142000Y0064745D02*
X0141600Y0064745D01*
X0141600Y0066343D02*
X0142000Y0066343D01*
X0142000Y0067942D02*
X0141600Y0067942D01*
X0139749Y0067942D02*
X0133800Y0067942D01*
X0133800Y0069540D02*
X0149800Y0069540D01*
X0149800Y0067942D02*
X0143851Y0067942D01*
X0145740Y0066343D02*
X0148321Y0066343D01*
X0148070Y0066092D02*
X0147400Y0064475D01*
X0147400Y0056725D01*
X0148070Y0055108D01*
X0149308Y0053870D01*
X0150925Y0053200D01*
X0152675Y0053200D01*
X0154292Y0053870D01*
X0155530Y0055108D01*
X0156200Y0056725D01*
X0156200Y0064475D01*
X0155530Y0066092D01*
X0154292Y0067330D01*
X0153800Y0067534D01*
X0153800Y0073666D01*
X0154292Y0073870D01*
X0155530Y0075108D01*
X0156200Y0076725D01*
X0156200Y0084475D01*
X0155530Y0086092D01*
X0154292Y0087330D01*
X0152675Y0088000D01*
X0150925Y0088000D01*
X0149308Y0087330D01*
X0148070Y0086092D01*
X0147400Y0084475D01*
X0147400Y0076725D01*
X0148070Y0075108D01*
X0149308Y0073870D01*
X0149800Y0073666D01*
X0149800Y0067534D01*
X0149308Y0067330D01*
X0148070Y0066092D01*
X0147512Y0064745D02*
X0146475Y0064745D01*
X0146600Y0063146D02*
X0147400Y0063146D01*
X0147400Y0061548D02*
X0146600Y0061548D01*
X0146600Y0059949D02*
X0147400Y0059949D01*
X0147400Y0058351D02*
X0146600Y0058351D01*
X0146526Y0056752D02*
X0147400Y0056752D01*
X0148051Y0055154D02*
X0145941Y0055154D01*
X0144399Y0053555D02*
X0150067Y0053555D01*
X0153533Y0053555D02*
X0160067Y0053555D01*
X0159308Y0053870D02*
X0160925Y0053200D01*
X0162675Y0053200D01*
X0164292Y0053870D01*
X0165530Y0055108D01*
X0166200Y0056725D01*
X0166200Y0064475D01*
X0165530Y0066092D01*
X0164292Y0067330D01*
X0163800Y0067534D01*
X0163800Y0073666D01*
X0164292Y0073870D01*
X0165530Y0075108D01*
X0166200Y0076725D01*
X0166200Y0084475D01*
X0165530Y0086092D01*
X0164292Y0087330D01*
X0162675Y0088000D01*
X0160925Y0088000D01*
X0159308Y0087330D01*
X0158070Y0086092D01*
X0157400Y0084475D01*
X0157400Y0076725D01*
X0158070Y0075108D01*
X0159308Y0073870D01*
X0159800Y0073666D01*
X0159800Y0067534D01*
X0159308Y0067330D01*
X0158070Y0066092D01*
X0157400Y0064475D01*
X0157400Y0056725D01*
X0158070Y0055108D01*
X0159308Y0053870D01*
X0158051Y0055154D02*
X0155549Y0055154D01*
X0156200Y0056752D02*
X0157400Y0056752D01*
X0157400Y0058351D02*
X0156200Y0058351D01*
X0156200Y0059949D02*
X0157400Y0059949D01*
X0157400Y0061548D02*
X0156200Y0061548D01*
X0156200Y0063146D02*
X0157400Y0063146D01*
X0157512Y0064745D02*
X0156088Y0064745D01*
X0155279Y0066343D02*
X0158321Y0066343D01*
X0159800Y0067942D02*
X0153800Y0067942D01*
X0153800Y0069540D02*
X0159800Y0069540D01*
X0159800Y0071139D02*
X0153800Y0071139D01*
X0153800Y0072737D02*
X0159800Y0072737D01*
X0158841Y0074336D02*
X0154759Y0074336D01*
X0155873Y0075934D02*
X0157727Y0075934D01*
X0157400Y0077533D02*
X0156200Y0077533D01*
X0156200Y0079132D02*
X0157400Y0079132D01*
X0157400Y0080730D02*
X0156200Y0080730D01*
X0156200Y0082329D02*
X0157400Y0082329D01*
X0157400Y0083927D02*
X0156200Y0083927D01*
X0155765Y0085526D02*
X0157835Y0085526D01*
X0159102Y0087124D02*
X0154498Y0087124D01*
X0149102Y0087124D02*
X0145064Y0087124D01*
X0144927Y0087261D02*
X0144316Y0087705D01*
X0143643Y0088048D01*
X0142924Y0088282D01*
X0142178Y0088400D01*
X0142000Y0088400D01*
X0142000Y0080800D01*
X0146600Y0080800D01*
X0146600Y0083978D01*
X0146482Y0084724D01*
X0146248Y0085443D01*
X0145905Y0086116D01*
X0145461Y0086727D01*
X0144927Y0087261D01*
X0146206Y0085526D02*
X0147835Y0085526D01*
X0147400Y0083927D02*
X0146600Y0083927D01*
X0146600Y0082329D02*
X0147400Y0082329D01*
X0147400Y0080730D02*
X0142000Y0080730D01*
X0142000Y0080800D02*
X0142000Y0080400D01*
X0146600Y0080400D01*
X0146600Y0077222D01*
X0146482Y0076476D01*
X0146248Y0075757D01*
X0145905Y0075084D01*
X0145461Y0074473D01*
X0144927Y0073939D01*
X0144316Y0073495D01*
X0143643Y0073152D01*
X0142924Y0072918D01*
X0142178Y0072800D01*
X0142000Y0072800D01*
X0142000Y0080400D01*
X0141600Y0080400D01*
X0141600Y0072800D01*
X0141422Y0072800D01*
X0140676Y0072918D01*
X0139957Y0073152D01*
X0139284Y0073495D01*
X0138673Y0073939D01*
X0138139Y0074473D01*
X0137695Y0075084D01*
X0137352Y0075757D01*
X0137118Y0076476D01*
X0137000Y0077222D01*
X0137000Y0080400D01*
X0141600Y0080400D01*
X0141600Y0080800D01*
X0141600Y0088400D01*
X0141422Y0088400D01*
X0140676Y0088282D01*
X0139957Y0088048D01*
X0139284Y0087705D01*
X0138673Y0087261D01*
X0138139Y0086727D01*
X0137695Y0086116D01*
X0137352Y0085443D01*
X0137118Y0084724D01*
X0137000Y0083978D01*
X0137000Y0080800D01*
X0141600Y0080800D01*
X0142000Y0080800D01*
X0141600Y0080730D02*
X0136200Y0080730D01*
X0136200Y0079132D02*
X0137000Y0079132D01*
X0137000Y0077533D02*
X0136200Y0077533D01*
X0135873Y0075934D02*
X0137294Y0075934D01*
X0138276Y0074336D02*
X0134759Y0074336D01*
X0133800Y0072737D02*
X0149800Y0072737D01*
X0149800Y0071139D02*
X0133800Y0071139D01*
X0135279Y0066343D02*
X0137860Y0066343D01*
X0137125Y0064745D02*
X0136088Y0064745D01*
X0136200Y0063146D02*
X0137000Y0063146D01*
X0137000Y0061548D02*
X0136200Y0061548D01*
X0136200Y0059949D02*
X0137000Y0059949D01*
X0137000Y0058351D02*
X0136200Y0058351D01*
X0136200Y0056752D02*
X0137074Y0056752D01*
X0137659Y0055154D02*
X0135549Y0055154D01*
X0120067Y0053555D02*
X0113533Y0053555D01*
X0114292Y0053870D02*
X0112675Y0053200D01*
X0110925Y0053200D01*
X0109308Y0053870D01*
X0108070Y0055108D01*
X0107400Y0056725D01*
X0107400Y0064475D01*
X0108070Y0066092D01*
X0109308Y0067330D01*
X0109800Y0067534D01*
X0109800Y0073666D01*
X0109308Y0073870D01*
X0108070Y0075108D01*
X0107400Y0076725D01*
X0107400Y0084475D01*
X0108070Y0086092D01*
X0109308Y0087330D01*
X0110925Y0088000D01*
X0112675Y0088000D01*
X0114292Y0087330D01*
X0115530Y0086092D01*
X0116200Y0084475D01*
X0116200Y0076725D01*
X0115530Y0075108D01*
X0114292Y0073870D01*
X0113800Y0073666D01*
X0113800Y0067534D01*
X0114292Y0067330D01*
X0115530Y0066092D01*
X0116200Y0064475D01*
X0116200Y0056725D01*
X0115530Y0055108D01*
X0114292Y0053870D01*
X0115549Y0055154D02*
X0118051Y0055154D01*
X0117400Y0056752D02*
X0116200Y0056752D01*
X0116200Y0058351D02*
X0117400Y0058351D01*
X0117400Y0059949D02*
X0116200Y0059949D01*
X0116200Y0061548D02*
X0117400Y0061548D01*
X0117400Y0063146D02*
X0116200Y0063146D01*
X0116088Y0064745D02*
X0117512Y0064745D01*
X0118321Y0066343D02*
X0115279Y0066343D01*
X0113800Y0067942D02*
X0119800Y0067942D01*
X0119800Y0069540D02*
X0113800Y0069540D01*
X0113800Y0071139D02*
X0119800Y0071139D01*
X0119800Y0072737D02*
X0113800Y0072737D01*
X0114759Y0074336D02*
X0118841Y0074336D01*
X0117727Y0075934D02*
X0115873Y0075934D01*
X0116200Y0077533D02*
X0117400Y0077533D01*
X0117400Y0079132D02*
X0116200Y0079132D01*
X0116200Y0080730D02*
X0117400Y0080730D01*
X0117400Y0082329D02*
X0116200Y0082329D01*
X0116200Y0083927D02*
X0117400Y0083927D01*
X0117835Y0085526D02*
X0115765Y0085526D01*
X0114498Y0087124D02*
X0119102Y0087124D01*
X0124205Y0090321D02*
X0108800Y0090321D01*
X0108800Y0091920D02*
X0123000Y0091920D01*
X0123000Y0093518D02*
X0108800Y0093518D01*
X0108800Y0095117D02*
X0123443Y0095117D01*
X0124200Y0096715D02*
X0108800Y0096715D01*
X0108800Y0098314D02*
X0111946Y0098314D01*
X0111033Y0099912D02*
X0108800Y0099912D01*
X0108800Y0101511D02*
X0111126Y0101511D01*
X0112169Y0103109D02*
X0109638Y0103109D01*
X0111236Y0104708D02*
X0129731Y0104708D01*
X0131329Y0106306D02*
X0112835Y0106306D01*
X0110375Y0109503D02*
X0100800Y0109503D01*
X0100800Y0107905D02*
X0108776Y0107905D01*
X0107178Y0106306D02*
X0100800Y0106306D01*
X0100800Y0104708D02*
X0105579Y0104708D01*
X0104800Y0103109D02*
X0100800Y0103109D01*
X0100800Y0101511D02*
X0104800Y0101511D01*
X0104800Y0099912D02*
X0100800Y0099912D01*
X0100800Y0098314D02*
X0104800Y0098314D01*
X0104800Y0096715D02*
X0100800Y0096715D01*
X0100800Y0095117D02*
X0104800Y0095117D01*
X0104800Y0093518D02*
X0100800Y0093518D01*
X0100800Y0091920D02*
X0104800Y0091920D01*
X0103693Y0090321D02*
X0100800Y0090321D01*
X0100800Y0088723D02*
X0102800Y0088723D01*
X0102800Y0087124D02*
X0100800Y0087124D01*
X0100800Y0085526D02*
X0102800Y0085526D01*
X0102800Y0083927D02*
X0100800Y0083927D01*
X0100800Y0082329D02*
X0102800Y0082329D01*
X0102800Y0080730D02*
X0100800Y0080730D01*
X0100800Y0079132D02*
X0102800Y0079132D01*
X0102800Y0077533D02*
X0100800Y0077533D01*
X0100800Y0075934D02*
X0102800Y0075934D01*
X0102800Y0074336D02*
X0100800Y0074336D01*
X0100800Y0072737D02*
X0102800Y0072737D01*
X0102800Y0071139D02*
X0100800Y0071139D01*
X0100800Y0069540D02*
X0102800Y0069540D01*
X0102800Y0067942D02*
X0100800Y0067942D01*
X0100800Y0066343D02*
X0102800Y0066343D01*
X0102800Y0064745D02*
X0100800Y0064745D01*
X0100800Y0063146D02*
X0102800Y0063146D01*
X0102800Y0061548D02*
X0100800Y0061548D01*
X0100800Y0059949D02*
X0102800Y0059949D01*
X0102800Y0058351D02*
X0100800Y0058351D01*
X0100800Y0056752D02*
X0102800Y0056752D01*
X0102800Y0055154D02*
X0100800Y0055154D01*
X0100800Y0053555D02*
X0102800Y0053555D01*
X0102800Y0051957D02*
X0100800Y0051957D01*
X0100800Y0050358D02*
X0102800Y0050358D01*
X0102800Y0048760D02*
X0100800Y0048760D01*
X0100800Y0047161D02*
X0102800Y0047161D01*
X0102800Y0045563D02*
X0100800Y0045563D01*
X0100800Y0043964D02*
X0102800Y0043964D01*
X0102800Y0042366D02*
X0100800Y0042366D01*
X0100800Y0040767D02*
X0102800Y0040767D01*
X0102540Y0039169D02*
X0100800Y0039169D01*
X0100942Y0037570D02*
X0100599Y0037570D01*
X0099343Y0035972D02*
X0099000Y0035972D01*
X0097745Y0034373D02*
X0097402Y0034373D01*
X0096146Y0032775D02*
X0084954Y0032775D01*
X0085198Y0034373D02*
X0083355Y0034373D01*
X0083600Y0035972D02*
X0080941Y0035972D01*
X0082001Y0037570D02*
X0073800Y0037570D01*
X0073800Y0035972D02*
X0077659Y0035972D01*
X0076276Y0034373D02*
X0073897Y0034373D01*
X0074352Y0032775D02*
X0076019Y0032775D01*
X0076584Y0031176D02*
X0074916Y0031176D01*
X0076077Y0029578D02*
X0082494Y0029578D01*
X0084092Y0027979D02*
X0077826Y0027979D01*
X0081310Y0026381D02*
X0085691Y0026381D01*
X0086552Y0031176D02*
X0094548Y0031176D01*
X0095409Y0026381D02*
X0218598Y0026381D01*
X0223259Y0023184D02*
X0232243Y0023184D01*
X0232441Y0023382D02*
X0231518Y0022459D01*
X0231019Y0021253D01*
X0231019Y0019947D01*
X0231518Y0018741D01*
X0232441Y0017818D01*
X0233647Y0017319D01*
X0234953Y0017319D01*
X0236159Y0017818D01*
X0237082Y0018741D01*
X0237581Y0019947D01*
X0237581Y0021253D01*
X0237082Y0022459D01*
X0236159Y0023382D01*
X0234953Y0023881D01*
X0233647Y0023881D01*
X0232441Y0023382D01*
X0231157Y0021585D02*
X0036142Y0021585D01*
X0036200Y0021725D02*
X0035530Y0020108D01*
X0034292Y0018870D01*
X0032675Y0018200D01*
X0030925Y0018200D01*
X0029308Y0018870D01*
X0028070Y0020108D01*
X0027400Y0021725D01*
X0027400Y0029475D01*
X0028070Y0031092D01*
X0029308Y0032330D01*
X0030925Y0033000D01*
X0032675Y0033000D01*
X0034292Y0032330D01*
X0035530Y0031092D01*
X0036200Y0029475D01*
X0036200Y0027600D01*
X0055972Y0027600D01*
X0061019Y0032647D01*
X0061019Y0033753D01*
X0061518Y0034959D01*
X0062441Y0035882D01*
X0063647Y0036381D01*
X0064953Y0036381D01*
X0066159Y0035882D01*
X0067082Y0034959D01*
X0067581Y0033753D01*
X0067581Y0032447D01*
X0067082Y0031241D01*
X0066159Y0030318D01*
X0064953Y0029819D01*
X0063847Y0029819D01*
X0057628Y0023600D01*
X0036200Y0023600D01*
X0036200Y0021725D01*
X0036200Y0023184D02*
X0077827Y0023184D01*
X0077095Y0023421D02*
X0077095Y0023421D01*
X0075222Y0024782D02*
X0058811Y0024782D01*
X0060409Y0026381D02*
X0073311Y0026381D01*
X0073635Y0025935D02*
X0073635Y0025935D01*
X0073635Y0025935D01*
X0072150Y0027979D02*
X0062008Y0027979D01*
X0063606Y0029578D02*
X0071062Y0029578D01*
X0070543Y0031176D02*
X0067016Y0031176D01*
X0067581Y0032775D02*
X0070023Y0032775D01*
X0069800Y0034373D02*
X0067324Y0034373D01*
X0065941Y0035972D02*
X0069800Y0035972D01*
X0069800Y0037570D02*
X0043800Y0037570D01*
X0044591Y0039169D02*
X0049009Y0039169D01*
X0047797Y0040767D02*
X0045803Y0040767D01*
X0046200Y0042366D02*
X0047400Y0042366D01*
X0047400Y0043964D02*
X0046200Y0043964D01*
X0046200Y0045563D02*
X0047400Y0045563D01*
X0047400Y0047161D02*
X0046200Y0047161D01*
X0044800Y0051957D02*
X0044666Y0051957D01*
X0044800Y0053555D02*
X0043432Y0053555D01*
X0038934Y0051957D02*
X0036834Y0051957D01*
X0037766Y0050358D02*
X0035834Y0050358D01*
X0036200Y0048760D02*
X0037400Y0048760D01*
X0037400Y0047161D02*
X0036200Y0047161D01*
X0036200Y0045563D02*
X0037400Y0045563D01*
X0037400Y0043964D02*
X0036200Y0043964D01*
X0036200Y0042366D02*
X0037400Y0042366D01*
X0037797Y0040767D02*
X0035803Y0040767D01*
X0034591Y0039169D02*
X0039009Y0039169D01*
X0042500Y0035972D02*
X0062659Y0035972D01*
X0062178Y0037800D02*
X0062924Y0037918D01*
X0063643Y0038152D01*
X0064316Y0038495D01*
X0064927Y0038939D01*
X0065461Y0039473D01*
X0065905Y0040084D01*
X0066248Y0040757D01*
X0066482Y0041476D01*
X0066600Y0042222D01*
X0066600Y0045400D01*
X0062000Y0045400D01*
X0062000Y0045800D01*
X0066600Y0045800D01*
X0066600Y0048978D01*
X0066482Y0049724D01*
X0066248Y0050443D01*
X0065905Y0051116D01*
X0065461Y0051727D01*
X0064927Y0052261D01*
X0064316Y0052705D01*
X0063643Y0053048D01*
X0062924Y0053282D01*
X0062178Y0053400D01*
X0062000Y0053400D01*
X0062000Y0045800D01*
X0061600Y0045800D01*
X0061600Y0053400D01*
X0061422Y0053400D01*
X0060676Y0053282D01*
X0059957Y0053048D01*
X0059284Y0052705D01*
X0058673Y0052261D01*
X0058139Y0051727D01*
X0057695Y0051116D01*
X0057352Y0050443D01*
X0057118Y0049724D01*
X0057000Y0048978D01*
X0057000Y0045800D01*
X0061600Y0045800D01*
X0061600Y0045400D01*
X0062000Y0045400D01*
X0062000Y0037800D01*
X0062178Y0037800D01*
X0061600Y0037800D02*
X0061600Y0045400D01*
X0057000Y0045400D01*
X0057000Y0042222D01*
X0057118Y0041476D01*
X0057352Y0040757D01*
X0057695Y0040084D01*
X0058139Y0039473D01*
X0058673Y0038939D01*
X0059284Y0038495D01*
X0059957Y0038152D01*
X0060676Y0037918D01*
X0061422Y0037800D01*
X0061600Y0037800D01*
X0061600Y0039169D02*
X0062000Y0039169D01*
X0062000Y0040767D02*
X0061600Y0040767D01*
X0061600Y0042366D02*
X0062000Y0042366D01*
X0062000Y0043964D02*
X0061600Y0043964D01*
X0061600Y0045563D02*
X0056200Y0045563D01*
X0056200Y0047161D02*
X0057000Y0047161D01*
X0057000Y0048760D02*
X0056200Y0048760D01*
X0055834Y0050358D02*
X0057324Y0050358D01*
X0058369Y0051957D02*
X0054666Y0051957D01*
X0053800Y0053555D02*
X0066016Y0053555D01*
X0065231Y0051957D02*
X0067615Y0051957D01*
X0067766Y0050358D02*
X0066276Y0050358D01*
X0066600Y0048760D02*
X0067400Y0048760D01*
X0067400Y0047161D02*
X0066600Y0047161D01*
X0067400Y0045563D02*
X0062000Y0045563D01*
X0062000Y0047161D02*
X0061600Y0047161D01*
X0061600Y0048760D02*
X0062000Y0048760D01*
X0062000Y0050358D02*
X0061600Y0050358D01*
X0061600Y0051957D02*
X0062000Y0051957D01*
X0064418Y0055154D02*
X0054182Y0055154D01*
X0055781Y0056752D02*
X0062819Y0056752D01*
X0062300Y0058351D02*
X0056300Y0058351D01*
X0059300Y0058938D02*
X0059300Y0063100D01*
X0059300Y0063100D01*
X0059300Y0067262D01*
X0060718Y0067262D01*
X0061176Y0067140D01*
X0061586Y0066903D01*
X0061921Y0066567D01*
X0062040Y0066363D01*
X0062539Y0066862D01*
X0066061Y0066862D01*
X0066800Y0066123D01*
X0067539Y0066862D01*
X0071061Y0066862D01*
X0071700Y0066223D01*
X0071700Y0068000D01*
X0047877Y0068000D01*
X0046900Y0067023D01*
X0046900Y0066223D01*
X0047539Y0066862D01*
X0051061Y0066862D01*
X0051800Y0066123D01*
X0052539Y0066862D01*
X0056061Y0066862D01*
X0056560Y0066363D01*
X0056679Y0066567D01*
X0057014Y0066903D01*
X0057424Y0067140D01*
X0057882Y0067262D01*
X0059300Y0067262D01*
X0059300Y0063100D01*
X0059300Y0058938D01*
X0059300Y0059949D02*
X0059300Y0059949D01*
X0059300Y0061548D02*
X0059300Y0061548D01*
X0059300Y0063100D02*
X0059300Y0063100D01*
X0059300Y0063146D02*
X0059300Y0063146D01*
X0059300Y0064745D02*
X0059300Y0064745D01*
X0059300Y0066343D02*
X0059300Y0066343D01*
X0066580Y0066343D02*
X0067020Y0066343D01*
X0071580Y0066343D02*
X0071700Y0066343D01*
X0071700Y0067942D02*
X0047819Y0067942D01*
X0047020Y0066343D02*
X0046900Y0066343D01*
X0051580Y0066343D02*
X0052020Y0066343D01*
X0045261Y0072737D02*
X0028677Y0072737D01*
X0028530Y0073092D02*
X0027292Y0074330D01*
X0025675Y0075000D01*
X0017925Y0075000D01*
X0016308Y0074330D01*
X0015070Y0073092D01*
X0014400Y0071475D01*
X0014400Y0069725D01*
X0015070Y0068108D01*
X0016308Y0066870D01*
X0017925Y0066200D01*
X0025675Y0066200D01*
X0027292Y0066870D01*
X0028530Y0068108D01*
X0029200Y0069725D01*
X0029200Y0071475D01*
X0028530Y0073092D01*
X0027278Y0074336D02*
X0071700Y0074336D01*
X0071700Y0075934D02*
X0025974Y0075934D01*
X0025924Y0075918D02*
X0026643Y0076152D01*
X0027316Y0076495D01*
X0027927Y0076939D01*
X0028461Y0077473D01*
X0028905Y0078084D01*
X0029248Y0078757D01*
X0029482Y0079476D01*
X0029600Y0080222D01*
X0029600Y0080400D01*
X0022000Y0080400D01*
X0022000Y0080800D01*
X0021600Y0080800D01*
X0021600Y0085400D01*
X0018422Y0085400D01*
X0017676Y0085282D01*
X0016957Y0085048D01*
X0016284Y0084705D01*
X0015673Y0084261D01*
X0015139Y0083727D01*
X0014695Y0083116D01*
X0014352Y0082443D01*
X0014118Y0081724D01*
X0014000Y0080978D01*
X0014000Y0080800D01*
X0021600Y0080800D01*
X0021600Y0080400D01*
X0022000Y0080400D01*
X0022000Y0075800D01*
X0025178Y0075800D01*
X0025924Y0075918D01*
X0028505Y0077533D02*
X0060630Y0077533D01*
X0061147Y0077319D02*
X0062453Y0077319D01*
X0063659Y0077818D01*
X0064582Y0078741D01*
X0065081Y0079947D01*
X0065081Y0081253D01*
X0064582Y0082459D01*
X0063659Y0083382D01*
X0062453Y0083881D01*
X0061147Y0083881D01*
X0059941Y0083382D01*
X0059018Y0082459D01*
X0058519Y0081253D01*
X0058519Y0079947D01*
X0059018Y0078741D01*
X0059941Y0077818D01*
X0061147Y0077319D01*
X0062970Y0077533D02*
X0071700Y0077533D01*
X0071700Y0079132D02*
X0064743Y0079132D01*
X0065081Y0080730D02*
X0071700Y0080730D01*
X0072352Y0082329D02*
X0064635Y0082329D01*
X0058965Y0082329D02*
X0029285Y0082329D01*
X0029248Y0082443D02*
X0028905Y0083116D01*
X0028461Y0083727D01*
X0027927Y0084261D01*
X0027316Y0084705D01*
X0026643Y0085048D01*
X0025924Y0085282D01*
X0025178Y0085400D01*
X0022000Y0085400D01*
X0022000Y0080800D01*
X0029600Y0080800D01*
X0029600Y0080978D01*
X0029482Y0081724D01*
X0029248Y0082443D01*
X0028261Y0083927D02*
X0073950Y0083927D01*
X0075549Y0085526D02*
X0038866Y0085526D01*
X0038659Y0085318D02*
X0039582Y0086241D01*
X0040081Y0087447D01*
X0040081Y0088753D01*
X0039582Y0089959D01*
X0038659Y0090882D01*
X0037453Y0091381D01*
X0036147Y0091381D01*
X0034941Y0090882D01*
X0034018Y0089959D01*
X0033519Y0088753D01*
X0033519Y0087447D01*
X0034018Y0086241D01*
X0034941Y0085318D01*
X0036147Y0084819D01*
X0037453Y0084819D01*
X0038659Y0085318D01*
X0039947Y0087124D02*
X0077147Y0087124D01*
X0078746Y0088723D02*
X0040081Y0088723D01*
X0039219Y0090321D02*
X0080344Y0090321D01*
X0081295Y0091920D02*
X0029016Y0091920D01*
X0029200Y0091475D02*
X0028530Y0093092D01*
X0027292Y0094330D01*
X0025675Y0095000D01*
X0017925Y0095000D01*
X0016308Y0094330D01*
X0015070Y0093092D01*
X0014400Y0091475D01*
X0014400Y0089725D01*
X0015070Y0088108D01*
X0016308Y0086870D01*
X0017925Y0086200D01*
X0025675Y0086200D01*
X0027292Y0086870D01*
X0028530Y0088108D01*
X0029200Y0089725D01*
X0029200Y0091475D01*
X0029200Y0090321D02*
X0034381Y0090321D01*
X0033519Y0088723D02*
X0028785Y0088723D01*
X0027547Y0087124D02*
X0033653Y0087124D01*
X0034734Y0085526D02*
X0013800Y0085526D01*
X0013800Y0087124D02*
X0016053Y0087124D01*
X0014815Y0088723D02*
X0013800Y0088723D01*
X0013800Y0090321D02*
X0014400Y0090321D01*
X0014584Y0091920D02*
X0013800Y0091920D01*
X0013800Y0093518D02*
X0015496Y0093518D01*
X0013800Y0095117D02*
X0036422Y0095117D01*
X0036442Y0095043D02*
X0036679Y0094633D01*
X0037014Y0094297D01*
X0037424Y0094060D01*
X0037882Y0093938D01*
X0039300Y0093938D01*
X0039300Y0098100D01*
X0039300Y0098100D01*
X0039300Y0098100D01*
X0036319Y0098100D01*
X0036319Y0095501D01*
X0036442Y0095043D01*
X0036319Y0096715D02*
X0013800Y0096715D01*
X0013800Y0098314D02*
X0036319Y0098314D01*
X0036319Y0099912D02*
X0013800Y0099912D01*
X0013800Y0101511D02*
X0033061Y0101511D01*
X0031462Y0103109D02*
X0023512Y0103109D01*
X0023643Y0103152D02*
X0024316Y0103495D01*
X0024927Y0103939D01*
X0025461Y0104473D01*
X0025905Y0105084D01*
X0026248Y0105757D01*
X0026482Y0106476D01*
X0026600Y0107222D01*
X0026600Y0110400D01*
X0022000Y0110400D01*
X0022000Y0110800D01*
X0021600Y0110800D01*
X0021600Y0118400D01*
X0021422Y0118400D01*
X0020676Y0118282D01*
X0019957Y0118048D01*
X0019284Y0117705D01*
X0018673Y0117261D01*
X0018139Y0116727D01*
X0017695Y0116116D01*
X0017352Y0115443D01*
X0017118Y0114724D01*
X0017000Y0113978D01*
X0017000Y0110800D01*
X0021600Y0110800D01*
X0021600Y0110400D01*
X0017000Y0110400D01*
X0017000Y0107222D01*
X0017118Y0106476D01*
X0017352Y0105757D01*
X0017695Y0105084D01*
X0018139Y0104473D01*
X0018673Y0103939D01*
X0019284Y0103495D01*
X0019957Y0103152D01*
X0020676Y0102918D01*
X0021422Y0102800D01*
X0021600Y0102800D01*
X0021600Y0110400D01*
X0022000Y0110400D01*
X0022000Y0102800D01*
X0022178Y0102800D01*
X0022924Y0102918D01*
X0023643Y0103152D01*
X0022000Y0103109D02*
X0021600Y0103109D01*
X0020088Y0103109D02*
X0013800Y0103109D01*
X0013800Y0104708D02*
X0017968Y0104708D01*
X0017173Y0106306D02*
X0013800Y0106306D01*
X0013800Y0107905D02*
X0017000Y0107905D01*
X0017000Y0109503D02*
X0013800Y0109503D01*
X0013800Y0111102D02*
X0017000Y0111102D01*
X0017000Y0112700D02*
X0013800Y0112700D01*
X0013800Y0114299D02*
X0017051Y0114299D01*
X0017583Y0115897D02*
X0013800Y0115897D01*
X0013800Y0117496D02*
X0018996Y0117496D01*
X0021600Y0117496D02*
X0022000Y0117496D01*
X0022000Y0118400D02*
X0022000Y0110800D01*
X0026600Y0110800D01*
X0026600Y0113978D01*
X0026482Y0114724D01*
X0026248Y0115443D01*
X0025905Y0116116D01*
X0025461Y0116727D01*
X0024927Y0117261D01*
X0024316Y0117705D01*
X0023643Y0118048D01*
X0022924Y0118282D01*
X0022178Y0118400D01*
X0022000Y0118400D01*
X0022000Y0115897D02*
X0021600Y0115897D01*
X0021600Y0114299D02*
X0022000Y0114299D01*
X0022000Y0112700D02*
X0021600Y0112700D01*
X0021600Y0111102D02*
X0022000Y0111102D01*
X0022000Y0109503D02*
X0021600Y0109503D01*
X0021600Y0107905D02*
X0022000Y0107905D01*
X0022000Y0106306D02*
X0021600Y0106306D01*
X0021600Y0104708D02*
X0022000Y0104708D01*
X0025632Y0104708D02*
X0028470Y0104708D01*
X0027573Y0106306D02*
X0026427Y0106306D01*
X0026600Y0107905D02*
X0027400Y0107905D01*
X0027400Y0109503D02*
X0026600Y0109503D01*
X0026600Y0111102D02*
X0027400Y0111102D01*
X0027400Y0112700D02*
X0026600Y0112700D01*
X0026549Y0114299D02*
X0027400Y0114299D01*
X0027989Y0115897D02*
X0026017Y0115897D01*
X0024604Y0117496D02*
X0029708Y0117496D01*
X0032466Y0119094D02*
X0013800Y0119094D01*
X0013800Y0120693D02*
X0034064Y0120693D01*
X0035663Y0122291D02*
X0013800Y0122291D01*
X0013800Y0123890D02*
X0037261Y0123890D01*
X0038860Y0125488D02*
X0013800Y0125488D01*
X0013800Y0127087D02*
X0040458Y0127087D01*
X0053411Y0131882D02*
X0065254Y0131882D01*
X0063655Y0130284D02*
X0016812Y0130284D01*
X0015214Y0128685D02*
X0062057Y0128685D01*
X0066852Y0133481D02*
X0055009Y0133481D01*
X0056608Y0135079D02*
X0068451Y0135079D01*
X0070050Y0136678D02*
X0058206Y0136678D01*
X0054148Y0138276D02*
X0031617Y0138276D01*
X0031159Y0137818D02*
X0032082Y0138741D01*
X0032581Y0139947D01*
X0032581Y0141253D01*
X0032082Y0142459D01*
X0031159Y0143382D01*
X0029953Y0143881D01*
X0028647Y0143881D01*
X0027441Y0143382D01*
X0026518Y0142459D01*
X0026019Y0141253D01*
X0026019Y0139947D01*
X0026518Y0138741D01*
X0027441Y0137818D01*
X0028647Y0137319D01*
X0029953Y0137319D01*
X0031159Y0137818D01*
X0032551Y0139875D02*
X0055500Y0139875D01*
X0055500Y0141473D02*
X0032490Y0141473D01*
X0031468Y0143072D02*
X0056398Y0143072D01*
X0062202Y0143072D02*
X0066398Y0143072D01*
X0065500Y0141473D02*
X0063100Y0141473D01*
X0063100Y0139875D02*
X0065500Y0139875D01*
X0066250Y0138276D02*
X0062350Y0138276D01*
X0052550Y0136678D02*
X0004153Y0136678D01*
X0004152Y0138276D02*
X0026983Y0138276D01*
X0026049Y0139875D02*
X0004151Y0139875D01*
X0004149Y0141473D02*
X0026110Y0141473D01*
X0027132Y0143072D02*
X0004148Y0143072D01*
X0004147Y0144670D02*
X0078042Y0144670D01*
X0076444Y0143072D02*
X0072202Y0143072D01*
X0073100Y0141473D02*
X0074845Y0141473D01*
X0073247Y0139875D02*
X0073100Y0139875D01*
X0079641Y0146269D02*
X0004146Y0146269D01*
X0004145Y0147868D02*
X0081239Y0147868D01*
X0082838Y0149466D02*
X0004144Y0149466D01*
X0004143Y0151065D02*
X0084436Y0151065D01*
X0086035Y0152663D02*
X0004142Y0152663D01*
X0004141Y0154262D02*
X0087633Y0154262D01*
X0089232Y0155860D02*
X0004140Y0155860D01*
X0004139Y0157459D02*
X0090830Y0157459D01*
X0092429Y0159057D02*
X0004138Y0159057D01*
X0004136Y0160656D02*
X0094027Y0160656D01*
X0095626Y0162254D02*
X0004135Y0162254D01*
X0004134Y0163853D02*
X0097224Y0163853D01*
X0098823Y0165451D02*
X0004133Y0165451D01*
X0004132Y0167050D02*
X0100421Y0167050D01*
X0102020Y0168648D02*
X0004131Y0168648D01*
X0004130Y0170247D02*
X0087615Y0170247D01*
X0087441Y0170318D02*
X0088647Y0169819D01*
X0089953Y0169819D01*
X0091159Y0170318D01*
X0092082Y0171241D01*
X0092581Y0172447D01*
X0092581Y0173753D01*
X0092082Y0174959D01*
X0091159Y0175882D01*
X0089953Y0176381D01*
X0088647Y0176381D01*
X0087441Y0175882D01*
X0086518Y0174959D01*
X0086019Y0173753D01*
X0086019Y0172447D01*
X0086518Y0171241D01*
X0087441Y0170318D01*
X0086268Y0171845D02*
X0004129Y0171845D01*
X0004128Y0173444D02*
X0086019Y0173444D01*
X0086602Y0175042D02*
X0004127Y0175042D01*
X0004126Y0176641D02*
X0110012Y0176641D01*
X0108414Y0175042D02*
X0091998Y0175042D01*
X0092581Y0173444D02*
X0106815Y0173444D01*
X0105217Y0171845D02*
X0092332Y0171845D01*
X0090985Y0170247D02*
X0103618Y0170247D01*
X0111611Y0178239D02*
X0072313Y0178239D01*
X0073100Y0179026D02*
X0070874Y0176800D01*
X0067726Y0176800D01*
X0065500Y0179026D01*
X0065500Y0182174D01*
X0067726Y0184400D01*
X0070272Y0184400D01*
X0082300Y0196428D01*
X0083000Y0197128D01*
X0083000Y0197174D01*
X0085226Y0199400D01*
X0088374Y0199400D01*
X0090600Y0197174D01*
X0090600Y0194026D01*
X0088374Y0191800D01*
X0085226Y0191800D01*
X0084277Y0192749D01*
X0073100Y0181572D01*
X0073100Y0179026D01*
X0073100Y0179838D02*
X0113209Y0179838D01*
X0114808Y0181436D02*
X0073100Y0181436D01*
X0074563Y0183035D02*
X0116406Y0183035D01*
X0118005Y0184633D02*
X0076162Y0184633D01*
X0077760Y0186232D02*
X0119603Y0186232D01*
X0121202Y0187830D02*
X0079359Y0187830D01*
X0080957Y0189429D02*
X0122800Y0189429D01*
X0124399Y0191027D02*
X0082556Y0191027D01*
X0084154Y0192626D02*
X0084400Y0192626D01*
X0080096Y0194224D02*
X0073100Y0194224D01*
X0073100Y0194026D02*
X0073100Y0197174D01*
X0070874Y0199400D01*
X0067726Y0199400D01*
X0065500Y0197174D01*
X0065500Y0194026D01*
X0067300Y0192226D01*
X0067300Y0191428D01*
X0060272Y0184400D01*
X0057726Y0184400D01*
X0055500Y0182174D01*
X0055500Y0179026D01*
X0057726Y0176800D01*
X0060874Y0176800D01*
X0063100Y0179026D01*
X0063100Y0181572D01*
X0070128Y0188600D01*
X0071300Y0189772D01*
X0071300Y0192226D01*
X0073100Y0194026D01*
X0073100Y0195823D02*
X0081694Y0195823D01*
X0083247Y0197421D02*
X0072853Y0197421D01*
X0071254Y0199020D02*
X0084846Y0199020D01*
X0088754Y0199020D02*
X0094280Y0199020D01*
X0095060Y0199800D02*
X0092600Y0197340D01*
X0092600Y0195600D01*
X0096800Y0195600D01*
X0101000Y0195600D01*
X0101000Y0197340D01*
X0098540Y0199800D01*
X0096800Y0199800D01*
X0096800Y0195600D01*
X0096800Y0195600D01*
X0096800Y0195600D01*
X0101000Y0195600D01*
X0101000Y0193860D01*
X0098540Y0191400D01*
X0096800Y0191400D01*
X0096800Y0195600D01*
X0096800Y0195600D01*
X0096800Y0195600D01*
X0096800Y0199800D01*
X0095060Y0199800D01*
X0096800Y0199020D02*
X0096800Y0199020D01*
X0096800Y0197421D02*
X0096800Y0197421D01*
X0096800Y0195823D02*
X0096800Y0195823D01*
X0096800Y0195600D02*
X0092600Y0195600D01*
X0092600Y0193860D01*
X0095060Y0191400D01*
X0096800Y0191400D01*
X0096800Y0195600D01*
X0096800Y0194224D02*
X0096800Y0194224D01*
X0096800Y0192626D02*
X0096800Y0192626D01*
X0099766Y0192626D02*
X0125997Y0192626D01*
X0124647Y0194224D02*
X0127596Y0194224D01*
X0127774Y0195823D02*
X0125826Y0195823D01*
X0125530Y0195108D02*
X0126200Y0196725D01*
X0126200Y0204475D01*
X0125530Y0206092D01*
X0124292Y0207330D01*
X0122675Y0208000D01*
X0120925Y0208000D01*
X0119308Y0207330D01*
X0118070Y0206092D01*
X0117400Y0204475D01*
X0117400Y0196725D01*
X0118070Y0195108D01*
X0119308Y0193870D01*
X0120925Y0193200D01*
X0122675Y0193200D01*
X0124292Y0193870D01*
X0125530Y0195108D01*
X0126200Y0197421D02*
X0127400Y0197421D01*
X0127400Y0199020D02*
X0126200Y0199020D01*
X0126200Y0200618D02*
X0127400Y0200618D01*
X0127400Y0202217D02*
X0126200Y0202217D01*
X0126200Y0203815D02*
X0127400Y0203815D01*
X0127789Y0205414D02*
X0125811Y0205414D01*
X0124610Y0207012D02*
X0128990Y0207012D01*
X0134610Y0207012D02*
X0138990Y0207012D01*
X0137789Y0205414D02*
X0135811Y0205414D01*
X0136200Y0203815D02*
X0137400Y0203815D01*
X0137400Y0202217D02*
X0136200Y0202217D01*
X0136200Y0200618D02*
X0137400Y0200618D01*
X0137391Y0199020D02*
X0136200Y0199020D01*
X0145811Y0205414D02*
X0147789Y0205414D01*
X0147400Y0203815D02*
X0146200Y0203815D01*
X0146200Y0202217D02*
X0147400Y0202217D01*
X0147400Y0200618D02*
X0146200Y0200618D01*
X0146200Y0199020D02*
X0147391Y0199020D01*
X0156200Y0199020D02*
X0157391Y0199020D01*
X0157400Y0200618D02*
X0156200Y0200618D01*
X0156200Y0202217D02*
X0157400Y0202217D01*
X0157400Y0203815D02*
X0156200Y0203815D01*
X0155811Y0205414D02*
X0157789Y0205414D01*
X0158990Y0207012D02*
X0154610Y0207012D01*
X0148990Y0207012D02*
X0144610Y0207012D01*
X0164610Y0207012D02*
X0168990Y0207012D01*
X0167789Y0205414D02*
X0165811Y0205414D01*
X0166200Y0203815D02*
X0167400Y0203815D01*
X0167400Y0202217D02*
X0166200Y0202217D01*
X0166200Y0200618D02*
X0167400Y0200618D01*
X0167391Y0199020D02*
X0166200Y0199020D01*
X0176200Y0199020D02*
X0177391Y0199020D01*
X0177400Y0200618D02*
X0176200Y0200618D01*
X0176200Y0202217D02*
X0177400Y0202217D01*
X0177400Y0203815D02*
X0176200Y0203815D01*
X0175811Y0205414D02*
X0177789Y0205414D01*
X0178990Y0207012D02*
X0174610Y0207012D01*
X0184610Y0207012D02*
X0188990Y0207012D01*
X0187789Y0205414D02*
X0185811Y0205414D01*
X0186200Y0203815D02*
X0187400Y0203815D01*
X0187400Y0202217D02*
X0186200Y0202217D01*
X0186200Y0200618D02*
X0187400Y0200618D01*
X0187391Y0199020D02*
X0186200Y0199020D01*
X0188209Y0179838D02*
X0183866Y0179838D01*
X0214610Y0207012D02*
X0218990Y0207012D01*
X0245354Y0146269D02*
X0248246Y0146269D01*
X0247481Y0144670D02*
X0246119Y0144670D01*
X0246200Y0143072D02*
X0247400Y0143072D01*
X0247400Y0141473D02*
X0246200Y0141473D01*
X0246200Y0139875D02*
X0247400Y0139875D01*
X0247400Y0138276D02*
X0246200Y0138276D01*
X0246181Y0136678D02*
X0247419Y0136678D01*
X0248098Y0135079D02*
X0245502Y0135079D01*
X0243800Y0133481D02*
X0249800Y0133481D01*
X0249800Y0131882D02*
X0243800Y0131882D01*
X0243800Y0130284D02*
X0249800Y0130284D01*
X0249800Y0128685D02*
X0243800Y0128685D01*
X0244536Y0127087D02*
X0249064Y0127087D01*
X0247820Y0125488D02*
X0245780Y0125488D01*
X0246200Y0123890D02*
X0247400Y0123890D01*
X0247400Y0122291D02*
X0246200Y0122291D01*
X0246200Y0120693D02*
X0247400Y0120693D01*
X0247400Y0119094D02*
X0246200Y0119094D01*
X0246200Y0117496D02*
X0247400Y0117496D01*
X0247743Y0115897D02*
X0245857Y0115897D01*
X0244721Y0114299D02*
X0248879Y0114299D01*
X0249300Y0108100D02*
X0236800Y0095600D01*
X0234300Y0095600D01*
X0224300Y0105600D01*
X0196800Y0105600D01*
X0199683Y0103109D02*
X0223680Y0103109D01*
X0225278Y0101511D02*
X0133888Y0101511D01*
X0132289Y0099912D02*
X0226877Y0099912D01*
X0228475Y0098314D02*
X0130574Y0098314D01*
X0134498Y0087124D02*
X0138536Y0087124D01*
X0137394Y0085526D02*
X0135765Y0085526D01*
X0136200Y0083927D02*
X0137000Y0083927D01*
X0137000Y0082329D02*
X0136200Y0082329D01*
X0141600Y0082329D02*
X0142000Y0082329D01*
X0142000Y0083927D02*
X0141600Y0083927D01*
X0141600Y0085526D02*
X0142000Y0085526D01*
X0142000Y0087124D02*
X0141600Y0087124D01*
X0141600Y0079132D02*
X0142000Y0079132D01*
X0142000Y0077533D02*
X0141600Y0077533D01*
X0141600Y0075934D02*
X0142000Y0075934D01*
X0142000Y0074336D02*
X0141600Y0074336D01*
X0145324Y0074336D02*
X0148841Y0074336D01*
X0147727Y0075934D02*
X0146306Y0075934D01*
X0146600Y0077533D02*
X0147400Y0077533D01*
X0147400Y0079132D02*
X0146600Y0079132D01*
X0163800Y0072737D02*
X0169800Y0072737D01*
X0169800Y0073666D02*
X0169800Y0067534D01*
X0169308Y0067330D01*
X0168070Y0066092D01*
X0167400Y0064475D01*
X0167400Y0056725D01*
X0168070Y0055108D01*
X0169308Y0053870D01*
X0170925Y0053200D01*
X0172675Y0053200D01*
X0174292Y0053870D01*
X0175530Y0055108D01*
X0176200Y0056725D01*
X0176200Y0064475D01*
X0175530Y0066092D01*
X0174292Y0067330D01*
X0173800Y0067534D01*
X0173800Y0073666D01*
X0174292Y0073870D01*
X0175530Y0075108D01*
X0176200Y0076725D01*
X0176200Y0084475D01*
X0175530Y0086092D01*
X0174292Y0087330D01*
X0172675Y0088000D01*
X0170925Y0088000D01*
X0169308Y0087330D01*
X0168070Y0086092D01*
X0167400Y0084475D01*
X0167400Y0076725D01*
X0168070Y0075108D01*
X0169308Y0073870D01*
X0169800Y0073666D01*
X0168841Y0074336D02*
X0164759Y0074336D01*
X0165873Y0075934D02*
X0167727Y0075934D01*
X0167400Y0077533D02*
X0166200Y0077533D01*
X0166200Y0079132D02*
X0167400Y0079132D01*
X0167400Y0080730D02*
X0166200Y0080730D01*
X0166200Y0082329D02*
X0167400Y0082329D01*
X0167400Y0083927D02*
X0166200Y0083927D01*
X0165765Y0085526D02*
X0167835Y0085526D01*
X0169102Y0087124D02*
X0164498Y0087124D01*
X0168349Y0088723D02*
X0107751Y0088723D01*
X0106800Y0087124D02*
X0109102Y0087124D01*
X0107835Y0085526D02*
X0106800Y0085526D01*
X0106800Y0083927D02*
X0107400Y0083927D01*
X0107400Y0082329D02*
X0106800Y0082329D01*
X0106800Y0080730D02*
X0107400Y0080730D01*
X0107400Y0079132D02*
X0106800Y0079132D01*
X0106800Y0077533D02*
X0107400Y0077533D01*
X0107727Y0075934D02*
X0106800Y0075934D01*
X0106800Y0074336D02*
X0108841Y0074336D01*
X0109800Y0072737D02*
X0106800Y0072737D01*
X0106800Y0071139D02*
X0109800Y0071139D01*
X0109800Y0069540D02*
X0106800Y0069540D01*
X0106800Y0067942D02*
X0109800Y0067942D01*
X0108321Y0066343D02*
X0106800Y0066343D01*
X0106800Y0064745D02*
X0107512Y0064745D01*
X0107400Y0063146D02*
X0106800Y0063146D01*
X0106800Y0061548D02*
X0107400Y0061548D01*
X0107400Y0059949D02*
X0106800Y0059949D01*
X0106800Y0058351D02*
X0107400Y0058351D01*
X0107400Y0056752D02*
X0106800Y0056752D01*
X0106800Y0055154D02*
X0108051Y0055154D01*
X0106800Y0053555D02*
X0110067Y0053555D01*
X0096800Y0053555D02*
X0090022Y0053555D01*
X0088423Y0055154D02*
X0096800Y0055154D01*
X0096800Y0056752D02*
X0086825Y0056752D01*
X0081226Y0058351D02*
X0096800Y0058351D01*
X0096800Y0059949D02*
X0079628Y0059949D01*
X0078029Y0061548D02*
X0096800Y0061548D01*
X0096800Y0063146D02*
X0076900Y0063146D01*
X0076900Y0064745D02*
X0096800Y0064745D01*
X0096800Y0066343D02*
X0076900Y0066343D01*
X0076900Y0067942D02*
X0096800Y0067942D01*
X0096800Y0069540D02*
X0076900Y0069540D01*
X0076900Y0071139D02*
X0096800Y0071139D01*
X0096800Y0072737D02*
X0076900Y0072737D01*
X0076900Y0074336D02*
X0096800Y0074336D01*
X0096800Y0075934D02*
X0076900Y0075934D01*
X0076900Y0077533D02*
X0096800Y0077533D01*
X0096800Y0079132D02*
X0076900Y0079132D01*
X0078107Y0080730D02*
X0096800Y0080730D01*
X0096800Y0082329D02*
X0079705Y0082329D01*
X0081304Y0083927D02*
X0096800Y0083927D01*
X0096800Y0085526D02*
X0082903Y0085526D01*
X0084501Y0087124D02*
X0096800Y0087124D01*
X0096800Y0088723D02*
X0087063Y0088723D01*
X0087581Y0090321D02*
X0096800Y0090321D01*
X0096800Y0091920D02*
X0087305Y0091920D01*
X0085829Y0093518D02*
X0096800Y0093518D01*
X0096800Y0095117D02*
X0076840Y0095117D01*
X0082771Y0093518D02*
X0028104Y0093518D01*
X0039300Y0095117D02*
X0039300Y0095117D01*
X0039300Y0096715D02*
X0039300Y0096715D01*
X0022000Y0083927D02*
X0021600Y0083927D01*
X0021600Y0082329D02*
X0022000Y0082329D01*
X0022000Y0080730D02*
X0058519Y0080730D01*
X0058857Y0079132D02*
X0029370Y0079132D01*
X0022000Y0079132D02*
X0021600Y0079132D01*
X0021600Y0080400D02*
X0021600Y0075800D01*
X0018422Y0075800D01*
X0017676Y0075918D01*
X0016957Y0076152D01*
X0016284Y0076495D01*
X0015673Y0076939D01*
X0015139Y0077473D01*
X0014695Y0078084D01*
X0014352Y0078757D01*
X0014118Y0079476D01*
X0014000Y0080222D01*
X0014000Y0080400D01*
X0021600Y0080400D01*
X0021600Y0080730D02*
X0013800Y0080730D01*
X0013800Y0079132D02*
X0014230Y0079132D01*
X0013800Y0077533D02*
X0015095Y0077533D01*
X0013800Y0075934D02*
X0017626Y0075934D01*
X0016322Y0074336D02*
X0013800Y0074336D01*
X0013800Y0072737D02*
X0014923Y0072737D01*
X0014400Y0071139D02*
X0013800Y0071139D01*
X0013800Y0069540D02*
X0014476Y0069540D01*
X0013800Y0067942D02*
X0015236Y0067942D01*
X0013800Y0066343D02*
X0017578Y0066343D01*
X0017925Y0065000D02*
X0016308Y0064330D01*
X0015070Y0063092D01*
X0014400Y0061475D01*
X0014400Y0059725D01*
X0015070Y0058108D01*
X0016308Y0056870D01*
X0017925Y0056200D01*
X0025675Y0056200D01*
X0027292Y0056870D01*
X0028530Y0058108D01*
X0029200Y0059725D01*
X0029200Y0061475D01*
X0028530Y0063092D01*
X0027292Y0064330D01*
X0025675Y0065000D01*
X0017925Y0065000D01*
X0017309Y0064745D02*
X0013800Y0064745D01*
X0013800Y0063146D02*
X0015124Y0063146D01*
X0014430Y0061548D02*
X0013800Y0061548D01*
X0013800Y0059949D02*
X0014400Y0059949D01*
X0014969Y0058351D02*
X0013800Y0058351D01*
X0013800Y0056752D02*
X0016591Y0056752D01*
X0013800Y0055154D02*
X0032677Y0055154D01*
X0034275Y0056752D02*
X0027009Y0056752D01*
X0028631Y0058351D02*
X0040874Y0058351D01*
X0041673Y0059949D02*
X0041700Y0059949D01*
X0036927Y0059949D02*
X0029200Y0059949D01*
X0029170Y0061548D02*
X0036719Y0061548D01*
X0036719Y0063146D02*
X0028476Y0063146D01*
X0026291Y0064745D02*
X0036719Y0064745D01*
X0037020Y0066343D02*
X0026021Y0066343D01*
X0028364Y0067942D02*
X0041700Y0067942D01*
X0041700Y0066343D02*
X0041580Y0066343D01*
X0042082Y0069540D02*
X0029124Y0069540D01*
X0029200Y0071139D02*
X0043662Y0071139D01*
X0022000Y0075934D02*
X0021600Y0075934D01*
X0021600Y0077533D02*
X0022000Y0077533D01*
X0014315Y0082329D02*
X0013800Y0082329D01*
X0013800Y0083927D02*
X0015339Y0083927D01*
X0009800Y0083927D02*
X0004189Y0083927D01*
X0004190Y0082329D02*
X0009800Y0082329D01*
X0009800Y0080730D02*
X0004191Y0080730D01*
X0004192Y0079132D02*
X0009800Y0079132D01*
X0009800Y0077533D02*
X0004193Y0077533D01*
X0004194Y0075934D02*
X0009800Y0075934D01*
X0009800Y0074336D02*
X0004195Y0074336D01*
X0004196Y0072737D02*
X0009800Y0072737D01*
X0009800Y0071139D02*
X0004197Y0071139D01*
X0004198Y0069540D02*
X0009800Y0069540D01*
X0009800Y0067942D02*
X0004199Y0067942D01*
X0004200Y0066343D02*
X0009800Y0066343D01*
X0009800Y0064745D02*
X0004202Y0064745D01*
X0004203Y0063146D02*
X0009800Y0063146D01*
X0009800Y0061548D02*
X0004204Y0061548D01*
X0004205Y0059949D02*
X0009800Y0059949D01*
X0009800Y0058351D02*
X0004206Y0058351D01*
X0004207Y0056752D02*
X0009800Y0056752D01*
X0009800Y0055154D02*
X0004208Y0055154D01*
X0004209Y0053555D02*
X0009800Y0053555D01*
X0009800Y0051957D02*
X0004210Y0051957D01*
X0004211Y0050358D02*
X0009800Y0050358D01*
X0009800Y0048760D02*
X0004212Y0048760D01*
X0004214Y0047161D02*
X0009800Y0047161D01*
X0009800Y0045563D02*
X0004215Y0045563D01*
X0004216Y0043964D02*
X0009800Y0043964D01*
X0009800Y0042366D02*
X0004217Y0042366D01*
X0004218Y0040767D02*
X0009800Y0040767D01*
X0010403Y0039169D02*
X0004219Y0039169D01*
X0004220Y0037570D02*
X0012001Y0037570D01*
X0013600Y0035972D02*
X0004221Y0035972D01*
X0004222Y0034373D02*
X0015198Y0034373D01*
X0018139Y0031727D02*
X0017695Y0031116D01*
X0017352Y0030443D01*
X0017118Y0029724D01*
X0017000Y0028978D01*
X0017000Y0025800D01*
X0021600Y0025800D01*
X0021600Y0033400D01*
X0021422Y0033400D01*
X0020676Y0033282D01*
X0019957Y0033048D01*
X0019284Y0032705D01*
X0018673Y0032261D01*
X0018139Y0031727D01*
X0017739Y0031176D02*
X0004224Y0031176D01*
X0004225Y0029578D02*
X0017095Y0029578D01*
X0017000Y0027979D02*
X0004227Y0027979D01*
X0004228Y0026381D02*
X0017000Y0026381D01*
X0017000Y0025400D02*
X0017000Y0022222D01*
X0017118Y0021476D01*
X0017352Y0020757D01*
X0017695Y0020084D01*
X0018139Y0019473D01*
X0018673Y0018939D01*
X0019284Y0018495D01*
X0019957Y0018152D01*
X0020676Y0017918D01*
X0021422Y0017800D01*
X0021600Y0017800D01*
X0021600Y0025400D01*
X0017000Y0025400D01*
X0017000Y0024782D02*
X0004229Y0024782D01*
X0004230Y0023184D02*
X0017000Y0023184D01*
X0017101Y0021585D02*
X0004231Y0021585D01*
X0004232Y0019987D02*
X0017766Y0019987D01*
X0019493Y0018388D02*
X0004233Y0018388D01*
X0004234Y0016790D02*
X0286921Y0016790D01*
X0286921Y0018388D02*
X0236728Y0018388D01*
X0237581Y0019987D02*
X0286921Y0019987D01*
X0286921Y0021585D02*
X0237443Y0021585D01*
X0236357Y0023184D02*
X0286921Y0023184D01*
X0286921Y0015191D02*
X0004235Y0015191D01*
X0004236Y0013593D02*
X0286921Y0013593D01*
X0286921Y0011994D02*
X0004237Y0011994D01*
X0004238Y0010396D02*
X0286921Y0010396D01*
X0286921Y0008797D02*
X0004240Y0008797D01*
X0021600Y0018388D02*
X0022000Y0018388D01*
X0022000Y0017800D02*
X0022178Y0017800D01*
X0022924Y0017918D01*
X0023643Y0018152D01*
X0024316Y0018495D01*
X0024927Y0018939D01*
X0025461Y0019473D01*
X0025905Y0020084D01*
X0026248Y0020757D01*
X0026482Y0021476D01*
X0026600Y0022222D01*
X0026600Y0025400D01*
X0022000Y0025400D01*
X0022000Y0025800D01*
X0021600Y0025800D01*
X0021600Y0025400D01*
X0022000Y0025400D01*
X0022000Y0017800D01*
X0022000Y0019987D02*
X0021600Y0019987D01*
X0021600Y0021585D02*
X0022000Y0021585D01*
X0022000Y0023184D02*
X0021600Y0023184D01*
X0021600Y0024782D02*
X0022000Y0024782D01*
X0022000Y0025800D02*
X0026600Y0025800D01*
X0026600Y0028978D01*
X0026482Y0029724D01*
X0026248Y0030443D01*
X0025905Y0031116D01*
X0025461Y0031727D01*
X0024927Y0032261D01*
X0024316Y0032705D01*
X0023643Y0033048D01*
X0022924Y0033282D01*
X0022178Y0033400D01*
X0022000Y0033400D01*
X0022000Y0025800D01*
X0022000Y0026381D02*
X0021600Y0026381D01*
X0021600Y0027979D02*
X0022000Y0027979D01*
X0022000Y0029578D02*
X0021600Y0029578D01*
X0021600Y0031176D02*
X0022000Y0031176D01*
X0022000Y0032775D02*
X0021600Y0032775D01*
X0019420Y0032775D02*
X0004223Y0032775D01*
X0014461Y0040767D02*
X0017797Y0040767D01*
X0018070Y0040108D02*
X0019308Y0038870D01*
X0020925Y0038200D01*
X0022675Y0038200D01*
X0024292Y0038870D01*
X0025530Y0040108D01*
X0026200Y0041725D01*
X0026200Y0049475D01*
X0025530Y0051092D01*
X0024292Y0052330D01*
X0022675Y0053000D01*
X0020925Y0053000D01*
X0019308Y0052330D01*
X0018070Y0051092D01*
X0017400Y0049475D01*
X0017400Y0041725D01*
X0018070Y0040108D01*
X0019009Y0039169D02*
X0016060Y0039169D01*
X0017400Y0042366D02*
X0013800Y0042366D01*
X0013800Y0043964D02*
X0017400Y0043964D01*
X0017400Y0045563D02*
X0013800Y0045563D01*
X0013800Y0047161D02*
X0017400Y0047161D01*
X0017400Y0048760D02*
X0013800Y0048760D01*
X0013800Y0050358D02*
X0017766Y0050358D01*
X0018934Y0051957D02*
X0013800Y0051957D01*
X0013800Y0053555D02*
X0031078Y0053555D01*
X0028934Y0051957D02*
X0024666Y0051957D01*
X0025834Y0050358D02*
X0027766Y0050358D01*
X0027400Y0048760D02*
X0026200Y0048760D01*
X0026200Y0047161D02*
X0027400Y0047161D01*
X0027400Y0045563D02*
X0026200Y0045563D01*
X0026200Y0043964D02*
X0027400Y0043964D01*
X0027400Y0042366D02*
X0026200Y0042366D01*
X0025803Y0040767D02*
X0027797Y0040767D01*
X0029009Y0039169D02*
X0024591Y0039169D01*
X0024180Y0032775D02*
X0030381Y0032775D01*
X0028154Y0031176D02*
X0025861Y0031176D01*
X0026505Y0029578D02*
X0027442Y0029578D01*
X0027400Y0027979D02*
X0026600Y0027979D01*
X0026600Y0026381D02*
X0027400Y0026381D01*
X0027400Y0024782D02*
X0026600Y0024782D01*
X0026600Y0023184D02*
X0027400Y0023184D01*
X0027458Y0021585D02*
X0026499Y0021585D01*
X0025834Y0019987D02*
X0028191Y0019987D01*
X0030471Y0018388D02*
X0024107Y0018388D01*
X0033129Y0018388D02*
X0231872Y0018388D01*
X0231019Y0019987D02*
X0035409Y0019987D01*
X0036200Y0027979D02*
X0056351Y0027979D01*
X0057949Y0029578D02*
X0036158Y0029578D01*
X0035446Y0031176D02*
X0059548Y0031176D01*
X0061019Y0032775D02*
X0033219Y0032775D01*
X0040902Y0034373D02*
X0061276Y0034373D01*
X0058443Y0039169D02*
X0054591Y0039169D01*
X0055803Y0040767D02*
X0057348Y0040767D01*
X0057000Y0042366D02*
X0056200Y0042366D01*
X0056200Y0043964D02*
X0057000Y0043964D01*
X0065157Y0039169D02*
X0069009Y0039169D01*
X0067797Y0040767D02*
X0066252Y0040767D01*
X0066600Y0042366D02*
X0067400Y0042366D01*
X0067400Y0043964D02*
X0066600Y0043964D01*
X0074591Y0039169D02*
X0079009Y0039169D01*
X0077797Y0040767D02*
X0075803Y0040767D01*
X0076200Y0042366D02*
X0077400Y0042366D01*
X0077400Y0043964D02*
X0076200Y0043964D01*
X0076200Y0045563D02*
X0077400Y0045563D01*
X0077400Y0047161D02*
X0076200Y0047161D01*
X0086200Y0047161D02*
X0087400Y0047161D01*
X0087400Y0045563D02*
X0086200Y0045563D01*
X0086200Y0043964D02*
X0087400Y0043964D01*
X0087400Y0042366D02*
X0086200Y0042366D01*
X0085803Y0040767D02*
X0087797Y0040767D01*
X0089009Y0039169D02*
X0086060Y0039169D01*
X0094591Y0039169D02*
X0096540Y0039169D01*
X0096800Y0040767D02*
X0095803Y0040767D01*
X0096200Y0042366D02*
X0096800Y0042366D01*
X0096800Y0043964D02*
X0096200Y0043964D01*
X0096200Y0045563D02*
X0096800Y0045563D01*
X0096800Y0047161D02*
X0096200Y0047161D01*
X0096200Y0048760D02*
X0096800Y0048760D01*
X0096800Y0050358D02*
X0095834Y0050358D01*
X0096800Y0051957D02*
X0094666Y0051957D01*
X0087400Y0048760D02*
X0086200Y0048760D01*
X0085865Y0050358D02*
X0085834Y0050358D01*
X0090744Y0096715D02*
X0096800Y0096715D01*
X0096800Y0098314D02*
X0092342Y0098314D01*
X0093800Y0099912D02*
X0096800Y0099912D01*
X0096800Y0101511D02*
X0093800Y0101511D01*
X0093800Y0103109D02*
X0096800Y0103109D01*
X0096800Y0104708D02*
X0095130Y0104708D01*
X0096027Y0106306D02*
X0096800Y0106306D01*
X0096800Y0107905D02*
X0096200Y0107905D01*
X0096200Y0109503D02*
X0096800Y0109503D01*
X0096800Y0111102D02*
X0096200Y0111102D01*
X0096200Y0112700D02*
X0096800Y0112700D01*
X0096800Y0114299D02*
X0096200Y0114299D01*
X0095611Y0115897D02*
X0096800Y0115897D01*
X0096800Y0117496D02*
X0093892Y0117496D01*
X0093800Y0119094D02*
X0096800Y0119094D01*
X0096800Y0120693D02*
X0093800Y0120693D01*
X0093800Y0122291D02*
X0096800Y0122291D01*
X0096800Y0123890D02*
X0093800Y0123890D01*
X0093800Y0125488D02*
X0096800Y0125488D01*
X0096800Y0127087D02*
X0093800Y0127087D01*
X0093800Y0128685D02*
X0096800Y0128685D01*
X0096800Y0130284D02*
X0093800Y0130284D01*
X0093800Y0131882D02*
X0096800Y0131882D01*
X0096800Y0133481D02*
X0093800Y0133481D01*
X0093800Y0135079D02*
X0096800Y0135079D01*
X0096800Y0136678D02*
X0093800Y0136678D01*
X0095305Y0138276D02*
X0096800Y0138276D01*
X0113800Y0133481D02*
X0119311Y0133481D01*
X0117698Y0135079D02*
X0115502Y0135079D01*
X0116181Y0136678D02*
X0117086Y0136678D01*
X0117000Y0138276D02*
X0116200Y0138276D01*
X0116200Y0139875D02*
X0117000Y0139875D01*
X0117000Y0141473D02*
X0116200Y0141473D01*
X0116200Y0143072D02*
X0117000Y0143072D01*
X0117110Y0144670D02*
X0116119Y0144670D01*
X0115354Y0146269D02*
X0117806Y0146269D01*
X0119603Y0147868D02*
X0112995Y0147868D01*
X0121600Y0147868D02*
X0122000Y0147868D01*
X0122000Y0146269D02*
X0121600Y0146269D01*
X0121600Y0144670D02*
X0122000Y0144670D01*
X0122000Y0143072D02*
X0121600Y0143072D01*
X0121600Y0141473D02*
X0122000Y0141473D01*
X0122000Y0139875D02*
X0121600Y0139875D01*
X0121600Y0138276D02*
X0122000Y0138276D01*
X0122000Y0136678D02*
X0121600Y0136678D01*
X0121600Y0135079D02*
X0122000Y0135079D01*
X0122000Y0133481D02*
X0121600Y0133481D01*
X0126600Y0119094D02*
X0127400Y0119094D01*
X0127400Y0117496D02*
X0126600Y0117496D01*
X0126294Y0115897D02*
X0127743Y0115897D01*
X0174498Y0087124D02*
X0179102Y0087124D01*
X0179308Y0087330D02*
X0178070Y0086092D01*
X0177400Y0084475D01*
X0177400Y0076725D01*
X0178070Y0075108D01*
X0179308Y0073870D01*
X0179800Y0073666D01*
X0179800Y0067534D01*
X0179308Y0067330D01*
X0178070Y0066092D01*
X0177400Y0064475D01*
X0177400Y0056725D01*
X0178070Y0055108D01*
X0179308Y0053870D01*
X0180925Y0053200D01*
X0182675Y0053200D01*
X0184292Y0053870D01*
X0185530Y0055108D01*
X0186200Y0056725D01*
X0186200Y0064475D01*
X0185530Y0066092D01*
X0184292Y0067330D01*
X0183800Y0067534D01*
X0183800Y0073666D01*
X0184292Y0073870D01*
X0185530Y0075108D01*
X0186200Y0076725D01*
X0186200Y0084475D01*
X0185530Y0086092D01*
X0184292Y0087330D01*
X0182675Y0088000D01*
X0180925Y0088000D01*
X0179308Y0087330D01*
X0177835Y0085526D02*
X0175765Y0085526D01*
X0176200Y0083927D02*
X0177400Y0083927D01*
X0177400Y0082329D02*
X0176200Y0082329D01*
X0176200Y0080730D02*
X0177400Y0080730D01*
X0177400Y0079132D02*
X0176200Y0079132D01*
X0176200Y0077533D02*
X0177400Y0077533D01*
X0177727Y0075934D02*
X0175873Y0075934D01*
X0174759Y0074336D02*
X0178841Y0074336D01*
X0179800Y0072737D02*
X0173800Y0072737D01*
X0173800Y0071139D02*
X0179800Y0071139D01*
X0179800Y0069540D02*
X0173800Y0069540D01*
X0173800Y0067942D02*
X0179800Y0067942D01*
X0178321Y0066343D02*
X0175279Y0066343D01*
X0176088Y0064745D02*
X0177512Y0064745D01*
X0177400Y0063146D02*
X0176200Y0063146D01*
X0176200Y0061548D02*
X0177400Y0061548D01*
X0177400Y0059949D02*
X0176200Y0059949D01*
X0176200Y0058351D02*
X0177400Y0058351D01*
X0177400Y0056752D02*
X0176200Y0056752D01*
X0175549Y0055154D02*
X0178051Y0055154D01*
X0180067Y0053555D02*
X0173533Y0053555D01*
X0170067Y0053555D02*
X0163533Y0053555D01*
X0165549Y0055154D02*
X0168051Y0055154D01*
X0167400Y0056752D02*
X0166200Y0056752D01*
X0166200Y0058351D02*
X0167400Y0058351D01*
X0167400Y0059949D02*
X0166200Y0059949D01*
X0166200Y0061548D02*
X0167400Y0061548D01*
X0167400Y0063146D02*
X0166200Y0063146D01*
X0166088Y0064745D02*
X0167512Y0064745D01*
X0168321Y0066343D02*
X0165279Y0066343D01*
X0163800Y0067942D02*
X0169800Y0067942D01*
X0169800Y0069540D02*
X0163800Y0069540D01*
X0163800Y0071139D02*
X0169800Y0071139D01*
X0183800Y0071139D02*
X0189800Y0071139D01*
X0189800Y0072737D02*
X0183800Y0072737D01*
X0184759Y0074336D02*
X0188841Y0074336D01*
X0189308Y0073870D02*
X0188070Y0075108D01*
X0187400Y0076725D01*
X0187400Y0084475D01*
X0188070Y0086092D01*
X0189308Y0087330D01*
X0190925Y0088000D01*
X0192675Y0088000D01*
X0194292Y0087330D01*
X0195530Y0086092D01*
X0196200Y0084475D01*
X0196200Y0076725D01*
X0195530Y0075108D01*
X0194292Y0073870D01*
X0193800Y0073666D01*
X0193800Y0067534D01*
X0194292Y0067330D01*
X0195530Y0066092D01*
X0196200Y0064475D01*
X0196200Y0056725D01*
X0195530Y0055108D01*
X0194292Y0053870D01*
X0192675Y0053200D01*
X0190925Y0053200D01*
X0189308Y0053870D01*
X0188070Y0055108D01*
X0187400Y0056725D01*
X0187400Y0064475D01*
X0188070Y0066092D01*
X0189308Y0067330D01*
X0189800Y0067534D01*
X0189800Y0073666D01*
X0189308Y0073870D01*
X0187727Y0075934D02*
X0185873Y0075934D01*
X0186200Y0077533D02*
X0187400Y0077533D01*
X0187400Y0079132D02*
X0186200Y0079132D01*
X0186200Y0080730D02*
X0187400Y0080730D01*
X0187400Y0082329D02*
X0186200Y0082329D01*
X0186200Y0083927D02*
X0187400Y0083927D01*
X0187835Y0085526D02*
X0185765Y0085526D01*
X0184498Y0087124D02*
X0189102Y0087124D01*
X0194498Y0087124D02*
X0199102Y0087124D01*
X0199308Y0087330D02*
X0198070Y0086092D01*
X0197400Y0084475D01*
X0197400Y0076725D01*
X0198070Y0075108D01*
X0199308Y0073870D01*
X0199800Y0073666D01*
X0199800Y0067534D01*
X0199308Y0067330D01*
X0198070Y0066092D01*
X0197400Y0064475D01*
X0197400Y0056725D01*
X0198070Y0055108D01*
X0199308Y0053870D01*
X0200925Y0053200D01*
X0202675Y0053200D01*
X0204292Y0053870D01*
X0205530Y0055108D01*
X0206200Y0056725D01*
X0206200Y0064475D01*
X0205530Y0066092D01*
X0204292Y0067330D01*
X0203800Y0067534D01*
X0203800Y0073666D01*
X0204292Y0073870D01*
X0205530Y0075108D01*
X0206200Y0076725D01*
X0206200Y0084475D01*
X0205530Y0086092D01*
X0204292Y0087330D01*
X0202675Y0088000D01*
X0200925Y0088000D01*
X0199308Y0087330D01*
X0197835Y0085526D02*
X0195765Y0085526D01*
X0196200Y0083927D02*
X0197400Y0083927D01*
X0197400Y0082329D02*
X0196200Y0082329D01*
X0196200Y0080730D02*
X0197400Y0080730D01*
X0197400Y0079132D02*
X0196200Y0079132D01*
X0196200Y0077533D02*
X0197400Y0077533D01*
X0197727Y0075934D02*
X0195873Y0075934D01*
X0194759Y0074336D02*
X0198841Y0074336D01*
X0199800Y0072737D02*
X0193800Y0072737D01*
X0193800Y0071139D02*
X0199800Y0071139D01*
X0199800Y0069540D02*
X0193800Y0069540D01*
X0193800Y0067942D02*
X0199800Y0067942D01*
X0198321Y0066343D02*
X0195279Y0066343D01*
X0196088Y0064745D02*
X0197512Y0064745D01*
X0197400Y0063146D02*
X0196200Y0063146D01*
X0196200Y0061548D02*
X0197400Y0061548D01*
X0197400Y0059949D02*
X0196200Y0059949D01*
X0196200Y0058351D02*
X0197400Y0058351D01*
X0197400Y0056752D02*
X0196200Y0056752D01*
X0195549Y0055154D02*
X0198051Y0055154D01*
X0200067Y0053555D02*
X0193533Y0053555D01*
X0190067Y0053555D02*
X0183533Y0053555D01*
X0185549Y0055154D02*
X0188051Y0055154D01*
X0187400Y0056752D02*
X0186200Y0056752D01*
X0186200Y0058351D02*
X0187400Y0058351D01*
X0187400Y0059949D02*
X0186200Y0059949D01*
X0186200Y0061548D02*
X0187400Y0061548D01*
X0187400Y0063146D02*
X0186200Y0063146D01*
X0186088Y0064745D02*
X0187512Y0064745D01*
X0188321Y0066343D02*
X0185279Y0066343D01*
X0183800Y0067942D02*
X0189800Y0067942D01*
X0189800Y0069540D02*
X0183800Y0069540D01*
X0203800Y0069540D02*
X0209800Y0069540D01*
X0209800Y0067942D02*
X0203800Y0067942D01*
X0205279Y0066343D02*
X0208321Y0066343D01*
X0207512Y0064745D02*
X0206088Y0064745D01*
X0206200Y0063146D02*
X0207400Y0063146D01*
X0207400Y0061548D02*
X0206200Y0061548D01*
X0206200Y0059949D02*
X0207400Y0059949D01*
X0207400Y0058351D02*
X0206200Y0058351D01*
X0206200Y0056752D02*
X0207400Y0056752D01*
X0208051Y0055154D02*
X0205549Y0055154D01*
X0203533Y0053555D02*
X0210067Y0053555D01*
X0213533Y0053555D02*
X0220067Y0053555D01*
X0219308Y0053870D02*
X0220925Y0053200D01*
X0222675Y0053200D01*
X0224292Y0053870D01*
X0225530Y0055108D01*
X0226200Y0056725D01*
X0226200Y0064475D01*
X0225530Y0066092D01*
X0224292Y0067330D01*
X0223800Y0067534D01*
X0223800Y0073666D01*
X0224292Y0073870D01*
X0225530Y0075108D01*
X0226200Y0076725D01*
X0226200Y0084475D01*
X0225530Y0086092D01*
X0224292Y0087330D01*
X0222675Y0088000D01*
X0220925Y0088000D01*
X0219308Y0087330D01*
X0218070Y0086092D01*
X0217400Y0084475D01*
X0217400Y0076725D01*
X0218070Y0075108D01*
X0219308Y0073870D01*
X0219800Y0073666D01*
X0219800Y0067534D01*
X0219308Y0067330D01*
X0218070Y0066092D01*
X0217400Y0064475D01*
X0217400Y0056725D01*
X0218070Y0055108D01*
X0219308Y0053870D01*
X0218051Y0055154D02*
X0215549Y0055154D01*
X0216200Y0056752D02*
X0217400Y0056752D01*
X0217400Y0058351D02*
X0216200Y0058351D01*
X0216200Y0059949D02*
X0217400Y0059949D01*
X0217400Y0061548D02*
X0216200Y0061548D01*
X0216200Y0063146D02*
X0217400Y0063146D01*
X0217512Y0064745D02*
X0216088Y0064745D01*
X0215279Y0066343D02*
X0218321Y0066343D01*
X0219800Y0067942D02*
X0213800Y0067942D01*
X0213800Y0069540D02*
X0219800Y0069540D01*
X0219800Y0071139D02*
X0213800Y0071139D01*
X0213800Y0072737D02*
X0219800Y0072737D01*
X0218841Y0074336D02*
X0214759Y0074336D01*
X0215873Y0075934D02*
X0217727Y0075934D01*
X0217400Y0077533D02*
X0216200Y0077533D01*
X0216200Y0079132D02*
X0217400Y0079132D01*
X0217400Y0080730D02*
X0216200Y0080730D01*
X0216200Y0082329D02*
X0217400Y0082329D01*
X0217400Y0083927D02*
X0216200Y0083927D01*
X0215765Y0085526D02*
X0217835Y0085526D01*
X0219102Y0087124D02*
X0214498Y0087124D01*
X0209102Y0087124D02*
X0204498Y0087124D01*
X0205765Y0085526D02*
X0207835Y0085526D01*
X0207400Y0083927D02*
X0206200Y0083927D01*
X0206200Y0082329D02*
X0207400Y0082329D01*
X0207400Y0080730D02*
X0206200Y0080730D01*
X0206200Y0079132D02*
X0207400Y0079132D01*
X0207400Y0077533D02*
X0206200Y0077533D01*
X0205873Y0075934D02*
X0207727Y0075934D01*
X0208841Y0074336D02*
X0204759Y0074336D01*
X0203800Y0072737D02*
X0209800Y0072737D01*
X0209800Y0071139D02*
X0203800Y0071139D01*
X0223800Y0071139D02*
X0229800Y0071139D01*
X0229800Y0072737D02*
X0223800Y0072737D01*
X0224759Y0074336D02*
X0228841Y0074336D01*
X0227727Y0075934D02*
X0225873Y0075934D01*
X0226200Y0077533D02*
X0227400Y0077533D01*
X0227400Y0079132D02*
X0226200Y0079132D01*
X0226200Y0080730D02*
X0227400Y0080730D01*
X0227400Y0082329D02*
X0226200Y0082329D01*
X0226200Y0083927D02*
X0227400Y0083927D01*
X0227835Y0085526D02*
X0225765Y0085526D01*
X0224498Y0087124D02*
X0229102Y0087124D01*
X0234698Y0098314D02*
X0236402Y0098314D01*
X0238001Y0099912D02*
X0233099Y0099912D01*
X0231501Y0101511D02*
X0239599Y0101511D01*
X0238374Y0101800D02*
X0240600Y0104026D01*
X0240600Y0107174D01*
X0238374Y0109400D01*
X0235226Y0109400D01*
X0233000Y0107174D01*
X0233000Y0104026D01*
X0235226Y0101800D01*
X0238374Y0101800D01*
X0239683Y0103109D02*
X0241198Y0103109D01*
X0240600Y0104708D02*
X0242796Y0104708D01*
X0244395Y0106306D02*
X0240600Y0106306D01*
X0239869Y0107905D02*
X0245993Y0107905D01*
X0249019Y0104708D02*
X0286921Y0104708D01*
X0262000Y0103109D02*
X0261600Y0103109D01*
X0261600Y0101511D02*
X0262000Y0101511D01*
X0262000Y0099912D02*
X0261600Y0099912D01*
X0261600Y0098314D02*
X0262000Y0098314D01*
X0262000Y0096715D02*
X0261600Y0096715D01*
X0233917Y0103109D02*
X0229902Y0103109D01*
X0228304Y0104708D02*
X0233000Y0104708D01*
X0233000Y0106306D02*
X0226705Y0106306D01*
X0233731Y0107905D02*
X0199869Y0107905D01*
X0223800Y0069540D02*
X0229800Y0069540D01*
X0229800Y0067942D02*
X0223800Y0067942D01*
X0225279Y0066343D02*
X0228321Y0066343D01*
X0227512Y0064745D02*
X0226088Y0064745D01*
X0226200Y0063146D02*
X0227400Y0063146D01*
X0227400Y0061548D02*
X0226200Y0061548D01*
X0226200Y0059949D02*
X0227400Y0059949D01*
X0227400Y0058351D02*
X0226200Y0058351D01*
X0226200Y0056752D02*
X0227400Y0056752D01*
X0228051Y0055154D02*
X0225549Y0055154D01*
X0223533Y0053555D02*
X0230067Y0053555D01*
X0237587Y0040767D02*
X0156273Y0040767D01*
X0157409Y0039169D02*
X0236817Y0039169D01*
X0236047Y0037570D02*
X0157581Y0037570D01*
X0156812Y0035972D02*
X0234774Y0035972D01*
X0066287Y0178239D02*
X0062313Y0178239D01*
X0063100Y0179838D02*
X0065500Y0179838D01*
X0065500Y0181436D02*
X0063100Y0181436D01*
X0064563Y0183035D02*
X0066361Y0183035D01*
X0066162Y0184633D02*
X0070505Y0184633D01*
X0072103Y0186232D02*
X0067760Y0186232D01*
X0069359Y0187830D02*
X0073702Y0187830D01*
X0075300Y0189429D02*
X0070957Y0189429D01*
X0071300Y0191027D02*
X0076899Y0191027D01*
X0078497Y0192626D02*
X0071700Y0192626D01*
X0066900Y0192626D02*
X0062266Y0192626D01*
X0061040Y0191400D02*
X0063500Y0193860D01*
X0063500Y0195600D01*
X0063500Y0197340D01*
X0061040Y0199800D01*
X0059300Y0199800D01*
X0059300Y0195600D01*
X0063500Y0195600D01*
X0059300Y0195600D01*
X0059300Y0195600D01*
X0059300Y0195600D01*
X0059300Y0191400D01*
X0061040Y0191400D01*
X0059300Y0191400D02*
X0059300Y0195600D01*
X0059300Y0195600D01*
X0059300Y0195600D01*
X0055100Y0195600D01*
X0055100Y0197340D01*
X0057560Y0199800D01*
X0059300Y0199800D01*
X0059300Y0195600D01*
X0055100Y0195600D01*
X0055100Y0193860D01*
X0057560Y0191400D01*
X0059300Y0191400D01*
X0059300Y0192626D02*
X0059300Y0192626D01*
X0059300Y0194224D02*
X0059300Y0194224D01*
X0059300Y0195823D02*
X0059300Y0195823D01*
X0059300Y0197421D02*
X0059300Y0197421D01*
X0059300Y0199020D02*
X0059300Y0199020D01*
X0061820Y0199020D02*
X0067346Y0199020D01*
X0065747Y0197421D02*
X0063418Y0197421D01*
X0063500Y0195823D02*
X0065500Y0195823D01*
X0065500Y0194224D02*
X0063500Y0194224D01*
X0066899Y0191027D02*
X0004116Y0191027D01*
X0004117Y0189429D02*
X0065300Y0189429D01*
X0063702Y0187830D02*
X0004118Y0187830D01*
X0004119Y0186232D02*
X0062103Y0186232D01*
X0060505Y0184633D02*
X0004120Y0184633D01*
X0004121Y0183035D02*
X0056361Y0183035D01*
X0055500Y0181436D02*
X0004122Y0181436D01*
X0004123Y0179838D02*
X0055500Y0179838D01*
X0056287Y0178239D02*
X0004124Y0178239D01*
X0004115Y0192626D02*
X0056334Y0192626D01*
X0055100Y0194224D02*
X0004114Y0194224D01*
X0004113Y0195823D02*
X0055100Y0195823D01*
X0055182Y0197421D02*
X0004111Y0197421D01*
X0004110Y0199020D02*
X0056780Y0199020D01*
X0089200Y0192626D02*
X0093834Y0192626D01*
X0092600Y0194224D02*
X0090600Y0194224D01*
X0090600Y0195823D02*
X0092600Y0195823D01*
X0092682Y0197421D02*
X0090353Y0197421D01*
X0099320Y0199020D02*
X0107000Y0199020D01*
X0107000Y0200400D02*
X0107000Y0197222D01*
X0107118Y0196476D01*
X0107352Y0195757D01*
X0107695Y0195084D01*
X0108139Y0194473D01*
X0108673Y0193939D01*
X0109284Y0193495D01*
X0109957Y0193152D01*
X0110676Y0192918D01*
X0111422Y0192800D01*
X0111600Y0192800D01*
X0111600Y0200400D01*
X0107000Y0200400D01*
X0107000Y0200800D02*
X0111600Y0200800D01*
X0111600Y0208400D01*
X0111422Y0208400D01*
X0110676Y0208282D01*
X0109957Y0208048D01*
X0109284Y0207705D01*
X0108673Y0207261D01*
X0108139Y0206727D01*
X0107695Y0206116D01*
X0107352Y0205443D01*
X0107118Y0204724D01*
X0107000Y0203978D01*
X0107000Y0200800D01*
X0107000Y0202217D02*
X0004108Y0202217D01*
X0004107Y0203815D02*
X0107000Y0203815D01*
X0107342Y0205414D02*
X0004106Y0205414D01*
X0004105Y0207012D02*
X0108424Y0207012D01*
X0111600Y0207012D02*
X0112000Y0207012D01*
X0112000Y0208400D02*
X0112000Y0200800D01*
X0111600Y0200800D01*
X0111600Y0200400D01*
X0112000Y0200400D01*
X0112000Y0200800D01*
X0116600Y0200800D01*
X0116600Y0203978D01*
X0116482Y0204724D01*
X0116248Y0205443D01*
X0115905Y0206116D01*
X0115461Y0206727D01*
X0114927Y0207261D01*
X0114316Y0207705D01*
X0113643Y0208048D01*
X0112924Y0208282D01*
X0112178Y0208400D01*
X0112000Y0208400D01*
X0112000Y0205414D02*
X0111600Y0205414D01*
X0111600Y0203815D02*
X0112000Y0203815D01*
X0112000Y0202217D02*
X0111600Y0202217D01*
X0111600Y0200618D02*
X0004109Y0200618D01*
X0004154Y0135079D02*
X0015951Y0135079D01*
X0014800Y0133928D02*
X0014800Y0133928D01*
X0014352Y0133481D02*
X0004155Y0133481D01*
X0004156Y0131882D02*
X0012754Y0131882D01*
X0011155Y0130284D02*
X0004157Y0130284D01*
X0004158Y0128685D02*
X0009800Y0128685D01*
X0009800Y0127087D02*
X0004159Y0127087D01*
X0004160Y0125488D02*
X0009800Y0125488D01*
X0009800Y0123890D02*
X0004161Y0123890D01*
X0004162Y0122291D02*
X0009800Y0122291D01*
X0009800Y0120693D02*
X0004164Y0120693D01*
X0004165Y0119094D02*
X0009800Y0119094D01*
X0009800Y0117496D02*
X0004166Y0117496D01*
X0004167Y0115897D02*
X0009800Y0115897D01*
X0009800Y0114299D02*
X0004168Y0114299D01*
X0004169Y0112700D02*
X0009800Y0112700D01*
X0009800Y0111102D02*
X0004170Y0111102D01*
X0004171Y0109503D02*
X0009800Y0109503D01*
X0009800Y0107905D02*
X0004172Y0107905D01*
X0004173Y0106306D02*
X0009800Y0106306D01*
X0009800Y0104708D02*
X0004174Y0104708D01*
X0004176Y0103109D02*
X0009800Y0103109D01*
X0009800Y0101511D02*
X0004177Y0101511D01*
X0004178Y0099912D02*
X0009800Y0099912D01*
X0009800Y0098314D02*
X0004179Y0098314D01*
X0004180Y0096715D02*
X0009800Y0096715D01*
X0009800Y0095117D02*
X0004181Y0095117D01*
X0004182Y0093518D02*
X0009800Y0093518D01*
X0009800Y0091920D02*
X0004183Y0091920D01*
X0004184Y0090321D02*
X0009800Y0090321D01*
X0009800Y0088723D02*
X0004185Y0088723D01*
X0004186Y0087124D02*
X0009800Y0087124D01*
X0009800Y0085526D02*
X0004187Y0085526D01*
X0112000Y0192800D02*
X0112178Y0192800D01*
X0112924Y0192918D01*
X0113643Y0193152D01*
X0114316Y0193495D01*
X0114927Y0193939D01*
X0115461Y0194473D01*
X0115905Y0195084D01*
X0116248Y0195757D01*
X0116482Y0196476D01*
X0116600Y0197222D01*
X0116600Y0200400D01*
X0112000Y0200400D01*
X0112000Y0192800D01*
X0112000Y0194224D02*
X0111600Y0194224D01*
X0111600Y0195823D02*
X0112000Y0195823D01*
X0112000Y0197421D02*
X0111600Y0197421D01*
X0111600Y0199020D02*
X0112000Y0199020D01*
X0112000Y0200618D02*
X0117400Y0200618D01*
X0117400Y0199020D02*
X0116600Y0199020D01*
X0116600Y0197421D02*
X0117400Y0197421D01*
X0117774Y0195823D02*
X0116270Y0195823D01*
X0115213Y0194224D02*
X0118953Y0194224D01*
X0117400Y0202217D02*
X0116600Y0202217D01*
X0116600Y0203815D02*
X0117400Y0203815D01*
X0117789Y0205414D02*
X0116258Y0205414D01*
X0115176Y0207012D02*
X0118990Y0207012D01*
X0107000Y0197421D02*
X0100918Y0197421D01*
X0101000Y0195823D02*
X0107330Y0195823D01*
X0108387Y0194224D02*
X0101000Y0194224D01*
D15*
X0089300Y0173100D03*
X0029300Y0140600D03*
X0084300Y0090600D03*
X0061800Y0080600D03*
X0036800Y0088100D03*
X0064300Y0033100D03*
X0079300Y0033100D03*
X0154300Y0038100D03*
X0114300Y0100600D03*
X0151800Y0173100D03*
X0214300Y0170600D03*
X0266800Y0043100D03*
X0234300Y0020600D03*
D16*
X0141800Y0113100D02*
X0129300Y0100600D01*
X0126800Y0100600D01*
X0114300Y0100600D01*
X0126800Y0100600D02*
X0126800Y0093100D01*
X0141800Y0113100D02*
X0149300Y0105600D01*
X0196800Y0105600D01*
X0141800Y0113100D02*
X0141800Y0120600D01*
X0141800Y0140600D01*
X0084300Y0090600D02*
X0074300Y0080600D01*
X0074300Y0070600D01*
X0074300Y0063100D01*
X0074300Y0061600D02*
X0080300Y0055600D01*
X0084300Y0055600D01*
X0091800Y0048100D01*
X0091800Y0045600D01*
X0074300Y0070600D02*
X0046800Y0070600D01*
X0044300Y0068100D01*
X0044300Y0063100D01*
X0044300Y0058100D01*
X0041800Y0055600D01*
X0036800Y0055600D01*
X0031800Y0050600D01*
X0031800Y0045600D01*
M02*
