G75*
%MOIN*%
%OFA0B0*%
%FSLAX25Y25*%
%IPPOS*%
%LPD*%
%AMOC8*
5,1,8,0,0,1.08239X$1,22.5*
%
%ADD10C,0.06600*%
%ADD11OC8,0.05400*%
%ADD12C,0.04362*%
D10*
X0021800Y0022600D02*
X0021800Y0028600D01*
X0031800Y0028600D02*
X0031800Y0022600D01*
X0031800Y0042600D02*
X0031800Y0048600D01*
X0021800Y0048600D02*
X0021800Y0042600D01*
X0041800Y0042600D02*
X0041800Y0048600D01*
X0051800Y0048600D02*
X0051800Y0042600D01*
X0061800Y0042600D02*
X0061800Y0048600D01*
X0071800Y0048600D02*
X0071800Y0042600D01*
X0081800Y0042600D02*
X0081800Y0048600D01*
X0091800Y0048600D02*
X0091800Y0042600D01*
X0111800Y0057600D02*
X0111800Y0063600D01*
X0121800Y0063600D02*
X0121800Y0057600D01*
X0131800Y0057600D02*
X0131800Y0063600D01*
X0141800Y0063600D02*
X0141800Y0057600D01*
X0151800Y0057600D02*
X0151800Y0063600D01*
X0161800Y0063600D02*
X0161800Y0057600D01*
X0171800Y0057600D02*
X0171800Y0063600D01*
X0181800Y0063600D02*
X0181800Y0057600D01*
X0191800Y0057600D02*
X0191800Y0063600D01*
X0201800Y0063600D02*
X0201800Y0057600D01*
X0211800Y0057600D02*
X0211800Y0063600D01*
X0221800Y0063600D02*
X0221800Y0057600D01*
X0231800Y0057600D02*
X0231800Y0063600D01*
X0241800Y0063600D02*
X0241800Y0057600D01*
X0251800Y0057600D02*
X0251800Y0063600D01*
X0261800Y0063600D02*
X0261800Y0057600D01*
X0261800Y0077600D02*
X0261800Y0083600D01*
X0251800Y0083600D02*
X0251800Y0077600D01*
X0241800Y0077600D02*
X0241800Y0083600D01*
X0231800Y0083600D02*
X0231800Y0077600D01*
X0221800Y0077600D02*
X0221800Y0083600D01*
X0211800Y0083600D02*
X0211800Y0077600D01*
X0201800Y0077600D02*
X0201800Y0083600D01*
X0191800Y0083600D02*
X0191800Y0077600D01*
X0181800Y0077600D02*
X0181800Y0083600D01*
X0171800Y0083600D02*
X0171800Y0077600D01*
X0161800Y0077600D02*
X0161800Y0083600D01*
X0151800Y0083600D02*
X0151800Y0077600D01*
X0141800Y0077600D02*
X0141800Y0083600D01*
X0131800Y0083600D02*
X0131800Y0077600D01*
X0121800Y0077600D02*
X0121800Y0083600D01*
X0111800Y0083600D02*
X0111800Y0077600D01*
X0091800Y0107600D02*
X0091800Y0113600D01*
X0081800Y0113600D02*
X0081800Y0107600D01*
X0071800Y0107600D02*
X0071800Y0113600D01*
X0061800Y0113600D02*
X0061800Y0107600D01*
X0051800Y0107600D02*
X0051800Y0113600D01*
X0041800Y0113600D02*
X0041800Y0107600D01*
X0031800Y0107600D02*
X0031800Y0113600D01*
X0021800Y0113600D02*
X0021800Y0107600D01*
X0024800Y0090600D02*
X0018800Y0090600D01*
X0018800Y0080600D02*
X0024800Y0080600D01*
X0024800Y0070600D02*
X0018800Y0070600D01*
X0018800Y0060600D02*
X0024800Y0060600D01*
X0111800Y0117600D02*
X0111800Y0123600D01*
X0121800Y0123600D02*
X0121800Y0117600D01*
X0131800Y0117600D02*
X0131800Y0123600D01*
X0141800Y0123600D02*
X0141800Y0117600D01*
X0151800Y0117600D02*
X0151800Y0123600D01*
X0161800Y0123600D02*
X0161800Y0117600D01*
X0171800Y0117600D02*
X0171800Y0123600D01*
X0181800Y0123600D02*
X0181800Y0117600D01*
X0191800Y0117600D02*
X0191800Y0123600D01*
X0201800Y0123600D02*
X0201800Y0117600D01*
X0211800Y0117600D02*
X0211800Y0123600D01*
X0221800Y0123600D02*
X0221800Y0117600D01*
X0231800Y0117600D02*
X0231800Y0123600D01*
X0241800Y0123600D02*
X0241800Y0117600D01*
X0251800Y0117600D02*
X0251800Y0123600D01*
X0261800Y0123600D02*
X0261800Y0117600D01*
X0261800Y0098600D02*
X0261800Y0092600D01*
X0251800Y0092600D02*
X0251800Y0098600D01*
X0251800Y0137600D02*
X0251800Y0143600D01*
X0261800Y0143600D02*
X0261800Y0137600D01*
X0241800Y0137600D02*
X0241800Y0143600D01*
X0231800Y0143600D02*
X0231800Y0137600D01*
X0221800Y0137600D02*
X0221800Y0143600D01*
X0211800Y0143600D02*
X0211800Y0137600D01*
X0201800Y0137600D02*
X0201800Y0143600D01*
X0191800Y0143600D02*
X0191800Y0137600D01*
X0181800Y0137600D02*
X0181800Y0143600D01*
X0171800Y0143600D02*
X0171800Y0137600D01*
X0161800Y0137600D02*
X0161800Y0143600D01*
X0151800Y0143600D02*
X0151800Y0137600D01*
X0141800Y0137600D02*
X0141800Y0143600D01*
X0131800Y0143600D02*
X0131800Y0137600D01*
X0121800Y0137600D02*
X0121800Y0143600D01*
X0111800Y0143600D02*
X0111800Y0137600D01*
X0163800Y0160600D02*
X0169800Y0160600D01*
X0169800Y0170600D02*
X0163800Y0170600D01*
X0161800Y0197600D02*
X0161800Y0203600D01*
X0151800Y0203600D02*
X0151800Y0197600D01*
X0141800Y0197600D02*
X0141800Y0203600D01*
X0131800Y0203600D02*
X0131800Y0197600D01*
X0121800Y0197600D02*
X0121800Y0203600D01*
X0111800Y0203600D02*
X0111800Y0197600D01*
X0171800Y0197600D02*
X0171800Y0203600D01*
X0181800Y0203600D02*
X0181800Y0197600D01*
X0191800Y0197600D02*
X0191800Y0203600D01*
X0201800Y0203600D02*
X0201800Y0197600D01*
X0211800Y0197600D02*
X0211800Y0203600D01*
X0221800Y0203600D02*
X0221800Y0197600D01*
X0231800Y0197600D02*
X0231800Y0203600D01*
X0241800Y0203600D02*
X0241800Y0197600D01*
X0251800Y0197600D02*
X0251800Y0203600D01*
X0261800Y0203600D02*
X0261800Y0197600D01*
X0261800Y0180100D02*
X0261800Y0174100D01*
X0271800Y0174100D02*
X0271800Y0180100D01*
X0241800Y0181100D02*
X0241800Y0175100D01*
X0231800Y0175100D02*
X0231800Y0181100D01*
D11*
X0231800Y0165600D03*
X0231800Y0155600D03*
X0251800Y0165600D03*
X0271800Y0155600D03*
X0236800Y0105600D03*
X0196800Y0105600D03*
X0166800Y0093100D03*
X0126800Y0093100D03*
X0069300Y0140600D03*
X0059300Y0140600D03*
X0059300Y0180600D03*
X0069300Y0180600D03*
X0069300Y0195600D03*
X0059300Y0195600D03*
X0086800Y0195600D03*
X0096800Y0195600D03*
D12*
X0089300Y0173100D03*
X0029300Y0140600D03*
X0084300Y0090600D03*
X0061800Y0080600D03*
X0036800Y0088100D03*
X0064300Y0033100D03*
X0079300Y0033100D03*
X0154300Y0038100D03*
X0114300Y0100600D03*
X0151800Y0173100D03*
X0214300Y0170600D03*
X0266800Y0043100D03*
X0234300Y0020600D03*
M02*
