G75*
%MOIN*%
%OFA0B0*%
%FSLAX25Y25*%
%IPPOS*%
%LPD*%
%AMOC8*
5,1,8,0,0,1.08239X$1,22.5*
%
%ADD10C,0.06000*%
%ADD11OC8,0.04800*%
%ADD12C,0.01200*%
%ADD13C,0.03762*%
%ADD14C,0.02400*%
D10*
X0021800Y0022600D02*
X0021800Y0028600D01*
X0031800Y0028600D02*
X0031800Y0022600D01*
X0031800Y0042600D02*
X0031800Y0048600D01*
X0021800Y0048600D02*
X0021800Y0042600D01*
X0041800Y0042600D02*
X0041800Y0048600D01*
X0051800Y0048600D02*
X0051800Y0042600D01*
X0061800Y0042600D02*
X0061800Y0048600D01*
X0071800Y0048600D02*
X0071800Y0042600D01*
X0081800Y0042600D02*
X0081800Y0048600D01*
X0091800Y0048600D02*
X0091800Y0042600D01*
X0111800Y0057600D02*
X0111800Y0063600D01*
X0121800Y0063600D02*
X0121800Y0057600D01*
X0131800Y0057600D02*
X0131800Y0063600D01*
X0141800Y0063600D02*
X0141800Y0057600D01*
X0151800Y0057600D02*
X0151800Y0063600D01*
X0161800Y0063600D02*
X0161800Y0057600D01*
X0171800Y0057600D02*
X0171800Y0063600D01*
X0181800Y0063600D02*
X0181800Y0057600D01*
X0191800Y0057600D02*
X0191800Y0063600D01*
X0201800Y0063600D02*
X0201800Y0057600D01*
X0211800Y0057600D02*
X0211800Y0063600D01*
X0221800Y0063600D02*
X0221800Y0057600D01*
X0231800Y0057600D02*
X0231800Y0063600D01*
X0241800Y0063600D02*
X0241800Y0057600D01*
X0251800Y0057600D02*
X0251800Y0063600D01*
X0261800Y0063600D02*
X0261800Y0057600D01*
X0261800Y0077600D02*
X0261800Y0083600D01*
X0251800Y0083600D02*
X0251800Y0077600D01*
X0241800Y0077600D02*
X0241800Y0083600D01*
X0231800Y0083600D02*
X0231800Y0077600D01*
X0221800Y0077600D02*
X0221800Y0083600D01*
X0211800Y0083600D02*
X0211800Y0077600D01*
X0201800Y0077600D02*
X0201800Y0083600D01*
X0191800Y0083600D02*
X0191800Y0077600D01*
X0181800Y0077600D02*
X0181800Y0083600D01*
X0171800Y0083600D02*
X0171800Y0077600D01*
X0161800Y0077600D02*
X0161800Y0083600D01*
X0151800Y0083600D02*
X0151800Y0077600D01*
X0141800Y0077600D02*
X0141800Y0083600D01*
X0131800Y0083600D02*
X0131800Y0077600D01*
X0121800Y0077600D02*
X0121800Y0083600D01*
X0111800Y0083600D02*
X0111800Y0077600D01*
X0091800Y0107600D02*
X0091800Y0113600D01*
X0081800Y0113600D02*
X0081800Y0107600D01*
X0071800Y0107600D02*
X0071800Y0113600D01*
X0061800Y0113600D02*
X0061800Y0107600D01*
X0051800Y0107600D02*
X0051800Y0113600D01*
X0041800Y0113600D02*
X0041800Y0107600D01*
X0031800Y0107600D02*
X0031800Y0113600D01*
X0021800Y0113600D02*
X0021800Y0107600D01*
X0024800Y0090600D02*
X0018800Y0090600D01*
X0018800Y0080600D02*
X0024800Y0080600D01*
X0024800Y0070600D02*
X0018800Y0070600D01*
X0018800Y0060600D02*
X0024800Y0060600D01*
X0111800Y0117600D02*
X0111800Y0123600D01*
X0121800Y0123600D02*
X0121800Y0117600D01*
X0131800Y0117600D02*
X0131800Y0123600D01*
X0141800Y0123600D02*
X0141800Y0117600D01*
X0151800Y0117600D02*
X0151800Y0123600D01*
X0161800Y0123600D02*
X0161800Y0117600D01*
X0171800Y0117600D02*
X0171800Y0123600D01*
X0181800Y0123600D02*
X0181800Y0117600D01*
X0191800Y0117600D02*
X0191800Y0123600D01*
X0201800Y0123600D02*
X0201800Y0117600D01*
X0211800Y0117600D02*
X0211800Y0123600D01*
X0221800Y0123600D02*
X0221800Y0117600D01*
X0231800Y0117600D02*
X0231800Y0123600D01*
X0241800Y0123600D02*
X0241800Y0117600D01*
X0251800Y0117600D02*
X0251800Y0123600D01*
X0261800Y0123600D02*
X0261800Y0117600D01*
X0261800Y0098600D02*
X0261800Y0092600D01*
X0251800Y0092600D02*
X0251800Y0098600D01*
X0251800Y0137600D02*
X0251800Y0143600D01*
X0261800Y0143600D02*
X0261800Y0137600D01*
X0241800Y0137600D02*
X0241800Y0143600D01*
X0231800Y0143600D02*
X0231800Y0137600D01*
X0221800Y0137600D02*
X0221800Y0143600D01*
X0211800Y0143600D02*
X0211800Y0137600D01*
X0201800Y0137600D02*
X0201800Y0143600D01*
X0191800Y0143600D02*
X0191800Y0137600D01*
X0181800Y0137600D02*
X0181800Y0143600D01*
X0171800Y0143600D02*
X0171800Y0137600D01*
X0161800Y0137600D02*
X0161800Y0143600D01*
X0151800Y0143600D02*
X0151800Y0137600D01*
X0141800Y0137600D02*
X0141800Y0143600D01*
X0131800Y0143600D02*
X0131800Y0137600D01*
X0121800Y0137600D02*
X0121800Y0143600D01*
X0111800Y0143600D02*
X0111800Y0137600D01*
X0163800Y0160600D02*
X0169800Y0160600D01*
X0169800Y0170600D02*
X0163800Y0170600D01*
X0161800Y0197600D02*
X0161800Y0203600D01*
X0151800Y0203600D02*
X0151800Y0197600D01*
X0141800Y0197600D02*
X0141800Y0203600D01*
X0131800Y0203600D02*
X0131800Y0197600D01*
X0121800Y0197600D02*
X0121800Y0203600D01*
X0111800Y0203600D02*
X0111800Y0197600D01*
X0171800Y0197600D02*
X0171800Y0203600D01*
X0181800Y0203600D02*
X0181800Y0197600D01*
X0191800Y0197600D02*
X0191800Y0203600D01*
X0201800Y0203600D02*
X0201800Y0197600D01*
X0211800Y0197600D02*
X0211800Y0203600D01*
X0221800Y0203600D02*
X0221800Y0197600D01*
X0231800Y0197600D02*
X0231800Y0203600D01*
X0241800Y0203600D02*
X0241800Y0197600D01*
X0251800Y0197600D02*
X0251800Y0203600D01*
X0261800Y0203600D02*
X0261800Y0197600D01*
X0261800Y0180100D02*
X0261800Y0174100D01*
X0271800Y0174100D02*
X0271800Y0180100D01*
X0241800Y0181100D02*
X0241800Y0175100D01*
X0231800Y0175100D02*
X0231800Y0181100D01*
D11*
X0231800Y0165600D03*
X0231800Y0155600D03*
X0251800Y0165600D03*
X0271800Y0155600D03*
X0236800Y0105600D03*
X0196800Y0105600D03*
X0166800Y0093100D03*
X0126800Y0093100D03*
X0069300Y0140600D03*
X0059300Y0140600D03*
X0059300Y0180600D03*
X0069300Y0180600D03*
X0069300Y0195600D03*
X0059300Y0195600D03*
X0086800Y0195600D03*
X0096800Y0195600D03*
D12*
X0003901Y0212201D02*
X0004040Y0007723D01*
X0287121Y0007700D01*
X0287121Y0212201D01*
X0003901Y0212201D01*
X0003902Y0211744D02*
X0287121Y0211744D01*
X0287121Y0210545D02*
X0003903Y0210545D01*
X0003903Y0209347D02*
X0287121Y0209347D01*
X0287121Y0208148D02*
X0262488Y0208148D01*
X0262200Y0208148D02*
X0261400Y0208148D01*
X0261400Y0208194D02*
X0260723Y0208087D01*
X0260034Y0207863D01*
X0259389Y0207534D01*
X0258803Y0207109D01*
X0258291Y0206597D01*
X0257866Y0206011D01*
X0257537Y0205366D01*
X0257313Y0204677D01*
X0257200Y0203962D01*
X0257200Y0201000D01*
X0261400Y0201000D01*
X0261400Y0208194D01*
X0261112Y0208148D02*
X0242488Y0208148D01*
X0242200Y0208148D02*
X0241400Y0208148D01*
X0241400Y0208194D02*
X0240723Y0208087D01*
X0240034Y0207863D01*
X0239389Y0207534D01*
X0238803Y0207109D01*
X0238291Y0206597D01*
X0237866Y0206011D01*
X0237537Y0205366D01*
X0237313Y0204677D01*
X0237200Y0203962D01*
X0237200Y0201000D01*
X0241400Y0201000D01*
X0241400Y0208194D01*
X0241112Y0208148D02*
X0112488Y0208148D01*
X0112200Y0208148D02*
X0111400Y0208148D01*
X0111400Y0208194D02*
X0110723Y0208087D01*
X0110034Y0207863D01*
X0109389Y0207534D01*
X0108803Y0207109D01*
X0108291Y0206597D01*
X0107866Y0206011D01*
X0107537Y0205366D01*
X0107313Y0204677D01*
X0107200Y0203962D01*
X0107200Y0201000D01*
X0111400Y0201000D01*
X0111400Y0208194D01*
X0111112Y0208148D02*
X0003904Y0208148D01*
X0003905Y0206950D02*
X0108645Y0206950D01*
X0107733Y0205751D02*
X0003906Y0205751D01*
X0003907Y0204553D02*
X0107294Y0204553D01*
X0107200Y0203354D02*
X0003907Y0203354D01*
X0003908Y0202156D02*
X0107200Y0202156D01*
X0107200Y0200200D02*
X0107200Y0197238D01*
X0107313Y0196523D01*
X0107537Y0195834D01*
X0107866Y0195189D01*
X0108291Y0194603D01*
X0108803Y0194091D01*
X0109389Y0193666D01*
X0110034Y0193337D01*
X0110723Y0193113D01*
X0111400Y0193006D01*
X0111400Y0200200D01*
X0107200Y0200200D01*
X0107200Y0199759D02*
X0003910Y0199759D01*
X0003909Y0200957D02*
X0111400Y0200957D01*
X0111400Y0201000D02*
X0111400Y0200200D01*
X0112200Y0200200D01*
X0112200Y0201000D01*
X0111400Y0201000D01*
X0112200Y0201000D02*
X0112200Y0208194D01*
X0112877Y0208087D01*
X0113566Y0207863D01*
X0114211Y0207534D01*
X0114797Y0207109D01*
X0115309Y0206597D01*
X0115734Y0206011D01*
X0116063Y0205366D01*
X0116287Y0204677D01*
X0116400Y0203962D01*
X0116400Y0201000D01*
X0112200Y0201000D01*
X0112200Y0200957D02*
X0117600Y0200957D01*
X0117600Y0199759D02*
X0116400Y0199759D01*
X0116400Y0200200D02*
X0112200Y0200200D01*
X0112200Y0193006D01*
X0112877Y0193113D01*
X0113566Y0193337D01*
X0114211Y0193666D01*
X0114797Y0194091D01*
X0115309Y0194603D01*
X0115734Y0195189D01*
X0116063Y0195834D01*
X0116287Y0196523D01*
X0116400Y0197238D01*
X0116400Y0200200D01*
X0116400Y0198560D02*
X0117600Y0198560D01*
X0117600Y0197362D02*
X0116400Y0197362D01*
X0116170Y0196163D02*
X0117849Y0196163D01*
X0117600Y0196765D02*
X0118239Y0195221D01*
X0119400Y0194060D01*
X0119400Y0187623D01*
X0119765Y0186741D01*
X0120441Y0186065D01*
X0139400Y0167106D01*
X0139400Y0147140D01*
X0138239Y0145979D01*
X0137600Y0144435D01*
X0137600Y0136765D01*
X0138239Y0135221D01*
X0139421Y0134039D01*
X0140965Y0133400D01*
X0142635Y0133400D01*
X0144179Y0134039D01*
X0145361Y0135221D01*
X0146000Y0136765D01*
X0146000Y0144435D01*
X0145361Y0145979D01*
X0144200Y0147140D01*
X0144200Y0168577D01*
X0143835Y0169459D01*
X0124200Y0189094D01*
X0124200Y0194060D01*
X0125361Y0195221D01*
X0126000Y0196765D01*
X0126000Y0204435D01*
X0125361Y0205979D01*
X0124179Y0207161D01*
X0122635Y0207800D01*
X0120965Y0207800D01*
X0119421Y0207161D01*
X0118239Y0205979D01*
X0117600Y0204435D01*
X0117600Y0196765D01*
X0118496Y0194965D02*
X0115571Y0194965D01*
X0114349Y0193766D02*
X0119400Y0193766D01*
X0119400Y0192568D02*
X0099425Y0192568D01*
X0098457Y0191600D02*
X0100800Y0193943D01*
X0100800Y0195400D01*
X0097000Y0195400D01*
X0097000Y0195800D01*
X0100800Y0195800D01*
X0100800Y0197257D01*
X0098457Y0199600D01*
X0097000Y0199600D01*
X0097000Y0195800D01*
X0096600Y0195800D01*
X0096600Y0199600D01*
X0095143Y0199600D01*
X0092800Y0197257D01*
X0092800Y0195800D01*
X0096600Y0195800D01*
X0096600Y0195400D01*
X0097000Y0195400D01*
X0097000Y0191600D01*
X0098457Y0191600D01*
X0097000Y0192568D02*
X0096600Y0192568D01*
X0096600Y0191600D02*
X0096600Y0195400D01*
X0092800Y0195400D01*
X0092800Y0193943D01*
X0095143Y0191600D01*
X0096600Y0191600D01*
X0096600Y0193766D02*
X0097000Y0193766D01*
X0097000Y0194965D02*
X0096600Y0194965D01*
X0096600Y0196163D02*
X0097000Y0196163D01*
X0097000Y0197362D02*
X0096600Y0197362D01*
X0096600Y0198560D02*
X0097000Y0198560D01*
X0099497Y0198560D02*
X0107200Y0198560D01*
X0107200Y0197362D02*
X0100695Y0197362D01*
X0100800Y0196163D02*
X0107430Y0196163D01*
X0108029Y0194965D02*
X0100800Y0194965D01*
X0100623Y0193766D02*
X0109251Y0193766D01*
X0111400Y0193766D02*
X0112200Y0193766D01*
X0112200Y0194965D02*
X0111400Y0194965D01*
X0111400Y0196163D02*
X0112200Y0196163D01*
X0112200Y0197362D02*
X0111400Y0197362D01*
X0111400Y0198560D02*
X0112200Y0198560D01*
X0112200Y0199759D02*
X0111400Y0199759D01*
X0111400Y0202156D02*
X0112200Y0202156D01*
X0112200Y0203354D02*
X0111400Y0203354D01*
X0111400Y0204553D02*
X0112200Y0204553D01*
X0112200Y0205751D02*
X0111400Y0205751D01*
X0111400Y0206950D02*
X0112200Y0206950D01*
X0114955Y0206950D02*
X0119210Y0206950D01*
X0118145Y0205751D02*
X0115867Y0205751D01*
X0116306Y0204553D02*
X0117649Y0204553D01*
X0117600Y0203354D02*
X0116400Y0203354D01*
X0116400Y0202156D02*
X0117600Y0202156D01*
X0125455Y0205751D02*
X0128145Y0205751D01*
X0128239Y0205979D02*
X0127600Y0204435D01*
X0127600Y0196765D01*
X0128239Y0195221D01*
X0129421Y0194039D01*
X0130965Y0193400D01*
X0132635Y0193400D01*
X0134179Y0194039D01*
X0135361Y0195221D01*
X0136000Y0196765D01*
X0136000Y0204435D01*
X0135361Y0205979D01*
X0134179Y0207161D01*
X0132635Y0207800D01*
X0130965Y0207800D01*
X0129421Y0207161D01*
X0128239Y0205979D01*
X0129210Y0206950D02*
X0124390Y0206950D01*
X0125951Y0204553D02*
X0127649Y0204553D01*
X0127600Y0203354D02*
X0126000Y0203354D01*
X0126000Y0202156D02*
X0127600Y0202156D01*
X0127600Y0200957D02*
X0126000Y0200957D01*
X0126000Y0199759D02*
X0127600Y0199759D01*
X0127600Y0198560D02*
X0126000Y0198560D01*
X0126000Y0197362D02*
X0127600Y0197362D01*
X0127849Y0196163D02*
X0125751Y0196163D01*
X0125104Y0194965D02*
X0128496Y0194965D01*
X0130080Y0193766D02*
X0124200Y0193766D01*
X0124200Y0192568D02*
X0287121Y0192568D01*
X0287121Y0193766D02*
X0264349Y0193766D01*
X0264211Y0193666D02*
X0264797Y0194091D01*
X0265309Y0194603D01*
X0265734Y0195189D01*
X0266063Y0195834D01*
X0266287Y0196523D01*
X0266400Y0197238D01*
X0266400Y0200200D01*
X0262200Y0200200D01*
X0262200Y0201000D01*
X0261400Y0201000D01*
X0261400Y0200200D01*
X0257200Y0200200D01*
X0257200Y0197238D01*
X0257313Y0196523D01*
X0257537Y0195834D01*
X0257866Y0195189D01*
X0258291Y0194603D01*
X0258803Y0194091D01*
X0259389Y0193666D01*
X0260034Y0193337D01*
X0260723Y0193113D01*
X0261400Y0193006D01*
X0261400Y0200200D01*
X0262200Y0200200D01*
X0262200Y0193006D01*
X0262877Y0193113D01*
X0263566Y0193337D01*
X0264211Y0193666D01*
X0265571Y0194965D02*
X0287121Y0194965D01*
X0287121Y0196163D02*
X0266170Y0196163D01*
X0266400Y0197362D02*
X0287121Y0197362D01*
X0287121Y0198560D02*
X0266400Y0198560D01*
X0266400Y0199759D02*
X0287121Y0199759D01*
X0287121Y0200957D02*
X0262200Y0200957D01*
X0262200Y0201000D02*
X0266400Y0201000D01*
X0266400Y0203962D01*
X0266287Y0204677D01*
X0266063Y0205366D01*
X0265734Y0206011D01*
X0265309Y0206597D01*
X0264797Y0207109D01*
X0264211Y0207534D01*
X0263566Y0207863D01*
X0262877Y0208087D01*
X0262200Y0208194D01*
X0262200Y0201000D01*
X0261400Y0200957D02*
X0256000Y0200957D01*
X0256000Y0199759D02*
X0257200Y0199759D01*
X0257200Y0198560D02*
X0256000Y0198560D01*
X0256000Y0197362D02*
X0257200Y0197362D01*
X0257430Y0196163D02*
X0255751Y0196163D01*
X0256000Y0196765D02*
X0255361Y0195221D01*
X0254179Y0194039D01*
X0252635Y0193400D01*
X0250965Y0193400D01*
X0249421Y0194039D01*
X0248239Y0195221D01*
X0247600Y0196765D01*
X0247600Y0204435D01*
X0248239Y0205979D01*
X0249421Y0207161D01*
X0250965Y0207800D01*
X0252635Y0207800D01*
X0254179Y0207161D01*
X0255361Y0205979D01*
X0256000Y0204435D01*
X0256000Y0196765D01*
X0255104Y0194965D02*
X0258029Y0194965D01*
X0259251Y0193766D02*
X0253520Y0193766D01*
X0250080Y0193766D02*
X0244349Y0193766D01*
X0244211Y0193666D02*
X0244797Y0194091D01*
X0245309Y0194603D01*
X0245734Y0195189D01*
X0246063Y0195834D01*
X0246287Y0196523D01*
X0246400Y0197238D01*
X0246400Y0200200D01*
X0242200Y0200200D01*
X0242200Y0201000D01*
X0241400Y0201000D01*
X0241400Y0200200D01*
X0237200Y0200200D01*
X0237200Y0197238D01*
X0237313Y0196523D01*
X0237537Y0195834D01*
X0237866Y0195189D01*
X0238291Y0194603D01*
X0238803Y0194091D01*
X0239389Y0193666D01*
X0240034Y0193337D01*
X0240723Y0193113D01*
X0241400Y0193006D01*
X0241400Y0200200D01*
X0242200Y0200200D01*
X0242200Y0193006D01*
X0242877Y0193113D01*
X0243566Y0193337D01*
X0244211Y0193666D01*
X0245571Y0194965D02*
X0248496Y0194965D01*
X0247849Y0196163D02*
X0246170Y0196163D01*
X0246400Y0197362D02*
X0247600Y0197362D01*
X0247600Y0198560D02*
X0246400Y0198560D01*
X0246400Y0199759D02*
X0247600Y0199759D01*
X0247600Y0200957D02*
X0242200Y0200957D01*
X0242200Y0201000D02*
X0246400Y0201000D01*
X0246400Y0203962D01*
X0246287Y0204677D01*
X0246063Y0205366D01*
X0245734Y0206011D01*
X0245309Y0206597D01*
X0244797Y0207109D01*
X0244211Y0207534D01*
X0243566Y0207863D01*
X0242877Y0208087D01*
X0242200Y0208194D01*
X0242200Y0201000D01*
X0241400Y0200957D02*
X0236000Y0200957D01*
X0236000Y0199759D02*
X0237200Y0199759D01*
X0237200Y0198560D02*
X0236000Y0198560D01*
X0236000Y0197362D02*
X0237200Y0197362D01*
X0237430Y0196163D02*
X0235751Y0196163D01*
X0236000Y0196765D02*
X0235361Y0195221D01*
X0234179Y0194039D01*
X0232635Y0193400D01*
X0230965Y0193400D01*
X0229421Y0194039D01*
X0228239Y0195221D01*
X0227600Y0196765D01*
X0227600Y0204435D01*
X0228239Y0205979D01*
X0229421Y0207161D01*
X0230965Y0207800D01*
X0232635Y0207800D01*
X0234179Y0207161D01*
X0235361Y0205979D01*
X0236000Y0204435D01*
X0236000Y0196765D01*
X0235104Y0194965D02*
X0238029Y0194965D01*
X0239251Y0193766D02*
X0233520Y0193766D01*
X0230080Y0193766D02*
X0223520Y0193766D01*
X0224179Y0194039D02*
X0225361Y0195221D01*
X0226000Y0196765D01*
X0226000Y0204435D01*
X0225361Y0205979D01*
X0224179Y0207161D01*
X0222635Y0207800D01*
X0220965Y0207800D01*
X0219421Y0207161D01*
X0218239Y0205979D01*
X0217600Y0204435D01*
X0217600Y0196765D01*
X0218239Y0195221D01*
X0219421Y0194039D01*
X0220965Y0193400D01*
X0222635Y0193400D01*
X0224179Y0194039D01*
X0225104Y0194965D02*
X0228496Y0194965D01*
X0227849Y0196163D02*
X0225751Y0196163D01*
X0226000Y0197362D02*
X0227600Y0197362D01*
X0227600Y0198560D02*
X0226000Y0198560D01*
X0226000Y0199759D02*
X0227600Y0199759D01*
X0227600Y0200957D02*
X0226000Y0200957D01*
X0226000Y0202156D02*
X0227600Y0202156D01*
X0227600Y0203354D02*
X0226000Y0203354D01*
X0225951Y0204553D02*
X0227649Y0204553D01*
X0228145Y0205751D02*
X0225455Y0205751D01*
X0224390Y0206950D02*
X0229210Y0206950D01*
X0234390Y0206950D02*
X0238645Y0206950D01*
X0237733Y0205751D02*
X0235455Y0205751D01*
X0235951Y0204553D02*
X0237294Y0204553D01*
X0237200Y0203354D02*
X0236000Y0203354D01*
X0236000Y0202156D02*
X0237200Y0202156D01*
X0241400Y0202156D02*
X0242200Y0202156D01*
X0242200Y0203354D02*
X0241400Y0203354D01*
X0241400Y0204553D02*
X0242200Y0204553D01*
X0242200Y0205751D02*
X0241400Y0205751D01*
X0241400Y0206950D02*
X0242200Y0206950D01*
X0244955Y0206950D02*
X0249210Y0206950D01*
X0248145Y0205751D02*
X0245867Y0205751D01*
X0246306Y0204553D02*
X0247649Y0204553D01*
X0247600Y0203354D02*
X0246400Y0203354D01*
X0246400Y0202156D02*
X0247600Y0202156D01*
X0242200Y0199759D02*
X0241400Y0199759D01*
X0241400Y0198560D02*
X0242200Y0198560D01*
X0242200Y0197362D02*
X0241400Y0197362D01*
X0241400Y0196163D02*
X0242200Y0196163D01*
X0242200Y0194965D02*
X0241400Y0194965D01*
X0241400Y0193766D02*
X0242200Y0193766D01*
X0242200Y0185694D02*
X0242200Y0178500D01*
X0246400Y0178500D01*
X0246400Y0181462D01*
X0246287Y0182177D01*
X0246063Y0182866D01*
X0245734Y0183511D01*
X0245309Y0184097D01*
X0244797Y0184609D01*
X0244211Y0185034D01*
X0243566Y0185363D01*
X0242877Y0185587D01*
X0242200Y0185694D01*
X0242200Y0185377D02*
X0241400Y0185377D01*
X0241400Y0185694D02*
X0240723Y0185587D01*
X0240034Y0185363D01*
X0239389Y0185034D01*
X0238803Y0184609D01*
X0238291Y0184097D01*
X0237866Y0183511D01*
X0237537Y0182866D01*
X0237313Y0182177D01*
X0237200Y0181462D01*
X0237200Y0178500D01*
X0241400Y0178500D01*
X0241400Y0185694D01*
X0240076Y0185377D02*
X0127917Y0185377D01*
X0126719Y0186575D02*
X0287121Y0186575D01*
X0287121Y0185377D02*
X0243524Y0185377D01*
X0242200Y0184178D02*
X0241400Y0184178D01*
X0241400Y0182980D02*
X0242200Y0182980D01*
X0242200Y0181781D02*
X0241400Y0181781D01*
X0241400Y0180583D02*
X0242200Y0180583D01*
X0242200Y0179384D02*
X0241400Y0179384D01*
X0241400Y0178500D02*
X0242200Y0178500D01*
X0242200Y0177700D01*
X0246400Y0177700D01*
X0246400Y0174738D01*
X0246287Y0174023D01*
X0246063Y0173334D01*
X0245734Y0172689D01*
X0245309Y0172103D01*
X0244797Y0171591D01*
X0244211Y0171166D01*
X0243566Y0170837D01*
X0242877Y0170613D01*
X0242200Y0170506D01*
X0242200Y0177700D01*
X0241400Y0177700D01*
X0241400Y0170506D01*
X0240723Y0170613D01*
X0240034Y0170837D01*
X0239389Y0171166D01*
X0238803Y0171591D01*
X0238291Y0172103D01*
X0237866Y0172689D01*
X0237537Y0173334D01*
X0237313Y0174023D01*
X0237200Y0174738D01*
X0237200Y0177700D01*
X0241400Y0177700D01*
X0241400Y0178500D01*
X0241400Y0178186D02*
X0236000Y0178186D01*
X0236000Y0179384D02*
X0237200Y0179384D01*
X0237200Y0180583D02*
X0236000Y0180583D01*
X0236000Y0181781D02*
X0237251Y0181781D01*
X0237595Y0182980D02*
X0235567Y0182980D01*
X0235361Y0183479D02*
X0234179Y0184661D01*
X0232635Y0185300D01*
X0230965Y0185300D01*
X0229421Y0184661D01*
X0228239Y0183479D01*
X0227600Y0181935D01*
X0227600Y0174265D01*
X0228239Y0172721D01*
X0229421Y0171539D01*
X0230965Y0170900D01*
X0232635Y0170900D01*
X0234179Y0171539D01*
X0235361Y0172721D01*
X0236000Y0174265D01*
X0236000Y0181935D01*
X0235361Y0183479D01*
X0234661Y0184178D02*
X0238373Y0184178D01*
X0242200Y0178186D02*
X0257200Y0178186D01*
X0257200Y0177500D02*
X0261400Y0177500D01*
X0261400Y0184694D01*
X0260723Y0184587D01*
X0260034Y0184363D01*
X0259389Y0184034D01*
X0258803Y0183609D01*
X0258291Y0183097D01*
X0257866Y0182511D01*
X0257537Y0181866D01*
X0257313Y0181177D01*
X0257200Y0180462D01*
X0257200Y0177500D01*
X0257200Y0176700D02*
X0257200Y0173738D01*
X0257313Y0173023D01*
X0257537Y0172334D01*
X0257866Y0171689D01*
X0258291Y0171103D01*
X0258803Y0170591D01*
X0259389Y0170166D01*
X0260034Y0169837D01*
X0260723Y0169613D01*
X0261400Y0169506D01*
X0261400Y0176700D01*
X0257200Y0176700D01*
X0257200Y0175789D02*
X0246400Y0175789D01*
X0246400Y0176987D02*
X0261400Y0176987D01*
X0261400Y0176700D02*
X0261400Y0177500D01*
X0262200Y0177500D01*
X0262200Y0184694D01*
X0262877Y0184587D01*
X0263566Y0184363D01*
X0264211Y0184034D01*
X0264797Y0183609D01*
X0265309Y0183097D01*
X0265734Y0182511D01*
X0266063Y0181866D01*
X0266287Y0181177D01*
X0266400Y0180462D01*
X0266400Y0177500D01*
X0262200Y0177500D01*
X0262200Y0176700D01*
X0266400Y0176700D01*
X0266400Y0173738D01*
X0266287Y0173023D01*
X0266063Y0172334D01*
X0265734Y0171689D01*
X0265309Y0171103D01*
X0264797Y0170591D01*
X0264211Y0170166D01*
X0263566Y0169837D01*
X0262877Y0169613D01*
X0262200Y0169506D01*
X0262200Y0176700D01*
X0261400Y0176700D01*
X0262200Y0176987D02*
X0267600Y0176987D01*
X0267600Y0175789D02*
X0266400Y0175789D01*
X0266400Y0174590D02*
X0267600Y0174590D01*
X0267600Y0173392D02*
X0266345Y0173392D01*
X0265991Y0172193D02*
X0268044Y0172193D01*
X0268239Y0171721D02*
X0269421Y0170539D01*
X0270965Y0169900D01*
X0272635Y0169900D01*
X0274179Y0170539D01*
X0275361Y0171721D01*
X0276000Y0173265D01*
X0276000Y0180935D01*
X0275361Y0182479D01*
X0274179Y0183661D01*
X0272635Y0184300D01*
X0270965Y0184300D01*
X0269421Y0183661D01*
X0268239Y0182479D01*
X0267600Y0180935D01*
X0267600Y0173265D01*
X0268239Y0171721D01*
X0268966Y0170995D02*
X0265200Y0170995D01*
X0263440Y0169796D02*
X0287121Y0169796D01*
X0287121Y0168598D02*
X0254459Y0168598D01*
X0253457Y0169600D02*
X0255800Y0167257D01*
X0255800Y0165800D01*
X0252000Y0165800D01*
X0252000Y0165400D01*
X0255800Y0165400D01*
X0255800Y0163943D01*
X0253457Y0161600D01*
X0252000Y0161600D01*
X0252000Y0165400D01*
X0251600Y0165400D01*
X0251600Y0161600D01*
X0250143Y0161600D01*
X0247800Y0163943D01*
X0247800Y0165400D01*
X0251600Y0165400D01*
X0251600Y0165800D01*
X0251600Y0169600D01*
X0250143Y0169600D01*
X0247800Y0167257D01*
X0247800Y0165800D01*
X0251600Y0165800D01*
X0252000Y0165800D01*
X0252000Y0169600D01*
X0253457Y0169600D01*
X0252000Y0168598D02*
X0251600Y0168598D01*
X0251600Y0167399D02*
X0252000Y0167399D01*
X0252000Y0166201D02*
X0251600Y0166201D01*
X0251600Y0165002D02*
X0252000Y0165002D01*
X0252000Y0163803D02*
X0251600Y0163803D01*
X0251600Y0162605D02*
X0252000Y0162605D01*
X0254462Y0162605D02*
X0287121Y0162605D01*
X0287121Y0163803D02*
X0255660Y0163803D01*
X0255800Y0165002D02*
X0287121Y0165002D01*
X0287121Y0166201D02*
X0255800Y0166201D01*
X0255658Y0167399D02*
X0287121Y0167399D01*
X0287121Y0170995D02*
X0274634Y0170995D01*
X0275556Y0172193D02*
X0287121Y0172193D01*
X0287121Y0173392D02*
X0276000Y0173392D01*
X0276000Y0174590D02*
X0287121Y0174590D01*
X0287121Y0175789D02*
X0276000Y0175789D01*
X0276000Y0176987D02*
X0287121Y0176987D01*
X0287121Y0178186D02*
X0276000Y0178186D01*
X0276000Y0179384D02*
X0287121Y0179384D01*
X0287121Y0180583D02*
X0276000Y0180583D01*
X0275650Y0181781D02*
X0287121Y0181781D01*
X0287121Y0182980D02*
X0274860Y0182980D01*
X0272929Y0184178D02*
X0287121Y0184178D01*
X0287121Y0187774D02*
X0125520Y0187774D01*
X0124322Y0188972D02*
X0287121Y0188972D01*
X0287121Y0190171D02*
X0124200Y0190171D01*
X0124200Y0191369D02*
X0287121Y0191369D01*
X0287121Y0202156D02*
X0266400Y0202156D01*
X0266400Y0203354D02*
X0287121Y0203354D01*
X0287121Y0204553D02*
X0266306Y0204553D01*
X0265867Y0205751D02*
X0287121Y0205751D01*
X0287121Y0206950D02*
X0264955Y0206950D01*
X0262200Y0206950D02*
X0261400Y0206950D01*
X0261400Y0205751D02*
X0262200Y0205751D01*
X0262200Y0204553D02*
X0261400Y0204553D01*
X0261400Y0203354D02*
X0262200Y0203354D01*
X0262200Y0202156D02*
X0261400Y0202156D01*
X0261400Y0199759D02*
X0262200Y0199759D01*
X0262200Y0198560D02*
X0261400Y0198560D01*
X0261400Y0197362D02*
X0262200Y0197362D01*
X0262200Y0196163D02*
X0261400Y0196163D01*
X0261400Y0194965D02*
X0262200Y0194965D01*
X0262200Y0193766D02*
X0261400Y0193766D01*
X0257200Y0202156D02*
X0256000Y0202156D01*
X0256000Y0203354D02*
X0257200Y0203354D01*
X0257294Y0204553D02*
X0255951Y0204553D01*
X0255455Y0205751D02*
X0257733Y0205751D01*
X0258645Y0206950D02*
X0254390Y0206950D01*
X0259672Y0184178D02*
X0245227Y0184178D01*
X0246005Y0182980D02*
X0258206Y0182980D01*
X0257510Y0181781D02*
X0246349Y0181781D01*
X0246400Y0180583D02*
X0257219Y0180583D01*
X0257200Y0179384D02*
X0246400Y0179384D01*
X0246377Y0174590D02*
X0257200Y0174590D01*
X0257255Y0173392D02*
X0246082Y0173392D01*
X0245374Y0172193D02*
X0257609Y0172193D01*
X0258400Y0170995D02*
X0243875Y0170995D01*
X0242200Y0170995D02*
X0241400Y0170995D01*
X0241400Y0172193D02*
X0242200Y0172193D01*
X0242200Y0173392D02*
X0241400Y0173392D01*
X0241400Y0174590D02*
X0242200Y0174590D01*
X0242200Y0175789D02*
X0241400Y0175789D01*
X0241400Y0176987D02*
X0242200Y0176987D01*
X0237200Y0176987D02*
X0236000Y0176987D01*
X0236000Y0175789D02*
X0237200Y0175789D01*
X0237223Y0174590D02*
X0236000Y0174590D01*
X0235638Y0173392D02*
X0237518Y0173392D01*
X0238226Y0172193D02*
X0234833Y0172193D01*
X0232864Y0170995D02*
X0239725Y0170995D01*
X0235400Y0167091D02*
X0233291Y0169200D01*
X0230309Y0169200D01*
X0228200Y0167091D01*
X0228200Y0164109D01*
X0230309Y0162000D01*
X0233291Y0162000D01*
X0235400Y0164109D01*
X0235400Y0167091D01*
X0235092Y0167399D02*
X0247942Y0167399D01*
X0247800Y0166201D02*
X0235400Y0166201D01*
X0235400Y0165002D02*
X0247800Y0165002D01*
X0247940Y0163803D02*
X0235095Y0163803D01*
X0233896Y0162605D02*
X0249138Y0162605D01*
X0249141Y0168598D02*
X0233894Y0168598D01*
X0230736Y0170995D02*
X0217381Y0170995D01*
X0217381Y0171213D02*
X0216912Y0172345D01*
X0216045Y0173212D01*
X0214913Y0173681D01*
X0213687Y0173681D01*
X0212555Y0173212D01*
X0211688Y0172345D01*
X0211219Y0171213D01*
X0211219Y0169987D01*
X0211688Y0168855D01*
X0212555Y0167988D01*
X0213687Y0167519D01*
X0214913Y0167519D01*
X0216045Y0167988D01*
X0216912Y0168855D01*
X0217381Y0169987D01*
X0217381Y0171213D01*
X0216975Y0172193D02*
X0228767Y0172193D01*
X0227962Y0173392D02*
X0215612Y0173392D01*
X0212988Y0173392D02*
X0172948Y0173392D01*
X0173361Y0172979D02*
X0172179Y0174161D01*
X0170635Y0174800D01*
X0162965Y0174800D01*
X0161421Y0174161D01*
X0160239Y0172979D01*
X0159600Y0171435D01*
X0159600Y0169765D01*
X0160239Y0168221D01*
X0161421Y0167039D01*
X0162965Y0166400D01*
X0170635Y0166400D01*
X0172179Y0167039D01*
X0173361Y0168221D01*
X0174000Y0169765D01*
X0174000Y0171435D01*
X0173361Y0172979D01*
X0173686Y0172193D02*
X0211625Y0172193D01*
X0211219Y0170995D02*
X0174000Y0170995D01*
X0174000Y0169796D02*
X0211298Y0169796D01*
X0211945Y0168598D02*
X0173517Y0168598D01*
X0172539Y0167399D02*
X0228508Y0167399D01*
X0228200Y0166201D02*
X0144200Y0166201D01*
X0144200Y0167399D02*
X0161061Y0167399D01*
X0160083Y0168598D02*
X0144192Y0168598D01*
X0143498Y0169796D02*
X0159600Y0169796D01*
X0159600Y0170995D02*
X0154052Y0170995D01*
X0154412Y0171355D02*
X0154881Y0172487D01*
X0154881Y0173713D01*
X0154412Y0174845D01*
X0153545Y0175712D01*
X0152413Y0176181D01*
X0151187Y0176181D01*
X0150055Y0175712D01*
X0149188Y0174845D01*
X0148719Y0173713D01*
X0148719Y0172487D01*
X0149188Y0171355D01*
X0150055Y0170488D01*
X0151187Y0170019D01*
X0152413Y0170019D01*
X0153545Y0170488D01*
X0154412Y0171355D01*
X0154759Y0172193D02*
X0159914Y0172193D01*
X0160652Y0173392D02*
X0154881Y0173392D01*
X0154518Y0174590D02*
X0162458Y0174590D01*
X0171142Y0174590D02*
X0227600Y0174590D01*
X0227600Y0175789D02*
X0153360Y0175789D01*
X0150240Y0175789D02*
X0137505Y0175789D01*
X0136307Y0176987D02*
X0227600Y0176987D01*
X0227600Y0178186D02*
X0135108Y0178186D01*
X0133910Y0179384D02*
X0227600Y0179384D01*
X0227600Y0180583D02*
X0132711Y0180583D01*
X0131513Y0181781D02*
X0227600Y0181781D01*
X0228033Y0182980D02*
X0130314Y0182980D01*
X0129116Y0184178D02*
X0228938Y0184178D01*
X0220080Y0193766D02*
X0213520Y0193766D01*
X0214179Y0194039D02*
X0215361Y0195221D01*
X0216000Y0196765D01*
X0216000Y0204435D01*
X0215361Y0205979D01*
X0214179Y0207161D01*
X0212635Y0207800D01*
X0210965Y0207800D01*
X0209421Y0207161D01*
X0208239Y0205979D01*
X0207600Y0204435D01*
X0207600Y0196765D01*
X0208239Y0195221D01*
X0209421Y0194039D01*
X0210965Y0193400D01*
X0212635Y0193400D01*
X0214179Y0194039D01*
X0215104Y0194965D02*
X0218496Y0194965D01*
X0217849Y0196163D02*
X0215751Y0196163D01*
X0216000Y0197362D02*
X0217600Y0197362D01*
X0217600Y0198560D02*
X0216000Y0198560D01*
X0216000Y0199759D02*
X0217600Y0199759D01*
X0217600Y0200957D02*
X0216000Y0200957D01*
X0216000Y0202156D02*
X0217600Y0202156D01*
X0217600Y0203354D02*
X0216000Y0203354D01*
X0215951Y0204553D02*
X0217649Y0204553D01*
X0218145Y0205751D02*
X0215455Y0205751D01*
X0214390Y0206950D02*
X0219210Y0206950D01*
X0209210Y0206950D02*
X0204390Y0206950D01*
X0204179Y0207161D02*
X0205361Y0205979D01*
X0206000Y0204435D01*
X0206000Y0196765D01*
X0205361Y0195221D01*
X0204179Y0194039D01*
X0202635Y0193400D01*
X0200965Y0193400D01*
X0199421Y0194039D01*
X0198239Y0195221D01*
X0197600Y0196765D01*
X0197600Y0204435D01*
X0198239Y0205979D01*
X0199421Y0207161D01*
X0200965Y0207800D01*
X0202635Y0207800D01*
X0204179Y0207161D01*
X0205455Y0205751D02*
X0208145Y0205751D01*
X0207649Y0204553D02*
X0205951Y0204553D01*
X0206000Y0203354D02*
X0207600Y0203354D01*
X0207600Y0202156D02*
X0206000Y0202156D01*
X0206000Y0200957D02*
X0207600Y0200957D01*
X0207600Y0199759D02*
X0206000Y0199759D01*
X0206000Y0198560D02*
X0207600Y0198560D01*
X0207600Y0197362D02*
X0206000Y0197362D01*
X0205751Y0196163D02*
X0207849Y0196163D01*
X0208496Y0194965D02*
X0205104Y0194965D01*
X0203520Y0193766D02*
X0210080Y0193766D01*
X0200080Y0193766D02*
X0193520Y0193766D01*
X0194179Y0194039D02*
X0195361Y0195221D01*
X0196000Y0196765D01*
X0196000Y0204435D01*
X0195361Y0205979D01*
X0194179Y0207161D01*
X0192635Y0207800D01*
X0190965Y0207800D01*
X0189421Y0207161D01*
X0188239Y0205979D01*
X0187600Y0204435D01*
X0187600Y0196765D01*
X0188239Y0195221D01*
X0189421Y0194039D01*
X0190965Y0193400D01*
X0192635Y0193400D01*
X0194179Y0194039D01*
X0195104Y0194965D02*
X0198496Y0194965D01*
X0197849Y0196163D02*
X0195751Y0196163D01*
X0196000Y0197362D02*
X0197600Y0197362D01*
X0197600Y0198560D02*
X0196000Y0198560D01*
X0196000Y0199759D02*
X0197600Y0199759D01*
X0197600Y0200957D02*
X0196000Y0200957D01*
X0196000Y0202156D02*
X0197600Y0202156D01*
X0197600Y0203354D02*
X0196000Y0203354D01*
X0195951Y0204553D02*
X0197649Y0204553D01*
X0198145Y0205751D02*
X0195455Y0205751D01*
X0194390Y0206950D02*
X0199210Y0206950D01*
X0189210Y0206950D02*
X0184390Y0206950D01*
X0184179Y0207161D02*
X0182635Y0207800D01*
X0180965Y0207800D01*
X0179421Y0207161D01*
X0178239Y0205979D01*
X0177600Y0204435D01*
X0177600Y0196765D01*
X0178239Y0195221D01*
X0179421Y0194039D01*
X0180965Y0193400D01*
X0182635Y0193400D01*
X0184179Y0194039D01*
X0185361Y0195221D01*
X0186000Y0196765D01*
X0186000Y0204435D01*
X0185361Y0205979D01*
X0184179Y0207161D01*
X0185455Y0205751D02*
X0188145Y0205751D01*
X0187649Y0204553D02*
X0185951Y0204553D01*
X0186000Y0203354D02*
X0187600Y0203354D01*
X0187600Y0202156D02*
X0186000Y0202156D01*
X0186000Y0200957D02*
X0187600Y0200957D01*
X0187600Y0199759D02*
X0186000Y0199759D01*
X0186000Y0198560D02*
X0187600Y0198560D01*
X0187600Y0197362D02*
X0186000Y0197362D01*
X0185751Y0196163D02*
X0187849Y0196163D01*
X0188496Y0194965D02*
X0185104Y0194965D01*
X0183520Y0193766D02*
X0190080Y0193766D01*
X0180080Y0193766D02*
X0173520Y0193766D01*
X0174179Y0194039D02*
X0175361Y0195221D01*
X0176000Y0196765D01*
X0176000Y0204435D01*
X0175361Y0205979D01*
X0174179Y0207161D01*
X0172635Y0207800D01*
X0170965Y0207800D01*
X0169421Y0207161D01*
X0168239Y0205979D01*
X0167600Y0204435D01*
X0167600Y0196765D01*
X0168239Y0195221D01*
X0169421Y0194039D01*
X0170965Y0193400D01*
X0172635Y0193400D01*
X0174179Y0194039D01*
X0175104Y0194965D02*
X0178496Y0194965D01*
X0177849Y0196163D02*
X0175751Y0196163D01*
X0176000Y0197362D02*
X0177600Y0197362D01*
X0177600Y0198560D02*
X0176000Y0198560D01*
X0176000Y0199759D02*
X0177600Y0199759D01*
X0177600Y0200957D02*
X0176000Y0200957D01*
X0176000Y0202156D02*
X0177600Y0202156D01*
X0177600Y0203354D02*
X0176000Y0203354D01*
X0175951Y0204553D02*
X0177649Y0204553D01*
X0178145Y0205751D02*
X0175455Y0205751D01*
X0174390Y0206950D02*
X0179210Y0206950D01*
X0169210Y0206950D02*
X0164390Y0206950D01*
X0164179Y0207161D02*
X0162635Y0207800D01*
X0160965Y0207800D01*
X0159421Y0207161D01*
X0158239Y0205979D01*
X0157600Y0204435D01*
X0157600Y0196765D01*
X0158239Y0195221D01*
X0159421Y0194039D01*
X0160965Y0193400D01*
X0162635Y0193400D01*
X0164179Y0194039D01*
X0165361Y0195221D01*
X0166000Y0196765D01*
X0166000Y0204435D01*
X0165361Y0205979D01*
X0164179Y0207161D01*
X0165455Y0205751D02*
X0168145Y0205751D01*
X0167649Y0204553D02*
X0165951Y0204553D01*
X0166000Y0203354D02*
X0167600Y0203354D01*
X0167600Y0202156D02*
X0166000Y0202156D01*
X0166000Y0200957D02*
X0167600Y0200957D01*
X0167600Y0199759D02*
X0166000Y0199759D01*
X0166000Y0198560D02*
X0167600Y0198560D01*
X0167600Y0197362D02*
X0166000Y0197362D01*
X0165751Y0196163D02*
X0167849Y0196163D01*
X0168496Y0194965D02*
X0165104Y0194965D01*
X0163520Y0193766D02*
X0170080Y0193766D01*
X0160080Y0193766D02*
X0153520Y0193766D01*
X0154179Y0194039D02*
X0155361Y0195221D01*
X0156000Y0196765D01*
X0156000Y0204435D01*
X0155361Y0205979D01*
X0154179Y0207161D01*
X0152635Y0207800D01*
X0150965Y0207800D01*
X0149421Y0207161D01*
X0148239Y0205979D01*
X0147600Y0204435D01*
X0147600Y0196765D01*
X0148239Y0195221D01*
X0149421Y0194039D01*
X0150965Y0193400D01*
X0152635Y0193400D01*
X0154179Y0194039D01*
X0155104Y0194965D02*
X0158496Y0194965D01*
X0157849Y0196163D02*
X0155751Y0196163D01*
X0156000Y0197362D02*
X0157600Y0197362D01*
X0157600Y0198560D02*
X0156000Y0198560D01*
X0156000Y0199759D02*
X0157600Y0199759D01*
X0157600Y0200957D02*
X0156000Y0200957D01*
X0156000Y0202156D02*
X0157600Y0202156D01*
X0157600Y0203354D02*
X0156000Y0203354D01*
X0155951Y0204553D02*
X0157649Y0204553D01*
X0158145Y0205751D02*
X0155455Y0205751D01*
X0154390Y0206950D02*
X0159210Y0206950D01*
X0149210Y0206950D02*
X0144390Y0206950D01*
X0144179Y0207161D02*
X0142635Y0207800D01*
X0140965Y0207800D01*
X0139421Y0207161D01*
X0138239Y0205979D01*
X0137600Y0204435D01*
X0137600Y0196765D01*
X0138239Y0195221D01*
X0139421Y0194039D01*
X0140965Y0193400D01*
X0142635Y0193400D01*
X0144179Y0194039D01*
X0145361Y0195221D01*
X0146000Y0196765D01*
X0146000Y0204435D01*
X0145361Y0205979D01*
X0144179Y0207161D01*
X0145455Y0205751D02*
X0148145Y0205751D01*
X0147649Y0204553D02*
X0145951Y0204553D01*
X0146000Y0203354D02*
X0147600Y0203354D01*
X0147600Y0202156D02*
X0146000Y0202156D01*
X0146000Y0200957D02*
X0147600Y0200957D01*
X0147600Y0199759D02*
X0146000Y0199759D01*
X0146000Y0198560D02*
X0147600Y0198560D01*
X0147600Y0197362D02*
X0146000Y0197362D01*
X0145751Y0196163D02*
X0147849Y0196163D01*
X0148496Y0194965D02*
X0145104Y0194965D01*
X0143520Y0193766D02*
X0150080Y0193766D01*
X0140080Y0193766D02*
X0133520Y0193766D01*
X0135104Y0194965D02*
X0138496Y0194965D01*
X0137849Y0196163D02*
X0135751Y0196163D01*
X0136000Y0197362D02*
X0137600Y0197362D01*
X0137600Y0198560D02*
X0136000Y0198560D01*
X0136000Y0199759D02*
X0137600Y0199759D01*
X0137600Y0200957D02*
X0136000Y0200957D01*
X0136000Y0202156D02*
X0137600Y0202156D01*
X0137600Y0203354D02*
X0136000Y0203354D01*
X0135951Y0204553D02*
X0137649Y0204553D01*
X0138145Y0205751D02*
X0135455Y0205751D01*
X0134390Y0206950D02*
X0139210Y0206950D01*
X0119400Y0191369D02*
X0003916Y0191369D01*
X0003916Y0190171D02*
X0119400Y0190171D01*
X0119400Y0188972D02*
X0003917Y0188972D01*
X0003918Y0187774D02*
X0119400Y0187774D01*
X0119931Y0186575D02*
X0003919Y0186575D01*
X0003920Y0185377D02*
X0121129Y0185377D01*
X0122328Y0184178D02*
X0070813Y0184178D01*
X0070791Y0184200D02*
X0067809Y0184200D01*
X0065700Y0182091D01*
X0065700Y0179109D01*
X0067809Y0177000D01*
X0070791Y0177000D01*
X0072900Y0179109D01*
X0072900Y0182091D01*
X0070791Y0184200D01*
X0072011Y0182980D02*
X0123526Y0182980D01*
X0124725Y0181781D02*
X0072900Y0181781D01*
X0072900Y0180583D02*
X0125923Y0180583D01*
X0127122Y0179384D02*
X0072900Y0179384D01*
X0071977Y0178186D02*
X0128320Y0178186D01*
X0129519Y0176987D02*
X0003925Y0176987D01*
X0003926Y0175789D02*
X0087740Y0175789D01*
X0087555Y0175712D02*
X0088687Y0176181D01*
X0089913Y0176181D01*
X0091045Y0175712D01*
X0091912Y0174845D01*
X0092381Y0173713D01*
X0092381Y0172487D01*
X0091912Y0171355D01*
X0091045Y0170488D01*
X0089913Y0170019D01*
X0088687Y0170019D01*
X0087555Y0170488D01*
X0086688Y0171355D01*
X0086219Y0172487D01*
X0086219Y0173713D01*
X0086688Y0174845D01*
X0087555Y0175712D01*
X0086582Y0174590D02*
X0003927Y0174590D01*
X0003928Y0173392D02*
X0086219Y0173392D01*
X0086341Y0172193D02*
X0003929Y0172193D01*
X0003929Y0170995D02*
X0087048Y0170995D01*
X0091552Y0170995D02*
X0135511Y0170995D01*
X0134313Y0172193D02*
X0092259Y0172193D01*
X0092381Y0173392D02*
X0133114Y0173392D01*
X0131916Y0174590D02*
X0092018Y0174590D01*
X0090860Y0175789D02*
X0130717Y0175789D01*
X0138704Y0174590D02*
X0149082Y0174590D01*
X0148719Y0173392D02*
X0139903Y0173392D01*
X0141101Y0172193D02*
X0148841Y0172193D01*
X0149548Y0170995D02*
X0142300Y0170995D01*
X0137908Y0168598D02*
X0003931Y0168598D01*
X0003930Y0169796D02*
X0136710Y0169796D01*
X0139107Y0167399D02*
X0003932Y0167399D01*
X0003933Y0166201D02*
X0139400Y0166201D01*
X0139400Y0165002D02*
X0003933Y0165002D01*
X0003934Y0163803D02*
X0139400Y0163803D01*
X0139400Y0162605D02*
X0003935Y0162605D01*
X0003936Y0161406D02*
X0139400Y0161406D01*
X0139400Y0160208D02*
X0003937Y0160208D01*
X0003938Y0159009D02*
X0139400Y0159009D01*
X0139400Y0157811D02*
X0003938Y0157811D01*
X0003939Y0156612D02*
X0139400Y0156612D01*
X0139400Y0155414D02*
X0003940Y0155414D01*
X0003941Y0154215D02*
X0139400Y0154215D01*
X0139400Y0153017D02*
X0003942Y0153017D01*
X0003942Y0151818D02*
X0139400Y0151818D01*
X0139400Y0150620D02*
X0003943Y0150620D01*
X0003944Y0149421D02*
X0139400Y0149421D01*
X0139400Y0148223D02*
X0003945Y0148223D01*
X0003946Y0147024D02*
X0109285Y0147024D01*
X0109421Y0147161D02*
X0108239Y0145979D01*
X0107600Y0144435D01*
X0107600Y0136765D01*
X0108239Y0135221D01*
X0109421Y0134039D01*
X0110965Y0133400D01*
X0112635Y0133400D01*
X0114179Y0134039D01*
X0115361Y0135221D01*
X0116000Y0136765D01*
X0116000Y0144435D01*
X0115361Y0145979D01*
X0114179Y0147161D01*
X0112635Y0147800D01*
X0110965Y0147800D01*
X0109421Y0147161D01*
X0108176Y0145826D02*
X0003947Y0145826D01*
X0003947Y0144627D02*
X0107679Y0144627D01*
X0107600Y0143429D02*
X0071562Y0143429D01*
X0071991Y0143000D02*
X0070791Y0144200D01*
X0067809Y0144200D01*
X0065700Y0142091D01*
X0065700Y0139109D01*
X0067809Y0137000D01*
X0070791Y0137000D01*
X0071991Y0138200D01*
X0075806Y0138200D01*
X0101900Y0112106D01*
X0101900Y0103000D01*
X0093823Y0103000D01*
X0092941Y0102635D01*
X0092265Y0101959D01*
X0083987Y0093681D01*
X0083687Y0093681D01*
X0082555Y0093212D01*
X0081688Y0092345D01*
X0081219Y0091213D01*
X0081219Y0089987D01*
X0081688Y0088855D01*
X0082555Y0087988D01*
X0083687Y0087519D01*
X0084913Y0087519D01*
X0086045Y0087988D01*
X0086912Y0088855D01*
X0087381Y0089987D01*
X0087381Y0090287D01*
X0095294Y0098200D01*
X0112343Y0098200D01*
X0112555Y0097988D01*
X0113687Y0097519D01*
X0114913Y0097519D01*
X0116045Y0097988D01*
X0116912Y0098855D01*
X0117381Y0099987D01*
X0117381Y0101213D01*
X0116912Y0102345D01*
X0116045Y0103212D01*
X0114913Y0103681D01*
X0113687Y0103681D01*
X0112555Y0103212D01*
X0112343Y0103000D01*
X0106700Y0103000D01*
X0106700Y0113577D01*
X0106335Y0114459D01*
X0078835Y0141959D01*
X0078159Y0142635D01*
X0077277Y0143000D01*
X0071991Y0143000D01*
X0067038Y0143429D02*
X0061562Y0143429D01*
X0060791Y0144200D02*
X0062900Y0142091D01*
X0062900Y0139109D01*
X0060791Y0137000D01*
X0057809Y0137000D01*
X0055700Y0139109D01*
X0055700Y0142091D01*
X0057809Y0144200D01*
X0060791Y0144200D01*
X0062761Y0142230D02*
X0065839Y0142230D01*
X0065700Y0141032D02*
X0062900Y0141032D01*
X0062900Y0139833D02*
X0065700Y0139833D01*
X0066174Y0138635D02*
X0062426Y0138635D01*
X0061227Y0137436D02*
X0067373Y0137436D01*
X0071227Y0137436D02*
X0076570Y0137436D01*
X0077768Y0136238D02*
X0003953Y0136238D01*
X0003952Y0137436D02*
X0057373Y0137436D01*
X0056174Y0138635D02*
X0031692Y0138635D01*
X0031912Y0138855D02*
X0032381Y0139987D01*
X0032381Y0141213D01*
X0031912Y0142345D01*
X0031045Y0143212D01*
X0029913Y0143681D01*
X0028687Y0143681D01*
X0027555Y0143212D01*
X0026688Y0142345D01*
X0026219Y0141213D01*
X0026219Y0139987D01*
X0026688Y0138855D01*
X0027555Y0137988D01*
X0028687Y0137519D01*
X0029913Y0137519D01*
X0031045Y0137988D01*
X0031912Y0138855D01*
X0032317Y0139833D02*
X0055700Y0139833D01*
X0055700Y0141032D02*
X0032381Y0141032D01*
X0031960Y0142230D02*
X0055839Y0142230D01*
X0057038Y0143429D02*
X0030522Y0143429D01*
X0028078Y0143429D02*
X0003948Y0143429D01*
X0003949Y0142230D02*
X0026640Y0142230D01*
X0026219Y0141032D02*
X0003950Y0141032D01*
X0003951Y0139833D02*
X0026283Y0139833D01*
X0026908Y0138635D02*
X0003951Y0138635D01*
X0003954Y0135039D02*
X0078967Y0135039D01*
X0080165Y0133841D02*
X0003955Y0133841D01*
X0003955Y0132642D02*
X0081364Y0132642D01*
X0082562Y0131444D02*
X0003956Y0131444D01*
X0003957Y0130245D02*
X0083761Y0130245D01*
X0084959Y0129047D02*
X0003958Y0129047D01*
X0003959Y0127848D02*
X0086158Y0127848D01*
X0087356Y0126650D02*
X0003960Y0126650D01*
X0003960Y0125451D02*
X0088555Y0125451D01*
X0089753Y0124253D02*
X0003961Y0124253D01*
X0003962Y0123054D02*
X0090952Y0123054D01*
X0092150Y0121856D02*
X0003963Y0121856D01*
X0003964Y0120657D02*
X0093349Y0120657D01*
X0094547Y0119459D02*
X0003964Y0119459D01*
X0003965Y0118260D02*
X0095746Y0118260D01*
X0096944Y0117062D02*
X0094278Y0117062D01*
X0094179Y0117161D02*
X0092635Y0117800D01*
X0090965Y0117800D01*
X0089421Y0117161D01*
X0088239Y0115979D01*
X0087600Y0114435D01*
X0087600Y0106765D01*
X0088239Y0105221D01*
X0089421Y0104039D01*
X0090965Y0103400D01*
X0092635Y0103400D01*
X0094179Y0104039D01*
X0095361Y0105221D01*
X0096000Y0106765D01*
X0096000Y0114435D01*
X0095361Y0115979D01*
X0094179Y0117161D01*
X0095409Y0115863D02*
X0098143Y0115863D01*
X0099341Y0114665D02*
X0095905Y0114665D01*
X0096000Y0113466D02*
X0100540Y0113466D01*
X0101738Y0112268D02*
X0096000Y0112268D01*
X0096000Y0111069D02*
X0101900Y0111069D01*
X0101900Y0109870D02*
X0096000Y0109870D01*
X0096000Y0108672D02*
X0101900Y0108672D01*
X0101900Y0107473D02*
X0096000Y0107473D01*
X0095797Y0106275D02*
X0101900Y0106275D01*
X0101900Y0105076D02*
X0095216Y0105076D01*
X0093789Y0103878D02*
X0101900Y0103878D01*
X0106700Y0103878D02*
X0193431Y0103878D01*
X0193200Y0104109D02*
X0195309Y0102000D01*
X0198291Y0102000D01*
X0200400Y0104109D01*
X0200400Y0107091D01*
X0198691Y0108800D01*
X0231054Y0108800D01*
X0233200Y0106654D01*
X0233200Y0104109D01*
X0235309Y0102000D01*
X0238291Y0102000D01*
X0240400Y0104109D01*
X0240400Y0107091D01*
X0238291Y0109200D01*
X0235746Y0109200D01*
X0232546Y0112400D01*
X0137546Y0112400D01*
X0135043Y0114903D01*
X0135361Y0115221D01*
X0136000Y0116765D01*
X0136000Y0124435D01*
X0135361Y0125979D01*
X0134179Y0127161D01*
X0132635Y0127800D01*
X0130965Y0127800D01*
X0129421Y0127161D01*
X0128239Y0125979D01*
X0127600Y0124435D01*
X0127600Y0116765D01*
X0128239Y0115221D01*
X0129421Y0114039D01*
X0130965Y0113400D01*
X0131454Y0113400D01*
X0135000Y0109854D01*
X0136054Y0108800D01*
X0194909Y0108800D01*
X0193200Y0107091D01*
X0193200Y0104109D01*
X0193200Y0105076D02*
X0106700Y0105076D01*
X0106700Y0106275D02*
X0193200Y0106275D01*
X0193582Y0107473D02*
X0106700Y0107473D01*
X0106700Y0108672D02*
X0194781Y0108672D01*
X0198819Y0108672D02*
X0231182Y0108672D01*
X0232381Y0107473D02*
X0200018Y0107473D01*
X0200400Y0106275D02*
X0233200Y0106275D01*
X0233200Y0105076D02*
X0200400Y0105076D01*
X0200169Y0103878D02*
X0233431Y0103878D01*
X0234629Y0102679D02*
X0198971Y0102679D01*
X0194629Y0102679D02*
X0116578Y0102679D01*
X0117270Y0101481D02*
X0122635Y0101481D01*
X0123554Y0102400D02*
X0113554Y0092400D01*
X0101054Y0092400D01*
X0100000Y0091346D01*
X0081054Y0072400D01*
X0028600Y0072400D01*
X0028361Y0072979D01*
X0027179Y0074161D01*
X0025635Y0074800D01*
X0017965Y0074800D01*
X0016421Y0074161D01*
X0015239Y0072979D01*
X0014600Y0071435D01*
X0014600Y0069765D01*
X0015239Y0068221D01*
X0016421Y0067039D01*
X0017965Y0066400D01*
X0025635Y0066400D01*
X0027179Y0067039D01*
X0028361Y0068221D01*
X0028600Y0068800D01*
X0032454Y0068800D01*
X0027497Y0063843D01*
X0027179Y0064161D01*
X0025635Y0064800D01*
X0017965Y0064800D01*
X0016421Y0064161D01*
X0015239Y0062979D01*
X0014600Y0061435D01*
X0014600Y0059765D01*
X0015239Y0058221D01*
X0016421Y0057039D01*
X0017965Y0056400D01*
X0025635Y0056400D01*
X0027179Y0057039D01*
X0028361Y0058221D01*
X0029000Y0059765D01*
X0029000Y0060254D01*
X0035546Y0066800D01*
X0078054Y0066800D01*
X0092054Y0052800D01*
X0090965Y0052800D01*
X0089421Y0052161D01*
X0088239Y0050979D01*
X0087600Y0049435D01*
X0087600Y0041765D01*
X0088239Y0040221D01*
X0089421Y0039039D01*
X0090965Y0038400D01*
X0092635Y0038400D01*
X0094179Y0039039D01*
X0095361Y0040221D01*
X0096000Y0041765D01*
X0096000Y0048854D01*
X0100000Y0044854D01*
X0101054Y0043800D01*
X0192546Y0043800D01*
X0193600Y0044854D01*
X0202146Y0053400D01*
X0202635Y0053400D01*
X0204179Y0054039D01*
X0205361Y0055221D01*
X0206000Y0056765D01*
X0206000Y0064435D01*
X0205361Y0065979D01*
X0204179Y0067161D01*
X0202635Y0067800D01*
X0200965Y0067800D01*
X0199421Y0067161D01*
X0198239Y0065979D01*
X0197600Y0064435D01*
X0197600Y0056765D01*
X0198239Y0055221D01*
X0198557Y0054903D01*
X0191054Y0047400D01*
X0102546Y0047400D01*
X0081146Y0068800D01*
X0082546Y0068800D01*
X0083600Y0069854D01*
X0083600Y0069854D01*
X0102546Y0088800D01*
X0115046Y0088800D01*
X0125046Y0098800D01*
X0176054Y0098800D01*
X0188557Y0086297D01*
X0188239Y0085979D01*
X0187600Y0084435D01*
X0187600Y0076765D01*
X0188239Y0075221D01*
X0189421Y0074039D01*
X0190965Y0073400D01*
X0192635Y0073400D01*
X0194179Y0074039D01*
X0195361Y0075221D01*
X0196000Y0076765D01*
X0196000Y0084435D01*
X0195361Y0085979D01*
X0194179Y0087161D01*
X0192635Y0087800D01*
X0192146Y0087800D01*
X0178600Y0101346D01*
X0177546Y0102400D01*
X0123554Y0102400D01*
X0124300Y0100600D02*
X0114300Y0090600D01*
X0101800Y0090600D01*
X0081800Y0070600D01*
X0021800Y0070600D01*
X0021400Y0076000D02*
X0018438Y0076000D01*
X0017723Y0076113D01*
X0017034Y0076337D01*
X0016389Y0076666D01*
X0015803Y0077091D01*
X0015291Y0077603D01*
X0014866Y0078189D01*
X0014537Y0078834D01*
X0014313Y0079523D01*
X0014206Y0080200D01*
X0021400Y0080200D01*
X0022200Y0080200D01*
X0022200Y0081000D01*
X0021400Y0081000D01*
X0021400Y0085200D01*
X0018438Y0085200D01*
X0017723Y0085087D01*
X0017034Y0084863D01*
X0016389Y0084534D01*
X0015803Y0084109D01*
X0015291Y0083597D01*
X0014866Y0083011D01*
X0014537Y0082366D01*
X0014313Y0081677D01*
X0014206Y0081000D01*
X0021400Y0081000D01*
X0021400Y0080200D01*
X0021400Y0076000D01*
X0021400Y0076312D02*
X0022200Y0076312D01*
X0022200Y0076000D02*
X0025162Y0076000D01*
X0025877Y0076113D01*
X0026566Y0076337D01*
X0027211Y0076666D01*
X0027797Y0077091D01*
X0028309Y0077603D01*
X0028734Y0078189D01*
X0029063Y0078834D01*
X0029287Y0079523D01*
X0029394Y0080200D01*
X0022200Y0080200D01*
X0022200Y0076000D01*
X0022200Y0077511D02*
X0021400Y0077511D01*
X0021400Y0078709D02*
X0022200Y0078709D01*
X0022200Y0079908D02*
X0021400Y0079908D01*
X0021400Y0081106D02*
X0022200Y0081106D01*
X0022200Y0081000D02*
X0022200Y0085200D01*
X0025162Y0085200D01*
X0025877Y0085087D01*
X0026566Y0084863D01*
X0027211Y0084534D01*
X0027797Y0084109D01*
X0028309Y0083597D01*
X0028734Y0083011D01*
X0029063Y0082366D01*
X0029287Y0081677D01*
X0029394Y0081000D01*
X0022200Y0081000D01*
X0022200Y0082305D02*
X0021400Y0082305D01*
X0021400Y0083503D02*
X0022200Y0083503D01*
X0022200Y0084702D02*
X0021400Y0084702D01*
X0017965Y0086400D02*
X0016421Y0087039D01*
X0015239Y0088221D01*
X0014600Y0089765D01*
X0014600Y0091435D01*
X0015239Y0092979D01*
X0016421Y0094161D01*
X0017965Y0094800D01*
X0025635Y0094800D01*
X0027179Y0094161D01*
X0028361Y0092979D01*
X0029000Y0091435D01*
X0029000Y0089765D01*
X0028361Y0088221D01*
X0027179Y0087039D01*
X0025635Y0086400D01*
X0017965Y0086400D01*
X0016362Y0087099D02*
X0003986Y0087099D01*
X0003986Y0088297D02*
X0015208Y0088297D01*
X0014711Y0089496D02*
X0003985Y0089496D01*
X0003984Y0090694D02*
X0014600Y0090694D01*
X0014789Y0091893D02*
X0003983Y0091893D01*
X0003982Y0093091D02*
X0015352Y0093091D01*
X0016733Y0094290D02*
X0003982Y0094290D01*
X0003981Y0095488D02*
X0085794Y0095488D01*
X0084596Y0094290D02*
X0026867Y0094290D01*
X0028248Y0093091D02*
X0082434Y0093091D01*
X0081501Y0091893D02*
X0028811Y0091893D01*
X0029000Y0090694D02*
X0035037Y0090694D01*
X0035055Y0090712D02*
X0034188Y0089845D01*
X0033719Y0088713D01*
X0033719Y0087487D01*
X0034188Y0086355D01*
X0035055Y0085488D01*
X0036187Y0085019D01*
X0037413Y0085019D01*
X0038545Y0085488D01*
X0039412Y0086355D01*
X0039881Y0087487D01*
X0039881Y0088713D01*
X0039412Y0089845D01*
X0038545Y0090712D01*
X0037413Y0091181D01*
X0036187Y0091181D01*
X0035055Y0090712D01*
X0034043Y0089496D02*
X0028889Y0089496D01*
X0028392Y0088297D02*
X0033719Y0088297D01*
X0033880Y0087099D02*
X0027238Y0087099D01*
X0026882Y0084702D02*
X0093356Y0084702D01*
X0094555Y0085900D02*
X0038958Y0085900D01*
X0039720Y0087099D02*
X0095753Y0087099D01*
X0096952Y0088297D02*
X0086355Y0088297D01*
X0087178Y0089496D02*
X0098150Y0089496D01*
X0099349Y0090694D02*
X0087788Y0090694D01*
X0088987Y0091893D02*
X0100547Y0091893D01*
X0102043Y0088297D02*
X0186557Y0088297D01*
X0187756Y0087099D02*
X0184241Y0087099D01*
X0184179Y0087161D02*
X0182635Y0087800D01*
X0180965Y0087800D01*
X0179421Y0087161D01*
X0178239Y0085979D01*
X0177600Y0084435D01*
X0177600Y0076765D01*
X0178239Y0075221D01*
X0179421Y0074039D01*
X0180965Y0073400D01*
X0182635Y0073400D01*
X0184179Y0074039D01*
X0185361Y0075221D01*
X0186000Y0076765D01*
X0186000Y0084435D01*
X0185361Y0085979D01*
X0184179Y0087161D01*
X0185393Y0085900D02*
X0188207Y0085900D01*
X0187710Y0084702D02*
X0185890Y0084702D01*
X0186000Y0083503D02*
X0187600Y0083503D01*
X0187600Y0082305D02*
X0186000Y0082305D01*
X0186000Y0081106D02*
X0187600Y0081106D01*
X0187600Y0079908D02*
X0186000Y0079908D01*
X0186000Y0078709D02*
X0187600Y0078709D01*
X0187600Y0077511D02*
X0186000Y0077511D01*
X0185813Y0076312D02*
X0187787Y0076312D01*
X0188347Y0075114D02*
X0185253Y0075114D01*
X0183879Y0073915D02*
X0189721Y0073915D01*
X0193879Y0073915D02*
X0199721Y0073915D01*
X0199421Y0074039D02*
X0200965Y0073400D01*
X0202635Y0073400D01*
X0204179Y0074039D01*
X0205361Y0075221D01*
X0206000Y0076765D01*
X0206000Y0084435D01*
X0205361Y0085979D01*
X0204179Y0087161D01*
X0202635Y0087800D01*
X0200965Y0087800D01*
X0199421Y0087161D01*
X0198239Y0085979D01*
X0197600Y0084435D01*
X0197600Y0076765D01*
X0198239Y0075221D01*
X0199421Y0074039D01*
X0198347Y0075114D02*
X0195253Y0075114D01*
X0195813Y0076312D02*
X0197787Y0076312D01*
X0197600Y0077511D02*
X0196000Y0077511D01*
X0196000Y0078709D02*
X0197600Y0078709D01*
X0197600Y0079908D02*
X0196000Y0079908D01*
X0196000Y0081106D02*
X0197600Y0081106D01*
X0197600Y0082305D02*
X0196000Y0082305D01*
X0196000Y0083503D02*
X0197600Y0083503D01*
X0197710Y0084702D02*
X0195890Y0084702D01*
X0195393Y0085900D02*
X0198207Y0085900D01*
X0199359Y0087099D02*
X0194241Y0087099D01*
X0191648Y0088297D02*
X0220000Y0088297D01*
X0220000Y0087400D02*
X0219421Y0087161D01*
X0218239Y0085979D01*
X0217600Y0084435D01*
X0217600Y0076765D01*
X0218239Y0075221D01*
X0219421Y0074039D01*
X0220965Y0073400D01*
X0222635Y0073400D01*
X0224179Y0074039D01*
X0225361Y0075221D01*
X0226000Y0076765D01*
X0226000Y0084435D01*
X0225361Y0085979D01*
X0224179Y0087161D01*
X0223600Y0087400D01*
X0223600Y0089854D01*
X0225046Y0091300D01*
X0240046Y0091300D01*
X0241100Y0092354D01*
X0247600Y0098854D01*
X0247600Y0091765D01*
X0248239Y0090221D01*
X0249421Y0089039D01*
X0250965Y0088400D01*
X0252635Y0088400D01*
X0254179Y0089039D01*
X0255361Y0090221D01*
X0256000Y0091765D01*
X0256000Y0099435D01*
X0255361Y0100979D01*
X0254179Y0102161D01*
X0252635Y0102800D01*
X0251546Y0102800D01*
X0252546Y0103800D01*
X0270046Y0103800D01*
X0271100Y0104854D01*
X0278600Y0112354D01*
X0278600Y0151346D01*
X0277546Y0152400D01*
X0275400Y0154546D01*
X0275400Y0157091D01*
X0273291Y0159200D01*
X0270309Y0159200D01*
X0268200Y0157091D01*
X0268200Y0154109D01*
X0270309Y0152000D01*
X0272854Y0152000D01*
X0275000Y0149854D01*
X0275000Y0113846D01*
X0268554Y0107400D01*
X0251054Y0107400D01*
X0238554Y0094900D01*
X0223554Y0094900D01*
X0221054Y0092400D01*
X0220000Y0091346D01*
X0220000Y0087400D01*
X0219359Y0087099D02*
X0214241Y0087099D01*
X0214179Y0087161D02*
X0212635Y0087800D01*
X0210965Y0087800D01*
X0209421Y0087161D01*
X0208239Y0085979D01*
X0207600Y0084435D01*
X0207600Y0076765D01*
X0208239Y0075221D01*
X0209421Y0074039D01*
X0210965Y0073400D01*
X0212635Y0073400D01*
X0214179Y0074039D01*
X0215361Y0075221D01*
X0216000Y0076765D01*
X0216000Y0084435D01*
X0215361Y0085979D01*
X0214179Y0087161D01*
X0215393Y0085900D02*
X0218207Y0085900D01*
X0217710Y0084702D02*
X0215890Y0084702D01*
X0216000Y0083503D02*
X0217600Y0083503D01*
X0217600Y0082305D02*
X0216000Y0082305D01*
X0216000Y0081106D02*
X0217600Y0081106D01*
X0217600Y0079908D02*
X0216000Y0079908D01*
X0216000Y0078709D02*
X0217600Y0078709D01*
X0217600Y0077511D02*
X0216000Y0077511D01*
X0215813Y0076312D02*
X0217787Y0076312D01*
X0218347Y0075114D02*
X0215253Y0075114D01*
X0213879Y0073915D02*
X0219721Y0073915D01*
X0223879Y0073915D02*
X0229721Y0073915D01*
X0229421Y0074039D02*
X0230965Y0073400D01*
X0232635Y0073400D01*
X0234179Y0074039D01*
X0235361Y0075221D01*
X0236000Y0076765D01*
X0236000Y0084435D01*
X0235361Y0085979D01*
X0234179Y0087161D01*
X0232635Y0087800D01*
X0230965Y0087800D01*
X0229421Y0087161D01*
X0228239Y0085979D01*
X0227600Y0084435D01*
X0227600Y0076765D01*
X0228239Y0075221D01*
X0229421Y0074039D01*
X0228347Y0075114D02*
X0225253Y0075114D01*
X0225813Y0076312D02*
X0227787Y0076312D01*
X0227600Y0077511D02*
X0226000Y0077511D01*
X0226000Y0078709D02*
X0227600Y0078709D01*
X0227600Y0079908D02*
X0226000Y0079908D01*
X0226000Y0081106D02*
X0227600Y0081106D01*
X0227600Y0082305D02*
X0226000Y0082305D01*
X0226000Y0083503D02*
X0227600Y0083503D01*
X0227710Y0084702D02*
X0225890Y0084702D01*
X0225393Y0085900D02*
X0228207Y0085900D01*
X0229359Y0087099D02*
X0224241Y0087099D01*
X0223600Y0088297D02*
X0260156Y0088297D01*
X0260034Y0088337D02*
X0260723Y0088113D01*
X0261400Y0088006D01*
X0261400Y0095200D01*
X0262200Y0095200D01*
X0262200Y0096000D01*
X0266400Y0096000D01*
X0266400Y0098962D01*
X0266287Y0099677D01*
X0266063Y0100366D01*
X0265734Y0101011D01*
X0265309Y0101597D01*
X0264797Y0102109D01*
X0264211Y0102534D01*
X0263566Y0102863D01*
X0262877Y0103087D01*
X0262200Y0103194D01*
X0262200Y0096000D01*
X0261400Y0096000D01*
X0261400Y0103194D01*
X0260723Y0103087D01*
X0260034Y0102863D01*
X0259389Y0102534D01*
X0258803Y0102109D01*
X0258291Y0101597D01*
X0257866Y0101011D01*
X0257537Y0100366D01*
X0257313Y0099677D01*
X0257200Y0098962D01*
X0257200Y0096000D01*
X0261400Y0096000D01*
X0261400Y0095200D01*
X0257200Y0095200D01*
X0257200Y0092238D01*
X0257313Y0091523D01*
X0257537Y0090834D01*
X0257866Y0090189D01*
X0258291Y0089603D01*
X0258803Y0089091D01*
X0259389Y0088666D01*
X0260034Y0088337D01*
X0260965Y0087800D02*
X0259421Y0087161D01*
X0258239Y0085979D01*
X0257600Y0084435D01*
X0257600Y0076765D01*
X0258239Y0075221D01*
X0259421Y0074039D01*
X0260965Y0073400D01*
X0262635Y0073400D01*
X0264179Y0074039D01*
X0265361Y0075221D01*
X0266000Y0076765D01*
X0266000Y0084435D01*
X0265361Y0085979D01*
X0264179Y0087161D01*
X0262635Y0087800D01*
X0260965Y0087800D01*
X0261400Y0088297D02*
X0262200Y0088297D01*
X0262200Y0088006D02*
X0262877Y0088113D01*
X0263566Y0088337D01*
X0264211Y0088666D01*
X0264797Y0089091D01*
X0265309Y0089603D01*
X0265734Y0090189D01*
X0266063Y0090834D01*
X0266287Y0091523D01*
X0266400Y0092238D01*
X0266400Y0095200D01*
X0262200Y0095200D01*
X0262200Y0088006D01*
X0263444Y0088297D02*
X0287121Y0088297D01*
X0287121Y0087099D02*
X0264241Y0087099D01*
X0265393Y0085900D02*
X0287121Y0085900D01*
X0287121Y0084702D02*
X0265890Y0084702D01*
X0266000Y0083503D02*
X0287121Y0083503D01*
X0287121Y0082305D02*
X0266000Y0082305D01*
X0266000Y0081106D02*
X0287121Y0081106D01*
X0287121Y0079908D02*
X0266000Y0079908D01*
X0266000Y0078709D02*
X0287121Y0078709D01*
X0287121Y0077511D02*
X0266000Y0077511D01*
X0265813Y0076312D02*
X0287121Y0076312D01*
X0287121Y0075114D02*
X0265253Y0075114D01*
X0263879Y0073915D02*
X0287121Y0073915D01*
X0287121Y0072717D02*
X0086462Y0072717D01*
X0087661Y0073915D02*
X0109721Y0073915D01*
X0109421Y0074039D02*
X0110965Y0073400D01*
X0112635Y0073400D01*
X0114179Y0074039D01*
X0115361Y0075221D01*
X0116000Y0076765D01*
X0116000Y0084435D01*
X0115361Y0085979D01*
X0114179Y0087161D01*
X0112635Y0087800D01*
X0110965Y0087800D01*
X0109421Y0087161D01*
X0108239Y0085979D01*
X0107600Y0084435D01*
X0107600Y0076765D01*
X0108239Y0075221D01*
X0109421Y0074039D01*
X0108347Y0075114D02*
X0088859Y0075114D01*
X0090058Y0076312D02*
X0107787Y0076312D01*
X0107600Y0077511D02*
X0091256Y0077511D01*
X0092455Y0078709D02*
X0107600Y0078709D01*
X0107600Y0079908D02*
X0093653Y0079908D01*
X0094852Y0081106D02*
X0107600Y0081106D01*
X0107600Y0082305D02*
X0096050Y0082305D01*
X0097249Y0083503D02*
X0107600Y0083503D01*
X0107710Y0084702D02*
X0098447Y0084702D01*
X0099646Y0085900D02*
X0108207Y0085900D01*
X0109359Y0087099D02*
X0100844Y0087099D01*
X0092158Y0083503D02*
X0062842Y0083503D01*
X0062413Y0083681D02*
X0061187Y0083681D01*
X0060055Y0083212D01*
X0059188Y0082345D01*
X0058719Y0081213D01*
X0058719Y0079987D01*
X0059188Y0078855D01*
X0060055Y0077988D01*
X0061187Y0077519D01*
X0062413Y0077519D01*
X0063545Y0077988D01*
X0064412Y0078855D01*
X0064881Y0079987D01*
X0064881Y0081213D01*
X0064412Y0082345D01*
X0063545Y0083212D01*
X0062413Y0083681D01*
X0060758Y0083503D02*
X0028377Y0083503D01*
X0029083Y0082305D02*
X0059171Y0082305D01*
X0058719Y0081106D02*
X0029377Y0081106D01*
X0029348Y0079908D02*
X0058752Y0079908D01*
X0059333Y0078709D02*
X0028999Y0078709D01*
X0028216Y0077511D02*
X0086165Y0077511D01*
X0087364Y0078709D02*
X0064267Y0078709D01*
X0064848Y0079908D02*
X0088562Y0079908D01*
X0089761Y0081106D02*
X0064881Y0081106D01*
X0064429Y0082305D02*
X0090959Y0082305D01*
X0084967Y0076312D02*
X0026489Y0076312D01*
X0027425Y0073915D02*
X0082570Y0073915D01*
X0083768Y0075114D02*
X0003995Y0075114D01*
X0003994Y0076312D02*
X0017111Y0076312D01*
X0015384Y0077511D02*
X0003993Y0077511D01*
X0003992Y0078709D02*
X0014601Y0078709D01*
X0014252Y0079908D02*
X0003991Y0079908D01*
X0003990Y0081106D02*
X0014223Y0081106D01*
X0014517Y0082305D02*
X0003990Y0082305D01*
X0003989Y0083503D02*
X0015223Y0083503D01*
X0016718Y0084702D02*
X0003988Y0084702D01*
X0003987Y0085900D02*
X0034642Y0085900D01*
X0039881Y0088297D02*
X0082245Y0088297D01*
X0081422Y0089496D02*
X0039557Y0089496D01*
X0038563Y0090694D02*
X0081219Y0090694D01*
X0086993Y0096687D02*
X0003980Y0096687D01*
X0003979Y0097885D02*
X0088191Y0097885D01*
X0089390Y0099084D02*
X0003978Y0099084D01*
X0003977Y0100282D02*
X0090588Y0100282D01*
X0091787Y0101481D02*
X0003977Y0101481D01*
X0003976Y0102679D02*
X0093049Y0102679D01*
X0089811Y0103878D02*
X0083789Y0103878D01*
X0084179Y0104039D02*
X0085361Y0105221D01*
X0086000Y0106765D01*
X0086000Y0114435D01*
X0085361Y0115979D01*
X0084179Y0117161D01*
X0082635Y0117800D01*
X0080965Y0117800D01*
X0079421Y0117161D01*
X0078239Y0115979D01*
X0077600Y0114435D01*
X0077600Y0106765D01*
X0078239Y0105221D01*
X0079421Y0104039D01*
X0080965Y0103400D01*
X0082635Y0103400D01*
X0084179Y0104039D01*
X0085216Y0105076D02*
X0088384Y0105076D01*
X0087803Y0106275D02*
X0085797Y0106275D01*
X0086000Y0107473D02*
X0087600Y0107473D01*
X0087600Y0108672D02*
X0086000Y0108672D01*
X0086000Y0109870D02*
X0087600Y0109870D01*
X0087600Y0111069D02*
X0086000Y0111069D01*
X0086000Y0112268D02*
X0087600Y0112268D01*
X0087600Y0113466D02*
X0086000Y0113466D01*
X0085905Y0114665D02*
X0087695Y0114665D01*
X0088191Y0115863D02*
X0085409Y0115863D01*
X0084278Y0117062D02*
X0089322Y0117062D01*
X0079322Y0117062D02*
X0074278Y0117062D01*
X0074179Y0117161D02*
X0072635Y0117800D01*
X0070965Y0117800D01*
X0069421Y0117161D01*
X0068239Y0115979D01*
X0067600Y0114435D01*
X0067600Y0106765D01*
X0068239Y0105221D01*
X0069421Y0104039D01*
X0070965Y0103400D01*
X0072635Y0103400D01*
X0074179Y0104039D01*
X0075361Y0105221D01*
X0076000Y0106765D01*
X0076000Y0114435D01*
X0075361Y0115979D01*
X0074179Y0117161D01*
X0075409Y0115863D02*
X0078191Y0115863D01*
X0077695Y0114665D02*
X0075905Y0114665D01*
X0076000Y0113466D02*
X0077600Y0113466D01*
X0077600Y0112268D02*
X0076000Y0112268D01*
X0076000Y0111069D02*
X0077600Y0111069D01*
X0077600Y0109870D02*
X0076000Y0109870D01*
X0076000Y0108672D02*
X0077600Y0108672D01*
X0077600Y0107473D02*
X0076000Y0107473D01*
X0075797Y0106275D02*
X0077803Y0106275D01*
X0078384Y0105076D02*
X0075216Y0105076D01*
X0073789Y0103878D02*
X0079811Y0103878D01*
X0069811Y0103878D02*
X0063789Y0103878D01*
X0064179Y0104039D02*
X0065361Y0105221D01*
X0066000Y0106765D01*
X0066000Y0114435D01*
X0065361Y0115979D01*
X0064179Y0117161D01*
X0062635Y0117800D01*
X0060965Y0117800D01*
X0059421Y0117161D01*
X0058239Y0115979D01*
X0057600Y0114435D01*
X0057600Y0106765D01*
X0058239Y0105221D01*
X0059421Y0104039D01*
X0060965Y0103400D01*
X0062635Y0103400D01*
X0064179Y0104039D01*
X0065216Y0105076D02*
X0068384Y0105076D01*
X0067803Y0106275D02*
X0065797Y0106275D01*
X0066000Y0107473D02*
X0067600Y0107473D01*
X0067600Y0108672D02*
X0066000Y0108672D01*
X0066000Y0109870D02*
X0067600Y0109870D01*
X0067600Y0111069D02*
X0066000Y0111069D01*
X0066000Y0112268D02*
X0067600Y0112268D01*
X0067600Y0113466D02*
X0066000Y0113466D01*
X0065905Y0114665D02*
X0067695Y0114665D01*
X0068191Y0115863D02*
X0065409Y0115863D01*
X0064278Y0117062D02*
X0069322Y0117062D01*
X0059322Y0117062D02*
X0054278Y0117062D01*
X0054179Y0117161D02*
X0052635Y0117800D01*
X0050965Y0117800D01*
X0049421Y0117161D01*
X0048239Y0115979D01*
X0047600Y0114435D01*
X0047600Y0106765D01*
X0048239Y0105221D01*
X0049421Y0104039D01*
X0050965Y0103400D01*
X0052635Y0103400D01*
X0054179Y0104039D01*
X0055361Y0105221D01*
X0056000Y0106765D01*
X0056000Y0114435D01*
X0055361Y0115979D01*
X0054179Y0117161D01*
X0055409Y0115863D02*
X0058191Y0115863D01*
X0057695Y0114665D02*
X0055905Y0114665D01*
X0056000Y0113466D02*
X0057600Y0113466D01*
X0057600Y0112268D02*
X0056000Y0112268D01*
X0056000Y0111069D02*
X0057600Y0111069D01*
X0057600Y0109870D02*
X0056000Y0109870D01*
X0056000Y0108672D02*
X0057600Y0108672D01*
X0057600Y0107473D02*
X0056000Y0107473D01*
X0055797Y0106275D02*
X0057803Y0106275D01*
X0058384Y0105076D02*
X0055216Y0105076D01*
X0053789Y0103878D02*
X0059811Y0103878D01*
X0049811Y0103878D02*
X0043789Y0103878D01*
X0044179Y0104039D02*
X0045361Y0105221D01*
X0046000Y0106765D01*
X0046000Y0114435D01*
X0045361Y0115979D01*
X0044179Y0117161D01*
X0042635Y0117800D01*
X0040965Y0117800D01*
X0039421Y0117161D01*
X0038239Y0115979D01*
X0037600Y0114435D01*
X0037600Y0106765D01*
X0038239Y0105221D01*
X0039421Y0104039D01*
X0040965Y0103400D01*
X0042635Y0103400D01*
X0044179Y0104039D01*
X0045216Y0105076D02*
X0048384Y0105076D01*
X0047803Y0106275D02*
X0045797Y0106275D01*
X0046000Y0107473D02*
X0047600Y0107473D01*
X0047600Y0108672D02*
X0046000Y0108672D01*
X0046000Y0109870D02*
X0047600Y0109870D01*
X0047600Y0111069D02*
X0046000Y0111069D01*
X0046000Y0112268D02*
X0047600Y0112268D01*
X0047600Y0113466D02*
X0046000Y0113466D01*
X0045905Y0114665D02*
X0047695Y0114665D01*
X0048191Y0115863D02*
X0045409Y0115863D01*
X0044278Y0117062D02*
X0049322Y0117062D01*
X0039322Y0117062D02*
X0034278Y0117062D01*
X0034179Y0117161D02*
X0032635Y0117800D01*
X0030965Y0117800D01*
X0029421Y0117161D01*
X0028239Y0115979D01*
X0027600Y0114435D01*
X0027600Y0106765D01*
X0028239Y0105221D01*
X0029421Y0104039D01*
X0030965Y0103400D01*
X0032635Y0103400D01*
X0034179Y0104039D01*
X0035361Y0105221D01*
X0036000Y0106765D01*
X0036000Y0114435D01*
X0035361Y0115979D01*
X0034179Y0117161D01*
X0035409Y0115863D02*
X0038191Y0115863D01*
X0037695Y0114665D02*
X0035905Y0114665D01*
X0036000Y0113466D02*
X0037600Y0113466D01*
X0037600Y0112268D02*
X0036000Y0112268D01*
X0036000Y0111069D02*
X0037600Y0111069D01*
X0037600Y0109870D02*
X0036000Y0109870D01*
X0036000Y0108672D02*
X0037600Y0108672D01*
X0037600Y0107473D02*
X0036000Y0107473D01*
X0035797Y0106275D02*
X0037803Y0106275D01*
X0038384Y0105076D02*
X0035216Y0105076D01*
X0033789Y0103878D02*
X0039811Y0103878D01*
X0029811Y0103878D02*
X0024503Y0103878D01*
X0024211Y0103666D02*
X0024797Y0104091D01*
X0025309Y0104603D01*
X0025734Y0105189D01*
X0026063Y0105834D01*
X0026287Y0106523D01*
X0026400Y0107238D01*
X0026400Y0110200D01*
X0022200Y0110200D01*
X0022200Y0111000D01*
X0021400Y0111000D01*
X0021400Y0118194D01*
X0020723Y0118087D01*
X0020034Y0117863D01*
X0019389Y0117534D01*
X0018803Y0117109D01*
X0018291Y0116597D01*
X0017866Y0116011D01*
X0017537Y0115366D01*
X0017313Y0114677D01*
X0017200Y0113962D01*
X0017200Y0111000D01*
X0021400Y0111000D01*
X0021400Y0110200D01*
X0017200Y0110200D01*
X0017200Y0107238D01*
X0017313Y0106523D01*
X0017537Y0105834D01*
X0017866Y0105189D01*
X0018291Y0104603D01*
X0018803Y0104091D01*
X0019389Y0103666D01*
X0020034Y0103337D01*
X0020723Y0103113D01*
X0021400Y0103006D01*
X0021400Y0110200D01*
X0022200Y0110200D01*
X0022200Y0103006D01*
X0022877Y0103113D01*
X0023566Y0103337D01*
X0024211Y0103666D01*
X0025652Y0105076D02*
X0028384Y0105076D01*
X0027803Y0106275D02*
X0026206Y0106275D01*
X0026400Y0107473D02*
X0027600Y0107473D01*
X0027600Y0108672D02*
X0026400Y0108672D01*
X0026400Y0109870D02*
X0027600Y0109870D01*
X0027600Y0111069D02*
X0026400Y0111069D01*
X0026400Y0111000D02*
X0026400Y0113962D01*
X0026287Y0114677D01*
X0026063Y0115366D01*
X0025734Y0116011D01*
X0025309Y0116597D01*
X0024797Y0117109D01*
X0024211Y0117534D01*
X0023566Y0117863D01*
X0022877Y0118087D01*
X0022200Y0118194D01*
X0022200Y0111000D01*
X0026400Y0111000D01*
X0026400Y0112268D02*
X0027600Y0112268D01*
X0027600Y0113466D02*
X0026400Y0113466D01*
X0026289Y0114665D02*
X0027695Y0114665D01*
X0028191Y0115863D02*
X0025810Y0115863D01*
X0024844Y0117062D02*
X0029322Y0117062D01*
X0022200Y0117062D02*
X0021400Y0117062D01*
X0021400Y0115863D02*
X0022200Y0115863D01*
X0022200Y0114665D02*
X0021400Y0114665D01*
X0021400Y0113466D02*
X0022200Y0113466D01*
X0022200Y0112268D02*
X0021400Y0112268D01*
X0021400Y0111069D02*
X0022200Y0111069D01*
X0022200Y0109870D02*
X0021400Y0109870D01*
X0021400Y0108672D02*
X0022200Y0108672D01*
X0022200Y0107473D02*
X0021400Y0107473D01*
X0021400Y0106275D02*
X0022200Y0106275D01*
X0022200Y0105076D02*
X0021400Y0105076D01*
X0021400Y0103878D02*
X0022200Y0103878D01*
X0019097Y0103878D02*
X0003975Y0103878D01*
X0003974Y0105076D02*
X0017948Y0105076D01*
X0017394Y0106275D02*
X0003973Y0106275D01*
X0003973Y0107473D02*
X0017200Y0107473D01*
X0017200Y0108672D02*
X0003972Y0108672D01*
X0003971Y0109870D02*
X0017200Y0109870D01*
X0017200Y0111069D02*
X0003970Y0111069D01*
X0003969Y0112268D02*
X0017200Y0112268D01*
X0017200Y0113466D02*
X0003968Y0113466D01*
X0003968Y0114665D02*
X0017311Y0114665D01*
X0017790Y0115863D02*
X0003967Y0115863D01*
X0003966Y0117062D02*
X0018756Y0117062D01*
X0016175Y0073915D02*
X0003995Y0073915D01*
X0003996Y0072717D02*
X0015131Y0072717D01*
X0014634Y0071518D02*
X0003997Y0071518D01*
X0003998Y0070320D02*
X0014600Y0070320D01*
X0014867Y0069121D02*
X0003999Y0069121D01*
X0003999Y0067923D02*
X0015538Y0067923D01*
X0017182Y0066724D02*
X0004000Y0066724D01*
X0004001Y0065526D02*
X0029180Y0065526D01*
X0030379Y0066724D02*
X0026418Y0066724D01*
X0028062Y0067923D02*
X0031577Y0067923D01*
X0034800Y0068600D02*
X0078800Y0068600D01*
X0101800Y0045600D01*
X0191800Y0045600D01*
X0201800Y0055600D01*
X0201800Y0060600D01*
X0206000Y0060732D02*
X0207600Y0060732D01*
X0207600Y0061930D02*
X0206000Y0061930D01*
X0206000Y0063129D02*
X0207600Y0063129D01*
X0207600Y0064327D02*
X0206000Y0064327D01*
X0205548Y0065526D02*
X0208052Y0065526D01*
X0208239Y0065979D02*
X0207600Y0064435D01*
X0207600Y0056765D01*
X0208239Y0055221D01*
X0209421Y0054039D01*
X0210965Y0053400D01*
X0212635Y0053400D01*
X0214179Y0054039D01*
X0215361Y0055221D01*
X0216000Y0056765D01*
X0216000Y0064435D01*
X0215361Y0065979D01*
X0214179Y0067161D01*
X0212635Y0067800D01*
X0210965Y0067800D01*
X0209421Y0067161D01*
X0208239Y0065979D01*
X0208984Y0066724D02*
X0204616Y0066724D01*
X0198984Y0066724D02*
X0194616Y0066724D01*
X0194179Y0067161D02*
X0192635Y0067800D01*
X0190965Y0067800D01*
X0189421Y0067161D01*
X0188239Y0065979D01*
X0187600Y0064435D01*
X0187600Y0056765D01*
X0188239Y0055221D01*
X0189421Y0054039D01*
X0190965Y0053400D01*
X0192635Y0053400D01*
X0194179Y0054039D01*
X0195361Y0055221D01*
X0196000Y0056765D01*
X0196000Y0064435D01*
X0195361Y0065979D01*
X0194179Y0067161D01*
X0195548Y0065526D02*
X0198052Y0065526D01*
X0197600Y0064327D02*
X0196000Y0064327D01*
X0196000Y0063129D02*
X0197600Y0063129D01*
X0197600Y0061930D02*
X0196000Y0061930D01*
X0196000Y0060732D02*
X0197600Y0060732D01*
X0197600Y0059533D02*
X0196000Y0059533D01*
X0196000Y0058334D02*
X0197600Y0058334D01*
X0197600Y0057136D02*
X0196000Y0057136D01*
X0195657Y0055937D02*
X0197943Y0055937D01*
X0198393Y0054739D02*
X0194879Y0054739D01*
X0192975Y0053540D02*
X0197195Y0053540D01*
X0195996Y0052342D02*
X0097604Y0052342D01*
X0098802Y0051143D02*
X0194798Y0051143D01*
X0193599Y0049945D02*
X0100001Y0049945D01*
X0101199Y0048746D02*
X0192401Y0048746D01*
X0191202Y0047548D02*
X0102398Y0047548D01*
X0099704Y0045151D02*
X0096000Y0045151D01*
X0096000Y0046349D02*
X0098505Y0046349D01*
X0097307Y0047548D02*
X0096000Y0047548D01*
X0096000Y0048746D02*
X0096108Y0048746D01*
X0096000Y0043952D02*
X0100902Y0043952D01*
X0096000Y0042754D02*
X0211408Y0042754D01*
X0210210Y0041555D02*
X0095913Y0041555D01*
X0095417Y0040357D02*
X0152199Y0040357D01*
X0152555Y0040712D02*
X0151688Y0039845D01*
X0151219Y0038713D01*
X0151219Y0037487D01*
X0151688Y0036355D01*
X0152555Y0035488D01*
X0153687Y0035019D01*
X0154913Y0035019D01*
X0156045Y0035488D01*
X0156912Y0036355D01*
X0157381Y0037487D01*
X0157381Y0038713D01*
X0156912Y0039845D01*
X0156045Y0040712D01*
X0154913Y0041181D01*
X0153687Y0041181D01*
X0152555Y0040712D01*
X0151403Y0039158D02*
X0094298Y0039158D01*
X0089302Y0039158D02*
X0084298Y0039158D01*
X0084179Y0039039D02*
X0085361Y0040221D01*
X0086000Y0041765D01*
X0086000Y0049435D01*
X0085361Y0050979D01*
X0084179Y0052161D01*
X0082635Y0052800D01*
X0080965Y0052800D01*
X0079421Y0052161D01*
X0078239Y0050979D01*
X0077600Y0049435D01*
X0077600Y0041765D01*
X0078239Y0040221D01*
X0079421Y0039039D01*
X0080965Y0038400D01*
X0082635Y0038400D01*
X0084179Y0039039D01*
X0085417Y0040357D02*
X0088183Y0040357D01*
X0087687Y0041555D02*
X0085913Y0041555D01*
X0086000Y0042754D02*
X0087600Y0042754D01*
X0087600Y0043952D02*
X0086000Y0043952D01*
X0086000Y0045151D02*
X0087600Y0045151D01*
X0087600Y0046349D02*
X0086000Y0046349D01*
X0086000Y0047548D02*
X0087600Y0047548D01*
X0087600Y0048746D02*
X0086000Y0048746D01*
X0085789Y0049945D02*
X0087811Y0049945D01*
X0088404Y0051143D02*
X0085196Y0051143D01*
X0083741Y0052342D02*
X0089859Y0052342D01*
X0091314Y0053540D02*
X0004009Y0053540D01*
X0004010Y0052342D02*
X0019859Y0052342D01*
X0019421Y0052161D02*
X0018239Y0050979D01*
X0017600Y0049435D01*
X0017600Y0041765D01*
X0018239Y0040221D01*
X0019421Y0039039D01*
X0020965Y0038400D01*
X0022635Y0038400D01*
X0024179Y0039039D01*
X0025361Y0040221D01*
X0026000Y0041765D01*
X0026000Y0049435D01*
X0025361Y0050979D01*
X0024179Y0052161D01*
X0022635Y0052800D01*
X0020965Y0052800D01*
X0019421Y0052161D01*
X0018404Y0051143D02*
X0004011Y0051143D01*
X0004012Y0049945D02*
X0017811Y0049945D01*
X0017600Y0048746D02*
X0004012Y0048746D01*
X0004013Y0047548D02*
X0017600Y0047548D01*
X0017600Y0046349D02*
X0004014Y0046349D01*
X0004015Y0045151D02*
X0017600Y0045151D01*
X0017600Y0043952D02*
X0004016Y0043952D01*
X0004017Y0042754D02*
X0017600Y0042754D01*
X0017687Y0041555D02*
X0004017Y0041555D01*
X0004018Y0040357D02*
X0018183Y0040357D01*
X0019302Y0039158D02*
X0004019Y0039158D01*
X0004020Y0037960D02*
X0050000Y0037960D01*
X0050000Y0038800D02*
X0049421Y0039039D01*
X0048239Y0040221D01*
X0047600Y0041765D01*
X0047600Y0049435D01*
X0048239Y0050979D01*
X0049421Y0052161D01*
X0050965Y0052800D01*
X0052635Y0052800D01*
X0054179Y0052161D01*
X0055361Y0050979D01*
X0056000Y0049435D01*
X0056000Y0041765D01*
X0055361Y0040221D01*
X0054179Y0039039D01*
X0053600Y0038800D01*
X0053600Y0036346D01*
X0067546Y0022400D01*
X0191054Y0022400D01*
X0222054Y0053400D01*
X0220965Y0053400D01*
X0219421Y0054039D01*
X0218239Y0055221D01*
X0217600Y0056765D01*
X0217600Y0064435D01*
X0218239Y0065979D01*
X0219421Y0067161D01*
X0220965Y0067800D01*
X0222635Y0067800D01*
X0224179Y0067161D01*
X0225361Y0065979D01*
X0226000Y0064435D01*
X0226000Y0057346D01*
X0227600Y0058946D01*
X0227600Y0064435D01*
X0228239Y0065979D01*
X0229421Y0067161D01*
X0230965Y0067800D01*
X0232635Y0067800D01*
X0234179Y0067161D01*
X0235361Y0065979D01*
X0236000Y0064435D01*
X0236000Y0056765D01*
X0235361Y0055221D01*
X0234179Y0054039D01*
X0232635Y0053400D01*
X0230965Y0053400D01*
X0229421Y0054039D01*
X0228603Y0054857D01*
X0193600Y0019854D01*
X0192546Y0018800D01*
X0066054Y0018800D01*
X0051054Y0033800D01*
X0050000Y0034854D01*
X0050000Y0038800D01*
X0049302Y0039158D02*
X0044298Y0039158D01*
X0044179Y0039039D02*
X0045361Y0040221D01*
X0046000Y0041765D01*
X0046000Y0049435D01*
X0045361Y0050979D01*
X0044179Y0052161D01*
X0042635Y0052800D01*
X0040965Y0052800D01*
X0039421Y0052161D01*
X0038239Y0050979D01*
X0037600Y0049435D01*
X0037600Y0041765D01*
X0038239Y0040221D01*
X0039421Y0039039D01*
X0040965Y0038400D01*
X0042635Y0038400D01*
X0044179Y0039039D01*
X0045417Y0040357D02*
X0048183Y0040357D01*
X0047687Y0041555D02*
X0045913Y0041555D01*
X0046000Y0042754D02*
X0047600Y0042754D01*
X0047600Y0043952D02*
X0046000Y0043952D01*
X0046000Y0045151D02*
X0047600Y0045151D01*
X0047600Y0046349D02*
X0046000Y0046349D01*
X0046000Y0047548D02*
X0047600Y0047548D01*
X0047600Y0048746D02*
X0046000Y0048746D01*
X0045789Y0049945D02*
X0047811Y0049945D01*
X0048404Y0051143D02*
X0045196Y0051143D01*
X0043741Y0052342D02*
X0049859Y0052342D01*
X0053741Y0052342D02*
X0059124Y0052342D01*
X0059389Y0052534D02*
X0058803Y0052109D01*
X0058291Y0051597D01*
X0057866Y0051011D01*
X0057537Y0050366D01*
X0057313Y0049677D01*
X0057200Y0048962D01*
X0057200Y0046000D01*
X0061400Y0046000D01*
X0061400Y0053194D01*
X0060723Y0053087D01*
X0060034Y0052863D01*
X0059389Y0052534D01*
X0057962Y0051143D02*
X0055196Y0051143D01*
X0055789Y0049945D02*
X0057400Y0049945D01*
X0057200Y0048746D02*
X0056000Y0048746D01*
X0056000Y0047548D02*
X0057200Y0047548D01*
X0057200Y0046349D02*
X0056000Y0046349D01*
X0056000Y0045151D02*
X0057200Y0045151D01*
X0057200Y0045200D02*
X0057200Y0042238D01*
X0057313Y0041523D01*
X0057537Y0040834D01*
X0057866Y0040189D01*
X0058291Y0039603D01*
X0058803Y0039091D01*
X0059389Y0038666D01*
X0060034Y0038337D01*
X0060723Y0038113D01*
X0061400Y0038006D01*
X0061400Y0045200D01*
X0062200Y0045200D01*
X0062200Y0046000D01*
X0066400Y0046000D01*
X0066400Y0048962D01*
X0066287Y0049677D01*
X0066063Y0050366D01*
X0065734Y0051011D01*
X0065309Y0051597D01*
X0064797Y0052109D01*
X0064211Y0052534D01*
X0063566Y0052863D01*
X0062877Y0053087D01*
X0062200Y0053194D01*
X0062200Y0046000D01*
X0061400Y0046000D01*
X0061400Y0045200D01*
X0057200Y0045200D01*
X0057200Y0043952D02*
X0056000Y0043952D01*
X0056000Y0042754D02*
X0057200Y0042754D01*
X0057308Y0041555D02*
X0055913Y0041555D01*
X0055417Y0040357D02*
X0057780Y0040357D01*
X0058736Y0039158D02*
X0054298Y0039158D01*
X0053600Y0037960D02*
X0151219Y0037960D01*
X0151520Y0036761D02*
X0053600Y0036761D01*
X0054383Y0035563D02*
X0062405Y0035563D01*
X0062555Y0035712D02*
X0061688Y0034845D01*
X0061219Y0033713D01*
X0061219Y0032487D01*
X0061688Y0031355D01*
X0062555Y0030488D01*
X0063687Y0030019D01*
X0064913Y0030019D01*
X0066045Y0030488D01*
X0066857Y0031300D01*
X0076743Y0031300D01*
X0077555Y0030488D01*
X0078687Y0030019D01*
X0079913Y0030019D01*
X0081045Y0030488D01*
X0081912Y0031355D01*
X0082381Y0032487D01*
X0082381Y0033713D01*
X0081912Y0034845D01*
X0081045Y0035712D01*
X0079913Y0036181D01*
X0078687Y0036181D01*
X0077555Y0035712D01*
X0076743Y0034900D01*
X0066857Y0034900D01*
X0066045Y0035712D01*
X0064913Y0036181D01*
X0063687Y0036181D01*
X0062555Y0035712D01*
X0061489Y0034364D02*
X0055581Y0034364D01*
X0056780Y0033166D02*
X0061219Y0033166D01*
X0061434Y0031967D02*
X0057978Y0031967D01*
X0059177Y0030769D02*
X0062274Y0030769D01*
X0060375Y0029570D02*
X0198225Y0029570D01*
X0199423Y0030769D02*
X0081326Y0030769D01*
X0082166Y0031967D02*
X0200622Y0031967D01*
X0201820Y0033166D02*
X0082381Y0033166D01*
X0082111Y0034364D02*
X0203019Y0034364D01*
X0204217Y0035563D02*
X0156120Y0035563D01*
X0157080Y0036761D02*
X0205416Y0036761D01*
X0206614Y0037960D02*
X0157381Y0037960D01*
X0157197Y0039158D02*
X0207813Y0039158D01*
X0209011Y0040357D02*
X0156400Y0040357D01*
X0152480Y0035563D02*
X0081195Y0035563D01*
X0079300Y0033100D02*
X0064300Y0033100D01*
X0066326Y0030769D02*
X0077274Y0030769D01*
X0077405Y0035563D02*
X0066195Y0035563D01*
X0063566Y0038337D02*
X0062877Y0038113D01*
X0062200Y0038006D01*
X0062200Y0045200D01*
X0066400Y0045200D01*
X0066400Y0042238D01*
X0066287Y0041523D01*
X0066063Y0040834D01*
X0065734Y0040189D01*
X0065309Y0039603D01*
X0064797Y0039091D01*
X0064211Y0038666D01*
X0063566Y0038337D01*
X0064864Y0039158D02*
X0069302Y0039158D01*
X0069421Y0039039D02*
X0070965Y0038400D01*
X0072635Y0038400D01*
X0074179Y0039039D01*
X0075361Y0040221D01*
X0076000Y0041765D01*
X0076000Y0049435D01*
X0075361Y0050979D01*
X0074179Y0052161D01*
X0072635Y0052800D01*
X0070965Y0052800D01*
X0069421Y0052161D01*
X0068239Y0050979D01*
X0067600Y0049435D01*
X0067600Y0041765D01*
X0068239Y0040221D01*
X0069421Y0039039D01*
X0068183Y0040357D02*
X0065820Y0040357D01*
X0066292Y0041555D02*
X0067687Y0041555D01*
X0067600Y0042754D02*
X0066400Y0042754D01*
X0066400Y0043952D02*
X0067600Y0043952D01*
X0067600Y0045151D02*
X0066400Y0045151D01*
X0066400Y0046349D02*
X0067600Y0046349D01*
X0067600Y0047548D02*
X0066400Y0047548D01*
X0066400Y0048746D02*
X0067600Y0048746D01*
X0067811Y0049945D02*
X0066200Y0049945D01*
X0065638Y0051143D02*
X0068404Y0051143D01*
X0069859Y0052342D02*
X0064476Y0052342D01*
X0062200Y0052342D02*
X0061400Y0052342D01*
X0061400Y0051143D02*
X0062200Y0051143D01*
X0062200Y0049945D02*
X0061400Y0049945D01*
X0061400Y0048746D02*
X0062200Y0048746D01*
X0062200Y0047548D02*
X0061400Y0047548D01*
X0061400Y0046349D02*
X0062200Y0046349D01*
X0062200Y0045151D02*
X0061400Y0045151D01*
X0061400Y0043952D02*
X0062200Y0043952D01*
X0062200Y0042754D02*
X0061400Y0042754D01*
X0061400Y0041555D02*
X0062200Y0041555D01*
X0062200Y0040357D02*
X0061400Y0040357D01*
X0061400Y0039158D02*
X0062200Y0039158D01*
X0052887Y0031967D02*
X0034372Y0031967D01*
X0034179Y0032161D02*
X0032635Y0032800D01*
X0030965Y0032800D01*
X0029421Y0032161D01*
X0028239Y0030979D01*
X0027600Y0029435D01*
X0027600Y0021765D01*
X0028239Y0020221D01*
X0029421Y0019039D01*
X0030965Y0018400D01*
X0032635Y0018400D01*
X0034179Y0019039D01*
X0035361Y0020221D01*
X0036000Y0021765D01*
X0036000Y0029435D01*
X0035361Y0030979D01*
X0034179Y0032161D01*
X0035448Y0030769D02*
X0054086Y0030769D01*
X0055284Y0029570D02*
X0035944Y0029570D01*
X0036000Y0028372D02*
X0056483Y0028372D01*
X0057681Y0027173D02*
X0036000Y0027173D01*
X0036000Y0025975D02*
X0058880Y0025975D01*
X0060078Y0024776D02*
X0036000Y0024776D01*
X0036000Y0023578D02*
X0061277Y0023578D01*
X0062475Y0022379D02*
X0036000Y0022379D01*
X0035758Y0021181D02*
X0063674Y0021181D01*
X0064872Y0019982D02*
X0035122Y0019982D01*
X0033562Y0018784D02*
X0231759Y0018784D01*
X0231688Y0018855D02*
X0232555Y0017988D01*
X0233687Y0017519D01*
X0234913Y0017519D01*
X0236045Y0017988D01*
X0236912Y0018855D01*
X0237381Y0019987D01*
X0237381Y0021213D01*
X0236912Y0022345D01*
X0236045Y0023212D01*
X0234913Y0023681D01*
X0233687Y0023681D01*
X0232555Y0023212D01*
X0231688Y0022345D01*
X0231219Y0021213D01*
X0231219Y0019987D01*
X0231688Y0018855D01*
X0231221Y0019982D02*
X0193728Y0019982D01*
X0194926Y0021181D02*
X0231219Y0021181D01*
X0231722Y0022379D02*
X0196125Y0022379D01*
X0197323Y0023578D02*
X0233437Y0023578D01*
X0235163Y0023578D02*
X0287121Y0023578D01*
X0287121Y0024776D02*
X0198522Y0024776D01*
X0199720Y0025975D02*
X0287121Y0025975D01*
X0287121Y0027173D02*
X0200919Y0027173D01*
X0202117Y0028372D02*
X0287121Y0028372D01*
X0287121Y0029570D02*
X0203316Y0029570D01*
X0204514Y0030769D02*
X0287121Y0030769D01*
X0287121Y0031967D02*
X0205713Y0031967D01*
X0206911Y0033166D02*
X0287121Y0033166D01*
X0287121Y0034364D02*
X0208110Y0034364D01*
X0209308Y0035563D02*
X0287121Y0035563D01*
X0287121Y0036761D02*
X0210507Y0036761D01*
X0211705Y0037960D02*
X0287121Y0037960D01*
X0287121Y0039158D02*
X0212904Y0039158D01*
X0214102Y0040357D02*
X0265371Y0040357D01*
X0265055Y0040488D02*
X0266187Y0040019D01*
X0267413Y0040019D01*
X0268545Y0040488D01*
X0269412Y0041355D01*
X0269881Y0042487D01*
X0269881Y0043713D01*
X0269412Y0044845D01*
X0268545Y0045712D01*
X0267413Y0046181D01*
X0266187Y0046181D01*
X0265055Y0045712D01*
X0264188Y0044845D01*
X0263719Y0043713D01*
X0263719Y0042487D01*
X0264188Y0041355D01*
X0265055Y0040488D01*
X0264105Y0041555D02*
X0215301Y0041555D01*
X0216499Y0042754D02*
X0263719Y0042754D01*
X0263818Y0043952D02*
X0217698Y0043952D01*
X0218896Y0045151D02*
X0264494Y0045151D01*
X0269106Y0045151D02*
X0287121Y0045151D01*
X0287121Y0046349D02*
X0220095Y0046349D01*
X0221293Y0047548D02*
X0287121Y0047548D01*
X0287121Y0048746D02*
X0222492Y0048746D01*
X0223690Y0049945D02*
X0287121Y0049945D01*
X0287121Y0051143D02*
X0224889Y0051143D01*
X0226088Y0052342D02*
X0287121Y0052342D01*
X0287121Y0053540D02*
X0262975Y0053540D01*
X0262635Y0053400D02*
X0264179Y0054039D01*
X0265361Y0055221D01*
X0266000Y0056765D01*
X0266000Y0064435D01*
X0265361Y0065979D01*
X0264179Y0067161D01*
X0262635Y0067800D01*
X0260965Y0067800D01*
X0259421Y0067161D01*
X0258239Y0065979D01*
X0257600Y0064435D01*
X0257600Y0056765D01*
X0258239Y0055221D01*
X0259421Y0054039D01*
X0260965Y0053400D01*
X0262635Y0053400D01*
X0260625Y0053540D02*
X0252975Y0053540D01*
X0252635Y0053400D02*
X0254179Y0054039D01*
X0255361Y0055221D01*
X0256000Y0056765D01*
X0256000Y0064435D01*
X0255361Y0065979D01*
X0254179Y0067161D01*
X0252635Y0067800D01*
X0250965Y0067800D01*
X0249421Y0067161D01*
X0248239Y0065979D01*
X0247600Y0064435D01*
X0247600Y0056765D01*
X0248239Y0055221D01*
X0249421Y0054039D01*
X0250965Y0053400D01*
X0252635Y0053400D01*
X0250625Y0053540D02*
X0242975Y0053540D01*
X0242635Y0053400D02*
X0244179Y0054039D01*
X0245361Y0055221D01*
X0246000Y0056765D01*
X0246000Y0064435D01*
X0245361Y0065979D01*
X0244179Y0067161D01*
X0242635Y0067800D01*
X0240965Y0067800D01*
X0239421Y0067161D01*
X0238239Y0065979D01*
X0237600Y0064435D01*
X0237600Y0056765D01*
X0238239Y0055221D01*
X0239421Y0054039D01*
X0240965Y0053400D01*
X0242635Y0053400D01*
X0240625Y0053540D02*
X0232975Y0053540D01*
X0234879Y0054739D02*
X0238721Y0054739D01*
X0237943Y0055937D02*
X0235657Y0055937D01*
X0236000Y0057136D02*
X0237600Y0057136D01*
X0237600Y0058334D02*
X0236000Y0058334D01*
X0236000Y0059533D02*
X0237600Y0059533D01*
X0237600Y0060732D02*
X0236000Y0060732D01*
X0236000Y0061930D02*
X0237600Y0061930D01*
X0237600Y0063129D02*
X0236000Y0063129D01*
X0236000Y0064327D02*
X0237600Y0064327D01*
X0238052Y0065526D02*
X0235548Y0065526D01*
X0234616Y0066724D02*
X0238984Y0066724D01*
X0244616Y0066724D02*
X0248984Y0066724D01*
X0248052Y0065526D02*
X0245548Y0065526D01*
X0246000Y0064327D02*
X0247600Y0064327D01*
X0247600Y0063129D02*
X0246000Y0063129D01*
X0246000Y0061930D02*
X0247600Y0061930D01*
X0247600Y0060732D02*
X0246000Y0060732D01*
X0246000Y0059533D02*
X0247600Y0059533D01*
X0247600Y0058334D02*
X0246000Y0058334D01*
X0246000Y0057136D02*
X0247600Y0057136D01*
X0247943Y0055937D02*
X0245657Y0055937D01*
X0244879Y0054739D02*
X0248721Y0054739D01*
X0254879Y0054739D02*
X0258721Y0054739D01*
X0257943Y0055937D02*
X0255657Y0055937D01*
X0256000Y0057136D02*
X0257600Y0057136D01*
X0257600Y0058334D02*
X0256000Y0058334D01*
X0256000Y0059533D02*
X0257600Y0059533D01*
X0257600Y0060732D02*
X0256000Y0060732D01*
X0256000Y0061930D02*
X0257600Y0061930D01*
X0257600Y0063129D02*
X0256000Y0063129D01*
X0256000Y0064327D02*
X0257600Y0064327D01*
X0258052Y0065526D02*
X0255548Y0065526D01*
X0254616Y0066724D02*
X0258984Y0066724D01*
X0264616Y0066724D02*
X0287121Y0066724D01*
X0287121Y0065526D02*
X0265548Y0065526D01*
X0266000Y0064327D02*
X0287121Y0064327D01*
X0287121Y0063129D02*
X0266000Y0063129D01*
X0266000Y0061930D02*
X0287121Y0061930D01*
X0287121Y0060732D02*
X0266000Y0060732D01*
X0266000Y0059533D02*
X0287121Y0059533D01*
X0287121Y0058334D02*
X0266000Y0058334D01*
X0266000Y0057136D02*
X0287121Y0057136D01*
X0287121Y0055937D02*
X0265657Y0055937D01*
X0264879Y0054739D02*
X0287121Y0054739D01*
X0287121Y0043952D02*
X0269782Y0043952D01*
X0269881Y0042754D02*
X0287121Y0042754D01*
X0287121Y0041555D02*
X0269495Y0041555D01*
X0268229Y0040357D02*
X0287121Y0040357D01*
X0287121Y0022379D02*
X0236878Y0022379D01*
X0237381Y0021181D02*
X0287121Y0021181D01*
X0287121Y0019982D02*
X0237379Y0019982D01*
X0236841Y0018784D02*
X0287121Y0018784D01*
X0287121Y0017585D02*
X0235073Y0017585D01*
X0233527Y0017585D02*
X0004034Y0017585D01*
X0004034Y0016387D02*
X0287121Y0016387D01*
X0287121Y0015188D02*
X0004035Y0015188D01*
X0004036Y0013990D02*
X0287121Y0013990D01*
X0287121Y0012791D02*
X0004037Y0012791D01*
X0004038Y0011593D02*
X0287121Y0011593D01*
X0287121Y0010394D02*
X0004038Y0010394D01*
X0004039Y0009196D02*
X0287121Y0009196D01*
X0287121Y0007997D02*
X0004040Y0007997D01*
X0004033Y0018784D02*
X0019227Y0018784D01*
X0019389Y0018666D02*
X0020034Y0018337D01*
X0020723Y0018113D01*
X0021400Y0018006D01*
X0021400Y0025200D01*
X0017200Y0025200D01*
X0017200Y0022238D01*
X0017313Y0021523D01*
X0017537Y0020834D01*
X0017866Y0020189D01*
X0018291Y0019603D01*
X0018803Y0019091D01*
X0019389Y0018666D01*
X0018016Y0019982D02*
X0004032Y0019982D01*
X0004031Y0021181D02*
X0017424Y0021181D01*
X0017200Y0022379D02*
X0004030Y0022379D01*
X0004030Y0023578D02*
X0017200Y0023578D01*
X0017200Y0024776D02*
X0004029Y0024776D01*
X0004028Y0025975D02*
X0021400Y0025975D01*
X0021400Y0026000D02*
X0021400Y0025200D01*
X0022200Y0025200D01*
X0022200Y0026000D01*
X0021400Y0026000D01*
X0021400Y0033194D01*
X0020723Y0033087D01*
X0020034Y0032863D01*
X0019389Y0032534D01*
X0018803Y0032109D01*
X0018291Y0031597D01*
X0017866Y0031011D01*
X0017537Y0030366D01*
X0017313Y0029677D01*
X0017200Y0028962D01*
X0017200Y0026000D01*
X0021400Y0026000D01*
X0022200Y0026000D02*
X0022200Y0033194D01*
X0022877Y0033087D01*
X0023566Y0032863D01*
X0024211Y0032534D01*
X0024797Y0032109D01*
X0025309Y0031597D01*
X0025734Y0031011D01*
X0026063Y0030366D01*
X0026287Y0029677D01*
X0026400Y0028962D01*
X0026400Y0026000D01*
X0022200Y0026000D01*
X0022200Y0025975D02*
X0027600Y0025975D01*
X0027600Y0027173D02*
X0026400Y0027173D01*
X0026400Y0028372D02*
X0027600Y0028372D01*
X0027656Y0029570D02*
X0026304Y0029570D01*
X0025858Y0030769D02*
X0028152Y0030769D01*
X0029228Y0031967D02*
X0024938Y0031967D01*
X0022200Y0031967D02*
X0021400Y0031967D01*
X0021400Y0030769D02*
X0022200Y0030769D01*
X0022200Y0029570D02*
X0021400Y0029570D01*
X0021400Y0028372D02*
X0022200Y0028372D01*
X0022200Y0027173D02*
X0021400Y0027173D01*
X0022200Y0025200D02*
X0026400Y0025200D01*
X0026400Y0022238D01*
X0026287Y0021523D01*
X0026063Y0020834D01*
X0025734Y0020189D01*
X0025309Y0019603D01*
X0024797Y0019091D01*
X0024211Y0018666D01*
X0023566Y0018337D01*
X0022877Y0018113D01*
X0022200Y0018006D01*
X0022200Y0025200D01*
X0022200Y0024776D02*
X0021400Y0024776D01*
X0021400Y0023578D02*
X0022200Y0023578D01*
X0022200Y0022379D02*
X0021400Y0022379D01*
X0021400Y0021181D02*
X0022200Y0021181D01*
X0022200Y0019982D02*
X0021400Y0019982D01*
X0021400Y0018784D02*
X0022200Y0018784D01*
X0024373Y0018784D02*
X0030038Y0018784D01*
X0028478Y0019982D02*
X0025584Y0019982D01*
X0026176Y0021181D02*
X0027842Y0021181D01*
X0027600Y0022379D02*
X0026400Y0022379D01*
X0026400Y0023578D02*
X0027600Y0023578D01*
X0027600Y0024776D02*
X0026400Y0024776D01*
X0022378Y0033166D02*
X0051689Y0033166D01*
X0050490Y0034364D02*
X0004022Y0034364D01*
X0004023Y0033166D02*
X0021222Y0033166D01*
X0021400Y0033166D02*
X0022200Y0033166D01*
X0018662Y0031967D02*
X0004024Y0031967D01*
X0004025Y0030769D02*
X0017742Y0030769D01*
X0017296Y0029570D02*
X0004025Y0029570D01*
X0004026Y0028372D02*
X0017200Y0028372D01*
X0017200Y0027173D02*
X0004027Y0027173D01*
X0004021Y0035563D02*
X0050000Y0035563D01*
X0050000Y0036761D02*
X0004021Y0036761D01*
X0024298Y0039158D02*
X0029302Y0039158D01*
X0029421Y0039039D02*
X0030965Y0038400D01*
X0032635Y0038400D01*
X0034179Y0039039D01*
X0035361Y0040221D01*
X0036000Y0041765D01*
X0036000Y0049435D01*
X0035361Y0050979D01*
X0034179Y0052161D01*
X0032635Y0052800D01*
X0030965Y0052800D01*
X0029421Y0052161D01*
X0028239Y0050979D01*
X0027600Y0049435D01*
X0027600Y0041765D01*
X0028239Y0040221D01*
X0029421Y0039039D01*
X0028183Y0040357D02*
X0025417Y0040357D01*
X0025913Y0041555D02*
X0027687Y0041555D01*
X0027600Y0042754D02*
X0026000Y0042754D01*
X0026000Y0043952D02*
X0027600Y0043952D01*
X0027600Y0045151D02*
X0026000Y0045151D01*
X0026000Y0046349D02*
X0027600Y0046349D01*
X0027600Y0047548D02*
X0026000Y0047548D01*
X0026000Y0048746D02*
X0027600Y0048746D01*
X0027811Y0049945D02*
X0025789Y0049945D01*
X0025196Y0051143D02*
X0028404Y0051143D01*
X0029859Y0052342D02*
X0023741Y0052342D01*
X0027276Y0057136D02*
X0087718Y0057136D01*
X0086520Y0058334D02*
X0028408Y0058334D01*
X0028904Y0059533D02*
X0085321Y0059533D01*
X0084123Y0060732D02*
X0029477Y0060732D01*
X0030676Y0061930D02*
X0082924Y0061930D01*
X0081726Y0063129D02*
X0031874Y0063129D01*
X0033073Y0064327D02*
X0080527Y0064327D01*
X0079329Y0065526D02*
X0034271Y0065526D01*
X0035470Y0066724D02*
X0078130Y0066724D01*
X0082023Y0067923D02*
X0140218Y0067923D01*
X0140034Y0067863D02*
X0140723Y0068087D01*
X0141400Y0068194D01*
X0141400Y0061000D01*
X0142200Y0061000D01*
X0146400Y0061000D01*
X0146400Y0063962D01*
X0146287Y0064677D01*
X0146063Y0065366D01*
X0145734Y0066011D01*
X0145309Y0066597D01*
X0144797Y0067109D01*
X0144211Y0067534D01*
X0143566Y0067863D01*
X0142877Y0068087D01*
X0142200Y0068194D01*
X0142200Y0061000D01*
X0142200Y0060200D01*
X0146400Y0060200D01*
X0146400Y0057238D01*
X0146287Y0056523D01*
X0146063Y0055834D01*
X0145734Y0055189D01*
X0145309Y0054603D01*
X0144797Y0054091D01*
X0144211Y0053666D01*
X0143566Y0053337D01*
X0142877Y0053113D01*
X0142200Y0053006D01*
X0142200Y0060200D01*
X0141400Y0060200D01*
X0141400Y0053006D01*
X0140723Y0053113D01*
X0140034Y0053337D01*
X0139389Y0053666D01*
X0138803Y0054091D01*
X0138291Y0054603D01*
X0137866Y0055189D01*
X0137537Y0055834D01*
X0137313Y0056523D01*
X0137200Y0057238D01*
X0137200Y0060200D01*
X0141400Y0060200D01*
X0141400Y0061000D01*
X0137200Y0061000D01*
X0137200Y0063962D01*
X0137313Y0064677D01*
X0137537Y0065366D01*
X0137866Y0066011D01*
X0138291Y0066597D01*
X0138803Y0067109D01*
X0139389Y0067534D01*
X0140034Y0067863D01*
X0141400Y0067923D02*
X0142200Y0067923D01*
X0143382Y0067923D02*
X0287121Y0067923D01*
X0287121Y0069121D02*
X0082867Y0069121D01*
X0084065Y0070320D02*
X0287121Y0070320D01*
X0287121Y0071518D02*
X0085264Y0071518D01*
X0081371Y0072717D02*
X0028469Y0072717D01*
X0034800Y0068600D02*
X0026800Y0060600D01*
X0021800Y0060600D01*
X0016823Y0064327D02*
X0004002Y0064327D01*
X0004003Y0063129D02*
X0015389Y0063129D01*
X0014805Y0061930D02*
X0004003Y0061930D01*
X0004004Y0060732D02*
X0014600Y0060732D01*
X0014696Y0059533D02*
X0004005Y0059533D01*
X0004006Y0058334D02*
X0015192Y0058334D01*
X0016324Y0057136D02*
X0004007Y0057136D01*
X0004008Y0055937D02*
X0088917Y0055937D01*
X0090115Y0054739D02*
X0004008Y0054739D01*
X0026777Y0064327D02*
X0027981Y0064327D01*
X0033741Y0052342D02*
X0039859Y0052342D01*
X0038404Y0051143D02*
X0035196Y0051143D01*
X0035789Y0049945D02*
X0037811Y0049945D01*
X0037600Y0048746D02*
X0036000Y0048746D01*
X0036000Y0047548D02*
X0037600Y0047548D01*
X0037600Y0046349D02*
X0036000Y0046349D01*
X0036000Y0045151D02*
X0037600Y0045151D01*
X0037600Y0043952D02*
X0036000Y0043952D01*
X0036000Y0042754D02*
X0037600Y0042754D01*
X0037687Y0041555D02*
X0035913Y0041555D01*
X0035417Y0040357D02*
X0038183Y0040357D01*
X0039302Y0039158D02*
X0034298Y0039158D01*
X0051800Y0035600D02*
X0051800Y0045600D01*
X0051800Y0035600D02*
X0066800Y0020600D01*
X0191800Y0020600D01*
X0231800Y0060600D01*
X0227600Y0060732D02*
X0226000Y0060732D01*
X0226000Y0061930D02*
X0227600Y0061930D01*
X0227600Y0063129D02*
X0226000Y0063129D01*
X0226000Y0064327D02*
X0227600Y0064327D01*
X0228052Y0065526D02*
X0225548Y0065526D01*
X0224616Y0066724D02*
X0228984Y0066724D01*
X0227600Y0059533D02*
X0226000Y0059533D01*
X0226000Y0058334D02*
X0226989Y0058334D01*
X0228485Y0054739D02*
X0228721Y0054739D01*
X0227286Y0053540D02*
X0230625Y0053540D01*
X0220996Y0052342D02*
X0201088Y0052342D01*
X0199889Y0051143D02*
X0219798Y0051143D01*
X0218599Y0049945D02*
X0198690Y0049945D01*
X0197492Y0048746D02*
X0217401Y0048746D01*
X0216202Y0047548D02*
X0196293Y0047548D01*
X0195095Y0046349D02*
X0215004Y0046349D01*
X0213805Y0045151D02*
X0193896Y0045151D01*
X0192698Y0043952D02*
X0212607Y0043952D01*
X0212975Y0053540D02*
X0220625Y0053540D01*
X0218721Y0054739D02*
X0214879Y0054739D01*
X0215657Y0055937D02*
X0217943Y0055937D01*
X0217600Y0057136D02*
X0216000Y0057136D01*
X0216000Y0058334D02*
X0217600Y0058334D01*
X0217600Y0059533D02*
X0216000Y0059533D01*
X0216000Y0060732D02*
X0217600Y0060732D01*
X0217600Y0061930D02*
X0216000Y0061930D01*
X0216000Y0063129D02*
X0217600Y0063129D01*
X0217600Y0064327D02*
X0216000Y0064327D01*
X0215548Y0065526D02*
X0218052Y0065526D01*
X0218984Y0066724D02*
X0214616Y0066724D01*
X0209721Y0073915D02*
X0203879Y0073915D01*
X0205253Y0075114D02*
X0208347Y0075114D01*
X0207787Y0076312D02*
X0205813Y0076312D01*
X0206000Y0077511D02*
X0207600Y0077511D01*
X0207600Y0078709D02*
X0206000Y0078709D01*
X0206000Y0079908D02*
X0207600Y0079908D01*
X0207600Y0081106D02*
X0206000Y0081106D01*
X0206000Y0082305D02*
X0207600Y0082305D01*
X0207600Y0083503D02*
X0206000Y0083503D01*
X0205890Y0084702D02*
X0207710Y0084702D01*
X0208207Y0085900D02*
X0205393Y0085900D01*
X0204241Y0087099D02*
X0209359Y0087099D01*
X0220000Y0089496D02*
X0190450Y0089496D01*
X0189251Y0090694D02*
X0220000Y0090694D01*
X0220547Y0091893D02*
X0188053Y0091893D01*
X0186854Y0093091D02*
X0221746Y0093091D01*
X0222944Y0094290D02*
X0185656Y0094290D01*
X0184457Y0095488D02*
X0239143Y0095488D01*
X0240341Y0096687D02*
X0183259Y0096687D01*
X0182060Y0097885D02*
X0241540Y0097885D01*
X0242738Y0099084D02*
X0180862Y0099084D01*
X0179663Y0100282D02*
X0243937Y0100282D01*
X0245135Y0101481D02*
X0178465Y0101481D01*
X0178600Y0101346D02*
X0178600Y0101346D01*
X0176800Y0100600D02*
X0124300Y0100600D01*
X0124131Y0097885D02*
X0176969Y0097885D01*
X0178168Y0096687D02*
X0168304Y0096687D01*
X0168291Y0096700D02*
X0165309Y0096700D01*
X0163200Y0094591D01*
X0163200Y0091609D01*
X0165309Y0089500D01*
X0168291Y0089500D01*
X0170400Y0091609D01*
X0170400Y0094591D01*
X0168291Y0096700D01*
X0169503Y0095488D02*
X0179366Y0095488D01*
X0180565Y0094290D02*
X0170400Y0094290D01*
X0170400Y0093091D02*
X0181763Y0093091D01*
X0182962Y0091893D02*
X0170400Y0091893D01*
X0169485Y0090694D02*
X0184160Y0090694D01*
X0185359Y0089496D02*
X0115741Y0089496D01*
X0116940Y0090694D02*
X0124115Y0090694D01*
X0123200Y0091609D02*
X0125309Y0089500D01*
X0128291Y0089500D01*
X0130400Y0091609D01*
X0130400Y0094591D01*
X0128291Y0096700D01*
X0125309Y0096700D01*
X0123200Y0094591D01*
X0123200Y0091609D01*
X0123200Y0091893D02*
X0118138Y0091893D01*
X0119337Y0093091D02*
X0123200Y0093091D01*
X0123200Y0094290D02*
X0120535Y0094290D01*
X0121734Y0095488D02*
X0124097Y0095488D01*
X0122932Y0096687D02*
X0125296Y0096687D01*
X0128304Y0096687D02*
X0165296Y0096687D01*
X0164097Y0095488D02*
X0129503Y0095488D01*
X0130400Y0094290D02*
X0163200Y0094290D01*
X0163200Y0093091D02*
X0130400Y0093091D01*
X0130400Y0091893D02*
X0163200Y0091893D01*
X0164115Y0090694D02*
X0129485Y0090694D01*
X0130965Y0087800D02*
X0129421Y0087161D01*
X0128239Y0085979D01*
X0127600Y0084435D01*
X0127600Y0076765D01*
X0128239Y0075221D01*
X0129421Y0074039D01*
X0130965Y0073400D01*
X0132635Y0073400D01*
X0134179Y0074039D01*
X0135361Y0075221D01*
X0136000Y0076765D01*
X0136000Y0084435D01*
X0135361Y0085979D01*
X0134179Y0087161D01*
X0132635Y0087800D01*
X0130965Y0087800D01*
X0129359Y0087099D02*
X0124241Y0087099D01*
X0124179Y0087161D02*
X0122635Y0087800D01*
X0120965Y0087800D01*
X0119421Y0087161D01*
X0118239Y0085979D01*
X0117600Y0084435D01*
X0117600Y0076765D01*
X0118239Y0075221D01*
X0119421Y0074039D01*
X0120965Y0073400D01*
X0122635Y0073400D01*
X0124179Y0074039D01*
X0125361Y0075221D01*
X0126000Y0076765D01*
X0126000Y0084435D01*
X0125361Y0085979D01*
X0124179Y0087161D01*
X0125393Y0085900D02*
X0128207Y0085900D01*
X0127710Y0084702D02*
X0125890Y0084702D01*
X0126000Y0083503D02*
X0127600Y0083503D01*
X0127600Y0082305D02*
X0126000Y0082305D01*
X0126000Y0081106D02*
X0127600Y0081106D01*
X0127600Y0079908D02*
X0126000Y0079908D01*
X0126000Y0078709D02*
X0127600Y0078709D01*
X0127600Y0077511D02*
X0126000Y0077511D01*
X0125813Y0076312D02*
X0127787Y0076312D01*
X0128347Y0075114D02*
X0125253Y0075114D01*
X0123879Y0073915D02*
X0129721Y0073915D01*
X0133879Y0073915D02*
X0139046Y0073915D01*
X0138803Y0074091D02*
X0139389Y0073666D01*
X0140034Y0073337D01*
X0140723Y0073113D01*
X0141400Y0073006D01*
X0141400Y0080200D01*
X0142200Y0080200D01*
X0142200Y0081000D01*
X0146400Y0081000D01*
X0146400Y0083962D01*
X0146287Y0084677D01*
X0146063Y0085366D01*
X0145734Y0086011D01*
X0145309Y0086597D01*
X0144797Y0087109D01*
X0144211Y0087534D01*
X0143566Y0087863D01*
X0142877Y0088087D01*
X0142200Y0088194D01*
X0142200Y0081000D01*
X0141400Y0081000D01*
X0141400Y0088194D01*
X0140723Y0088087D01*
X0140034Y0087863D01*
X0139389Y0087534D01*
X0138803Y0087109D01*
X0138291Y0086597D01*
X0137866Y0086011D01*
X0137537Y0085366D01*
X0137313Y0084677D01*
X0137200Y0083962D01*
X0137200Y0081000D01*
X0141400Y0081000D01*
X0141400Y0080200D01*
X0137200Y0080200D01*
X0137200Y0077238D01*
X0137313Y0076523D01*
X0137537Y0075834D01*
X0137866Y0075189D01*
X0138291Y0074603D01*
X0138803Y0074091D01*
X0137921Y0075114D02*
X0135253Y0075114D01*
X0135813Y0076312D02*
X0137382Y0076312D01*
X0137200Y0077511D02*
X0136000Y0077511D01*
X0136000Y0078709D02*
X0137200Y0078709D01*
X0137200Y0079908D02*
X0136000Y0079908D01*
X0136000Y0081106D02*
X0137200Y0081106D01*
X0137200Y0082305D02*
X0136000Y0082305D01*
X0136000Y0083503D02*
X0137200Y0083503D01*
X0137321Y0084702D02*
X0135890Y0084702D01*
X0135393Y0085900D02*
X0137809Y0085900D01*
X0138793Y0087099D02*
X0134241Y0087099D01*
X0141400Y0087099D02*
X0142200Y0087099D01*
X0142200Y0085900D02*
X0141400Y0085900D01*
X0141400Y0084702D02*
X0142200Y0084702D01*
X0142200Y0083503D02*
X0141400Y0083503D01*
X0141400Y0082305D02*
X0142200Y0082305D01*
X0142200Y0081106D02*
X0141400Y0081106D01*
X0141400Y0079908D02*
X0142200Y0079908D01*
X0142200Y0080200D02*
X0142200Y0073006D01*
X0142877Y0073113D01*
X0143566Y0073337D01*
X0144211Y0073666D01*
X0144797Y0074091D01*
X0145309Y0074603D01*
X0145734Y0075189D01*
X0146063Y0075834D01*
X0146287Y0076523D01*
X0146400Y0077238D01*
X0146400Y0080200D01*
X0142200Y0080200D01*
X0142200Y0078709D02*
X0141400Y0078709D01*
X0141400Y0077511D02*
X0142200Y0077511D01*
X0142200Y0076312D02*
X0141400Y0076312D01*
X0141400Y0075114D02*
X0142200Y0075114D01*
X0142200Y0073915D02*
X0141400Y0073915D01*
X0144554Y0073915D02*
X0149721Y0073915D01*
X0149421Y0074039D02*
X0150965Y0073400D01*
X0152635Y0073400D01*
X0154179Y0074039D01*
X0155361Y0075221D01*
X0156000Y0076765D01*
X0156000Y0084435D01*
X0155361Y0085979D01*
X0154179Y0087161D01*
X0152635Y0087800D01*
X0150965Y0087800D01*
X0149421Y0087161D01*
X0148239Y0085979D01*
X0147600Y0084435D01*
X0147600Y0076765D01*
X0148239Y0075221D01*
X0149421Y0074039D01*
X0148347Y0075114D02*
X0145679Y0075114D01*
X0146218Y0076312D02*
X0147787Y0076312D01*
X0147600Y0077511D02*
X0146400Y0077511D01*
X0146400Y0078709D02*
X0147600Y0078709D01*
X0147600Y0079908D02*
X0146400Y0079908D01*
X0146400Y0081106D02*
X0147600Y0081106D01*
X0147600Y0082305D02*
X0146400Y0082305D01*
X0146400Y0083503D02*
X0147600Y0083503D01*
X0147710Y0084702D02*
X0146279Y0084702D01*
X0145791Y0085900D02*
X0148207Y0085900D01*
X0149359Y0087099D02*
X0144807Y0087099D01*
X0154241Y0087099D02*
X0159359Y0087099D01*
X0159421Y0087161D02*
X0158239Y0085979D01*
X0157600Y0084435D01*
X0157600Y0076765D01*
X0158239Y0075221D01*
X0159421Y0074039D01*
X0160965Y0073400D01*
X0162635Y0073400D01*
X0164179Y0074039D01*
X0165361Y0075221D01*
X0166000Y0076765D01*
X0166000Y0084435D01*
X0165361Y0085979D01*
X0164179Y0087161D01*
X0162635Y0087800D01*
X0160965Y0087800D01*
X0159421Y0087161D01*
X0158207Y0085900D02*
X0155393Y0085900D01*
X0155890Y0084702D02*
X0157710Y0084702D01*
X0157600Y0083503D02*
X0156000Y0083503D01*
X0156000Y0082305D02*
X0157600Y0082305D01*
X0157600Y0081106D02*
X0156000Y0081106D01*
X0156000Y0079908D02*
X0157600Y0079908D01*
X0157600Y0078709D02*
X0156000Y0078709D01*
X0156000Y0077511D02*
X0157600Y0077511D01*
X0157787Y0076312D02*
X0155813Y0076312D01*
X0155253Y0075114D02*
X0158347Y0075114D01*
X0159721Y0073915D02*
X0153879Y0073915D01*
X0152635Y0067800D02*
X0150965Y0067800D01*
X0149421Y0067161D01*
X0148239Y0065979D01*
X0147600Y0064435D01*
X0147600Y0056765D01*
X0148239Y0055221D01*
X0149421Y0054039D01*
X0150965Y0053400D01*
X0152635Y0053400D01*
X0154179Y0054039D01*
X0155361Y0055221D01*
X0156000Y0056765D01*
X0156000Y0064435D01*
X0155361Y0065979D01*
X0154179Y0067161D01*
X0152635Y0067800D01*
X0154616Y0066724D02*
X0158984Y0066724D01*
X0159421Y0067161D02*
X0158239Y0065979D01*
X0157600Y0064435D01*
X0157600Y0056765D01*
X0158239Y0055221D01*
X0159421Y0054039D01*
X0160965Y0053400D01*
X0162635Y0053400D01*
X0164179Y0054039D01*
X0165361Y0055221D01*
X0166000Y0056765D01*
X0166000Y0064435D01*
X0165361Y0065979D01*
X0164179Y0067161D01*
X0162635Y0067800D01*
X0160965Y0067800D01*
X0159421Y0067161D01*
X0158052Y0065526D02*
X0155548Y0065526D01*
X0156000Y0064327D02*
X0157600Y0064327D01*
X0157600Y0063129D02*
X0156000Y0063129D01*
X0156000Y0061930D02*
X0157600Y0061930D01*
X0157600Y0060732D02*
X0156000Y0060732D01*
X0156000Y0059533D02*
X0157600Y0059533D01*
X0157600Y0058334D02*
X0156000Y0058334D01*
X0156000Y0057136D02*
X0157600Y0057136D01*
X0157943Y0055937D02*
X0155657Y0055937D01*
X0154879Y0054739D02*
X0158721Y0054739D01*
X0160625Y0053540D02*
X0152975Y0053540D01*
X0150625Y0053540D02*
X0143965Y0053540D01*
X0142200Y0053540D02*
X0141400Y0053540D01*
X0141400Y0054739D02*
X0142200Y0054739D01*
X0142200Y0055937D02*
X0141400Y0055937D01*
X0141400Y0057136D02*
X0142200Y0057136D01*
X0142200Y0058334D02*
X0141400Y0058334D01*
X0141400Y0059533D02*
X0142200Y0059533D01*
X0142200Y0060732D02*
X0147600Y0060732D01*
X0147600Y0061930D02*
X0146400Y0061930D01*
X0146400Y0063129D02*
X0147600Y0063129D01*
X0147600Y0064327D02*
X0146342Y0064327D01*
X0145982Y0065526D02*
X0148052Y0065526D01*
X0148984Y0066724D02*
X0145181Y0066724D01*
X0142200Y0066724D02*
X0141400Y0066724D01*
X0141400Y0065526D02*
X0142200Y0065526D01*
X0142200Y0064327D02*
X0141400Y0064327D01*
X0141400Y0063129D02*
X0142200Y0063129D01*
X0142200Y0061930D02*
X0141400Y0061930D01*
X0141400Y0060732D02*
X0136000Y0060732D01*
X0136000Y0061930D02*
X0137200Y0061930D01*
X0137200Y0063129D02*
X0136000Y0063129D01*
X0136000Y0064327D02*
X0137258Y0064327D01*
X0137618Y0065526D02*
X0135548Y0065526D01*
X0135361Y0065979D02*
X0134179Y0067161D01*
X0132635Y0067800D01*
X0130965Y0067800D01*
X0129421Y0067161D01*
X0128239Y0065979D01*
X0127600Y0064435D01*
X0127600Y0056765D01*
X0128239Y0055221D01*
X0129421Y0054039D01*
X0130965Y0053400D01*
X0132635Y0053400D01*
X0134179Y0054039D01*
X0135361Y0055221D01*
X0136000Y0056765D01*
X0136000Y0064435D01*
X0135361Y0065979D01*
X0134616Y0066724D02*
X0138419Y0066724D01*
X0137200Y0059533D02*
X0136000Y0059533D01*
X0136000Y0058334D02*
X0137200Y0058334D01*
X0137216Y0057136D02*
X0136000Y0057136D01*
X0135657Y0055937D02*
X0137503Y0055937D01*
X0138193Y0054739D02*
X0134879Y0054739D01*
X0132975Y0053540D02*
X0139635Y0053540D01*
X0145407Y0054739D02*
X0148721Y0054739D01*
X0147943Y0055937D02*
X0146097Y0055937D01*
X0146384Y0057136D02*
X0147600Y0057136D01*
X0147600Y0058334D02*
X0146400Y0058334D01*
X0146400Y0059533D02*
X0147600Y0059533D01*
X0162975Y0053540D02*
X0170625Y0053540D01*
X0170965Y0053400D02*
X0172635Y0053400D01*
X0174179Y0054039D01*
X0175361Y0055221D01*
X0176000Y0056765D01*
X0176000Y0064435D01*
X0175361Y0065979D01*
X0174179Y0067161D01*
X0172635Y0067800D01*
X0170965Y0067800D01*
X0169421Y0067161D01*
X0168239Y0065979D01*
X0167600Y0064435D01*
X0167600Y0056765D01*
X0168239Y0055221D01*
X0169421Y0054039D01*
X0170965Y0053400D01*
X0172975Y0053540D02*
X0180625Y0053540D01*
X0180965Y0053400D02*
X0182635Y0053400D01*
X0184179Y0054039D01*
X0185361Y0055221D01*
X0186000Y0056765D01*
X0186000Y0064435D01*
X0185361Y0065979D01*
X0184179Y0067161D01*
X0182635Y0067800D01*
X0180965Y0067800D01*
X0179421Y0067161D01*
X0178239Y0065979D01*
X0177600Y0064435D01*
X0177600Y0056765D01*
X0178239Y0055221D01*
X0179421Y0054039D01*
X0180965Y0053400D01*
X0182975Y0053540D02*
X0190625Y0053540D01*
X0188721Y0054739D02*
X0184879Y0054739D01*
X0185657Y0055937D02*
X0187943Y0055937D01*
X0187600Y0057136D02*
X0186000Y0057136D01*
X0186000Y0058334D02*
X0187600Y0058334D01*
X0187600Y0059533D02*
X0186000Y0059533D01*
X0186000Y0060732D02*
X0187600Y0060732D01*
X0187600Y0061930D02*
X0186000Y0061930D01*
X0186000Y0063129D02*
X0187600Y0063129D01*
X0187600Y0064327D02*
X0186000Y0064327D01*
X0185548Y0065526D02*
X0188052Y0065526D01*
X0188984Y0066724D02*
X0184616Y0066724D01*
X0178984Y0066724D02*
X0174616Y0066724D01*
X0175548Y0065526D02*
X0178052Y0065526D01*
X0177600Y0064327D02*
X0176000Y0064327D01*
X0176000Y0063129D02*
X0177600Y0063129D01*
X0177600Y0061930D02*
X0176000Y0061930D01*
X0176000Y0060732D02*
X0177600Y0060732D01*
X0177600Y0059533D02*
X0176000Y0059533D01*
X0176000Y0058334D02*
X0177600Y0058334D01*
X0177600Y0057136D02*
X0176000Y0057136D01*
X0175657Y0055937D02*
X0177943Y0055937D01*
X0178721Y0054739D02*
X0174879Y0054739D01*
X0168721Y0054739D02*
X0164879Y0054739D01*
X0165657Y0055937D02*
X0167943Y0055937D01*
X0167600Y0057136D02*
X0166000Y0057136D01*
X0166000Y0058334D02*
X0167600Y0058334D01*
X0167600Y0059533D02*
X0166000Y0059533D01*
X0166000Y0060732D02*
X0167600Y0060732D01*
X0167600Y0061930D02*
X0166000Y0061930D01*
X0166000Y0063129D02*
X0167600Y0063129D01*
X0167600Y0064327D02*
X0166000Y0064327D01*
X0165548Y0065526D02*
X0168052Y0065526D01*
X0168984Y0066724D02*
X0164616Y0066724D01*
X0163879Y0073915D02*
X0169721Y0073915D01*
X0169421Y0074039D02*
X0170965Y0073400D01*
X0172635Y0073400D01*
X0174179Y0074039D01*
X0175361Y0075221D01*
X0176000Y0076765D01*
X0176000Y0084435D01*
X0175361Y0085979D01*
X0174179Y0087161D01*
X0172635Y0087800D01*
X0170965Y0087800D01*
X0169421Y0087161D01*
X0168239Y0085979D01*
X0167600Y0084435D01*
X0167600Y0076765D01*
X0168239Y0075221D01*
X0169421Y0074039D01*
X0168347Y0075114D02*
X0165253Y0075114D01*
X0165813Y0076312D02*
X0167787Y0076312D01*
X0167600Y0077511D02*
X0166000Y0077511D01*
X0166000Y0078709D02*
X0167600Y0078709D01*
X0167600Y0079908D02*
X0166000Y0079908D01*
X0166000Y0081106D02*
X0167600Y0081106D01*
X0167600Y0082305D02*
X0166000Y0082305D01*
X0166000Y0083503D02*
X0167600Y0083503D01*
X0167710Y0084702D02*
X0165890Y0084702D01*
X0165393Y0085900D02*
X0168207Y0085900D01*
X0169359Y0087099D02*
X0164241Y0087099D01*
X0174241Y0087099D02*
X0179359Y0087099D01*
X0178207Y0085900D02*
X0175393Y0085900D01*
X0175890Y0084702D02*
X0177710Y0084702D01*
X0177600Y0083503D02*
X0176000Y0083503D01*
X0176000Y0082305D02*
X0177600Y0082305D01*
X0177600Y0081106D02*
X0176000Y0081106D01*
X0176000Y0079908D02*
X0177600Y0079908D01*
X0177600Y0078709D02*
X0176000Y0078709D01*
X0176000Y0077511D02*
X0177600Y0077511D01*
X0177787Y0076312D02*
X0175813Y0076312D01*
X0175253Y0075114D02*
X0178347Y0075114D01*
X0179721Y0073915D02*
X0173879Y0073915D01*
X0191800Y0080600D02*
X0191800Y0085600D01*
X0176800Y0100600D01*
X0180965Y0113400D02*
X0182635Y0113400D01*
X0184179Y0114039D01*
X0185361Y0115221D01*
X0186000Y0116765D01*
X0186000Y0124435D01*
X0185361Y0125979D01*
X0184179Y0127161D01*
X0182635Y0127800D01*
X0180965Y0127800D01*
X0179421Y0127161D01*
X0178239Y0125979D01*
X0177600Y0124435D01*
X0177600Y0116765D01*
X0178239Y0115221D01*
X0179421Y0114039D01*
X0180965Y0113400D01*
X0180805Y0113466D02*
X0172795Y0113466D01*
X0172635Y0113400D02*
X0174179Y0114039D01*
X0175361Y0115221D01*
X0176000Y0116765D01*
X0176000Y0124435D01*
X0175361Y0125979D01*
X0174179Y0127161D01*
X0172635Y0127800D01*
X0170965Y0127800D01*
X0169421Y0127161D01*
X0168239Y0125979D01*
X0167600Y0124435D01*
X0167600Y0116765D01*
X0168239Y0115221D01*
X0169421Y0114039D01*
X0170965Y0113400D01*
X0172635Y0113400D01*
X0170805Y0113466D02*
X0162795Y0113466D01*
X0162635Y0113400D02*
X0164179Y0114039D01*
X0165361Y0115221D01*
X0166000Y0116765D01*
X0166000Y0124435D01*
X0165361Y0125979D01*
X0164179Y0127161D01*
X0162635Y0127800D01*
X0160965Y0127800D01*
X0159421Y0127161D01*
X0158239Y0125979D01*
X0157600Y0124435D01*
X0157600Y0116765D01*
X0158239Y0115221D01*
X0159421Y0114039D01*
X0160965Y0113400D01*
X0162635Y0113400D01*
X0160805Y0113466D02*
X0152795Y0113466D01*
X0152635Y0113400D02*
X0154179Y0114039D01*
X0155361Y0115221D01*
X0156000Y0116765D01*
X0156000Y0124435D01*
X0155361Y0125979D01*
X0154179Y0127161D01*
X0152635Y0127800D01*
X0150965Y0127800D01*
X0149421Y0127161D01*
X0148239Y0125979D01*
X0147600Y0124435D01*
X0147600Y0116765D01*
X0148239Y0115221D01*
X0149421Y0114039D01*
X0150965Y0113400D01*
X0152635Y0113400D01*
X0150805Y0113466D02*
X0142795Y0113466D01*
X0142635Y0113400D02*
X0144179Y0114039D01*
X0145361Y0115221D01*
X0146000Y0116765D01*
X0146000Y0124435D01*
X0145361Y0125979D01*
X0144179Y0127161D01*
X0142635Y0127800D01*
X0140965Y0127800D01*
X0139421Y0127161D01*
X0138239Y0125979D01*
X0137600Y0124435D01*
X0137600Y0116765D01*
X0138239Y0115221D01*
X0139421Y0114039D01*
X0140965Y0113400D01*
X0142635Y0113400D01*
X0140805Y0113466D02*
X0136480Y0113466D01*
X0135281Y0114665D02*
X0138796Y0114665D01*
X0137973Y0115863D02*
X0135627Y0115863D01*
X0136000Y0117062D02*
X0137600Y0117062D01*
X0137600Y0118260D02*
X0136000Y0118260D01*
X0136000Y0119459D02*
X0137600Y0119459D01*
X0137600Y0120657D02*
X0136000Y0120657D01*
X0136000Y0121856D02*
X0137600Y0121856D01*
X0137600Y0123054D02*
X0136000Y0123054D01*
X0136000Y0124253D02*
X0137600Y0124253D01*
X0138021Y0125451D02*
X0135579Y0125451D01*
X0134690Y0126650D02*
X0138910Y0126650D01*
X0144690Y0126650D02*
X0148910Y0126650D01*
X0148021Y0125451D02*
X0145579Y0125451D01*
X0146000Y0124253D02*
X0147600Y0124253D01*
X0147600Y0123054D02*
X0146000Y0123054D01*
X0146000Y0121856D02*
X0147600Y0121856D01*
X0147600Y0120657D02*
X0146000Y0120657D01*
X0146000Y0119459D02*
X0147600Y0119459D01*
X0147600Y0118260D02*
X0146000Y0118260D01*
X0146000Y0117062D02*
X0147600Y0117062D01*
X0147973Y0115863D02*
X0145627Y0115863D01*
X0144804Y0114665D02*
X0148796Y0114665D01*
X0154804Y0114665D02*
X0158796Y0114665D01*
X0157973Y0115863D02*
X0155627Y0115863D01*
X0156000Y0117062D02*
X0157600Y0117062D01*
X0157600Y0118260D02*
X0156000Y0118260D01*
X0156000Y0119459D02*
X0157600Y0119459D01*
X0157600Y0120657D02*
X0156000Y0120657D01*
X0156000Y0121856D02*
X0157600Y0121856D01*
X0157600Y0123054D02*
X0156000Y0123054D01*
X0156000Y0124253D02*
X0157600Y0124253D01*
X0158021Y0125451D02*
X0155579Y0125451D01*
X0154690Y0126650D02*
X0158910Y0126650D01*
X0164690Y0126650D02*
X0168910Y0126650D01*
X0168021Y0125451D02*
X0165579Y0125451D01*
X0166000Y0124253D02*
X0167600Y0124253D01*
X0167600Y0123054D02*
X0166000Y0123054D01*
X0166000Y0121856D02*
X0167600Y0121856D01*
X0167600Y0120657D02*
X0166000Y0120657D01*
X0166000Y0119459D02*
X0167600Y0119459D01*
X0167600Y0118260D02*
X0166000Y0118260D01*
X0166000Y0117062D02*
X0167600Y0117062D01*
X0167973Y0115863D02*
X0165627Y0115863D01*
X0164804Y0114665D02*
X0168796Y0114665D01*
X0174804Y0114665D02*
X0178796Y0114665D01*
X0177973Y0115863D02*
X0175627Y0115863D01*
X0176000Y0117062D02*
X0177600Y0117062D01*
X0177600Y0118260D02*
X0176000Y0118260D01*
X0176000Y0119459D02*
X0177600Y0119459D01*
X0177600Y0120657D02*
X0176000Y0120657D01*
X0176000Y0121856D02*
X0177600Y0121856D01*
X0177600Y0123054D02*
X0176000Y0123054D01*
X0176000Y0124253D02*
X0177600Y0124253D01*
X0178021Y0125451D02*
X0175579Y0125451D01*
X0174690Y0126650D02*
X0178910Y0126650D01*
X0184690Y0126650D02*
X0188910Y0126650D01*
X0189421Y0127161D02*
X0188239Y0125979D01*
X0187600Y0124435D01*
X0187600Y0116765D01*
X0188239Y0115221D01*
X0189421Y0114039D01*
X0190965Y0113400D01*
X0192635Y0113400D01*
X0194179Y0114039D01*
X0195361Y0115221D01*
X0196000Y0116765D01*
X0196000Y0124435D01*
X0195361Y0125979D01*
X0194179Y0127161D01*
X0192635Y0127800D01*
X0190965Y0127800D01*
X0189421Y0127161D01*
X0188021Y0125451D02*
X0185579Y0125451D01*
X0186000Y0124253D02*
X0187600Y0124253D01*
X0187600Y0123054D02*
X0186000Y0123054D01*
X0186000Y0121856D02*
X0187600Y0121856D01*
X0187600Y0120657D02*
X0186000Y0120657D01*
X0186000Y0119459D02*
X0187600Y0119459D01*
X0187600Y0118260D02*
X0186000Y0118260D01*
X0186000Y0117062D02*
X0187600Y0117062D01*
X0187973Y0115863D02*
X0185627Y0115863D01*
X0184804Y0114665D02*
X0188796Y0114665D01*
X0190805Y0113466D02*
X0182795Y0113466D01*
X0192795Y0113466D02*
X0200805Y0113466D01*
X0200965Y0113400D02*
X0202635Y0113400D01*
X0204179Y0114039D01*
X0205361Y0115221D01*
X0206000Y0116765D01*
X0206000Y0124435D01*
X0205361Y0125979D01*
X0204179Y0127161D01*
X0202635Y0127800D01*
X0200965Y0127800D01*
X0199421Y0127161D01*
X0198239Y0125979D01*
X0197600Y0124435D01*
X0197600Y0116765D01*
X0198239Y0115221D01*
X0199421Y0114039D01*
X0200965Y0113400D01*
X0202795Y0113466D02*
X0210805Y0113466D01*
X0210965Y0113400D02*
X0212635Y0113400D01*
X0214179Y0114039D01*
X0215361Y0115221D01*
X0216000Y0116765D01*
X0216000Y0124435D01*
X0215361Y0125979D01*
X0214179Y0127161D01*
X0212635Y0127800D01*
X0210965Y0127800D01*
X0209421Y0127161D01*
X0208239Y0125979D01*
X0207600Y0124435D01*
X0207600Y0116765D01*
X0208239Y0115221D01*
X0209421Y0114039D01*
X0210965Y0113400D01*
X0212795Y0113466D02*
X0220805Y0113466D01*
X0220965Y0113400D02*
X0222635Y0113400D01*
X0224179Y0114039D01*
X0225361Y0115221D01*
X0226000Y0116765D01*
X0226000Y0124435D01*
X0225361Y0125979D01*
X0224179Y0127161D01*
X0222635Y0127800D01*
X0220965Y0127800D01*
X0219421Y0127161D01*
X0218239Y0125979D01*
X0217600Y0124435D01*
X0217600Y0116765D01*
X0218239Y0115221D01*
X0219421Y0114039D01*
X0220965Y0113400D01*
X0222795Y0113466D02*
X0230805Y0113466D01*
X0230965Y0113400D02*
X0232635Y0113400D01*
X0234179Y0114039D01*
X0235361Y0115221D01*
X0236000Y0116765D01*
X0236000Y0124435D01*
X0235361Y0125979D01*
X0234179Y0127161D01*
X0232635Y0127800D01*
X0230965Y0127800D01*
X0229421Y0127161D01*
X0228239Y0125979D01*
X0227600Y0124435D01*
X0227600Y0116765D01*
X0228239Y0115221D01*
X0229421Y0114039D01*
X0230965Y0113400D01*
X0232795Y0113466D02*
X0240805Y0113466D01*
X0240965Y0113400D02*
X0242635Y0113400D01*
X0244179Y0114039D01*
X0245361Y0115221D01*
X0246000Y0116765D01*
X0246000Y0124435D01*
X0245361Y0125979D01*
X0244179Y0127161D01*
X0242635Y0127800D01*
X0240965Y0127800D01*
X0239421Y0127161D01*
X0238239Y0125979D01*
X0237600Y0124435D01*
X0237600Y0116765D01*
X0238239Y0115221D01*
X0239421Y0114039D01*
X0240965Y0113400D01*
X0242795Y0113466D02*
X0250805Y0113466D01*
X0250965Y0113400D02*
X0252635Y0113400D01*
X0254179Y0114039D01*
X0255361Y0115221D01*
X0256000Y0116765D01*
X0256000Y0124435D01*
X0255361Y0125979D01*
X0254179Y0127161D01*
X0252635Y0127800D01*
X0250965Y0127800D01*
X0249421Y0127161D01*
X0248239Y0125979D01*
X0247600Y0124435D01*
X0247600Y0116765D01*
X0248239Y0115221D01*
X0249421Y0114039D01*
X0250965Y0113400D01*
X0252795Y0113466D02*
X0260805Y0113466D01*
X0260965Y0113400D02*
X0262635Y0113400D01*
X0264179Y0114039D01*
X0265361Y0115221D01*
X0266000Y0116765D01*
X0266000Y0124435D01*
X0265361Y0125979D01*
X0264179Y0127161D01*
X0262635Y0127800D01*
X0260965Y0127800D01*
X0259421Y0127161D01*
X0258239Y0125979D01*
X0257600Y0124435D01*
X0257600Y0116765D01*
X0258239Y0115221D01*
X0259421Y0114039D01*
X0260965Y0113400D01*
X0262795Y0113466D02*
X0274620Y0113466D01*
X0275000Y0114665D02*
X0264804Y0114665D01*
X0265627Y0115863D02*
X0275000Y0115863D01*
X0275000Y0117062D02*
X0266000Y0117062D01*
X0266000Y0118260D02*
X0275000Y0118260D01*
X0275000Y0119459D02*
X0266000Y0119459D01*
X0266000Y0120657D02*
X0275000Y0120657D01*
X0275000Y0121856D02*
X0266000Y0121856D01*
X0266000Y0123054D02*
X0275000Y0123054D01*
X0275000Y0124253D02*
X0266000Y0124253D01*
X0265579Y0125451D02*
X0275000Y0125451D01*
X0275000Y0126650D02*
X0264690Y0126650D01*
X0258910Y0126650D02*
X0254690Y0126650D01*
X0255579Y0125451D02*
X0258021Y0125451D01*
X0257600Y0124253D02*
X0256000Y0124253D01*
X0256000Y0123054D02*
X0257600Y0123054D01*
X0257600Y0121856D02*
X0256000Y0121856D01*
X0256000Y0120657D02*
X0257600Y0120657D01*
X0257600Y0119459D02*
X0256000Y0119459D01*
X0256000Y0118260D02*
X0257600Y0118260D01*
X0257600Y0117062D02*
X0256000Y0117062D01*
X0255627Y0115863D02*
X0257973Y0115863D01*
X0258796Y0114665D02*
X0254804Y0114665D01*
X0248796Y0114665D02*
X0244804Y0114665D01*
X0245627Y0115863D02*
X0247973Y0115863D01*
X0247600Y0117062D02*
X0246000Y0117062D01*
X0246000Y0118260D02*
X0247600Y0118260D01*
X0247600Y0119459D02*
X0246000Y0119459D01*
X0246000Y0120657D02*
X0247600Y0120657D01*
X0247600Y0121856D02*
X0246000Y0121856D01*
X0246000Y0123054D02*
X0247600Y0123054D01*
X0247600Y0124253D02*
X0246000Y0124253D01*
X0245579Y0125451D02*
X0248021Y0125451D01*
X0248910Y0126650D02*
X0244690Y0126650D01*
X0238910Y0126650D02*
X0234690Y0126650D01*
X0235579Y0125451D02*
X0238021Y0125451D01*
X0237600Y0124253D02*
X0236000Y0124253D01*
X0236000Y0123054D02*
X0237600Y0123054D01*
X0237600Y0121856D02*
X0236000Y0121856D01*
X0236000Y0120657D02*
X0237600Y0120657D01*
X0237600Y0119459D02*
X0236000Y0119459D01*
X0236000Y0118260D02*
X0237600Y0118260D01*
X0237600Y0117062D02*
X0236000Y0117062D01*
X0235627Y0115863D02*
X0237973Y0115863D01*
X0238796Y0114665D02*
X0234804Y0114665D01*
X0232678Y0112268D02*
X0273422Y0112268D01*
X0272223Y0111069D02*
X0233877Y0111069D01*
X0235075Y0109870D02*
X0271025Y0109870D01*
X0269826Y0108672D02*
X0238819Y0108672D01*
X0240018Y0107473D02*
X0268628Y0107473D01*
X0269300Y0105600D02*
X0251800Y0105600D01*
X0239300Y0093100D01*
X0224300Y0093100D01*
X0221800Y0090600D01*
X0221800Y0080600D01*
X0223600Y0089496D02*
X0248965Y0089496D01*
X0248043Y0090694D02*
X0224440Y0090694D01*
X0234241Y0087099D02*
X0239359Y0087099D01*
X0239421Y0087161D02*
X0238239Y0085979D01*
X0237600Y0084435D01*
X0237600Y0076765D01*
X0238239Y0075221D01*
X0239421Y0074039D01*
X0240965Y0073400D01*
X0242635Y0073400D01*
X0244179Y0074039D01*
X0245361Y0075221D01*
X0246000Y0076765D01*
X0246000Y0084435D01*
X0245361Y0085979D01*
X0244179Y0087161D01*
X0242635Y0087800D01*
X0240965Y0087800D01*
X0239421Y0087161D01*
X0238207Y0085900D02*
X0235393Y0085900D01*
X0235890Y0084702D02*
X0237710Y0084702D01*
X0237600Y0083503D02*
X0236000Y0083503D01*
X0236000Y0082305D02*
X0237600Y0082305D01*
X0237600Y0081106D02*
X0236000Y0081106D01*
X0236000Y0079908D02*
X0237600Y0079908D01*
X0237600Y0078709D02*
X0236000Y0078709D01*
X0236000Y0077511D02*
X0237600Y0077511D01*
X0237787Y0076312D02*
X0235813Y0076312D01*
X0235253Y0075114D02*
X0238347Y0075114D01*
X0239721Y0073915D02*
X0233879Y0073915D01*
X0243879Y0073915D02*
X0249721Y0073915D01*
X0249421Y0074039D02*
X0250965Y0073400D01*
X0252635Y0073400D01*
X0254179Y0074039D01*
X0255361Y0075221D01*
X0256000Y0076765D01*
X0256000Y0084435D01*
X0255361Y0085979D01*
X0254179Y0087161D01*
X0252635Y0087800D01*
X0250965Y0087800D01*
X0249421Y0087161D01*
X0248239Y0085979D01*
X0247600Y0084435D01*
X0247600Y0076765D01*
X0248239Y0075221D01*
X0249421Y0074039D01*
X0248347Y0075114D02*
X0245253Y0075114D01*
X0245813Y0076312D02*
X0247787Y0076312D01*
X0247600Y0077511D02*
X0246000Y0077511D01*
X0246000Y0078709D02*
X0247600Y0078709D01*
X0247600Y0079908D02*
X0246000Y0079908D01*
X0246000Y0081106D02*
X0247600Y0081106D01*
X0247600Y0082305D02*
X0246000Y0082305D01*
X0246000Y0083503D02*
X0247600Y0083503D01*
X0247710Y0084702D02*
X0245890Y0084702D01*
X0245393Y0085900D02*
X0248207Y0085900D01*
X0249359Y0087099D02*
X0244241Y0087099D01*
X0247600Y0091893D02*
X0240638Y0091893D01*
X0241837Y0093091D02*
X0247600Y0093091D01*
X0247600Y0094290D02*
X0243035Y0094290D01*
X0244234Y0095488D02*
X0247600Y0095488D01*
X0247600Y0096687D02*
X0245432Y0096687D01*
X0246631Y0097885D02*
X0247600Y0097885D01*
X0246334Y0102679D02*
X0238971Y0102679D01*
X0240169Y0103878D02*
X0247532Y0103878D01*
X0248731Y0105076D02*
X0240400Y0105076D01*
X0240400Y0106275D02*
X0249929Y0106275D01*
X0252927Y0102679D02*
X0259674Y0102679D01*
X0261400Y0102679D02*
X0262200Y0102679D01*
X0262200Y0101481D02*
X0261400Y0101481D01*
X0261400Y0100282D02*
X0262200Y0100282D01*
X0262200Y0099084D02*
X0261400Y0099084D01*
X0261400Y0097885D02*
X0262200Y0097885D01*
X0262200Y0096687D02*
X0261400Y0096687D01*
X0261400Y0095488D02*
X0256000Y0095488D01*
X0256000Y0094290D02*
X0257200Y0094290D01*
X0257200Y0093091D02*
X0256000Y0093091D01*
X0256000Y0091893D02*
X0257255Y0091893D01*
X0257608Y0090694D02*
X0255557Y0090694D01*
X0254635Y0089496D02*
X0258399Y0089496D01*
X0259359Y0087099D02*
X0254241Y0087099D01*
X0255393Y0085900D02*
X0258207Y0085900D01*
X0257710Y0084702D02*
X0255890Y0084702D01*
X0256000Y0083503D02*
X0257600Y0083503D01*
X0257600Y0082305D02*
X0256000Y0082305D01*
X0256000Y0081106D02*
X0257600Y0081106D01*
X0257600Y0079908D02*
X0256000Y0079908D01*
X0256000Y0078709D02*
X0257600Y0078709D01*
X0257600Y0077511D02*
X0256000Y0077511D01*
X0255813Y0076312D02*
X0257787Y0076312D01*
X0258347Y0075114D02*
X0255253Y0075114D01*
X0253879Y0073915D02*
X0259721Y0073915D01*
X0261400Y0089496D02*
X0262200Y0089496D01*
X0262200Y0090694D02*
X0261400Y0090694D01*
X0261400Y0091893D02*
X0262200Y0091893D01*
X0262200Y0093091D02*
X0261400Y0093091D01*
X0261400Y0094290D02*
X0262200Y0094290D01*
X0262200Y0095488D02*
X0287121Y0095488D01*
X0287121Y0094290D02*
X0266400Y0094290D01*
X0266400Y0093091D02*
X0287121Y0093091D01*
X0287121Y0091893D02*
X0266345Y0091893D01*
X0265992Y0090694D02*
X0287121Y0090694D01*
X0287121Y0089496D02*
X0265201Y0089496D01*
X0266400Y0096687D02*
X0287121Y0096687D01*
X0287121Y0097885D02*
X0266400Y0097885D01*
X0266381Y0099084D02*
X0287121Y0099084D01*
X0287121Y0100282D02*
X0266090Y0100282D01*
X0265393Y0101481D02*
X0287121Y0101481D01*
X0287121Y0102679D02*
X0263926Y0102679D01*
X0258207Y0101481D02*
X0254859Y0101481D01*
X0255649Y0100282D02*
X0257510Y0100282D01*
X0257219Y0099084D02*
X0256000Y0099084D01*
X0256000Y0097885D02*
X0257200Y0097885D01*
X0257200Y0096687D02*
X0256000Y0096687D01*
X0270124Y0103878D02*
X0287121Y0103878D01*
X0287121Y0105076D02*
X0271322Y0105076D01*
X0272521Y0106275D02*
X0287121Y0106275D01*
X0287121Y0107473D02*
X0273719Y0107473D01*
X0274918Y0108672D02*
X0287121Y0108672D01*
X0287121Y0109870D02*
X0276116Y0109870D01*
X0277315Y0111069D02*
X0287121Y0111069D01*
X0287121Y0112268D02*
X0278513Y0112268D01*
X0278600Y0113466D02*
X0287121Y0113466D01*
X0287121Y0114665D02*
X0278600Y0114665D01*
X0278600Y0115863D02*
X0287121Y0115863D01*
X0287121Y0117062D02*
X0278600Y0117062D01*
X0278600Y0118260D02*
X0287121Y0118260D01*
X0287121Y0119459D02*
X0278600Y0119459D01*
X0278600Y0120657D02*
X0287121Y0120657D01*
X0287121Y0121856D02*
X0278600Y0121856D01*
X0278600Y0123054D02*
X0287121Y0123054D01*
X0287121Y0124253D02*
X0278600Y0124253D01*
X0278600Y0125451D02*
X0287121Y0125451D01*
X0287121Y0126650D02*
X0278600Y0126650D01*
X0278600Y0127848D02*
X0287121Y0127848D01*
X0287121Y0129047D02*
X0278600Y0129047D01*
X0278600Y0130245D02*
X0287121Y0130245D01*
X0287121Y0131444D02*
X0278600Y0131444D01*
X0278600Y0132642D02*
X0287121Y0132642D01*
X0287121Y0133841D02*
X0278600Y0133841D01*
X0278600Y0135039D02*
X0287121Y0135039D01*
X0287121Y0136238D02*
X0278600Y0136238D01*
X0278600Y0137436D02*
X0287121Y0137436D01*
X0287121Y0138635D02*
X0278600Y0138635D01*
X0278600Y0139833D02*
X0287121Y0139833D01*
X0287121Y0141032D02*
X0278600Y0141032D01*
X0278600Y0142230D02*
X0287121Y0142230D01*
X0287121Y0143429D02*
X0278600Y0143429D01*
X0278600Y0144627D02*
X0287121Y0144627D01*
X0287121Y0145826D02*
X0278600Y0145826D01*
X0278600Y0147024D02*
X0287121Y0147024D01*
X0287121Y0148223D02*
X0278600Y0148223D01*
X0278600Y0149421D02*
X0287121Y0149421D01*
X0287121Y0150620D02*
X0278600Y0150620D01*
X0278127Y0151818D02*
X0287121Y0151818D01*
X0287121Y0153017D02*
X0276929Y0153017D01*
X0275730Y0154215D02*
X0287121Y0154215D01*
X0287121Y0155414D02*
X0275400Y0155414D01*
X0275400Y0156612D02*
X0287121Y0156612D01*
X0287121Y0157811D02*
X0274680Y0157811D01*
X0273482Y0159009D02*
X0287121Y0159009D01*
X0287121Y0160208D02*
X0174000Y0160208D01*
X0174000Y0159765D02*
X0174000Y0161435D01*
X0173361Y0162979D01*
X0172179Y0164161D01*
X0170635Y0164800D01*
X0162965Y0164800D01*
X0161421Y0164161D01*
X0160239Y0162979D01*
X0159600Y0161435D01*
X0159600Y0159765D01*
X0160239Y0158221D01*
X0161421Y0157039D01*
X0162965Y0156400D01*
X0170635Y0156400D01*
X0172179Y0157039D01*
X0173361Y0158221D01*
X0174000Y0159765D01*
X0173687Y0159009D02*
X0230118Y0159009D01*
X0230309Y0159200D02*
X0228200Y0157091D01*
X0228200Y0154109D01*
X0230309Y0152000D01*
X0233291Y0152000D01*
X0235400Y0154109D01*
X0235400Y0157091D01*
X0233291Y0159200D01*
X0230309Y0159200D01*
X0228920Y0157811D02*
X0172951Y0157811D01*
X0171148Y0156612D02*
X0228200Y0156612D01*
X0228200Y0155414D02*
X0144200Y0155414D01*
X0144200Y0156612D02*
X0162452Y0156612D01*
X0160649Y0157811D02*
X0144200Y0157811D01*
X0144200Y0159009D02*
X0159913Y0159009D01*
X0159600Y0160208D02*
X0144200Y0160208D01*
X0144200Y0161406D02*
X0159600Y0161406D01*
X0160084Y0162605D02*
X0144200Y0162605D01*
X0144200Y0163803D02*
X0161064Y0163803D01*
X0172536Y0163803D02*
X0228505Y0163803D01*
X0228200Y0165002D02*
X0144200Y0165002D01*
X0144200Y0154215D02*
X0228200Y0154215D01*
X0229292Y0153017D02*
X0144200Y0153017D01*
X0144200Y0151818D02*
X0273036Y0151818D01*
X0274235Y0150620D02*
X0144200Y0150620D01*
X0144200Y0149421D02*
X0275000Y0149421D01*
X0275000Y0148223D02*
X0144200Y0148223D01*
X0144315Y0147024D02*
X0149285Y0147024D01*
X0149421Y0147161D02*
X0148239Y0145979D01*
X0147600Y0144435D01*
X0147600Y0136765D01*
X0148239Y0135221D01*
X0149421Y0134039D01*
X0150965Y0133400D01*
X0152635Y0133400D01*
X0154179Y0134039D01*
X0155361Y0135221D01*
X0156000Y0136765D01*
X0156000Y0144435D01*
X0155361Y0145979D01*
X0154179Y0147161D01*
X0152635Y0147800D01*
X0150965Y0147800D01*
X0149421Y0147161D01*
X0148176Y0145826D02*
X0145424Y0145826D01*
X0145921Y0144627D02*
X0147679Y0144627D01*
X0147600Y0143429D02*
X0146000Y0143429D01*
X0146000Y0142230D02*
X0147600Y0142230D01*
X0147600Y0141032D02*
X0146000Y0141032D01*
X0146000Y0139833D02*
X0147600Y0139833D01*
X0147600Y0138635D02*
X0146000Y0138635D01*
X0146000Y0137436D02*
X0147600Y0137436D01*
X0147818Y0136238D02*
X0145782Y0136238D01*
X0145179Y0135039D02*
X0148421Y0135039D01*
X0149901Y0133841D02*
X0143699Y0133841D01*
X0139901Y0133841D02*
X0133699Y0133841D01*
X0134179Y0134039D02*
X0135361Y0135221D01*
X0136000Y0136765D01*
X0136000Y0144435D01*
X0135361Y0145979D01*
X0134179Y0147161D01*
X0132635Y0147800D01*
X0130965Y0147800D01*
X0129421Y0147161D01*
X0128239Y0145979D01*
X0127600Y0144435D01*
X0127600Y0136765D01*
X0128239Y0135221D01*
X0129421Y0134039D01*
X0130965Y0133400D01*
X0132635Y0133400D01*
X0134179Y0134039D01*
X0135179Y0135039D02*
X0138421Y0135039D01*
X0137818Y0136238D02*
X0135782Y0136238D01*
X0136000Y0137436D02*
X0137600Y0137436D01*
X0137600Y0138635D02*
X0136000Y0138635D01*
X0136000Y0139833D02*
X0137600Y0139833D01*
X0137600Y0141032D02*
X0136000Y0141032D01*
X0136000Y0142230D02*
X0137600Y0142230D01*
X0137600Y0143429D02*
X0136000Y0143429D01*
X0135921Y0144627D02*
X0137679Y0144627D01*
X0138176Y0145826D02*
X0135424Y0145826D01*
X0134315Y0147024D02*
X0139285Y0147024D01*
X0129285Y0147024D02*
X0124881Y0147024D01*
X0124797Y0147109D02*
X0124211Y0147534D01*
X0123566Y0147863D01*
X0122877Y0148087D01*
X0122200Y0148194D01*
X0122200Y0141000D01*
X0121400Y0141000D01*
X0121400Y0148194D01*
X0120723Y0148087D01*
X0120034Y0147863D01*
X0119389Y0147534D01*
X0118803Y0147109D01*
X0118291Y0146597D01*
X0117866Y0146011D01*
X0117537Y0145366D01*
X0117313Y0144677D01*
X0117200Y0143962D01*
X0117200Y0141000D01*
X0121400Y0141000D01*
X0121400Y0140200D01*
X0117200Y0140200D01*
X0117200Y0137238D01*
X0117313Y0136523D01*
X0117537Y0135834D01*
X0117866Y0135189D01*
X0118291Y0134603D01*
X0118803Y0134091D01*
X0119389Y0133666D01*
X0120034Y0133337D01*
X0120723Y0133113D01*
X0121400Y0133006D01*
X0121400Y0140200D01*
X0122200Y0140200D01*
X0122200Y0141000D01*
X0126400Y0141000D01*
X0126400Y0143962D01*
X0126287Y0144677D01*
X0126063Y0145366D01*
X0125734Y0146011D01*
X0125309Y0146597D01*
X0124797Y0147109D01*
X0125829Y0145826D02*
X0128176Y0145826D01*
X0127679Y0144627D02*
X0126295Y0144627D01*
X0126400Y0143429D02*
X0127600Y0143429D01*
X0127600Y0142230D02*
X0126400Y0142230D01*
X0126400Y0141032D02*
X0127600Y0141032D01*
X0127600Y0139833D02*
X0126400Y0139833D01*
X0126400Y0140200D02*
X0122200Y0140200D01*
X0122200Y0133006D01*
X0122877Y0133113D01*
X0123566Y0133337D01*
X0124211Y0133666D01*
X0124797Y0134091D01*
X0125309Y0134603D01*
X0125734Y0135189D01*
X0126063Y0135834D01*
X0126287Y0136523D01*
X0126400Y0137238D01*
X0126400Y0140200D01*
X0126400Y0138635D02*
X0127600Y0138635D01*
X0127600Y0137436D02*
X0126400Y0137436D01*
X0126194Y0136238D02*
X0127818Y0136238D01*
X0128421Y0135039D02*
X0125625Y0135039D01*
X0124452Y0133841D02*
X0129901Y0133841D01*
X0123566Y0127863D02*
X0122877Y0128087D01*
X0122200Y0128194D01*
X0122200Y0121000D01*
X0121400Y0121000D01*
X0121400Y0128194D01*
X0120723Y0128087D01*
X0120034Y0127863D01*
X0119389Y0127534D01*
X0118803Y0127109D01*
X0118291Y0126597D01*
X0117866Y0126011D01*
X0117537Y0125366D01*
X0117313Y0124677D01*
X0117200Y0123962D01*
X0117200Y0121000D01*
X0121400Y0121000D01*
X0121400Y0120200D01*
X0117200Y0120200D01*
X0117200Y0117238D01*
X0117313Y0116523D01*
X0117537Y0115834D01*
X0117866Y0115189D01*
X0118291Y0114603D01*
X0118803Y0114091D01*
X0119389Y0113666D01*
X0120034Y0113337D01*
X0120723Y0113113D01*
X0121400Y0113006D01*
X0121400Y0120200D01*
X0122200Y0120200D01*
X0122200Y0121000D01*
X0126400Y0121000D01*
X0126400Y0123962D01*
X0126287Y0124677D01*
X0126063Y0125366D01*
X0125734Y0126011D01*
X0125309Y0126597D01*
X0124797Y0127109D01*
X0124211Y0127534D01*
X0123566Y0127863D01*
X0123595Y0127848D02*
X0275000Y0127848D01*
X0275000Y0129047D02*
X0091747Y0129047D01*
X0090549Y0130245D02*
X0275000Y0130245D01*
X0275000Y0131444D02*
X0089350Y0131444D01*
X0088152Y0132642D02*
X0275000Y0132642D01*
X0275000Y0133841D02*
X0263699Y0133841D01*
X0264179Y0134039D02*
X0265361Y0135221D01*
X0266000Y0136765D01*
X0266000Y0144435D01*
X0265361Y0145979D01*
X0264179Y0147161D01*
X0262635Y0147800D01*
X0260965Y0147800D01*
X0259421Y0147161D01*
X0258239Y0145979D01*
X0257600Y0144435D01*
X0257600Y0136765D01*
X0258239Y0135221D01*
X0259421Y0134039D01*
X0260965Y0133400D01*
X0262635Y0133400D01*
X0264179Y0134039D01*
X0265179Y0135039D02*
X0275000Y0135039D01*
X0275000Y0136238D02*
X0265782Y0136238D01*
X0266000Y0137436D02*
X0275000Y0137436D01*
X0275000Y0138635D02*
X0266000Y0138635D01*
X0266000Y0139833D02*
X0275000Y0139833D01*
X0275000Y0141032D02*
X0266000Y0141032D01*
X0266000Y0142230D02*
X0275000Y0142230D01*
X0275000Y0143429D02*
X0266000Y0143429D01*
X0265921Y0144627D02*
X0275000Y0144627D01*
X0275000Y0145826D02*
X0265424Y0145826D01*
X0264315Y0147024D02*
X0275000Y0147024D01*
X0276800Y0150600D02*
X0276800Y0113100D01*
X0269300Y0105600D01*
X0236800Y0105600D02*
X0231800Y0110600D01*
X0136800Y0110600D01*
X0131800Y0115600D01*
X0131800Y0120600D01*
X0127600Y0120657D02*
X0122200Y0120657D01*
X0122200Y0120200D02*
X0126400Y0120200D01*
X0126400Y0117238D01*
X0126287Y0116523D01*
X0126063Y0115834D01*
X0125734Y0115189D01*
X0125309Y0114603D01*
X0124797Y0114091D01*
X0124211Y0113666D01*
X0123566Y0113337D01*
X0122877Y0113113D01*
X0122200Y0113006D01*
X0122200Y0120200D01*
X0122200Y0119459D02*
X0121400Y0119459D01*
X0121400Y0120657D02*
X0116000Y0120657D01*
X0116000Y0119459D02*
X0117200Y0119459D01*
X0117200Y0118260D02*
X0116000Y0118260D01*
X0116000Y0117062D02*
X0117228Y0117062D01*
X0117528Y0115863D02*
X0115627Y0115863D01*
X0115361Y0115221D02*
X0116000Y0116765D01*
X0116000Y0124435D01*
X0115361Y0125979D01*
X0114179Y0127161D01*
X0112635Y0127800D01*
X0110965Y0127800D01*
X0109421Y0127161D01*
X0108239Y0125979D01*
X0107600Y0124435D01*
X0107600Y0116765D01*
X0108239Y0115221D01*
X0109421Y0114039D01*
X0110965Y0113400D01*
X0112635Y0113400D01*
X0114179Y0114039D01*
X0115361Y0115221D01*
X0114804Y0114665D02*
X0118247Y0114665D01*
X0119781Y0113466D02*
X0112795Y0113466D01*
X0110805Y0113466D02*
X0106700Y0113466D01*
X0106700Y0112268D02*
X0132587Y0112268D01*
X0133785Y0111069D02*
X0106700Y0111069D01*
X0106700Y0109870D02*
X0134984Y0109870D01*
X0130805Y0113466D02*
X0123819Y0113466D01*
X0122200Y0113466D02*
X0121400Y0113466D01*
X0121400Y0114665D02*
X0122200Y0114665D01*
X0122200Y0115863D02*
X0121400Y0115863D01*
X0121400Y0117062D02*
X0122200Y0117062D01*
X0122200Y0118260D02*
X0121400Y0118260D01*
X0125353Y0114665D02*
X0128796Y0114665D01*
X0127973Y0115863D02*
X0126072Y0115863D01*
X0126372Y0117062D02*
X0127600Y0117062D01*
X0127600Y0118260D02*
X0126400Y0118260D01*
X0126400Y0119459D02*
X0127600Y0119459D01*
X0127600Y0121856D02*
X0126400Y0121856D01*
X0126400Y0123054D02*
X0127600Y0123054D01*
X0127600Y0124253D02*
X0126354Y0124253D01*
X0126020Y0125451D02*
X0128021Y0125451D01*
X0128910Y0126650D02*
X0125256Y0126650D01*
X0122200Y0126650D02*
X0121400Y0126650D01*
X0121400Y0127848D02*
X0122200Y0127848D01*
X0120005Y0127848D02*
X0092946Y0127848D01*
X0094144Y0126650D02*
X0108910Y0126650D01*
X0108021Y0125451D02*
X0095343Y0125451D01*
X0096541Y0124253D02*
X0107600Y0124253D01*
X0107600Y0123054D02*
X0097740Y0123054D01*
X0098938Y0121856D02*
X0107600Y0121856D01*
X0107600Y0120657D02*
X0100137Y0120657D01*
X0101336Y0119459D02*
X0107600Y0119459D01*
X0107600Y0118260D02*
X0102534Y0118260D01*
X0103733Y0117062D02*
X0107600Y0117062D01*
X0107973Y0115863D02*
X0104931Y0115863D01*
X0106130Y0114665D02*
X0108796Y0114665D01*
X0116000Y0121856D02*
X0117200Y0121856D01*
X0117200Y0123054D02*
X0116000Y0123054D01*
X0116000Y0124253D02*
X0117246Y0124253D01*
X0117580Y0125451D02*
X0115579Y0125451D01*
X0114690Y0126650D02*
X0118344Y0126650D01*
X0121400Y0125451D02*
X0122200Y0125451D01*
X0122200Y0124253D02*
X0121400Y0124253D01*
X0121400Y0123054D02*
X0122200Y0123054D01*
X0122200Y0121856D02*
X0121400Y0121856D01*
X0121400Y0133841D02*
X0122200Y0133841D01*
X0122200Y0135039D02*
X0121400Y0135039D01*
X0121400Y0136238D02*
X0122200Y0136238D01*
X0122200Y0137436D02*
X0121400Y0137436D01*
X0121400Y0138635D02*
X0122200Y0138635D01*
X0122200Y0139833D02*
X0121400Y0139833D01*
X0121400Y0141032D02*
X0122200Y0141032D01*
X0122200Y0142230D02*
X0121400Y0142230D01*
X0121400Y0143429D02*
X0122200Y0143429D01*
X0122200Y0144627D02*
X0121400Y0144627D01*
X0121400Y0145826D02*
X0122200Y0145826D01*
X0122200Y0147024D02*
X0121400Y0147024D01*
X0118719Y0147024D02*
X0114315Y0147024D01*
X0115424Y0145826D02*
X0117771Y0145826D01*
X0117305Y0144627D02*
X0115921Y0144627D01*
X0116000Y0143429D02*
X0117200Y0143429D01*
X0117200Y0142230D02*
X0116000Y0142230D01*
X0116000Y0141032D02*
X0117200Y0141032D01*
X0117200Y0139833D02*
X0116000Y0139833D01*
X0116000Y0138635D02*
X0117200Y0138635D01*
X0117200Y0137436D02*
X0116000Y0137436D01*
X0115782Y0136238D02*
X0117406Y0136238D01*
X0117975Y0135039D02*
X0115179Y0135039D01*
X0113699Y0133841D02*
X0119148Y0133841D01*
X0109901Y0133841D02*
X0086953Y0133841D01*
X0085755Y0135039D02*
X0108421Y0135039D01*
X0107818Y0136238D02*
X0084556Y0136238D01*
X0083358Y0137436D02*
X0107600Y0137436D01*
X0107600Y0138635D02*
X0082159Y0138635D01*
X0080961Y0139833D02*
X0107600Y0139833D01*
X0107600Y0141032D02*
X0079762Y0141032D01*
X0078564Y0142230D02*
X0107600Y0142230D01*
X0153699Y0133841D02*
X0159901Y0133841D01*
X0159421Y0134039D02*
X0160965Y0133400D01*
X0162635Y0133400D01*
X0164179Y0134039D01*
X0165361Y0135221D01*
X0166000Y0136765D01*
X0166000Y0144435D01*
X0165361Y0145979D01*
X0164179Y0147161D01*
X0162635Y0147800D01*
X0160965Y0147800D01*
X0159421Y0147161D01*
X0158239Y0145979D01*
X0157600Y0144435D01*
X0157600Y0136765D01*
X0158239Y0135221D01*
X0159421Y0134039D01*
X0158421Y0135039D02*
X0155179Y0135039D01*
X0155782Y0136238D02*
X0157818Y0136238D01*
X0157600Y0137436D02*
X0156000Y0137436D01*
X0156000Y0138635D02*
X0157600Y0138635D01*
X0157600Y0139833D02*
X0156000Y0139833D01*
X0156000Y0141032D02*
X0157600Y0141032D01*
X0157600Y0142230D02*
X0156000Y0142230D01*
X0156000Y0143429D02*
X0157600Y0143429D01*
X0157679Y0144627D02*
X0155921Y0144627D01*
X0155424Y0145826D02*
X0158176Y0145826D01*
X0159285Y0147024D02*
X0154315Y0147024D01*
X0164315Y0147024D02*
X0169285Y0147024D01*
X0169421Y0147161D02*
X0168239Y0145979D01*
X0167600Y0144435D01*
X0167600Y0136765D01*
X0168239Y0135221D01*
X0169421Y0134039D01*
X0170965Y0133400D01*
X0172635Y0133400D01*
X0174179Y0134039D01*
X0175361Y0135221D01*
X0176000Y0136765D01*
X0176000Y0144435D01*
X0175361Y0145979D01*
X0174179Y0147161D01*
X0172635Y0147800D01*
X0170965Y0147800D01*
X0169421Y0147161D01*
X0168176Y0145826D02*
X0165424Y0145826D01*
X0165921Y0144627D02*
X0167679Y0144627D01*
X0167600Y0143429D02*
X0166000Y0143429D01*
X0166000Y0142230D02*
X0167600Y0142230D01*
X0167600Y0141032D02*
X0166000Y0141032D01*
X0166000Y0139833D02*
X0167600Y0139833D01*
X0167600Y0138635D02*
X0166000Y0138635D01*
X0166000Y0137436D02*
X0167600Y0137436D01*
X0167818Y0136238D02*
X0165782Y0136238D01*
X0165179Y0135039D02*
X0168421Y0135039D01*
X0169901Y0133841D02*
X0163699Y0133841D01*
X0173699Y0133841D02*
X0179901Y0133841D01*
X0179421Y0134039D02*
X0180965Y0133400D01*
X0182635Y0133400D01*
X0184179Y0134039D01*
X0185361Y0135221D01*
X0186000Y0136765D01*
X0186000Y0144435D01*
X0185361Y0145979D01*
X0184179Y0147161D01*
X0182635Y0147800D01*
X0180965Y0147800D01*
X0179421Y0147161D01*
X0178239Y0145979D01*
X0177600Y0144435D01*
X0177600Y0136765D01*
X0178239Y0135221D01*
X0179421Y0134039D01*
X0178421Y0135039D02*
X0175179Y0135039D01*
X0175782Y0136238D02*
X0177818Y0136238D01*
X0177600Y0137436D02*
X0176000Y0137436D01*
X0176000Y0138635D02*
X0177600Y0138635D01*
X0177600Y0139833D02*
X0176000Y0139833D01*
X0176000Y0141032D02*
X0177600Y0141032D01*
X0177600Y0142230D02*
X0176000Y0142230D01*
X0176000Y0143429D02*
X0177600Y0143429D01*
X0177679Y0144627D02*
X0175921Y0144627D01*
X0175424Y0145826D02*
X0178176Y0145826D01*
X0179285Y0147024D02*
X0174315Y0147024D01*
X0184315Y0147024D02*
X0189285Y0147024D01*
X0189421Y0147161D02*
X0188239Y0145979D01*
X0187600Y0144435D01*
X0187600Y0136765D01*
X0188239Y0135221D01*
X0189421Y0134039D01*
X0190965Y0133400D01*
X0192635Y0133400D01*
X0194179Y0134039D01*
X0195361Y0135221D01*
X0196000Y0136765D01*
X0196000Y0144435D01*
X0195361Y0145979D01*
X0194179Y0147161D01*
X0192635Y0147800D01*
X0190965Y0147800D01*
X0189421Y0147161D01*
X0188176Y0145826D02*
X0185424Y0145826D01*
X0185921Y0144627D02*
X0187679Y0144627D01*
X0187600Y0143429D02*
X0186000Y0143429D01*
X0186000Y0142230D02*
X0187600Y0142230D01*
X0187600Y0141032D02*
X0186000Y0141032D01*
X0186000Y0139833D02*
X0187600Y0139833D01*
X0187600Y0138635D02*
X0186000Y0138635D01*
X0186000Y0137436D02*
X0187600Y0137436D01*
X0187818Y0136238D02*
X0185782Y0136238D01*
X0185179Y0135039D02*
X0188421Y0135039D01*
X0189901Y0133841D02*
X0183699Y0133841D01*
X0193699Y0133841D02*
X0199901Y0133841D01*
X0199421Y0134039D02*
X0200965Y0133400D01*
X0202635Y0133400D01*
X0204179Y0134039D01*
X0205361Y0135221D01*
X0206000Y0136765D01*
X0206000Y0144435D01*
X0205361Y0145979D01*
X0204179Y0147161D01*
X0202635Y0147800D01*
X0200965Y0147800D01*
X0199421Y0147161D01*
X0198239Y0145979D01*
X0197600Y0144435D01*
X0197600Y0136765D01*
X0198239Y0135221D01*
X0199421Y0134039D01*
X0198421Y0135039D02*
X0195179Y0135039D01*
X0195782Y0136238D02*
X0197818Y0136238D01*
X0197600Y0137436D02*
X0196000Y0137436D01*
X0196000Y0138635D02*
X0197600Y0138635D01*
X0197600Y0139833D02*
X0196000Y0139833D01*
X0196000Y0141032D02*
X0197600Y0141032D01*
X0197600Y0142230D02*
X0196000Y0142230D01*
X0196000Y0143429D02*
X0197600Y0143429D01*
X0197679Y0144627D02*
X0195921Y0144627D01*
X0195424Y0145826D02*
X0198176Y0145826D01*
X0199285Y0147024D02*
X0194315Y0147024D01*
X0204315Y0147024D02*
X0209285Y0147024D01*
X0209421Y0147161D02*
X0208239Y0145979D01*
X0207600Y0144435D01*
X0207600Y0136765D01*
X0208239Y0135221D01*
X0209421Y0134039D01*
X0210965Y0133400D01*
X0212635Y0133400D01*
X0214179Y0134039D01*
X0215361Y0135221D01*
X0216000Y0136765D01*
X0216000Y0144435D01*
X0215361Y0145979D01*
X0214179Y0147161D01*
X0212635Y0147800D01*
X0210965Y0147800D01*
X0209421Y0147161D01*
X0208176Y0145826D02*
X0205424Y0145826D01*
X0205921Y0144627D02*
X0207679Y0144627D01*
X0207600Y0143429D02*
X0206000Y0143429D01*
X0206000Y0142230D02*
X0207600Y0142230D01*
X0207600Y0141032D02*
X0206000Y0141032D01*
X0206000Y0139833D02*
X0207600Y0139833D01*
X0207600Y0138635D02*
X0206000Y0138635D01*
X0206000Y0137436D02*
X0207600Y0137436D01*
X0207818Y0136238D02*
X0205782Y0136238D01*
X0205179Y0135039D02*
X0208421Y0135039D01*
X0209901Y0133841D02*
X0203699Y0133841D01*
X0204690Y0126650D02*
X0208910Y0126650D01*
X0208021Y0125451D02*
X0205579Y0125451D01*
X0206000Y0124253D02*
X0207600Y0124253D01*
X0207600Y0123054D02*
X0206000Y0123054D01*
X0206000Y0121856D02*
X0207600Y0121856D01*
X0207600Y0120657D02*
X0206000Y0120657D01*
X0206000Y0119459D02*
X0207600Y0119459D01*
X0207600Y0118260D02*
X0206000Y0118260D01*
X0206000Y0117062D02*
X0207600Y0117062D01*
X0207973Y0115863D02*
X0205627Y0115863D01*
X0204804Y0114665D02*
X0208796Y0114665D01*
X0214804Y0114665D02*
X0218796Y0114665D01*
X0217973Y0115863D02*
X0215627Y0115863D01*
X0216000Y0117062D02*
X0217600Y0117062D01*
X0217600Y0118260D02*
X0216000Y0118260D01*
X0216000Y0119459D02*
X0217600Y0119459D01*
X0217600Y0120657D02*
X0216000Y0120657D01*
X0216000Y0121856D02*
X0217600Y0121856D01*
X0217600Y0123054D02*
X0216000Y0123054D01*
X0216000Y0124253D02*
X0217600Y0124253D01*
X0218021Y0125451D02*
X0215579Y0125451D01*
X0214690Y0126650D02*
X0218910Y0126650D01*
X0224690Y0126650D02*
X0228910Y0126650D01*
X0228021Y0125451D02*
X0225579Y0125451D01*
X0226000Y0124253D02*
X0227600Y0124253D01*
X0227600Y0123054D02*
X0226000Y0123054D01*
X0226000Y0121856D02*
X0227600Y0121856D01*
X0227600Y0120657D02*
X0226000Y0120657D01*
X0226000Y0119459D02*
X0227600Y0119459D01*
X0227600Y0118260D02*
X0226000Y0118260D01*
X0226000Y0117062D02*
X0227600Y0117062D01*
X0227973Y0115863D02*
X0225627Y0115863D01*
X0224804Y0114665D02*
X0228796Y0114665D01*
X0230965Y0133400D02*
X0229421Y0134039D01*
X0228239Y0135221D01*
X0227600Y0136765D01*
X0227600Y0144435D01*
X0228239Y0145979D01*
X0229421Y0147161D01*
X0230965Y0147800D01*
X0232635Y0147800D01*
X0234179Y0147161D01*
X0235361Y0145979D01*
X0236000Y0144435D01*
X0236000Y0136765D01*
X0235361Y0135221D01*
X0234179Y0134039D01*
X0232635Y0133400D01*
X0230965Y0133400D01*
X0229901Y0133841D02*
X0223699Y0133841D01*
X0224179Y0134039D02*
X0225361Y0135221D01*
X0226000Y0136765D01*
X0226000Y0144435D01*
X0225361Y0145979D01*
X0224179Y0147161D01*
X0222635Y0147800D01*
X0220965Y0147800D01*
X0219421Y0147161D01*
X0218239Y0145979D01*
X0217600Y0144435D01*
X0217600Y0136765D01*
X0218239Y0135221D01*
X0219421Y0134039D01*
X0220965Y0133400D01*
X0222635Y0133400D01*
X0224179Y0134039D01*
X0225179Y0135039D02*
X0228421Y0135039D01*
X0227818Y0136238D02*
X0225782Y0136238D01*
X0226000Y0137436D02*
X0227600Y0137436D01*
X0227600Y0138635D02*
X0226000Y0138635D01*
X0226000Y0139833D02*
X0227600Y0139833D01*
X0227600Y0141032D02*
X0226000Y0141032D01*
X0226000Y0142230D02*
X0227600Y0142230D01*
X0227600Y0143429D02*
X0226000Y0143429D01*
X0225921Y0144627D02*
X0227679Y0144627D01*
X0228176Y0145826D02*
X0225424Y0145826D01*
X0224315Y0147024D02*
X0229285Y0147024D01*
X0234315Y0147024D02*
X0239285Y0147024D01*
X0239421Y0147161D02*
X0238239Y0145979D01*
X0237600Y0144435D01*
X0237600Y0136765D01*
X0238239Y0135221D01*
X0239421Y0134039D01*
X0240965Y0133400D01*
X0242635Y0133400D01*
X0244179Y0134039D01*
X0245361Y0135221D01*
X0246000Y0136765D01*
X0246000Y0144435D01*
X0245361Y0145979D01*
X0244179Y0147161D01*
X0242635Y0147800D01*
X0240965Y0147800D01*
X0239421Y0147161D01*
X0238176Y0145826D02*
X0235424Y0145826D01*
X0235921Y0144627D02*
X0237679Y0144627D01*
X0237600Y0143429D02*
X0236000Y0143429D01*
X0236000Y0142230D02*
X0237600Y0142230D01*
X0237600Y0141032D02*
X0236000Y0141032D01*
X0236000Y0139833D02*
X0237600Y0139833D01*
X0237600Y0138635D02*
X0236000Y0138635D01*
X0236000Y0137436D02*
X0237600Y0137436D01*
X0237818Y0136238D02*
X0235782Y0136238D01*
X0235179Y0135039D02*
X0238421Y0135039D01*
X0239901Y0133841D02*
X0233699Y0133841D01*
X0243699Y0133841D02*
X0249901Y0133841D01*
X0249421Y0134039D02*
X0250965Y0133400D01*
X0252635Y0133400D01*
X0254179Y0134039D01*
X0255361Y0135221D01*
X0256000Y0136765D01*
X0256000Y0144435D01*
X0255361Y0145979D01*
X0254179Y0147161D01*
X0252635Y0147800D01*
X0250965Y0147800D01*
X0249421Y0147161D01*
X0248239Y0145979D01*
X0247600Y0144435D01*
X0247600Y0136765D01*
X0248239Y0135221D01*
X0249421Y0134039D01*
X0248421Y0135039D02*
X0245179Y0135039D01*
X0245782Y0136238D02*
X0247818Y0136238D01*
X0247600Y0137436D02*
X0246000Y0137436D01*
X0246000Y0138635D02*
X0247600Y0138635D01*
X0247600Y0139833D02*
X0246000Y0139833D01*
X0246000Y0141032D02*
X0247600Y0141032D01*
X0247600Y0142230D02*
X0246000Y0142230D01*
X0246000Y0143429D02*
X0247600Y0143429D01*
X0247679Y0144627D02*
X0245921Y0144627D01*
X0245424Y0145826D02*
X0248176Y0145826D01*
X0249285Y0147024D02*
X0244315Y0147024D01*
X0235400Y0154215D02*
X0268200Y0154215D01*
X0268200Y0155414D02*
X0235400Y0155414D01*
X0235400Y0156612D02*
X0268200Y0156612D01*
X0268920Y0157811D02*
X0234680Y0157811D01*
X0233482Y0159009D02*
X0270118Y0159009D01*
X0271800Y0155600D02*
X0276800Y0150600D01*
X0269292Y0153017D02*
X0234308Y0153017D01*
X0229704Y0162605D02*
X0173516Y0162605D01*
X0174000Y0161406D02*
X0287121Y0161406D01*
X0267600Y0178186D02*
X0266400Y0178186D01*
X0266400Y0179384D02*
X0267600Y0179384D01*
X0267600Y0180583D02*
X0266381Y0180583D01*
X0266090Y0181781D02*
X0267950Y0181781D01*
X0268740Y0182980D02*
X0265394Y0182980D01*
X0263928Y0184178D02*
X0270671Y0184178D01*
X0262200Y0184178D02*
X0261400Y0184178D01*
X0261400Y0182980D02*
X0262200Y0182980D01*
X0262200Y0181781D02*
X0261400Y0181781D01*
X0261400Y0180583D02*
X0262200Y0180583D01*
X0262200Y0179384D02*
X0261400Y0179384D01*
X0261400Y0178186D02*
X0262200Y0178186D01*
X0262200Y0175789D02*
X0261400Y0175789D01*
X0261400Y0174590D02*
X0262200Y0174590D01*
X0262200Y0173392D02*
X0261400Y0173392D01*
X0261400Y0172193D02*
X0262200Y0172193D01*
X0262200Y0170995D02*
X0261400Y0170995D01*
X0261400Y0169796D02*
X0262200Y0169796D01*
X0260160Y0169796D02*
X0217302Y0169796D01*
X0216655Y0168598D02*
X0229706Y0168598D01*
X0219285Y0147024D02*
X0214315Y0147024D01*
X0215424Y0145826D02*
X0218176Y0145826D01*
X0217679Y0144627D02*
X0215921Y0144627D01*
X0216000Y0143429D02*
X0217600Y0143429D01*
X0217600Y0142230D02*
X0216000Y0142230D01*
X0216000Y0141032D02*
X0217600Y0141032D01*
X0217600Y0139833D02*
X0216000Y0139833D01*
X0216000Y0138635D02*
X0217600Y0138635D01*
X0217600Y0137436D02*
X0216000Y0137436D01*
X0215782Y0136238D02*
X0217818Y0136238D01*
X0218421Y0135039D02*
X0215179Y0135039D01*
X0213699Y0133841D02*
X0219901Y0133841D01*
X0198910Y0126650D02*
X0194690Y0126650D01*
X0195579Y0125451D02*
X0198021Y0125451D01*
X0197600Y0124253D02*
X0196000Y0124253D01*
X0196000Y0123054D02*
X0197600Y0123054D01*
X0197600Y0121856D02*
X0196000Y0121856D01*
X0196000Y0120657D02*
X0197600Y0120657D01*
X0197600Y0119459D02*
X0196000Y0119459D01*
X0196000Y0118260D02*
X0197600Y0118260D01*
X0197600Y0117062D02*
X0196000Y0117062D01*
X0195627Y0115863D02*
X0197973Y0115863D01*
X0198796Y0114665D02*
X0194804Y0114665D01*
X0253699Y0133841D02*
X0259901Y0133841D01*
X0258421Y0135039D02*
X0255179Y0135039D01*
X0255782Y0136238D02*
X0257818Y0136238D01*
X0257600Y0137436D02*
X0256000Y0137436D01*
X0256000Y0138635D02*
X0257600Y0138635D01*
X0257600Y0139833D02*
X0256000Y0139833D01*
X0256000Y0141032D02*
X0257600Y0141032D01*
X0257600Y0142230D02*
X0256000Y0142230D01*
X0256000Y0143429D02*
X0257600Y0143429D01*
X0257679Y0144627D02*
X0255921Y0144627D01*
X0255424Y0145826D02*
X0258176Y0145826D01*
X0259285Y0147024D02*
X0254315Y0147024D01*
X0207600Y0059533D02*
X0206000Y0059533D01*
X0206000Y0058334D02*
X0207600Y0058334D01*
X0207600Y0057136D02*
X0206000Y0057136D01*
X0205657Y0055937D02*
X0207943Y0055937D01*
X0208721Y0054739D02*
X0204879Y0054739D01*
X0202975Y0053540D02*
X0210625Y0053540D01*
X0197026Y0028372D02*
X0061574Y0028372D01*
X0062772Y0027173D02*
X0195828Y0027173D01*
X0194629Y0025975D02*
X0063971Y0025975D01*
X0065169Y0024776D02*
X0193431Y0024776D01*
X0192232Y0023578D02*
X0066368Y0023578D01*
X0074298Y0039158D02*
X0079302Y0039158D01*
X0078183Y0040357D02*
X0075417Y0040357D01*
X0075913Y0041555D02*
X0077687Y0041555D01*
X0077600Y0042754D02*
X0076000Y0042754D01*
X0076000Y0043952D02*
X0077600Y0043952D01*
X0077600Y0045151D02*
X0076000Y0045151D01*
X0076000Y0046349D02*
X0077600Y0046349D01*
X0077600Y0047548D02*
X0076000Y0047548D01*
X0076000Y0048746D02*
X0077600Y0048746D01*
X0077811Y0049945D02*
X0075789Y0049945D01*
X0075196Y0051143D02*
X0078404Y0051143D01*
X0079859Y0052342D02*
X0073741Y0052342D01*
X0085619Y0064327D02*
X0107600Y0064327D01*
X0107600Y0064435D02*
X0108239Y0065979D01*
X0109421Y0067161D01*
X0110965Y0067800D01*
X0112635Y0067800D01*
X0114179Y0067161D01*
X0115361Y0065979D01*
X0116000Y0064435D01*
X0116000Y0056765D01*
X0115361Y0055221D01*
X0114179Y0054039D01*
X0112635Y0053400D01*
X0110965Y0053400D01*
X0109421Y0054039D01*
X0108239Y0055221D01*
X0107600Y0056765D01*
X0107600Y0064435D01*
X0108052Y0065526D02*
X0084420Y0065526D01*
X0083221Y0066724D02*
X0108984Y0066724D01*
X0107600Y0063129D02*
X0086817Y0063129D01*
X0088016Y0061930D02*
X0107600Y0061930D01*
X0107600Y0060732D02*
X0089214Y0060732D01*
X0090413Y0059533D02*
X0107600Y0059533D01*
X0107600Y0058334D02*
X0091611Y0058334D01*
X0092810Y0057136D02*
X0107600Y0057136D01*
X0107943Y0055937D02*
X0094008Y0055937D01*
X0095207Y0054739D02*
X0108721Y0054739D01*
X0110625Y0053540D02*
X0096405Y0053540D01*
X0112975Y0053540D02*
X0120625Y0053540D01*
X0120965Y0053400D02*
X0122635Y0053400D01*
X0124179Y0054039D01*
X0125361Y0055221D01*
X0126000Y0056765D01*
X0126000Y0064435D01*
X0125361Y0065979D01*
X0124179Y0067161D01*
X0122635Y0067800D01*
X0120965Y0067800D01*
X0119421Y0067161D01*
X0118239Y0065979D01*
X0117600Y0064435D01*
X0117600Y0056765D01*
X0118239Y0055221D01*
X0119421Y0054039D01*
X0120965Y0053400D01*
X0122975Y0053540D02*
X0130625Y0053540D01*
X0128721Y0054739D02*
X0124879Y0054739D01*
X0125657Y0055937D02*
X0127943Y0055937D01*
X0127600Y0057136D02*
X0126000Y0057136D01*
X0126000Y0058334D02*
X0127600Y0058334D01*
X0127600Y0059533D02*
X0126000Y0059533D01*
X0126000Y0060732D02*
X0127600Y0060732D01*
X0127600Y0061930D02*
X0126000Y0061930D01*
X0126000Y0063129D02*
X0127600Y0063129D01*
X0127600Y0064327D02*
X0126000Y0064327D01*
X0125548Y0065526D02*
X0128052Y0065526D01*
X0128984Y0066724D02*
X0124616Y0066724D01*
X0118984Y0066724D02*
X0114616Y0066724D01*
X0115548Y0065526D02*
X0118052Y0065526D01*
X0117600Y0064327D02*
X0116000Y0064327D01*
X0116000Y0063129D02*
X0117600Y0063129D01*
X0117600Y0061930D02*
X0116000Y0061930D01*
X0116000Y0060732D02*
X0117600Y0060732D01*
X0117600Y0059533D02*
X0116000Y0059533D01*
X0116000Y0058334D02*
X0117600Y0058334D01*
X0117600Y0057136D02*
X0116000Y0057136D01*
X0115657Y0055937D02*
X0117943Y0055937D01*
X0118721Y0054739D02*
X0114879Y0054739D01*
X0113879Y0073915D02*
X0119721Y0073915D01*
X0118347Y0075114D02*
X0115253Y0075114D01*
X0115813Y0076312D02*
X0117787Y0076312D01*
X0117600Y0077511D02*
X0116000Y0077511D01*
X0116000Y0078709D02*
X0117600Y0078709D01*
X0117600Y0079908D02*
X0116000Y0079908D01*
X0116000Y0081106D02*
X0117600Y0081106D01*
X0117600Y0082305D02*
X0116000Y0082305D01*
X0116000Y0083503D02*
X0117600Y0083503D01*
X0117710Y0084702D02*
X0115890Y0084702D01*
X0115393Y0085900D02*
X0118207Y0085900D01*
X0119359Y0087099D02*
X0114241Y0087099D01*
X0114246Y0093091D02*
X0090185Y0093091D01*
X0091384Y0094290D02*
X0115444Y0094290D01*
X0116643Y0095488D02*
X0092582Y0095488D01*
X0093781Y0096687D02*
X0117841Y0096687D01*
X0119040Y0097885D02*
X0115798Y0097885D01*
X0117007Y0099084D02*
X0120238Y0099084D01*
X0121437Y0100282D02*
X0117381Y0100282D01*
X0112802Y0097885D02*
X0094979Y0097885D01*
X0060791Y0177000D02*
X0057809Y0177000D01*
X0055700Y0179109D01*
X0055700Y0182091D01*
X0057809Y0184200D01*
X0060791Y0184200D01*
X0062900Y0182091D01*
X0062900Y0179109D01*
X0060791Y0177000D01*
X0061977Y0178186D02*
X0066623Y0178186D01*
X0065700Y0179384D02*
X0062900Y0179384D01*
X0062900Y0180583D02*
X0065700Y0180583D01*
X0065700Y0181781D02*
X0062900Y0181781D01*
X0062011Y0182980D02*
X0066589Y0182980D01*
X0067787Y0184178D02*
X0060813Y0184178D01*
X0057787Y0184178D02*
X0003920Y0184178D01*
X0003921Y0182980D02*
X0056589Y0182980D01*
X0055700Y0181781D02*
X0003922Y0181781D01*
X0003923Y0180583D02*
X0055700Y0180583D01*
X0055700Y0179384D02*
X0003924Y0179384D01*
X0003925Y0178186D02*
X0056623Y0178186D01*
X0057643Y0191600D02*
X0059100Y0191600D01*
X0059100Y0195400D01*
X0059500Y0195400D01*
X0059500Y0195800D01*
X0063300Y0195800D01*
X0063300Y0197257D01*
X0060957Y0199600D01*
X0059500Y0199600D01*
X0059500Y0195800D01*
X0059100Y0195800D01*
X0059100Y0199600D01*
X0057643Y0199600D01*
X0055300Y0197257D01*
X0055300Y0195800D01*
X0059100Y0195800D01*
X0059100Y0195400D01*
X0055300Y0195400D01*
X0055300Y0193943D01*
X0057643Y0191600D01*
X0056675Y0192568D02*
X0003915Y0192568D01*
X0003914Y0193766D02*
X0055477Y0193766D01*
X0055300Y0194965D02*
X0003913Y0194965D01*
X0003912Y0196163D02*
X0055300Y0196163D01*
X0055405Y0197362D02*
X0003912Y0197362D01*
X0003911Y0198560D02*
X0056603Y0198560D01*
X0059100Y0198560D02*
X0059500Y0198560D01*
X0059500Y0197362D02*
X0059100Y0197362D01*
X0059100Y0196163D02*
X0059500Y0196163D01*
X0059500Y0195400D02*
X0063300Y0195400D01*
X0063300Y0193943D01*
X0060957Y0191600D01*
X0059500Y0191600D01*
X0059500Y0195400D01*
X0059500Y0194965D02*
X0059100Y0194965D01*
X0059100Y0193766D02*
X0059500Y0193766D01*
X0059500Y0192568D02*
X0059100Y0192568D01*
X0061925Y0192568D02*
X0067241Y0192568D01*
X0067809Y0192000D02*
X0070791Y0192000D01*
X0072900Y0194109D01*
X0072900Y0197091D01*
X0070791Y0199200D01*
X0067809Y0199200D01*
X0065700Y0197091D01*
X0065700Y0194109D01*
X0067809Y0192000D01*
X0066043Y0193766D02*
X0063123Y0193766D01*
X0063300Y0194965D02*
X0065700Y0194965D01*
X0065700Y0196163D02*
X0063300Y0196163D01*
X0063195Y0197362D02*
X0065971Y0197362D01*
X0067169Y0198560D02*
X0061997Y0198560D01*
X0071431Y0198560D02*
X0084669Y0198560D01*
X0085309Y0199200D02*
X0083200Y0197091D01*
X0083200Y0194109D01*
X0085309Y0192000D01*
X0088291Y0192000D01*
X0090400Y0194109D01*
X0090400Y0197091D01*
X0088291Y0199200D01*
X0085309Y0199200D01*
X0083471Y0197362D02*
X0072629Y0197362D01*
X0072900Y0196163D02*
X0083200Y0196163D01*
X0083200Y0194965D02*
X0072900Y0194965D01*
X0072557Y0193766D02*
X0083543Y0193766D01*
X0084741Y0192568D02*
X0071359Y0192568D01*
X0088859Y0192568D02*
X0094175Y0192568D01*
X0092977Y0193766D02*
X0090057Y0193766D01*
X0090400Y0194965D02*
X0092800Y0194965D01*
X0092800Y0196163D02*
X0090400Y0196163D01*
X0090129Y0197362D02*
X0092905Y0197362D01*
X0094103Y0198560D02*
X0088931Y0198560D01*
D13*
X0089300Y0173100D03*
X0029300Y0140600D03*
X0084300Y0090600D03*
X0061800Y0080600D03*
X0036800Y0088100D03*
X0064300Y0033100D03*
X0079300Y0033100D03*
X0154300Y0038100D03*
X0114300Y0100600D03*
X0151800Y0173100D03*
X0214300Y0170600D03*
X0266800Y0043100D03*
X0234300Y0020600D03*
D14*
X0114300Y0100600D02*
X0104300Y0100600D01*
X0104300Y0113100D01*
X0076800Y0140600D01*
X0069300Y0140600D01*
X0094300Y0100600D02*
X0104300Y0100600D01*
X0094300Y0100600D02*
X0084300Y0090600D01*
X0141800Y0140600D02*
X0141800Y0168100D01*
X0121800Y0188100D01*
X0121800Y0200600D01*
M02*
